<?xml version="1.0" encoding="utf-8"?>
<!-- Generator: Adobe Illustrator 25.4.1, SVG Export Plug-In . SVG Version: 6.00 Build 0)  -->
<svg version="1.1" id="Capa_1" xmlns="http://www.w3.org/2000/svg" xmlns:xlink="http://www.w3.org/1999/xlink" x="0px" y="0px"
	 viewBox="0 0 24 24" style="enable-background:new 0 0 24 24;" xml:space="preserve">
<style type="text/css">
	.st0{fill:#263238;}
</style>
<g>
	<path class="st0" d="M12,0C5.4,0,0,5.4,0,12s5.4,12,12,12s12-5.4,12-12S18.6,0,12,0z M12,23.1c-6.1,0-11.1-5-11.1-11.1
		S5.9,0.9,12,0.9s11.1,5,11.1,11.1S18.1,23.1,12,23.1z"/>
	<path class="st0" d="M16.8,11.5h-4.3V7.2c0-0.3-0.2-0.5-0.5-0.5s-0.5,0.2-0.5,0.5v4.3H7.2c-0.3,0-0.5,0.2-0.5,0.5s0.2,0.5,0.5,0.5
		h4.3v4.3c0,0.3,0.2,0.5,0.5,0.5s0.5-0.2,0.5-0.5v-4.3h4.3c0.3,0,0.5-0.2,0.5-0.5C17.3,11.7,17.1,11.5,16.8,11.5z"/>
</g>
</svg>
