<?xml version="1.0" encoding="utf-8"?>
<!-- Generator: Adobe Illustrator 25.4.1, SVG Export Plug-In . SVG Version: 6.00 Build 0)  -->
<svg version="1.1" id="Capa_1" xmlns="http://www.w3.org/2000/svg" xmlns:xlink="http://www.w3.org/1999/xlink" x="0px" y="0px"
	 viewBox="0 0 24 24" style="enable-background:new 0 0 24 24;" xml:space="preserve">
<style type="text/css">
	.st0{fill:#263238;}
</style>
<g>
	<path class="st0" d="M22.1,0.9H2c-1.1,0-2,0.9-2,2v1.3c0,1,0.8,1.9,1.8,2l0,0v14.2c0,0.7,0.3,1.4,0.8,1.9c0.5,0.5,1.2,0.8,1.9,0.8
		h15.1c0.7,0,1.4-0.3,1.9-0.8s0.8-1.2,0.8-1.9V6.2l0,0c1-0.1,1.8-1,1.8-2V2.9C24,1.8,23.2,0.9,22.1,0.9z M20.8,21.7
		c-0.3,0.3-0.8,0.5-1.3,0.5H4.5c-0.5,0-0.9-0.2-1.3-0.5c-0.3-0.3-0.5-0.8-0.5-1.3V6.2h18.6v14.2C21.4,20.9,21.2,21.3,20.8,21.7z
		 M23.1,4.2c0,0.6-0.5,1.1-1.1,1.1H2c-0.6,0-1.1-0.5-1.1-1.1V2.9c0-0.6,0.5-1.1,1.1-1.1h20c0.6,0,1.1,0.5,1.1,1.1V4.2z"/>
	<path class="st0" d="M15.3,14.3l-2.8,2.8c0,0,0-0.1,0-0.1v-6.7c0-0.3-0.2-0.5-0.5-0.5s-0.5,0.2-0.5,0.5V17c0,0,0,0.1,0,0.1
		l-2.8-2.8c-0.2-0.2-0.5-0.2-0.6,0s-0.2,0.5,0,0.6l3.6,3.6c0.1,0.1,0.2,0.1,0.3,0.1c0.1,0,0.2,0,0.3-0.1L16,15
		c0.2-0.2,0.2-0.5,0-0.6C15.8,14.2,15.4,14.2,15.3,14.3z M11.9,17.4c0,0,0.1,0,0.1,0s0.1,0,0.1,0L12,17.5L11.9,17.4z"/>
</g>
</svg>
