<?xml version="1.0" encoding="utf-8"?>
<!-- Generator: Adobe Illustrator 25.4.1, SVG Export Plug-In . SVG Version: 6.00 Build 0)  -->
<svg version="1.1" id="Capa_1" xmlns="http://www.w3.org/2000/svg" xmlns:xlink="http://www.w3.org/1999/xlink" x="0px" y="0px"
	 viewBox="0 0 24 24" style="enable-background:new 0 0 24 24;" xml:space="preserve">
<style type="text/css">
	.st0{fill:#263238;}
</style>
<g>
	<path class="st0" d="M12.1,24c-0.8,0-1.6-0.2-2.4-0.5C9,23.1,8.4,22.7,7.8,22c-0.6-0.6-1-1.4-1.3-2.2c-0.3-0.8-0.4-1.7-0.4-2.6V4.9
		c0-0.6,0.1-1.3,0.3-1.9S7,1.9,7.3,1.4C7.8,1,8.2,0.6,8.8,0.4c1.1-0.5,2.4-0.5,3.4,0c0.6,0.2,1,0.6,1.4,1.1c0.4,0.5,0.7,1,0.9,1.6
		c0.2,0.6,0.3,1.3,0.3,1.9v12.3c0,0.8-0.3,1.6-0.8,2.1c-0.5,0.6-1.3,0.9-2,0.9s-1.4-0.3-2-0.9c-0.5-0.6-0.8-1.3-0.8-2.1V7.8
		c0-0.3,0.2-0.5,0.5-0.5s0.5,0.2,0.5,0.5v9.4c0,0.6,0.2,1.1,0.6,1.5c0.4,0.4,0.8,0.6,1.3,0.6c0.5,0,0.9-0.2,1.3-0.6
		c0.4-0.4,0.6-0.9,0.6-1.5V4.9c0-0.6-0.1-1.1-0.3-1.6S13.2,2.4,12.8,2c-0.3-0.4-0.7-0.6-1.2-0.9c-0.8-0.4-1.8-0.4-2.6,0
		C8.6,1.3,8.2,1.7,7.9,2C7.5,2.4,7.3,2.9,7.1,3.3c-0.2,0.5-0.3,1-0.3,1.5v12.4c0,0.8,0.1,1.5,0.4,2.3c0.3,0.7,0.6,1.3,1.1,1.9
		s1,1,1.7,1.3c1.3,0.6,2.6,0.6,3.9,0c0.6-0.3,1.2-0.7,1.7-1.3c0.5-0.6,0.8-1.2,1.1-1.9c0.3-0.7,0.4-1.5,0.4-2.3V5.6
		c0-0.3,0.2-0.5,0.5-0.5c0.3,0,0.5,0.2,0.5,0.5v11.5c0,0.9-0.1,1.8-0.4,2.5c-0.3,0.8-0.7,1.6-1.3,2.2c-0.6,0.6-1.2,1.2-1.9,1.5
		C13.7,23.8,12.9,24,12.1,24z"/>
</g>
</svg>
