<?xml version="1.0" encoding="utf-8"?>
<!-- Generator: Adobe Illustrator 25.4.1, SVG Export Plug-In . SVG Version: 6.00 Build 0)  -->
<svg version="1.1" id="Capa_1" xmlns="http://www.w3.org/2000/svg" xmlns:xlink="http://www.w3.org/1999/xlink" x="0px" y="0px"
	 viewBox="0 0 24 24" style="enable-background:new 0 0 24 24;" xml:space="preserve">
<style type="text/css">
	.st0{fill:#263238;}
</style>
<g>
	<path class="st0" d="M19.8,23.9c-0.1,0-0.2,0-0.3-0.1L12,17l-7.5,6.7c-0.1,0.1-0.3,0.1-0.5,0.1c-0.2-0.1-0.3-0.2-0.3-0.4V3.2
		c0-0.8,0.3-1.6,0.9-2.2S6,0.1,6.8,0.1h10.4c0.8,0,1.6,0.3,2.2,0.9c0.6,0.6,0.9,1.4,0.9,2.2v20.2c0,0.2-0.1,0.4-0.3,0.4
		C19.9,23.9,19.9,23.9,19.8,23.9z M12,15.9c0.1,0,0.2,0,0.3,0.1l7,6.4V3.2c0-0.6-0.2-1.1-0.6-1.6c-0.4-0.4-1-0.6-1.5-0.6H6.8
		C6.3,1,5.8,1.2,5.3,1.7c-0.4,0.4-0.6,1-0.6,1.6v19.2l7-6.4C11.8,16,11.9,15.9,12,15.9z"/>
</g>
</svg>
