<?xml version="1.0" encoding="utf-8"?>
<!-- Generator: Adobe Illustrator 25.4.1, SVG Export Plug-In . SVG Version: 6.00 Build 0)  -->
<svg version="1.1" id="Capa_1" xmlns="http://www.w3.org/2000/svg" xmlns:xlink="http://www.w3.org/1999/xlink" x="0px" y="0px"
	 viewBox="0 0 24 24" style="enable-background:new 0 0 24 24;" xml:space="preserve">
<style type="text/css">
	.st0{fill:#263238;}
</style>
<g>
	<path class="st0" d="M15.1,18.4H6.3c-3,0-5.3-2.1-5.3-4.9c0-2.2,1.2-3.9,3.4-4.6c0.2-0.1,0.4-0.3,0.3-0.6C4.6,8,4.3,7.9,4.1,8
		C1.5,8.9,0,10.9,0,13.5c0,3.3,2.7,5.9,6.2,5.9h8.8c0.3,0,0.5-0.2,0.5-0.5C15.5,18.6,15.4,18.4,15.1,18.4z"/>
	<path class="st0" d="M19.3,10c-0.6-4.1-3.5-7-7.3-7c-1.3,0-2.4,0.3-3.5,0.9C8.3,4.1,8.2,4.4,8.4,4.6C8.5,4.9,8.8,4.9,9,4.8
		C9.9,4.2,10.9,4,12,4c3.5,0,6.1,2.6,6.4,6.5c0,0.2,0.2,0.4,0.4,0.4c1.6,0.1,4.2,1,4.2,3.8c0,1.2-0.4,2.2-1.2,2.8
		c-0.2,0.2-0.2,0.5,0,0.6c0.1,0.1,0.2,0.2,0.4,0.2c0.1,0,0.2,0,0.3-0.1c1-0.8,1.5-2,1.5-3.5C24,11.8,21.7,10.3,19.3,10z"/>
	<path class="st0" d="M3.1,2.5c-0.2-0.2-0.5-0.2-0.6,0s-0.2,0.5,0,0.6l18.4,18.4c0.1,0.1,0.2,0.1,0.3,0.1s0.2,0,0.3-0.1
		c0.2-0.2,0.2-0.5,0-0.6L3.1,2.5z"/>
</g>
</svg>
