<?xml version="1.0" encoding="utf-8"?>
<!-- Generator: Adobe Illustrator 25.4.1, SVG Export Plug-In . SVG Version: 6.00 Build 0)  -->
<svg version="1.1" id="Capa_1" xmlns="http://www.w3.org/2000/svg" xmlns:xlink="http://www.w3.org/1999/xlink" x="0px" y="0px"
	 viewBox="0 0 24 24" style="enable-background:new 0 0 24 24;" xml:space="preserve">
<style type="text/css">
	.st0{fill:#263238;}
</style>
<g>
	<path class="st0" d="M19.3,8.1c-0.6-3.9-3.6-6.6-7.3-6.6c-3.4,0-5.7,2.2-6.5,4.4C2,6.4,0,8.3,0,11.1c0,3,2.6,5.2,6.2,5.2h2.7
		c0.3,0,0.5-0.2,0.5-0.5s-0.2-0.5-0.5-0.5H6.2c-2.6,0-5.3-1.3-5.3-4.2c0-3.4,3.5-4.1,4.9-4.2c0.2,0,0.3-0.1,0.4-0.3
		c0.6-1.9,2.5-4,5.7-4c3.5,0,6,2.5,6.4,6.1c0,0.2,0.2,0.4,0.4,0.4c1,0,4.1,0.4,4.1,3.1c0,2.8-2.7,3.1-4.3,3.1h-3.6
		c-0.3,0-0.5,0.2-0.5,0.5s0.2,0.5,0.5,0.5h3.7c3.3,0,5.3-1.5,5.3-4.1C24,9.5,21.6,8.3,19.3,8.1z"/>
	<path class="st0" d="M14.7,18.5l-2.3,2.2V10.5c0-0.3-0.2-0.5-0.5-0.5s-0.5,0.2-0.5,0.5v10.4l-2.3-2.2c-0.2-0.2-0.5-0.2-0.7,0
		s-0.2,0.5,0,0.7l3.1,3.1c0.1,0.1,0.2,0.1,0.3,0.1s0.2,0,0.3-0.1l3.1-3.1c0.2-0.2,0.2-0.5,0-0.7C15.2,18.4,14.9,18.4,14.7,18.5z"/>
</g>
</svg>
