<?xml version="1.0" encoding="utf-8"?>
<!-- Generator: Adobe Illustrator 25.4.1, SVG Export Plug-In . SVG Version: 6.00 Build 0)  -->
<svg version="1.1" id="Capa_1" xmlns="http://www.w3.org/2000/svg" xmlns:xlink="http://www.w3.org/1999/xlink" x="0px" y="0px"
	 viewBox="0 0 24 24" style="enable-background:new 0 0 24 24;" xml:space="preserve">
<style type="text/css">
	.st0{fill:#263238;}
</style>
<g>
	<g>
		<path class="st0" d="M18.7,20.2H6.2c-3.5,0-6.2-2.5-6.2-5.8C0,11.2,2.1,9,5.5,8.5C6.4,6.1,8.6,3.8,12,3.8c3.8,0,6.8,2.8,7.3,7
			c2.3,0.3,4.7,1.8,4.7,4.7C24,18.4,22,20.2,18.7,20.2z M12,4.8c-3.3,0-5.1,2.3-5.7,4.3c0,0.2-0.2,0.3-0.4,0.3
			c-2.4,0.2-4.9,1.7-4.9,4.9c0,2.8,2.3,4.9,5.3,4.9h12.5c2.7,0,4.3-1.4,4.3-3.8c0-2.8-2.6-3.7-4.2-3.8c-0.2,0-0.4-0.2-0.4-0.4
			C18.1,7.4,15.5,4.8,12,4.8z"/>
	</g>
	<g>
		<path class="st0" d="M9.8,16.3c-0.1,0-0.3,0-0.3-0.1l-2.2-2.5c-0.2-0.2-0.1-0.5,0-0.7c0.2-0.2,0.5-0.1,0.7,0l1.9,2.1l4.8-5.8
			c0.2-0.2,0.5-0.2,0.7,0s0.2,0.5,0,0.7l-5.2,6.2C10,16.2,9.9,16.3,9.8,16.3L9.8,16.3z"/>
	</g>
</g>
</svg>
