<?xml version="1.0" encoding="utf-8"?>
<!-- Generator: Adobe Illustrator 25.4.1, SVG Export Plug-In . SVG Version: 6.00 Build 0)  -->
<svg version="1.1" id="Capa_1" xmlns="http://www.w3.org/2000/svg" xmlns:xlink="http://www.w3.org/1999/xlink" x="0px" y="0px"
	 viewBox="0 0 24 24" style="enable-background:new 0 0 24 24;" xml:space="preserve">
<style type="text/css">
	.st0{fill:#263238;}
</style>
<g>
	<path class="st0" d="M19.3,8.9C18.8,5,15.8,2.3,12,2.3c-3.4,0-5.6,2.2-6.5,4.4C1.7,7.2,0,9.8,0,12.3c0,3.2,2.7,5.5,6.2,5.5h2.7
		c0.3,0,0.5-0.2,0.5-0.5s-0.2-0.5-0.5-0.5H6.2c-3,0-5.3-2-5.3-4.7c0-2.9,2.5-4.4,5-4.7c0.2,0,0.3-0.1,0.4-0.3
		C6.9,5.4,8.8,3.2,12,3.2c3.5,0,6.1,2.5,6.5,6.2c0,0.2,0.2,0.4,0.4,0.4c1.7,0.1,4.2,1.1,4.2,3.6c0,2.6-2.4,3.6-4.3,3.6h-3.6
		c-0.3,0-0.5,0.2-0.5,0.5s0.2,0.5,0.5,0.5h3.6c3.1,0,5.3-1.8,5.3-4.5C24,10.8,21.6,9.2,19.3,8.9z"/>
	<path class="st0" d="M14.8,12.3c0.1,0.1,0.2,0.1,0.3,0.1s0.2,0,0.3-0.1c0.2-0.2,0.2-0.5,0-0.6l-3.1-3.1c-0.2-0.2-0.5-0.2-0.6,0
		l-3.1,3.1c-0.2,0.2-0.2,0.5,0,0.6s0.5,0.2,0.6,0l2.3-2.3v11.2c0,0.3,0.2,0.5,0.5,0.5c0.3,0,0.5-0.2,0.5-0.5V10L14.8,12.3z"/>
</g>
</svg>
