<?xml version="1.0" encoding="utf-8"?>
<!-- Generator: Adobe Illustrator 25.4.1, SVG Export Plug-In . SVG Version: 6.00 Build 0)  -->
<svg version="1.1" id="Capa_1" xmlns="http://www.w3.org/2000/svg" xmlns:xlink="http://www.w3.org/1999/xlink" x="0px" y="0px"
	 viewBox="0 0 24 24" style="enable-background:new 0 0 24 24;" xml:space="preserve">
<style type="text/css">
	.st0{fill:#263238;}
</style>
<g>
	<path class="st0" d="M16.3,15.6h6.2c0.3,0,0.5-0.2,0.5-0.5c0-0.3-0.2-0.5-0.5-0.5h-7.3c-0.3,0-0.5,0.2-0.5,0.5v7.3
		c0,0.3,0.2,0.5,0.5,0.5s0.5-0.2,0.5-0.5v-6.2l7.6,7.6c0.1,0.1,0.2,0.1,0.3,0.1s0.2,0,0.3-0.1c0.2-0.2,0.2-0.5,0-0.7L16.3,15.6z"/>
	<path class="st0" d="M8.8,1C8.6,1,8.4,1.2,8.4,1.5v6.2L0.8,0.1C0.6,0,0.3,0,0.1,0.1S0,0.6,0.1,0.8l7.6,7.6H1.5C1.2,8.4,1,8.6,1,8.8
		c0,0.3,0.2,0.5,0.5,0.5h7.3c0.3,0,0.5-0.2,0.5-0.5V1.5C9.3,1.3,9.1,1,8.8,1z"/>
	<path class="st0" d="M15.2,9.3h7.3c0.3,0,0.5-0.2,0.5-0.5c0-0.3-0.2-0.5-0.5-0.5h-6.2l7.6-7.6c0.2-0.2,0.2-0.5,0-0.7
		s-0.5-0.2-0.7,0l-7.6,7.6V1.5c0-0.3-0.2-0.5-0.5-0.5s-0.5,0.2-0.5,0.5v7.3C14.7,9.1,14.9,9.3,15.2,9.3z"/>
	<path class="st0" d="M8.8,14.7H1.5c-0.3,0-0.5,0.2-0.5,0.5c0,0.3,0.2,0.5,0.5,0.5h6.2l-7.6,7.6c-0.2,0.2-0.2,0.5,0,0.7
		C0.2,24,0.3,24,0.5,24s0.2,0,0.3-0.1l7.6-7.6v6.2c0,0.3,0.2,0.5,0.5,0.5s0.5-0.2,0.5-0.5v-7.3C9.3,14.9,9.1,14.7,8.8,14.7z"/>
</g>
</svg>
