<?xml version="1.0" encoding="utf-8"?>
<!-- Generator: Adobe Illustrator 25.4.1, SVG Export Plug-In . SVG Version: 6.00 Build 0)  -->
<svg version="1.1" id="Capa_1" xmlns="http://www.w3.org/2000/svg" xmlns:xlink="http://www.w3.org/1999/xlink" x="0px" y="0px"
	 viewBox="0 0 24 24" style="enable-background:new 0 0 24 24;" xml:space="preserve">
<style type="text/css">
	.st0{fill:#263238;}
</style>
<g>
	<path class="st0" d="M20.3,4.6h-0.8V3.7c0-1-0.4-1.8-1-2.5s-1.5-1-2.5-1H4.1c-1,0-2,0.4-2.8,1.2C0.6,2.1,0.2,3.1,0.1,4.1v11.8
		c0,1,0.4,1.8,1,2.5s1.5,1,2.5,1h0.9v0.8c0,2,1.6,3.6,3.6,3.6h12.1c2,0,3.6-1.6,3.6-3.6V8.1C23.9,6.1,22.3,4.6,20.3,4.6z M3.7,18.5
		c-0.7,0-1.4-0.3-1.8-0.8c-0.5-0.5-0.8-1.1-0.8-1.8V4.1c0-0.8,0.3-1.6,0.9-2.1s1.3-0.9,2.1-0.9H16c0.7,0,1.4,0.3,1.8,0.8
		c0.5,0.5,0.8,1.1,0.8,1.8v0.9H8.2c-2,0-3.6,1.6-3.6,3.6v10.4H3.7z M23,20.2c0,1.5-1.2,2.7-2.7,2.7H8.2c-1.5,0-2.7-1.2-2.7-2.7V8.1
		c0-1.5,1.2-2.7,2.7-2.7h12.1c1.5,0,2.7,1.2,2.7,2.7V20.2L23,20.2z"/>
</g>
</svg>
