<?xml version="1.0" encoding="utf-8"?>
<!-- Generator: Adobe Illustrator 25.4.1, SVG Export Plug-In . SVG Version: 6.00 Build 0)  -->
<svg version="1.1" id="Capa_1" xmlns="http://www.w3.org/2000/svg" xmlns:xlink="http://www.w3.org/1999/xlink" x="0px" y="0px"
	 viewBox="0 0 24 24" style="enable-background:new 0 0 24 24;" xml:space="preserve">
<style type="text/css">
	.st0{fill:#263238;}
</style>
<g>
	<path class="st0" d="M23.5,17.8H8.4c-0.6,0-1.2-0.2-1.6-0.6c-0.4-0.4-0.6-1-0.6-1.6V5.8l0,0l0,0V0.5C6.2,0.2,6,0,5.8,0
		S5.3,0.2,5.3,0.5v4.8H0.5C0.2,5.3,0,5.5,0,5.8s0.2,0.5,0.5,0.5h4.8v9.3c0,0.8,0.3,1.6,0.9,2.2c0.6,0.6,1.4,0.9,2.2,0.9h9.3v4.8
		c0,0.3,0.2,0.5,0.5,0.5c0.3,0,0.5-0.2,0.5-0.5v-4.8h4.8c0.3,0,0.5-0.2,0.5-0.5C24,18,23.8,17.8,23.5,17.8z"/>
	<path class="st0" d="M9.3,6.2h6.2c0.6,0,1.2,0.2,1.6,0.6c0.4,0.4,0.6,1,0.6,1.6v6.2c0,0.3,0.2,0.5,0.5,0.5c0.3,0,0.5-0.2,0.5-0.5
		V8.4c0-0.8-0.3-1.6-0.9-2.2c-0.6-0.6-1.4-0.9-2.2-0.9H9.3C9,5.3,8.9,5.5,8.9,5.8S9.1,6.2,9.3,6.2z"/>
</g>
</svg>
