<?xml version="1.0" encoding="utf-8"?>
<!-- Generator: Adobe Illustrator 25.4.1, SVG Export Plug-In . SVG Version: 6.00 Build 0)  -->
<svg version="1.1" id="Capa_1" xmlns="http://www.w3.org/2000/svg" xmlns:xlink="http://www.w3.org/1999/xlink" x="0px" y="0px"
	 viewBox="0 0 24 24" style="enable-background:new 0 0 24 24;" xml:space="preserve">
<style type="text/css">
	.st0{fill:#263238;}
</style>
<g>
	<path class="st0" d="M20.5,7.9c-0.5-0.5-1.2-0.8-1.9-0.8h-2.2c-0.3,0-0.5,0.2-0.5,0.5c0,0.3,0.2,0.5,0.5,0.5h2.2
		c0.5,0,0.9,0.2,1.2,0.5c0.3,0.3,0.5,0.7,0.5,1.2v11.4c0,0.5-0.2,0.9-0.5,1.2c-0.3,0.3-0.7,0.5-1.2,0.5H5.4c-0.5,0-0.9-0.2-1.2-0.5
		c-0.3-0.3-0.5-0.8-0.5-1.2V9.8c0-0.5,0.2-0.9,0.5-1.2C4.5,8.2,5,8.1,5.4,8.1h2.2c0.3,0,0.5-0.2,0.5-0.5c0-0.3-0.2-0.5-0.5-0.5H5.4
		C4.7,7.1,4,7.4,3.5,7.9S2.8,9.1,2.8,9.8v11.4c0,0.7,0.3,1.4,0.8,1.9c0.5,0.5,1.2,0.8,1.9,0.8h13.1c0.7,0,1.4-0.3,1.9-0.8
		c0.5-0.5,0.8-1.2,0.8-1.9V9.8C21.2,9.1,21,8.4,20.5,7.9z"/>
	<path class="st0" d="M8,12.5c-0.2-0.2-0.5-0.2-0.6,0s-0.2,0.5,0,0.6l4.4,4.4c0.1,0.1,0.2,0.1,0.3,0.1s0.2,0,0.3-0.1l4.4-4.4
		c0.2-0.2,0.2-0.5,0-0.6c-0.2-0.2-0.5-0.2-0.6,0l-3.6,3.6V0.6c0-0.3-0.2-0.5-0.5-0.5c-0.3,0-0.5,0.2-0.5,0.5v15.5L8,12.5z"/>
</g>
</svg>
