<?xml version="1.0" encoding="utf-8"?>
<!-- Generator: Adobe Illustrator 25.4.1, SVG Export Plug-In . SVG Version: 6.00 Build 0)  -->
<svg version="1.1" id="Capa_1" xmlns="http://www.w3.org/2000/svg" xmlns:xlink="http://www.w3.org/1999/xlink" x="0px" y="0px"
	 viewBox="0 0 24 24" style="enable-background:new 0 0 24 24;" xml:space="preserve">
<style type="text/css">
	.st0{fill:#263238;}
</style>
<g>
	<path class="st0" d="M20.4,4.4h-0.8V3.5c0-1-0.4-1.8-1.1-2.5S16.9,0,15.9,0H4C2.9,0,1.9,0.4,1.1,1.1C0.4,1.9,0,2.9-0.1,4v12
		c0,1,0.4,1.8,1.1,2.5s1.6,1.1,2.5,1.1h0.9v0.8c0,2,1.6,3.6,3.6,3.6h12.3c2,0,3.6-1.6,3.6-3.6V8.1C24,6,22.4,4.4,20.4,4.4z
		 M3.6,18.6c-0.7,0-1.4-0.3-1.8-0.8S1,16.7,1,16V4c0-0.8,0.3-1.6,0.9-2.2s1.3-0.9,2.2-0.9h12c0.7,0,1.4,0.3,1.8,0.8s0.8,1.2,0.8,1.8
		v0.9H8.1c-2,0-3.6,1.6-3.6,3.6v10.6H3.6z M23.1,20.3c0,1.5-1.2,2.7-2.8,2.7H8.1c-1.5,0-2.7-1.2-2.7-2.7V8.1c0-1.5,1.2-2.7,2.7-2.7
		h12.3c1.5,0,2.7,1.2,2.7,2.7V20.3L23.1,20.3z"/>
	<path class="st0" d="M18.7,13.7h-4v-4c0-0.3-0.2-0.5-0.5-0.5c-0.3,0-0.5,0.2-0.5,0.5v4h-4c-0.3,0-0.5,0.2-0.5,0.5
		c0,0.3,0.2,0.5,0.5,0.5h4v4c0,0.3,0.2,0.5,0.5,0.5c0.3,0,0.5-0.2,0.5-0.5v-4h4c0.3,0,0.5-0.2,0.5-0.5S18.9,13.7,18.7,13.7z"/>
</g>
</svg>
