<?xml version="1.0" encoding="utf-8"?>
<!-- Generator: Adobe Illustrator 25.4.1, SVG Export Plug-In . SVG Version: 6.00 Build 0)  -->
<svg version="1.1" id="Capa_1" xmlns="http://www.w3.org/2000/svg" xmlns:xlink="http://www.w3.org/1999/xlink" x="0px" y="0px"
	 viewBox="0 0 24 24" style="enable-background:new 0 0 24 24;" xml:space="preserve">
<style type="text/css">
	.st0{fill:#263238;}
</style>
<g>
	<path class="st0" d="M23.2,3.5C22.7,3,22,2.7,21.3,2.7H9.8C9.1,2.7,8.4,3,7.9,3.5C7.4,4,7.1,4.7,7.1,5.4v2.2C7.1,7.9,7.3,8,7.6,8
		C7.9,8,8,7.9,8,7.6V5.4c0-0.5,0.2-0.9,0.5-1.2s0.8-0.5,1.2-0.5h11.5c0.5,0,0.9,0.2,1.2,0.5C22.8,4.5,23,4.9,23,5.4v13.2
		c0,0.5-0.2,0.9-0.5,1.2c-0.3,0.3-0.8,0.5-1.2,0.5H9.8c-0.5,0-0.9-0.2-1.2-0.5C8.2,19.5,8,19.1,8,18.6v-2.2C8,16.1,7.9,16,7.6,16
		c-0.3,0-0.5,0.2-0.5,0.5v2.2c0,0.7,0.3,1.4,0.8,1.9c0.5,0.5,1.2,0.8,1.9,0.8h11.5c0.7,0,1.4-0.3,1.9-0.8s0.8-1.2,0.8-1.9V5.4
		C23.9,4.6,23.7,4,23.2,3.5z"/>
	<path class="st0" d="M12.6,16.1c-0.2,0.2-0.2,0.5,0,0.6c0.1,0.1,0.2,0.1,0.3,0.1c0.1,0,0.2,0,0.3-0.1l4.4-4.4
		c0.2-0.2,0.2-0.5,0-0.6l-4.4-4.4c-0.2-0.2-0.5-0.2-0.6,0s-0.2,0.5,0,0.6l3.6,3.6H0.5c-0.3,0-0.5,0.2-0.5,0.5c0,0.3,0.2,0.5,0.5,0.5
		h15.7L12.6,16.1z"/>
</g>
</svg>
