<?xml version="1.0" encoding="utf-8"?>
<!-- Generator: Adobe Illustrator 25.4.1, SVG Export Plug-In . SVG Version: 6.00 Build 0)  -->
<svg version="1.1" id="Capa_1" xmlns="http://www.w3.org/2000/svg" xmlns:xlink="http://www.w3.org/1999/xlink" x="0px" y="0px"
	 viewBox="0 0 24 24" style="enable-background:new 0 0 24 24;" xml:space="preserve">
<style type="text/css">
	.st0{fill:#263238;}
</style>
<g>
	<path class="st0" d="M15.5,15.9c-0.3,0-0.5,0.2-0.5,0.5v2.2c0,0.5-0.2,0.9-0.5,1.2c-0.3,0.3-0.8,0.5-1.2,0.5H2.7
		c-0.5,0-0.9-0.2-1.2-0.5C1.2,19.5,1,19.1,1,18.6V5.4c0-0.5,0.2-0.9,0.5-1.2s0.8-0.5,1.2-0.5h10.6c0.5,0,0.9,0.2,1.2,0.5
		s0.5,0.8,0.5,1.2v2.2c0,0.3,0.2,0.5,0.5,0.5c0.3,0,0.5-0.2,0.5-0.5V5.4c0-0.7-0.3-1.4-0.8-1.9C14.7,3,14,2.7,13.3,2.7H2.7
		C2,2.7,1.4,3,0.9,3.5S0.1,4.7,0.1,5.4v13.2c0,0.7,0.3,1.4,0.8,1.9s1.2,0.8,1.9,0.8h10.6c0.7,0,1.4-0.3,1.9-0.8
		c0.5-0.5,0.8-1.2,0.8-1.9v-2.2C16,16.2,15.8,15.9,15.5,15.9z"/>
	<path class="st0" d="M23.9,12.2c0-0.1,0-0.2,0-0.4c0,0,0,0,0,0c0,0,0,0,0-0.1l-4.4-4.4c-0.2-0.2-0.5-0.2-0.6,0
		c-0.2,0.2-0.2,0.5,0,0.6l3.6,3.6H8.4C8.2,11.5,8,11.7,8,12c0,0.3,0.2,0.5,0.5,0.5h13.9l-3.6,3.6c-0.2,0.2-0.2,0.5,0,0.6
		c0.1,0.1,0.2,0.1,0.3,0.1c0.1,0,0.2,0,0.3-0.1l4.4-4.4C23.8,12.3,23.8,12.3,23.9,12.2C23.9,12.2,23.9,12.2,23.9,12.2z"/>
</g>
</svg>
