<?xml version="1.0" encoding="utf-8"?>
<!-- Generator: Adobe Illustrator 25.4.1, SVG Export Plug-In . SVG Version: 6.00 Build 0)  -->
<svg version="1.1" id="Capa_1" xmlns="http://www.w3.org/2000/svg" xmlns:xlink="http://www.w3.org/1999/xlink" x="0px" y="0px"
	 viewBox="0 0 24 24" style="enable-background:new 0 0 24 24;" xml:space="preserve">
<style type="text/css">
	.st0{fill:#263238;}
</style>
<g>
	<path class="st0" d="M23.5,15.7c-0.3,0-0.5,0.2-0.5,0.5v6.2l-7.6-7.6c-0.2-0.2-0.5-0.2-0.7,0s-0.2,0.5,0,0.7l7.6,7.6h-6.2
		c-0.3,0-0.5,0.2-0.5,0.5s0.2,0.5,0.5,0.5h7.3c0.3,0,0.5-0.2,0.5-0.5v-7.3C24,16,23.8,15.7,23.5,15.7z"/>
	<path class="st0" d="M1.6,0.9h6.2c0.3,0,0.5-0.2,0.5-0.5S8.1,0,7.8,0H0.5C0.2,0,0,0.2,0,0.5v7.3c0,0.3,0.2,0.5,0.5,0.5
		s0.5-0.2,0.5-0.5V1.6l7.6,7.6c0.1,0.1,0.2,0.1,0.3,0.1s0.2,0,0.3-0.1c0.2-0.2,0.2-0.5,0-0.7L1.6,0.9z"/>
	<path class="st0" d="M23.5,0h-7.3c-0.3,0-0.5,0.2-0.5,0.5s0.2,0.5,0.5,0.5h6.2l-7.6,7.6c-0.2,0.2-0.2,0.5,0,0.7
		c0.1,0.1,0.2,0.1,0.3,0.1s0.2,0,0.3-0.1l7.6-7.6v6.2c0,0.3,0.2,0.5,0.5,0.5S24,8.1,24,7.8V0.5C24,0.2,23.8,0,23.5,0z"/>
	<path class="st0" d="M8.5,14.8l-7.6,7.6v-6.2c0-0.3-0.2-0.5-0.5-0.5S0,15.9,0,16.2v7.3C0,23.8,0.2,24,0.5,24h7.3
		c0.3,0,0.5-0.2,0.5-0.5s-0.2-0.5-0.5-0.5H1.6l7.6-7.6c0.2-0.2,0.2-0.5,0-0.7S8.7,14.6,8.5,14.8z"/>
</g>
</svg>
