<?xml version="1.0" encoding="utf-8"?>
<!-- Generator: Adobe Illustrator 25.4.1, SVG Export Plug-In . SVG Version: 6.00 Build 0)  -->
<svg version="1.1" id="Capa_1" xmlns="http://www.w3.org/2000/svg" xmlns:xlink="http://www.w3.org/1999/xlink" x="0px" y="0px"
	 viewBox="0 0 24 24" style="enable-background:new 0 0 24 24;" xml:space="preserve">
<style type="text/css">
	.st0{fill:#263238;}
</style>
<g>
	<path class="st0" d="M23.8,12.8c0.1-0.2,0.2-0.5,0.2-0.7c0-0.2-0.1-0.5-0.2-0.7C20.9,6.8,16.4,4.2,12,4.2c-1.9,0-3.7,0.5-5.5,1.4
		L4.1,3.1c-0.2-0.2-0.5-0.2-0.7,0c-0.2,0.2-0.2,0.5,0,0.7L5.7,6c-2,1.2-3.8,3-5.4,5.3C0.1,11.5,0,11.8,0,12s0,0.5,0.2,0.7
		c2.9,4.5,7.3,7.2,11.8,7.2c2.1,0,4.1-0.6,6-1.6l2.6,2.6c0.1,0.1,0.2,0.1,0.3,0.1c0.1,0,0.2,0,0.3-0.1c0.2-0.2,0.2-0.5,0-0.7
		l-2.5-2.5C20.7,16.6,22.4,14.9,23.8,12.8z M12,18.9c-4.2,0-8.2-2.5-10.9-6.7c0,0,0-0.1,0-0.2c0,0,0-0.1,0-0.2
		c1.6-2.2,3.4-4,5.3-5.1L8.7,9C7.9,9.8,7.5,10.9,7.5,12c0,2.5,2.1,4.6,4.6,4.6c1.2,0,2.2-0.4,3.1-1.2l2.2,2.2
		C15.6,18.5,13.8,18.9,12,18.9z M15,14.1l-5-5c0.6-0.4,1.2-0.6,2-0.6c2,0,3.6,1.6,3.6,3.6C15.6,12.8,15.4,13.5,15,14.1z M14.4,14.8
		c-0.6,0.6-1.5,0.9-2.4,0.9c-2,0-3.6-1.6-3.6-3.6c0-0.9,0.3-1.8,0.9-2.4L14.4,14.8z M18.1,17.1l-2.4-2.4c0.5-0.8,0.9-1.7,0.9-2.7
		c0-2.5-2.1-4.6-4.6-4.6c-1,0-1.9,0.3-2.7,0.9L7.2,6.3c1.5-0.8,3.1-1.1,4.7-1.1c4.2,0,8.2,2.5,11,6.7c0,0,0,0.1,0,0.2s0,0.1,0,0.2
		C21.6,14.3,19.9,16,18.1,17.1z"/>
</g>
</svg>
