<?xml version="1.0" encoding="utf-8"?>
<!-- Generator: Adobe Illustrator 25.4.1, SVG Export Plug-In . SVG Version: 6.00 Build 0)  -->
<svg version="1.1" id="Capa_1" xmlns="http://www.w3.org/2000/svg" xmlns:xlink="http://www.w3.org/1999/xlink" x="0px" y="0px"
	 viewBox="0 0 24 24" style="enable-background:new 0 0 24 24;" xml:space="preserve">
<style type="text/css">
	.st0{fill:#263238;}
</style>
<g>
	<path class="st0" d="M23,2c-0.6-0.6-1.3-0.9-2.2-0.9H10.4C9.6,1.1,8.8,1.4,8.3,2C7.7,2.6,7.4,3.3,7.4,4.2v2.6
		c0,0.3,0.2,0.5,0.5,0.5c0.3,0,0.5-0.2,0.5-0.5V4.2c0-0.6,0.2-1.1,0.6-1.5C9.3,2.2,9.9,2,10.4,2h10.4c0.6,0,1.1,0.2,1.5,0.6
		c0.4,0.4,0.6,1,0.6,1.5v15.7c0,0.6-0.2,1.1-0.6,1.5c-0.4,0.4-1,0.6-1.5,0.6h-9.9c-1.2,0-2.7-1-2.7-2.2v-2.6c0-0.3-0.2-0.5-0.5-0.5
		c-0.3,0-0.5,0.2-0.5,0.5v2.6c0,1.7,1.9,3.1,3.6,3.1h9.9c0.8,0,1.6-0.3,2.2-0.9c0.6-0.6,0.9-1.3,0.9-2.2V4.2C24,3.4,23.6,2.6,23,2z"
		/>
	<path class="st0" d="M13.7,16.9c-0.2,0.2-0.2,0.5,0,0.6c0.1,0.1,0.2,0.1,0.3,0.1s0.2,0,0.3-0.1l5.2-5.2c0.2-0.2,0.2-0.5,0-0.6
		l-5.2-5.2c-0.2-0.2-0.5-0.2-0.6,0c-0.2,0.2-0.2,0.5,0,0.6l4.5,4.5H0.5C0.2,11.6,0,11.7,0,12c0,0.3,0.2,0.5,0.5,0.5h17.7L13.7,16.9z
		"/>
</g>
</svg>
