<?xml version="1.0" encoding="utf-8"?>
<!-- Generator: Adobe Illustrator 25.4.1, SVG Export Plug-In . SVG Version: 6.00 Build 0)  -->
<svg version="1.1" id="Capa_1" xmlns="http://www.w3.org/2000/svg" xmlns:xlink="http://www.w3.org/1999/xlink" x="0px" y="0px"
	 viewBox="0 0 24 24" style="enable-background:new 0 0 24 24;" xml:space="preserve">
<style type="text/css">
	.st0{fill:#263238;}
</style>
<g>
	<path class="st0" d="M14.9,16.3c-0.3,0-0.5,0.2-0.5,0.5v2.4c0,0.5-0.2,1-0.6,1.4s-0.9,0.6-1.4,0.6H2.9c-0.5,0-1-0.2-1.4-0.6
		s-0.6-0.9-0.6-1.4V4.8c0-0.5,0.2-1,0.6-1.4s0.9-0.6,1.4-0.6H12c1.1,0,2.4,0.9,2.4,1.9v2.4c0,0.3,0.2,0.5,0.5,0.5s0.5-0.2,0.5-0.5
		V4.8c0-1.6-1.8-2.9-3.3-2.9H2.9c-0.8,0-1.5,0.3-2,0.8S0,4,0,4.8v14.4c0,0.8,0.3,1.5,0.8,2s1.2,0.8,2,0.8h9.6c0.7,0,1.5-0.3,2-0.8
		c0.6-0.6,0.8-1.2,0.8-2v-2.4C15.4,16.6,15.1,16.3,14.9,16.3z"/>
	<path class="st0" d="M23.9,11.7l-4.8-4.8c-0.2-0.2-0.5-0.2-0.6,0s-0.2,0.5,0,0.6l4,4H7.2c-0.3,0-0.5,0.2-0.5,0.5
		c0,0.3,0.2,0.5,0.5,0.5h15.2l-4,4c-0.2,0.2-0.2,0.5,0,0.6c0.1,0.1,0.2,0.1,0.3,0.1s0.2,0,0.3-0.1l4.8-4.8C24,12.2,24,12.1,24,12
		C24,11.9,24,11.8,23.9,11.7z"/>
</g>
</svg>
