<?xml version="1.0" encoding="utf-8"?>
<!-- Generator: Adobe Illustrator 25.4.1, SVG Export Plug-In . SVG Version: 6.00 Build 0)  -->
<svg version="1.1" id="Capa_1" xmlns="http://www.w3.org/2000/svg" xmlns:xlink="http://www.w3.org/1999/xlink" x="0px" y="0px"
	 viewBox="0 0 24 24" style="enable-background:new 0 0 24 24;" xml:space="preserve">
<style type="text/css">
	.st0{fill:#263238;}
</style>
<g>
	<path class="st0" d="M22.3,21.7l-4.9-4.9c1.5-1.5,2.5-3.6,2.5-5.8V9.1c0-0.3-0.2-0.5-0.5-0.5c-0.3,0-0.5,0.2-0.5,0.5v1.9
		c0,2-0.8,3.8-2.2,5.1l-2.1-2.1c0.8-0.8,1.4-1.9,1.4-3.2V4.4c0-2.4-1.9-4.3-4.3-4.3c-0.6,0-1.1,0.1-1.6,0.3s-1,0.5-1.4,0.9
		C8.4,1.8,8.1,2.2,7.8,2.7C7.6,3.3,7.6,3.8,7.6,4.4v2.6L2.3,1.7c-0.2-0.2-0.5-0.2-0.7,0s-0.2,0.5,0,0.7l5.9,5.9V11
		c0,2.3,2,4.4,4.3,4.4c0.8,0,1.5-0.2,2.2-0.6l2.1,2.1c-1.2,0.9-2.7,1.4-4.3,1.4c-4,0-7.2-3.2-7.2-7.2V9.1c0-0.3-0.2-0.5-0.5-0.5
		C4,8.6,3.8,8.8,3.8,9.1V11c0,4.3,3.4,7.9,7.6,8.1V23H8c-0.3,0-0.5,0.2-0.5,0.5c0,0.3,0.2,0.5,0.5,0.5h7.6c0.3,0,0.5-0.2,0.5-0.5
		c0-0.3-0.2-0.5-0.5-0.5h-3.4v-3.9c1.7-0.1,3.2-0.7,4.4-1.7l5,5c0.1,0.1,0.2,0.1,0.3,0.1s0.2,0,0.3-0.1
		C22.5,22.2,22.5,21.9,22.3,21.7z M8.5,4.4c0-0.4,0.1-0.9,0.2-1.3C8.9,2.7,9.1,2.3,9.5,2c0.3-0.3,0.7-0.6,1.1-0.7
		C11,1.1,11.4,1,11.8,1l0,0c1.9,0,3.4,1.5,3.4,3.4V11c0,1-0.4,1.9-1.1,2.5L8.5,7.9V4.4z M11.8,14.4c-1.8,0-3.4-1.5-3.4-3.4V9.2
		l4.9,4.9C12.9,14.2,12.4,14.4,11.8,14.4z"/>
</g>
</svg>
