<svg xmlns="http://www.w3.org/2000/svg" viewBox="0 0 24 24" style="enable-background:new 0 0 24 24" xml:space="preserve"><path d="m22.3 21.7-4.9-4.9c1.5-1.5 2.5-3.6 2.5-5.8V9.1c0-.3-.2-.5-.5-.5s-.5.2-.5.5V11c0 2-.8 3.8-2.2 5.1L14.6 14c.8-.8 1.4-1.9 1.4-3.2V4.4C16 2 14.1.1 11.7.1c-.6 0-1.1.1-1.6.3s-1 .5-1.4.9c-.3.5-.6.9-.9 1.4-.2.6-.2 1.1-.2 1.7V7L2.3 1.7c-.2-.2-.5-.2-.7 0s-.2.5 0 .7l5.9 5.9V11c0 2.3 2 4.4 4.3 4.4.8 0 1.5-.2 2.2-.6l2.1 2.1c-1.2.9-2.7 1.4-4.3 1.4-4 0-7.2-3.2-7.2-7.2v-2c0-.3-.2-.5-.5-.5-.1 0-.3.2-.3.5V11c0 4.3 3.4 7.9 7.6 8.1V23H8c-.3 0-.5.2-.5.5s.2.5.5.5h7.6c.3 0 .5-.2.5-.5s-.2-.5-.5-.5h-3.4v-3.9c1.7-.1 3.2-.7 4.4-1.7l5 5c.1.1.2.1.3.1s.2 0 .3-.1c.3-.2.3-.5.1-.7zM8.5 4.4c0-.4.1-.9.2-1.3.2-.4.4-.8.8-1.1.3-.3.7-.6 1.1-.7.4-.2.8-.3 1.2-.3 1.9 0 3.4 1.5 3.4 3.4V11c0 1-.4 1.9-1.1 2.5L8.5 7.9V4.4zm3.3 10c-1.8 0-3.4-1.5-3.4-3.4V9.2l4.9 4.9c-.4.1-.9.3-1.5.3z" style="fill:#263238"/></svg>