<?xml version="1.0" encoding="utf-8"?>
<!-- Generator: Adobe Illustrator 25.4.1, SVG Export Plug-In . SVG Version: 6.00 Build 0)  -->
<svg version="1.1" id="Capa_1" xmlns="http://www.w3.org/2000/svg" xmlns:xlink="http://www.w3.org/1999/xlink" x="0px" y="0px"
	 viewBox="0 0 24 24" style="enable-background:new 0 0 24 24;" xml:space="preserve">
<style type="text/css">
	.st0{fill:#263238;}
</style>
<g>
	<path class="st0" d="M19.7,8.7c-0.3,0-0.5,0.2-0.5,0.5v1.9c0,4-3.2,7.2-7.2,7.2c-4,0-7.2-3.2-7.2-7.2V9.1c0-0.3-0.2-0.5-0.5-0.5
		S3.9,8.9,3.9,9.1v1.9c0,4.3,3.4,7.9,7.6,8.1V23H8.2c-0.3,0-0.5,0.2-0.5,0.5c0,0.3,0.2,0.5,0.5,0.5h7.6c0.3,0,0.5-0.2,0.5-0.5
		c0-0.3-0.2-0.5-0.5-0.5h-3.4v-3.9c4.3-0.2,7.6-3.8,7.6-8.1V9.1C20.1,8.9,19.9,8.7,19.7,8.7z"/>
	<path class="st0" d="M12,15.3c2.4,0,4.3-2,4.3-4.4V4.4c0-2.4-1.9-4.3-4.3-4.3c-0.6,0-1.1,0.1-1.6,0.3S9.4,0.9,9,1.3S8.3,2.2,8,2.7
		S7.7,3.8,7.7,4.4V11C7.7,13.4,9.7,15.3,12,15.3z M8.6,4.4c0-0.4,0.1-0.9,0.2-1.3C9.1,2.7,9.3,2.3,9.6,2c0.3-0.3,0.7-0.6,1.1-0.7
		C11.1,1.1,11.6,1,12,1l0,0c1.9,0,3.4,1.5,3.4,3.4V11c0,1.9-1.5,3.4-3.4,3.4c-1.8,0-3.4-1.5-3.4-3.4V4.4z"/>
</g>
</svg>
