<?xml version="1.0" encoding="utf-8"?>
<!-- Generator: Adobe Illustrator 25.4.1, SVG Export Plug-In . SVG Version: 6.00 Build 0)  -->
<svg version="1.1" id="Capa_1" xmlns="http://www.w3.org/2000/svg" xmlns:xlink="http://www.w3.org/1999/xlink" x="0px" y="0px"
	 viewBox="0 0 24 24" style="enable-background:new 0 0 24 24;" xml:space="preserve">
<style type="text/css">
	.st0{fill:#263238;}
</style>
<path class="st0" d="M24,12L24,12L24,12c0,0,0-0.1,0-0.2c0,0,0-0.1-0.1-0.1l0,0l-4.1-4.1c-0.2-0.2-0.5-0.2-0.6,0
	c-0.2,0.2-0.2,0.5,0,0.6l3.3,3.3h-10v-10l3.3,3.3C15.9,5,16,5,16.1,5s0.2,0,0.3-0.1c0.2-0.2,0.2-0.5,0-0.6l-4.1-4.1l0,0
	c0,0,0,0-0.1,0c0,0-0.1,0-0.2,0l0,0c0,0,0,0,0,0s-0.1,0-0.1,0c0,0-0.1,0-0.1,0.1L7.6,4.2c-0.2,0.2-0.2,0.5,0,0.6s0.5,0.2,0.6,0
	l3.3-3.3v10h-10l3.3-3.3c0.2-0.2,0.2-0.5,0-0.6c-0.2-0.2-0.5-0.2-0.6,0l-4.1,4.1l0,0c0,0,0,0.1-0.1,0.1c0,0,0,0.1,0,0.2l0,0l0,0l0,0
	c0,0,0,0.1,0,0.2c0,0,0,0.1,0.1,0.1l4.1,4.1c0.1,0.1,0.2,0.1,0.3,0.1s0.2,0,0.3-0.1c0.2-0.2,0.2-0.5,0-0.6l-3.3-3.3h10v10l-3.3-3.3
	c-0.2-0.2-0.5-0.2-0.6,0c-0.2,0.2-0.2,0.5,0,0.6l4.1,4.1l0,0c0,0,0.1,0.1,0.1,0.1c0,0,0.1,0,0.2,0l0,0l0,0l0,0c0,0,0.1,0,0.2,0
	c0,0,0.1,0,0.1-0.1l4.1-4.1c0.2-0.2,0.2-0.5,0-0.6s-0.5-0.2-0.6,0l-3.3,3.3v-10h10l-3.3,3.3c-0.2,0.2-0.2,0.5,0,0.6
	c0.1,0.1,0.2,0.1,0.3,0.1s0.2,0,0.3-0.1l4.1-4.1c0,0,0.1-0.1,0.1-0.1C24,12.1,24,12.1,24,12L24,12z"/>
</svg>
