<?xml version="1.0" encoding="utf-8"?>
<!-- Generator: Adobe Illustrator 25.4.1, SVG Export Plug-In . SVG Version: 6.00 Build 0)  -->
<svg version="1.1" id="Capa_1" xmlns="http://www.w3.org/2000/svg" xmlns:xlink="http://www.w3.org/1999/xlink" x="0px" y="0px"
	 viewBox="0 0 24 24" style="enable-background:new 0 0 24 24;" xml:space="preserve">
<style type="text/css">
	.st0{fill:#263238;}
</style>
<g>
	<path class="st0" d="M13,22.8C12.9,22.8,12.9,22.8,13,22.8c-0.3,0-0.5-0.2-0.5-0.5V11.6h-12c-0.2,0-0.4-0.1-0.5-0.4
		c0-0.2,0.1-0.4,0.3-0.5l23.1-9.5c0.2-0.1,0.4,0,0.5,0.1S24,1.7,24,1.8L13.4,22.6C13.3,22.7,13.1,22.8,13,22.8z M2.9,10.7h9.7
		c0.2,0,0.5,0.1,0.7,0.2c0.2,0.2,0.3,0.4,0.3,0.7v8.8l9.1-17.8L2.9,10.7z"/>
</g>
</svg>
