<?xml version="1.0" encoding="utf-8"?>
<!-- Generator: Adobe Illustrator 25.4.1, SVG Export Plug-In . SVG Version: 6.00 Build 0)  -->
<svg version="1.1" id="Capa_1" xmlns="http://www.w3.org/2000/svg" xmlns:xlink="http://www.w3.org/1999/xlink" x="0px" y="0px"
	 viewBox="0 0 24 24" style="enable-background:new 0 0 24 24;" xml:space="preserve">
<style type="text/css">
	.st0{fill:#263238;}
</style>
<g>
	<path class="st0" d="M19.7,9.6c-0.3,0-0.5,0.2-0.5,0.5v11.1c0,0.3,0,0.5-0.1,0.7c-0.1,0.2-0.2,0.5-0.4,0.6
		c-0.2,0.2-0.4,0.3-0.6,0.4c-0.2,0.1-0.5,0.1-0.7,0.1H2.9c-0.5,0-1-0.2-1.4-0.6c-0.4-0.4-0.6-0.9-0.6-1.4V6.7c0-0.5,0.2-1,0.6-1.4
		s0.9-0.6,1.4-0.6h10.1c0.3,0,0.5-0.2,0.5-0.5c0-0.3-0.2-0.5-0.5-0.5H2.9c-0.8,0-1.5,0.3-2,0.8S0,5.9,0,6.7v14.4
		c0,0.8,0.3,1.5,0.8,2c0.6,0.6,1.2,0.8,2,0.8h14.4c0.4,0,0.7-0.1,1.1-0.2s0.6-0.4,0.9-0.6c0.3-0.3,0.5-0.6,0.6-0.9
		c0.1-0.4,0.2-0.7,0.2-1.1V10C20.2,9.8,19.9,9.6,19.7,9.6z"/>
	<path class="st0" d="M23.5,0h-6.7c-0.3,0-0.5,0.2-0.5,0.5s0.2,0.5,0.5,0.5h5.6L9.8,13.6c-0.2,0.2-0.2,0.5,0,0.6
		c0.1,0.1,0.2,0.1,0.3,0.1s0.2,0,0.3-0.1L23.1,1.6v5.6c0,0.3,0.2,0.5,0.5,0.5S24,7.5,24,7.2V0.5C24,0.2,23.8,0,23.5,0z"/>
</g>
</svg>
