<?xml version="1.0" encoding="utf-8"?>
<!-- Generator: Adobe Illustrator 25.4.1, SVG Export Plug-In . SVG Version: 6.00 Build 0)  -->
<svg version="1.1" id="Capa_1" xmlns="http://www.w3.org/2000/svg" xmlns:xlink="http://www.w3.org/1999/xlink" x="0px" y="0px"
	 viewBox="0 0 24 24" style="enable-background:new 0 0 24 24;" xml:space="preserve">
<style type="text/css">
	.st0{fill:#263238;}
</style>
<g>
	<path class="st0" d="M0.5,4.8h14c0.2,1.1,1.2,1.9,2.4,1.9c1.2,0,2.1-0.8,2.4-1.9h4.4c0.3,0,0.5-0.2,0.5-0.5c0-0.3-0.2-0.5-0.5-0.5
		h-4.4c-0.2-1.1-1.2-1.9-2.4-1.9c-1.2,0-2.1,0.8-2.4,1.9h-14C0.2,3.8,0,4,0,4.3C0,4.6,0.2,4.8,0.5,4.8z M16.8,2.9
		c0.8,0,1.4,0.6,1.4,1.4l0,0l0,0c0,0.8-0.6,1.4-1.4,1.4c-0.8,0-1.4-0.6-1.4-1.4S16,2.9,16.8,2.9z"/>
	<path class="st0" d="M23.5,19.2h-4.4c-0.2-1.1-1.2-1.9-2.4-1.9c-1.2,0-2.1,0.8-2.4,1.9h-14c-0.3,0-0.5,0.2-0.5,0.5
		c0,0.3,0.2,0.5,0.5,0.5h14c0.2,1.1,1.2,1.9,2.4,1.9c1.2,0,2.1-0.8,2.4-1.9h4.4c0.3,0,0.5-0.2,0.5-0.5C24,19.4,23.8,19.2,23.5,19.2z
		 M16.8,21.1c-0.8,0-1.4-0.6-1.4-1.4s0.6-1.4,1.4-1.4c0.8,0,1.4,0.6,1.4,1.4l0,0l0,0C18.2,20.5,17.6,21.1,16.8,21.1z"/>
	<path class="st0" d="M23.5,11.5h-14c-0.2-1.1-1.2-1.9-2.4-1.9s-2.1,0.8-2.4,1.9H0.5C0.2,11.5,0,11.7,0,12s0.2,0.5,0.5,0.5h4.4
		c0.2,1.1,1.2,1.9,2.4,1.9s2.1-0.8,2.4-1.9h14c0.3,0,0.5-0.2,0.5-0.5S23.8,11.5,23.5,11.5z M7.2,13.4c-0.8,0-1.4-0.6-1.4-1.4
		s0.6-1.4,1.4-1.4c0.8,0,1.4,0.6,1.4,1.4l0,0l0,0C8.6,12.8,8,13.4,7.2,13.4z"/>
</g>
</svg>
