<?xml version="1.0" encoding="utf-8"?>
<!-- Generator: Adobe Illustrator 25.4.1, SVG Export Plug-In . SVG Version: 6.00 Build 0)  -->
<svg version="1.1" id="Capa_1" xmlns="http://www.w3.org/2000/svg" xmlns:xlink="http://www.w3.org/1999/xlink" x="0px" y="0px"
	 viewBox="0 0 24 24" style="enable-background:new 0 0 24 24;" xml:space="preserve">
<style type="text/css">
	.st0{fill:#263238;}
</style>
<path class="st0" d="M24,0.7c0-0.2-0.1-0.3-0.2-0.5S23.5,0,23.3,0c-0.2,0-0.3,0-0.5,0L0.6,8.4l0,0c-0.2,0-0.3,0.2-0.4,0.3
	C0,8.9,0,9.1,0,9.3c0,0.2,0,0.4,0.2,0.5c0.1,0.1,0.3,0.3,0.4,0.3l9.2,3.7c0,0,0.1,0,0.1,0.1c0,0,0.1,0.1,0.1,0.2l3.7,9.2
	c0,0.2,0.2,0.3,0.3,0.4s0.3,0.2,0.5,0.2l0,0c0.2,0,0.3,0,0.5-0.1c0.1-0.1,0.3-0.2,0.3-0.4L24,1.2C24,1.1,24,0.9,24,0.7z M1,9.3
	l21-7.9L10.3,13c0,0,0,0-0.1,0L1,9.3z M14.7,23L11,13.9c0,0,0-0.1,0-0.1L22.6,2.1L14.7,23z"/>
</svg>
