<svg xmlns="http://www.w3.org/2000/svg" viewBox="0 0 24 24" style="enable-background:new 0 0 24 24" xml:space="preserve"><path d="M13.6 11.6c-2.5 0-4.8-2.4-5-5.4-.1-1.4.4-2.8 1.3-3.8S12.2.9 13.6.9s2.8.6 3.7 1.6c1 1 1.4 2.4 1.3 3.9-.2 2.8-2.4 5.2-5 5.2zm0-9.8c-1.2 0-2.3.4-3 1.2-.8.8-1.2 2-1.1 3.2.2 2.4 2 4.5 4 4.5s3.9-2.1 4-4.5c.2-1.2-.2-2.4-1-3.2-.6-.8-1.7-1.2-2.9-1.2zm4.6 4.4zm4.5 16.9H4.6c-.4 0-.7-.1-1-.4-.3-.3-.4-.8-.3-1.2.9-5.2 6-7.5 10.3-7.5s9.4 2.3 10.3 7.5c.1.4 0 .9-.3 1.2-.2.3-.5.4-.9.4zm-9.1-8.2c-3.9 0-8.5 2.1-9.3 6.7 0 .1 0 .3.1.4 0 0 .1.1.2.1h18.1c.1 0 .2 0 .2-.1.1-.1.1-.2.1-.4-.9-4.6-5.5-6.7-9.4-6.7zm-7.4-3.7H.5c-.3 0-.5-.2-.5-.5s.2-.5.5-.5h5.8c.3 0 .5.2.5.5-.1.3-.3.5-.6.5z" style="fill:#263238"/></svg>