<?xml version="1.0" encoding="utf-8"?>
<!-- Generator: Adobe Illustrator 25.4.1, SVG Export Plug-In . SVG Version: 6.00 Build 0)  -->
<svg version="1.1" id="Capa_1" xmlns="http://www.w3.org/2000/svg" xmlns:xlink="http://www.w3.org/1999/xlink" x="0px" y="0px"
	 viewBox="0 0 24 24" style="enable-background:new 0 0 24 24;" xml:space="preserve">
<style type="text/css">
	.st0{fill:#263238;}
</style>
<g>
	<g>
		<path class="st0" d="M13.6,11.6c-2.5,0-4.8-2.4-5-5.4C8.5,4.8,9,3.4,9.9,2.4c0.9-1,2.3-1.5,3.7-1.5s2.8,0.6,3.7,1.6
			c1,1,1.4,2.4,1.3,3.9l0,0C18.4,9.2,16.2,11.6,13.6,11.6z M13.6,1.8c-1.2,0-2.3,0.4-3,1.2C9.8,3.8,9.4,5,9.5,6.2
			c0.2,2.4,2,4.5,4,4.5s3.9-2.1,4-4.5C17.7,5,17.3,3.8,16.5,3C15.9,2.2,14.8,1.8,13.6,1.8z M18.2,6.2L18.2,6.2L18.2,6.2z"/>
	</g>
	<g>
		<path class="st0" d="M22.7,23.1H4.6c-0.4,0-0.7-0.1-1-0.4c-0.3-0.3-0.4-0.8-0.3-1.2c0.9-5.2,6-7.5,10.3-7.5s9.4,2.3,10.3,7.5
			c0.1,0.4,0,0.9-0.3,1.2C23.4,23,23.1,23.1,22.7,23.1z M13.6,14.9c-3.9,0-8.5,2.1-9.3,6.7c0,0.1,0,0.3,0.1,0.4c0,0,0.1,0.1,0.2,0.1
			h18.1c0.1,0,0.2,0,0.2-0.1c0.1-0.1,0.1-0.2,0.1-0.4C22.1,17,17.5,14.9,13.6,14.9z"/>
	</g>
	<g>
		<path class="st0" d="M6.2,11.2H0.5C0.2,11.2,0,11,0,10.7c0-0.3,0.2-0.5,0.5-0.5h5.8c0.3,0,0.5,0.2,0.5,0.5
			C6.7,11,6.5,11.2,6.2,11.2z"/>
	</g>
</g>
</svg>
