<?xml version="1.0" encoding="utf-8"?>
<!-- Generator: Adobe Illustrator 25.4.1, SVG Export Plug-In . SVG Version: 6.00 Build 0)  -->
<svg version="1.1" id="Capa_1" xmlns="http://www.w3.org/2000/svg" xmlns:xlink="http://www.w3.org/1999/xlink" x="0px" y="0px"
	 viewBox="0 0 24 24" style="enable-background:new 0 0 24 24;" xml:space="preserve">
<style type="text/css">
	.st0{fill:#263238;}
</style>
<g>
	<path class="st0" d="M13.6,11.7c2.5,0,4.8-2.4,5-5.4c0.1-1.5-0.3-2.9-1.3-3.9c-1-1-2.3-1.6-3.7-1.6s-2.8,0.6-3.7,1.5
		c-1,1-1.4,2.4-1.3,3.9C8.9,9.3,11.1,11.7,13.6,11.7z M10.7,3c0.8-0.8,1.8-1.2,3-1.2s2.3,0.4,3,1.2c0.8,0.8,1.2,2,1.1,3.2
		c-0.2,2.4-2,4.5-4,4.5s-3.9-2.1-4-4.5C9.5,5,9.9,3.9,10.7,3z"/>
	<path class="st0" d="M24,21.5c-0.9-5.2-6-7.5-10.3-7.5s-9.4,2.4-10.3,7.5c-0.1,0.4,0,0.9,0.3,1.2c0.2,0.3,0.6,0.4,1,0.4h18.1
		c0.4,0,0.7-0.1,1-0.4C24,22.4,24.1,22,24,21.5z M23,22.2c0,0-0.1,0.1-0.2,0.1H4.6c-0.1,0-0.2,0-0.2-0.1c-0.1-0.1-0.1-0.2-0.1-0.4
		c0.8-4.6,5.5-6.7,9.4-6.7s8.5,2.1,9.4,6.7C23.1,21.9,23.1,22.1,23,22.2z"/>
	<path class="st0" d="M3.8,13.7v-2.4h2.4c0.3,0,0.5-0.2,0.5-0.5c0-0.3-0.2-0.5-0.5-0.5H3.8V7.9c0-0.3-0.2-0.5-0.5-0.5
		S2.9,7.6,2.9,7.9v2.4H0.5c-0.3,0-0.5,0.2-0.5,0.5c0,0.3,0.2,0.5,0.5,0.5h2.4v2.4c0,0.3,0.2,0.5,0.5,0.5S3.8,13.9,3.8,13.7z"/>
</g>
</svg>
