<?xml version="1.0" encoding="utf-8"?>
<!-- Generator: Adobe Illustrator 25.4.1, SVG Export Plug-In . SVG Version: 6.00 Build 0)  -->
<svg version="1.1" id="Capa_1" xmlns="http://www.w3.org/2000/svg" xmlns:xlink="http://www.w3.org/1999/xlink" x="0px" y="0px"
	 viewBox="0 0 24 24" style="enable-background:new 0 0 24 24;" xml:space="preserve">
<style type="text/css">
	.st0{fill:#263238;}
</style>
<g>
	<g>
		<path class="st0" d="M12,24C5.4,24,0,18.6,0,12c0-1.7,0.4-3.5,1.1-5.1s1.8-3,3.2-4.1c0.2-0.2,0.5-0.1,0.7,0c0.2,0.2,0.1,0.5,0,0.7
			C3.6,4.6,2.6,5.9,2,7.3S0.9,10.4,0.9,12c0,6.1,4.9,11,11,11s11-4.9,11-11c0-1.6-0.4-3.3-1.1-4.7s-1.7-2.8-3-3.8
			c-0.2-0.2-0.2-0.5,0-0.7c0.2-0.2,0.5-0.2,0.7,0c1.3,1.1,2.5,2.5,3.2,4.1c0.8,1.6,1.2,3.4,1.2,5.1C24,18.6,18.6,24,12,24z"/>
	</g>
	<g>
		<path class="st0" d="M12,12.5c-0.3,0-0.5-0.2-0.5-0.5V0.5C11.5,0.2,11.7,0,12,0c0.3,0,0.5,0.2,0.5,0.5V12
			C12.5,12.3,12.3,12.5,12,12.5z"/>
	</g>
</g>
</svg>
