<?xml version="1.0" encoding="utf-8"?>
<!-- Generator: Adobe Illustrator 25.4.1, SVG Export Plug-In . SVG Version: 6.00 Build 0)  -->
<svg version="1.1" id="Capa_1" xmlns="http://www.w3.org/2000/svg" xmlns:xlink="http://www.w3.org/1999/xlink" x="0px" y="0px"
	 viewBox="0 0 24 24" style="enable-background:new 0 0 24 24;" xml:space="preserve">
<style type="text/css">
	.st0{fill:#263238;}
</style>
<g>
	<path class="st0" d="M23,4.8c-0.5-0.5-1.2-0.9-2-0.9h-1V3c0-0.8-0.3-1.5-0.9-2c-0.5-0.5-1.2-0.9-2-0.9H6.8C6,0.1,5.3,0.4,4.8,1
		C4.3,1.5,3.9,2.2,3.9,3v1H3c-0.8,0-1.5,0.3-2,0.9C0.5,5.3,0.1,6,0.1,6.8v9.5c0,0.8,0.3,1.5,0.9,2c0.5,0.5,1.2,0.9,2,0.9h1V22
		c0,1,0.9,1.9,1.9,1.9h12.3c1,0,1.9-0.9,1.9-1.9v-2.9h1c0.8,0,1.5-0.3,2-0.9c0.5-0.5,0.9-1.2,0.9-2V6.8C23.9,6,23.6,5.3,23,4.8z
		 M4.9,3c0-0.5,0.2-1,0.6-1.3c0.4-0.4,0.9-0.6,1.3-0.6h10.5c0.5,0,1,0.2,1.3,0.6C19,2,19.1,2.5,19.1,3v1H4.9V3z M19.1,22
		c0,0.5-0.4,1-1,1H5.8c-0.5,0-1-0.4-1-1v-9.5c0-0.5,0.4-1,1-1h12.3c0.5,0,1,0.4,1,1L19.1,22L19.1,22z M22.9,16.3
		c0,0.5-0.2,1-0.6,1.3C22,18,21.5,18.2,21,18.2h-1v-5.7c0-1-0.9-1.9-1.9-1.9H5.8c-1,0-1.9,0.9-1.9,1.9v5.7H3c-0.5,0-1-0.2-1.3-0.6
		c-0.4-0.4-0.6-0.9-0.6-1.3V6.8c0-0.5,0.2-1,0.6-1.3C2,5.1,2.5,4.9,3,4.9H21c0.5,0,1,0.2,1.3,0.6c0.4,0.4,0.6,0.9,0.6,1.3V16.3z"/>
	<path class="st0" d="M20.1,6.3c-0.8,0-1.4,0.6-1.4,1.4s0.6,1.4,1.4,1.4c0.8,0,1.4-0.6,1.4-1.4S20.9,6.3,20.1,6.3z M20.1,8.2
		c-0.3,0-0.5-0.2-0.5-0.5c0-0.3,0.2-0.5,0.5-0.5c0.3,0,0.5,0.2,0.5,0.5C20.6,8,20.4,8.2,20.1,8.2z"/>
</g>
</svg>
