<?xml version="1.0" encoding="utf-8"?>
<!-- Generator: Adobe Illustrator 25.4.1, SVG Export Plug-In . SVG Version: 6.00 Build 0)  -->
<svg version="1.1" id="Capa_1" xmlns="http://www.w3.org/2000/svg" xmlns:xlink="http://www.w3.org/1999/xlink" x="0px" y="0px"
	 viewBox="0 0 24 24" style="enable-background:new 0 0 24 24;" xml:space="preserve">
<style type="text/css">
	.st0{fill:#263238;}
</style>
<g>
	<path class="st0" d="M20.4,0.9c-0.5-0.5-1.2-0.8-1.9-0.8H5.4C4.7,0.1,4,0.4,3.5,0.9C3,1.4,2.7,2,2.7,2.8v11.4
		c0,0.7,0.3,1.4,0.8,1.9c0.5,0.5,1.2,0.8,1.9,0.8h2.2c0.3,0,0.5-0.2,0.5-0.5S7.9,16,7.6,16H5.4c-0.5,0-0.9-0.2-1.2-0.5
		c-0.3-0.3-0.5-0.7-0.5-1.2V2.8c0-0.5,0.2-0.9,0.5-1.2C4.4,1.2,4.9,1,5.4,1h13.2c0.5,0,0.9,0.2,1.2,0.5c0.3,0.3,0.5,0.7,0.5,1.2
		v11.4c0,0.5-0.2,0.9-0.5,1.2c-0.3,0.4-0.7,0.5-1.2,0.5h-2.2c-0.3,0-0.5,0.2-0.5,0.5c0,0.3,0.2,0.5,0.5,0.5h2.2
		c0.7,0,1.4-0.3,1.9-0.8c0.5-0.5,0.8-1.2,0.8-1.9V2.8C21.2,2,21,1.4,20.4,0.9z"/>
	<path class="st0" d="M16.1,11.4c0.1,0.1,0.2,0.1,0.3,0.1c0.1,0,0.2,0,0.3-0.1c0.2-0.2,0.2-0.5,0-0.6l-4.4-4.4
		c-0.2-0.2-0.5-0.2-0.6,0l-4.4,4.4c-0.2,0.2-0.2,0.5,0,0.6c0.2,0.2,0.5,0.2,0.6,0l3.6-3.6v15.6c0,0.3,0.2,0.5,0.5,0.5
		s0.5-0.2,0.5-0.5V7.8L16.1,11.4z"/>
</g>
</svg>
