<?xml version="1.0" encoding="utf-8"?>
<!-- Generator: Adobe Illustrator 25.4.1, SVG Export Plug-In . SVG Version: 6.00 Build 0)  -->
<svg version="1.1" id="Capa_1" xmlns="http://www.w3.org/2000/svg" xmlns:xlink="http://www.w3.org/1999/xlink" x="0px" y="0px"
	 viewBox="0 0 24 24" style="enable-background:new 0 0 24 24;" xml:space="preserve">
<style type="text/css">
	.st0{fill:#263238;}
</style>
<g>
	<path class="st0" d="M21.3,13.8c-0.3,0-0.5,0.2-0.5,0.5c0,1.8-0.5,3.4-1.5,4.9c-1,1.4-2.3,2.6-3.9,3.3c-1.6,0.7-3.4,0.8-5.1,0.5
		c-1.7-0.3-3.3-1.2-4.5-2.4c-1.3-1.3-2.1-2.8-2.4-4.5s-0.2-3.5,0.5-5.1c0.7-1.6,1.8-3,3.3-3.9s3.2-1.5,4.9-1.5c2,0,2.9,0.1,3.3,0.2
		c0,0.1,0,0.2,0,0.2l0,0l-3.7,3.6c-0.2,0.2-0.2,0.5,0,0.7c0.1,0.1,0.2,0.1,0.3,0.1c0.1,0,0.2,0,0.3-0.1L17,5.5
		c0.2-0.2,0.2-0.5,0-0.7l-4.6-4.6c-0.2-0.2-0.5-0.2-0.7,0c-0.2,0.2-0.2,0.5,0,0.7l3.9,3.9c-0.6-0.1-1.7-0.2-3.5-0.2
		c-2,0-3.8,0.6-5.4,1.6S3.7,8.7,3,10.5c-0.7,1.8-0.9,3.7-0.6,5.6c0.4,1.9,1.3,3.6,2.6,5c1.3,1.3,3.1,2.3,5,2.6
		c0.7,0.1,1.3,0.2,1.9,0.2c1.3,0,2.6-0.2,3.7-0.7c1.8-0.7,3.3-2,4.4-3.6c1.1-1.6,1.6-3.5,1.6-5.4C21.8,14,21.6,13.8,21.3,13.8z"/>
</g>
</svg>
