<?xml version="1.0" encoding="utf-8"?>
<!-- Generator: Adobe Illustrator 25.4.1, SVG Export Plug-In . SVG Version: 6.00 Build 0)  -->
<svg version="1.1" id="Capa_1" xmlns="http://www.w3.org/2000/svg" xmlns:xlink="http://www.w3.org/1999/xlink" x="0px" y="0px"
	 viewBox="0 0 24 24" style="enable-background:new 0 0 24 24;" xml:space="preserve">
<style type="text/css">
	.st0{fill:#263238;}
</style>
<g>
	<path class="st0" d="M17.6,7.2l-2.1,2c-0.2,0.2-0.2,0.5,0,0.7c0.1,0.1,0.2,0.1,0.3,0.1s0.2,0,0.3-0.1L19,7c0.1-0.1,0.1-0.2,0.1-0.3
		c0-0.1,0-0.2-0.1-0.3l-2.9-2.9c-0.2-0.2-0.5-0.2-0.7,0c-0.2,0.2-0.2,0.5,0,0.7l2.1,2.1H5.3c-1.4,0-2.7,0.6-3.7,1.5
		c-1,1-1.5,2.3-1.5,3.7v1c0,0.3,0.2,0.5,0.5,0.5S1,12.7,1,12.5v-1c0-1.2,0.5-2.2,1.3-3.1c0.8-0.8,1.9-1.3,3.1-1.3L17.6,7.2L17.6,7.2
		z"/>
	<path class="st0" d="M23.5,11.1c-0.3,0-0.5,0.2-0.5,0.5v1c0,1.2-0.5,2.2-1.3,3.1c-0.8,0.8-1.9,1.3-3.1,1.3H6.4l2.1-2.1
		c0.2-0.2,0.2-0.5,0-0.7c-0.2-0.2-0.5-0.2-0.7,0L5,17c-0.1,0.1-0.1,0.2-0.1,0.3s0,0.2,0.1,0.3l2.9,2.9c0.1,0.1,0.2,0.1,0.3,0.1
		c0.1,0,0.2,0,0.3-0.1c0.2-0.2,0.2-0.5,0-0.7l-2.1-2.1h12.3c1.4,0,2.7-0.6,3.7-1.5c1-1,1.5-2.3,1.5-3.7v-1
		C24,11.3,23.8,11.1,23.5,11.1z"/>
</g>
</svg>
