<?xml version="1.0" encoding="utf-8"?>
<!-- Generator: Adobe Illustrator 25.4.1, SVG Export Plug-In . SVG Version: 6.00 Build 0)  -->
<svg version="1.1" id="Capa_1" xmlns="http://www.w3.org/2000/svg" xmlns:xlink="http://www.w3.org/1999/xlink" x="0px" y="0px"
	 viewBox="0 0 24 24" style="enable-background:new 0 0 24 24;" xml:space="preserve">
<style type="text/css">
	.st0{fill:#263238;}
</style>
<g>
	<path class="st0" d="M17.7,9.8H1.6L4.4,7c0.2-0.2,0.2-0.5,0-0.6c-0.2-0.2-0.5-0.2-0.6,0L0.2,9.9c-0.2,0.2-0.2,0.5,0,0.6l3.5,3.5
		c0.1,0.1,0.2,0.1,0.3,0.1c0.1,0,0.2,0,0.3-0.1c0.2-0.2,0.2-0.5,0-0.6l-2.8-2.8h16.1c3,0,5.4,2.5,5.4,5.5v1.2c0,0.3,0.2,0.5,0.5,0.5
		c0.3,0,0.5-0.2,0.5-0.5v-1.1C24,12.6,21.2,9.8,17.7,9.8z"/>
</g>
</svg>
