<?xml version="1.0" encoding="utf-8"?>
<!-- Generator: Adobe Illustrator 25.4.1, SVG Export Plug-In . SVG Version: 6.00 Build 0)  -->
<svg version="1.1" id="Capa_1" xmlns="http://www.w3.org/2000/svg" xmlns:xlink="http://www.w3.org/1999/xlink" x="0px" y="0px"
	 viewBox="0 0 24 24" style="enable-background:new 0 0 24 24;" xml:space="preserve">
<style type="text/css">
	.st0{fill:#263238;}
</style>
<g>
	<path class="st0" d="M23.8,9.9l-3.6-3.6c-0.2-0.2-0.5-0.2-0.6,0s-0.2,0.5,0,0.6l2.8,2.8h-16c-3.5,0-6.3,2.9-6.3,6.4v1.1
		c0,0.3,0.2,0.5,0.5,0.5S1,17.6,1,17.3v-1.1c0-3,2.4-5.5,5.4-5.5h16l-2.8,2.8c-0.2,0.2-0.2,0.5,0,0.6c0.1,0.1,0.2,0.1,0.3,0.1
		s0.2,0,0.3-0.1l3.6-3.6C24,10.4,24,10.1,23.8,9.9z"/>
</g>
</svg>
