<?xml version="1.0" encoding="utf-8"?>
<!-- Generator: Adobe Illustrator 25.4.1, SVG Export Plug-In . SVG Version: 6.00 Build 0)  -->
<svg version="1.1" id="Capa_1" xmlns="http://www.w3.org/2000/svg" xmlns:xlink="http://www.w3.org/1999/xlink" x="0px" y="0px"
	 viewBox="0 0 24 24" style="enable-background:new 0 0 24 24;" xml:space="preserve">
<style type="text/css">
	.st0{fill:#263238;}
</style>
<g>
	<path class="st0" d="M23.8,5.8c-0.1-0.3-0.3-0.5-0.5-0.7l-4.1-3.8c-0.2-0.2-0.5-0.3-0.7-0.5c-0.3-0.1-0.6-0.1-0.8-0.1H3
		c-0.4,0-0.8,0.1-1.1,0.2s-0.7,0.3-1,0.6S0.4,2.1,0.2,2.5C0.1,2.8,0,3.2,0,3.5v16.9c0,0.4,0.1,0.8,0.2,1.1c0.1,0.3,0.4,0.7,0.7,0.9
		c0.3,0.3,0.6,0.5,1,0.6s0.8,0.2,1.1,0.2h18c0.8,0,1.6-0.3,2.1-0.8c0.6-0.5,0.9-1.3,0.9-2V6.7C24,6.4,24,6.1,23.8,5.8z M23.1,20.4
		c0,0.5-0.2,1-0.6,1.4c-0.4,0.4-0.9,0.6-1.5,0.6H3c-0.3,0-0.6,0-0.8-0.1C2,22.1,1.7,22,1.6,21.8s-0.3-0.4-0.4-0.6
		C1,20.9,1,20.7,1,20.4V3.5C1,3.3,1,3,1.1,2.8c0.1-0.2,0.2-0.4,0.4-0.6S2,1.8,2.2,1.8S2.7,1.6,3,1.6h14.7c0.2,0,0.3,0,0.5,0.1
		c0.2,0,0.3,0.1,0.4,0.3l0,0l4.1,3.8C22.9,5.9,22.9,6,23,6.2c0,0.1,0.1,0.3,0.1,0.5V20.4z"/>
	<path class="st0" d="M13.5,13.4c-0.8-0.3-1.5-0.4-2.3-0.2c-0.8,0.1-1.5,0.5-2.1,1c-0.6,0.5-0.9,1.2-1.1,1.9
		c-0.1,0.8-0.1,1.5,0.2,2.2c0.3,0.7,0.8,1.3,1.5,1.7c0.7,0.4,1.4,0.6,2.2,0.6l0,0c0.5,0,1-0.1,1.5-0.3c0.5-0.2,0.9-0.5,1.3-0.8
		c0.4-0.4,0.7-0.8,0.9-1.2c0.2-0.5,0.3-0.9,0.3-1.5c0-0.8-0.2-1.5-0.7-2.1C14.9,14.2,14.3,13.8,13.5,13.4z M14.9,18.1
		c-0.1,0.3-0.4,0.7-0.7,0.9c-0.3,0.3-0.6,0.5-1,0.6c-0.4,0.1-0.8,0.2-1.2,0.2l0,0c-0.6,0-1.2-0.2-1.7-0.5c-0.5-0.3-0.9-0.8-1.1-1.3
		C9,17.6,8.9,17,9,16.5s0.4-1,0.8-1.5c0.4-0.4,1-0.7,1.6-0.8c0.2,0,0.4,0,0.6,0c0.4,0,0.8,0.1,1.2,0.2c0.6,0.2,1,0.6,1.4,1.1
		c0.3,0.5,0.5,1,0.5,1.6C15.1,17.3,15,17.7,14.9,18.1z"/>
	<path class="st0" d="M14.7,3.2H4c-0.4,0-0.7,0.1-0.9,0.4C2.8,3.8,2.6,4.1,2.6,4.5v3.3c0,0.3,0.1,0.7,0.4,0.9C3.3,9,3.7,9.1,4,9.1
		h10.6c0.4,0,0.7-0.1,0.9-0.4C15.9,8.5,16,8.2,16,7.8V4.5c0-0.3-0.1-0.7-0.4-0.9C15.4,3.3,15,3.2,14.7,3.2z M15.1,7.8
		c0,0.1,0,0.2-0.1,0.2c-0.1,0.1-0.2,0.1-0.3,0.1H4c-0.1,0-0.2,0-0.3-0.1C3.6,8,3.6,7.9,3.6,7.8V4.5c0-0.1,0-0.2,0.1-0.2
		C3.8,4.2,3.9,4.2,4,4.2h10.6c0.1,0,0.2,0,0.3,0.1C15,4.3,15,4.4,15,4.5L15.1,7.8L15.1,7.8z"/>
</g>
</svg>
