<svg xmlns="http://www.w3.org/2000/svg" viewBox="0 0 24 24" style="enable-background:new 0 0 24 24" xml:space="preserve"><path d="M20.1 24h-3.4c-.3 0-.5-.2-.5-.5s.2-.5.5-.5h3.4c.8 0 1.5-.3 2-.8.6-.6.8-1.3.8-2v-3.4c0-.3.2-.5.5-.5s.5.2.5.5v3.4c0 1-.4 2-1.1 2.7-.7.7-1.7 1.1-2.7 1.1zm3.4-16.3c-.3 0-.5-.2-.5-.5V3.8c0-.8-.3-1.5-.8-2-.6-.6-1.3-.8-2-.8h-3.4c-.3 0-.5-.2-.5-.5s.2-.5.5-.5h3.4c1 0 2 .4 2.7 1.1.7.8 1.1 1.7 1.1 2.8v3.4c0 .1-.2.4-.5.4zM7.2 24H3.8c-1 0-2-.4-2.7-1.1-.7-.8-1.1-1.7-1.1-2.7v-3.4c0-.3.2-.5.5-.5s.5.2.5.5v3.4c0 .8.3 1.5.8 2s1.2.8 2 .8h3.4c.3 0 .5.2.5.5-.1.2-.3.5-.5.5zM.5 7.7c-.3 0-.5-.2-.5-.5V3.8c0-1 .4-2 1.1-2.7C1.8.4 2.8 0 3.8 0h3.4c.3 0 .5.2.5.5s-.2.4-.5.4H3.8c-.8 0-1.5.3-2 .8-.6.6-.9 1.4-.9 2.1v3.4c0 .2-.2.5-.4.5z" style="fill:#263238"/></svg>