<?xml version="1.0" encoding="utf-8"?>
<!-- Generator: Adobe Illustrator 25.4.1, SVG Export Plug-In . SVG Version: 6.00 Build 0)  -->
<svg version="1.1" id="Capa_1" xmlns="http://www.w3.org/2000/svg" xmlns:xlink="http://www.w3.org/1999/xlink" x="0px" y="0px"
	 viewBox="0 0 24 24" style="enable-background:new 0 0 24 24;" xml:space="preserve">
<style type="text/css">
	.st0{fill:#263238;}
</style>
<g>
	<g>
		<path class="st0" d="M20.1,24h-3.4c-0.3,0-0.5-0.2-0.5-0.5c0-0.3,0.2-0.5,0.5-0.5h3.4c0.8,0,1.5-0.3,2-0.8c0.6-0.6,0.8-1.3,0.8-2
			v-3.4c0-0.3,0.2-0.5,0.5-0.5c0.3,0,0.5,0.2,0.5,0.5v3.4c0,1-0.4,2-1.1,2.7C22.1,23.6,21.1,24,20.1,24z"/>
	</g>
	<g>
		<path class="st0" d="M23.5,7.7c-0.3,0-0.5-0.2-0.5-0.5V3.8c0-0.8-0.3-1.5-0.8-2c-0.6-0.6-1.3-0.8-2-0.8h-3.4
			c-0.3,0-0.5-0.2-0.5-0.5s0.2-0.5,0.5-0.5h3.4c1,0,2,0.4,2.7,1.1C23.6,1.9,24,2.8,24,3.9v3.4C24,7.4,23.8,7.7,23.5,7.7z"/>
	</g>
	<g>
		<path class="st0" d="M7.2,24H3.8c-1,0-2-0.4-2.7-1.1C0.4,22.1,0,21.2,0,20.2v-3.4c0-0.3,0.2-0.5,0.5-0.5s0.5,0.2,0.5,0.5v3.4
			c0,0.8,0.3,1.5,0.8,2C2.3,22.7,3,23,3.8,23h3.4c0.3,0,0.5,0.2,0.5,0.5C7.6,23.7,7.4,24,7.2,24z"/>
	</g>
	<g>
		<path class="st0" d="M0.5,7.7C0.2,7.7,0,7.5,0,7.2V3.8c0-1,0.4-2,1.1-2.7C1.8,0.4,2.8,0,3.8,0h3.4c0.3,0,0.5,0.2,0.5,0.5
			S7.5,0.9,7.2,0.9H3.8c-0.8,0-1.5,0.3-2,0.8C1.2,2.3,0.9,3.1,0.9,3.8v3.4C0.9,7.4,0.7,7.7,0.5,7.7z"/>
	</g>
</g>
</svg>
