<?xml version="1.0" encoding="utf-8"?>
<!-- Generator: Adobe Illustrator 25.4.1, SVG Export Plug-In . SVG Version: 6.00 Build 0)  -->
<svg version="1.1" id="Capa_1" xmlns="http://www.w3.org/2000/svg" xmlns:xlink="http://www.w3.org/1999/xlink" x="0px" y="0px"
	 viewBox="0 0 24 24" style="enable-background:new 0 0 24 24;" xml:space="preserve">
<style type="text/css">
	.st0{fill:#263238;}
</style>
<g>
	<path class="st0" d="M23.9,23.2l-6.6-6.6l0,0c0.3-0.4,0.6-0.7,0.9-1.2c1.1-1.6,1.7-3.6,1.7-5.5c0-2.6-1-5.1-2.9-7
		C15,1,12.5,0,9.9,0C7.9,0,6,0.6,4.4,1.7C2.8,2.8,1.5,4.3,0.8,6.1c-0.8,1.8-1,3.8-0.6,5.7c0.4,1.9,1.3,3.7,2.7,5.1S6,19.2,8,19.6
		c0.6,0.1,1.3,0.2,1.9,0.2c1.3,0,2.6-0.2,3.8-0.7c1.1-0.5,2-1.1,2.9-1.8c0,0,0,0,0,0l6.6,6.6c0.1,0.1,0.2,0.1,0.3,0.1
		c0.1,0,0.2,0,0.3-0.1C24,23.7,24,23.4,23.9,23.2z M13.3,18.2c-1.7,0.7-3.5,0.9-5.2,0.5c-1.8-0.4-3.3-1.2-4.6-2.4
		c-1.2-1.2-2.1-2.9-2.4-4.6C0.7,9.9,0.9,8.1,1.6,6.5s1.8-3,3.3-4s3.2-1.5,5-1.5c2.4,0,4.7,0.9,6.4,2.6s2.6,4,2.6,6.4
		c0,1.8-0.5,3.5-1.5,5C16.4,16.4,15,17.5,13.3,18.2z"/>
</g>
</svg>
