<?xml version="1.0" encoding="utf-8"?>
<!-- Generator: Adobe Illustrator 25.4.1, SVG Export Plug-In . SVG Version: 6.00 Build 0)  -->
<svg version="1.1" id="Capa_1" xmlns="http://www.w3.org/2000/svg" xmlns:xlink="http://www.w3.org/1999/xlink" x="0px" y="0px"
	 viewBox="0 0 24 24" style="enable-background:new 0 0 24 24;" xml:space="preserve">
<style type="text/css">
	.st0{fill:#263238;}
</style>
<g>
	<path class="st0" d="M9.7,23.9c-0.2,0-0.5-0.1-0.7-0.2c-0.2-0.1-0.3-0.4-0.4-0.6l-0.4-2.6c0,0,0-0.1,0-0.2c0,0-0.1-0.1-0.1-0.1
		c-0.4-0.2-0.9-0.4-1.2-0.7c0,0-0.1,0-0.2,0c0,0-0.1,0-0.2,0l-2.4,1c-0.2,0.1-0.5,0.1-0.7,0c-0.2-0.1-0.4-0.2-0.6-0.5l-2.3-4
		c-0.1-0.2-0.2-0.5-0.1-0.7c0-0.2,0.2-0.5,0.4-0.6l2-1.6c0,0,0.1-0.1,0.1-0.1c0,0,0-0.1,0-0.2c0-0.2,0-0.5,0-0.7s0-0.5,0-0.7
		c0,0,0-0.1,0-0.2c0,0,0-0.1-0.1-0.1l-2-1.5C0.5,9.1,0.3,9,0.3,8.7c0-0.2,0-0.5,0.1-0.7l2.3-4C2.9,3.8,3,3.7,3.3,3.6s0.5-0.1,0.7,0
		l2.4,1c0,0,0.1,0,0.2,0s0.1,0,0.2,0C7.2,4.2,7.6,4,8,3.8c0,0,0.1,0,0.1-0.1c0,0,0-0.1,0-0.2L8.6,1c0-0.2,0.2-0.5,0.4-0.6
		c0.2-0.1,0.4-0.2,0.7-0.2h4.6c0.2,0,0.5,0.1,0.7,0.2c0.2,0.1,0.3,0.4,0.4,0.6l0.4,2.6c0,0,0,0.1,0,0.2c0,0,0.1,0.1,0.1,0.1
		c0.4,0.2,0.9,0.4,1.2,0.7c0,0,0.1,0,0.2,0c0,0,0.1,0,0.2,0l2.4-1c0.2-0.1,0.5-0.1,0.7,0c0.2,0.1,0.4,0.2,0.6,0.5l2.3,4
		c0.1,0.2,0.2,0.5,0.1,0.7c0,0.2-0.2,0.5-0.4,0.6l-2,1.6c0,0-0.1,0.1-0.1,0.1c0,0,0,0.1,0,0.2c0,0.2,0,0.5,0,0.7l0,0
		c0,0.3,0,0.6,0,0.9l2.2,1.7c0.2,0.2,0.3,0.4,0.4,0.6c0,0.2,0,0.5-0.1,0.7l-2.3,4c-0.1,0.2-0.3,0.4-0.6,0.5s-0.5,0.1-0.7,0l-2.4-1
		c0,0-0.1,0-0.2,0c0,0-0.1,0-0.2,0c-0.4,0.3-0.8,0.5-1.2,0.7c0,0-0.1,0-0.1,0.1c0,0,0,0.1,0,0.2L15.4,23c0,0.2-0.2,0.5-0.4,0.6
		c-0.2,0.1-0.4,0.2-0.7,0.2L9.7,23.9L9.7,23.9z M9.6,22.9L9.6,22.9C9.6,22.9,9.7,22.9,9.6,22.9l4.7,0c0,0,0,0,0,0l0,0l0.4-2.5
		c0-0.2,0.1-0.4,0.2-0.6c0.1-0.2,0.3-0.3,0.5-0.4c0.4-0.2,0.8-0.4,1.1-0.6c0.2-0.1,0.4-0.2,0.6-0.2s0.4,0,0.7,0.1l2.4,1h0
		c0,0,0,0,0,0l2.3-4v0c0,0,0,0,0,0l-2.4-1.9C20,13.3,20,13.1,20,13c0-0.3,0.1-0.7,0.1-1c0-0.2,0-0.4,0-0.6c0-0.2,0-0.4,0.1-0.7
		c0.1-0.2,0.2-0.4,0.4-0.5l2-1.6c0,0,0,0,0,0v0l-2.3-4l0,0c0,0,0,0-0.1,0l-2.4,1c-0.2,0.1-0.4,0.1-0.7,0.1c-0.2,0-0.4-0.1-0.6-0.2
		c-0.3-0.2-0.7-0.5-1.1-0.6c-0.2-0.1-0.4-0.2-0.5-0.4c-0.1-0.2-0.2-0.4-0.2-0.6L14.2,1l0,0c0,0,0,0,0,0c0,0,0,0-0.1,0H9.5
		c0,0,0,0,0,0l0,0L9.2,3.6C9.1,3.9,9.1,4,9,4.2C8.8,4.4,8.7,4.6,8.5,4.7C8.1,4.9,7.7,5,7.4,5.3C7.2,5.4,7,5.5,6.8,5.5
		c-0.2,0-0.4,0-0.7-0.1l-2.4-1h0l0,0l-2.3,4v0c0,0,0,0,0,0l2,1.6c0.2,0.1,0.3,0.3,0.4,0.5c0.1,0.2,0.1,0.4,0.1,0.7
		c0,0.2,0,0.4,0,0.6c0,0.2,0,0.4,0,0.6c0,0.2,0,0.4-0.1,0.7c-0.1,0.2-0.2,0.4-0.4,0.5l-2,1.6c0,0,0,0,0,0v0l2.3,4l0,0c0,0,0,0,0.1,0
		l2.4-1c0.2-0.1,0.4-0.1,0.7-0.1c0.2,0,0.4,0.1,0.6,0.2c0.3,0.2,0.7,0.5,1.1,0.6c0.2,0.1,0.4,0.2,0.5,0.4c0.1,0.2,0.2,0.4,0.2,0.6
		L9.6,22.9L9.6,22.9z M20.6,12L20.6,12L20.6,12z M12,15.9c-0.2,0-0.4,0-0.7,0c-0.8-0.1-1.5-0.5-2.1-1.1c-0.6-0.6-1-1.3-1.1-2.1
		C8,11.8,8,11,8.4,10.3C8.8,9.6,9.3,9,10,8.6c0.7-0.4,1.5-0.6,2.3-0.5l0,0c0.9,0.1,1.8,0.5,2.4,1.1c0.6,0.6,1,1.5,1.1,2.4
		c0.1,0.8-0.1,1.6-0.5,2.3c-0.4,0.7-1,1.2-1.7,1.6C13.1,15.7,12.5,15.9,12,15.9z M12,9c-0.5,0-1,0.1-1.5,0.4c-0.5,0.3-1,0.8-1.2,1.3
		C9,11.2,8.9,11.8,9,12.4s0.4,1.1,0.8,1.6c0.4,0.4,1,0.7,1.6,0.8c0.6,0.1,1.2,0,1.8-0.2c0.6-0.2,1-0.7,1.3-1.2
		c0.3-0.5,0.4-1.1,0.4-1.7c0-0.7-0.4-1.3-0.9-1.8c-0.5-0.5-1.1-0.8-1.8-0.9C12.1,9,12,9,12,9z"/>
</g>
</svg>
