<?xml version="1.0" encoding="utf-8"?>
<!-- Generator: Adobe Illustrator 25.4.1, SVG Export Plug-In . SVG Version: 6.00 Build 0)  -->
<svg version="1.1" id="Capa_1" xmlns="http://www.w3.org/2000/svg" xmlns:xlink="http://www.w3.org/1999/xlink" x="0px" y="0px"
	 viewBox="0 0 24 24" style="enable-background:new 0 0 24 24;" xml:space="preserve">
<style type="text/css">
	.st0{fill:#263238;}
</style>
<path class="st0" d="M19.7,17.3c-1.1,0-2.1,0.5-2.7,1.3l-9.6-5.4c0.1-0.4,0.2-0.8,0.2-1.2s-0.1-0.8-0.2-1.2L17,5.4
	c0.6,0.8,1.6,1.3,2.7,1.3c1.8,0,3.3-1.5,3.3-3.3S21.5,0,19.7,0c-1.8,0-3.3,1.5-3.3,3.3c0,0.4,0.1,0.8,0.2,1.2L7,10
	C6.4,9.2,5.4,8.7,4.3,8.7C2.5,8.7,1,10.2,1,12s1.5,3.3,3.3,3.3c1.1,0,2.1-0.5,2.7-1.3l9.6,5.4c-0.1,0.4-0.2,0.8-0.2,1.2
	c0,1.8,1.5,3.3,3.3,3.3c1.8,0,3.3-1.5,3.3-3.3C23,18.8,21.5,17.3,19.7,17.3z M19.7,1C21,1,22.1,2,22.1,3.4S21,5.8,19.7,5.8
	c-1.3,0-2.4-1.1-2.4-2.4S18.3,1,19.7,1z M4.3,14.4c-1.3,0-2.4-1.1-2.4-2.4S3,9.6,4.3,9.6s2.4,1.1,2.4,2.4S5.7,14.4,4.3,14.4z
	 M19.7,23c-1.3,0-2.4-1.1-2.4-2.4c0-1.3,1.1-2.4,2.4-2.4c1.3,0,2.4,1.1,2.4,2.4C22.1,22,21,23,19.7,23z"/>
</svg>
