<?xml version="1.0" encoding="utf-8"?>
<!-- Generator: Adobe Illustrator 25.4.1, SVG Export Plug-In . SVG Version: 6.00 Build 0)  -->
<svg version="1.1" id="Capa_1" xmlns="http://www.w3.org/2000/svg" xmlns:xlink="http://www.w3.org/1999/xlink" x="0px" y="0px"
	 viewBox="0 0 24 24" style="enable-background:new 0 0 24 24;" xml:space="preserve">
<style type="text/css">
	.st0{fill:#263238;}
</style>
<g>
	<path class="st0" d="M20.5,8.8C20,8.3,19.3,8,18.6,8h-2.2c-0.3,0-0.5,0.2-0.5,0.5c0,0.3,0.2,0.5,0.5,0.5h2.2c0.5,0,0.9,0.2,1.2,0.5
		s0.5,0.8,0.5,1.2v10.6c0,0.5-0.2,0.9-0.5,1.2C19.5,22.8,19,23,18.6,23H5.4c-0.5,0-0.9-0.2-1.2-0.5c-0.3-0.3-0.5-0.8-0.5-1.2V10.7
		c0-0.5,0.2-0.9,0.5-1.2S5,8.9,5.4,8.9h2.2c0.3,0,0.5-0.2,0.5-0.5C8.1,8.2,7.9,8,7.6,8H5.4C4.7,8,4,8.3,3.5,8.8S2.8,10,2.8,10.7
		v10.6c0,0.7,0.3,1.4,0.8,1.9c0.5,0.5,1.2,0.8,1.9,0.8h13.2c0.7,0,1.4-0.3,1.9-0.8c0.5-0.5,0.8-1.2,0.8-1.9V10.7
		C21.2,10,21,9.3,20.5,8.8z"/>
	<path class="st0" d="M7.9,5.3l3.6-3.6v13.9c0,0.3,0.2,0.5,0.5,0.5c0.3,0,0.5-0.2,0.5-0.5V1.7l3.6,3.6c0.1,0.1,0.2,0.1,0.3,0.1
		s0.2,0,0.3-0.1c0.2-0.2,0.2-0.5,0-0.6l-4.4-4.4l0,0c0,0-0.1-0.1-0.1-0.1c-0.1,0-0.2,0-0.4,0c0,0-0.1,0-0.1,0.1L7.3,4.6
		c-0.2,0.2-0.2,0.5,0,0.6C7.5,5.5,7.7,5.5,7.9,5.3z"/>
</g>
</svg>
