<svg xmlns="http://www.w3.org/2000/svg" viewBox="0 0 24 24" style="enable-background:new 0 0 24 24" xml:space="preserve"><path d="M19.7 17.3c-1.1 0-2.1.5-2.7 1.3l-9.6-5.4c.1-.4.2-.8.2-1.2s-.1-.8-.2-1.2L17 5.4c.6.8 1.6 1.3 2.7 1.3 1.8 0 3.3-1.5 3.3-3.3S21.5 0 19.7 0c-1.8 0-3.3 1.5-3.3 3.3 0 .4.1.8.2 1.2L7 10c-.6-.8-1.6-1.3-2.7-1.3C2.5 8.7 1 10.2 1 12s1.5 3.3 3.3 3.3c1.1 0 2.1-.5 2.7-1.3l9.6 5.4c-.1.4-.2.8-.2 1.2 0 1.8 1.5 3.3 3.3 3.3 1.8 0 3.3-1.5 3.3-3.3 0-1.8-1.5-3.3-3.3-3.3zm0-16.3c1.3 0 2.4 1 2.4 2.4S21 5.8 19.7 5.8c-1.3 0-2.4-1.1-2.4-2.4s1-2.4 2.4-2.4zM4.3 14.4c-1.3 0-2.4-1.1-2.4-2.4S3 9.6 4.3 9.6s2.4 1.1 2.4 2.4-1 2.4-2.4 2.4zM19.7 23c-1.3 0-2.4-1.1-2.4-2.4 0-1.3 1.1-2.4 2.4-2.4 1.3 0 2.4 1.1 2.4 2.4 0 1.4-1.1 2.4-2.4 2.4z" style="fill:#263238"/></svg>