<?xml version="1.0" encoding="utf-8"?>
<!-- Generator: Adobe Illustrator 25.4.1, SVG Export Plug-In . SVG Version: 6.00 Build 0)  -->
<svg version="1.1" id="Capa_1" xmlns="http://www.w3.org/2000/svg" xmlns:xlink="http://www.w3.org/1999/xlink" x="0px" y="0px"
	 viewBox="0 0 24 24" style="enable-background:new 0 0 24 24;" xml:space="preserve">
<style type="text/css">
	.st0{fill:#263238;}
</style>
<g>
	<path class="st0" d="M0.3,22.5c-0.2,0-0.3-0.2-0.3-0.4C0,12.5,4.3,7.4,12.5,7.2V1.9c0-0.2,0.1-0.3,0.3-0.4c0.2-0.1,0.4,0,0.5,0.1
		l10.6,10.1C24,11.8,24,11.9,24,12s0,0.2-0.1,0.3L13.3,22.4c-0.1,0.1-0.3,0.2-0.5,0.1c-0.2,0-0.3-0.2-0.3-0.4v-5.3
		c-6.2,0.1-8.7,1.9-11.6,5.6c-0.1,0.1-0.2,0.2-0.4,0.2C0.4,22.6,0.4,22.6,0.3,22.5z M13.4,3v4.7c0,0.3-0.2,0.5-0.5,0.5
		c-7.5,0-11.6,4.2-12,12.5c2.8-3.3,5.6-4.8,12-4.8c0.3,0,0.5,0.2,0.5,0.5V21l9.4-9L13.4,3z"/>
</g>
</svg>
