<?xml version="1.0" encoding="utf-8"?>
<!-- Generator: Adobe Illustrator 25.4.1, SVG Export Plug-In . SVG Version: 6.00 Build 0)  -->
<svg version="1.1" id="Capa_1" xmlns="http://www.w3.org/2000/svg" xmlns:xlink="http://www.w3.org/1999/xlink" x="0px" y="0px"
	 viewBox="0 0 24 24" style="enable-background:new 0 0 24 24;" xml:space="preserve">
<style type="text/css">
	.st0{fill:#263238;}
</style>
<g>
	<path class="st0" d="M21,14.5c-0.2-0.2-0.5-0.2-0.7,0c-0.2,0.2-0.2,0.5,0,0.7l2.6,2.6l-2.6,2.6c-0.2,0.2-0.2,0.5,0,0.7
		c0.1,0.1,0.2,0.1,0.3,0.1c0.1,0,0.2,0,0.3-0.1l2.9-2.9c0.2-0.2,0.2-0.5,0-0.7L21,14.5z"/>
	<path class="st0" d="M22.9,6.2l-2.6,2.6c-0.2,0.2-0.2,0.5,0,0.7c0.1,0.1,0.2,0.1,0.3,0.1c0.1,0,0.2,0,0.3-0.1l2.9-2.9
		c0.2-0.2,0.2-0.5,0-0.7L21,3c-0.2-0.2-0.5-0.2-0.7,0c-0.2,0.2-0.2,0.5,0,0.7L22.9,6.2z"/>
	<path class="st0" d="M22.1,17.7c0-0.3-0.2-0.5-0.5-0.5h-3.2c-0.7,0-1.4-0.2-2.1-0.5c-0.7-0.3-1.2-0.8-1.5-1.4l-2.5-3.6l0,0L9.9,8.1
		C9.5,7.4,8.8,6.8,8,6.4C7.3,6,6.4,5.8,5.6,5.8H0.5C0.2,5.8,0,6,0,6.2c0,0.3,0.2,0.5,0.5,0.5h5.1c0.7,0,1.4,0.2,2.1,0.5
		c0.6,0.3,1.2,0.8,1.5,1.4l2.2,3.4l-2.2,3.4c-0.4,0.6-0.9,1.1-1.5,1.4c-0.6,0.3-1.4,0.5-2.1,0.5H0.5c-0.3,0-0.5,0.2-0.5,0.5
		s0.2,0.5,0.5,0.5h5.1c0.9,0,1.7-0.2,2.5-0.6c0.7-0.4,1.4-1,1.9-1.7l2-3l2,3c0.5,0.7,1.1,1.3,1.9,1.7c0.7,0.4,1.6,0.6,2.5,0.6h3.2
		C21.9,18.2,22.1,18,22.1,17.7z"/>
	<path class="st0" d="M13.9,9.5c0.1,0,0.3-0.1,0.4-0.2l0.5-0.7c0.4-0.6,0.9-1.1,1.5-1.4c0.6-0.3,1.4-0.5,2.1-0.5h3.2
		c0.3,0,0.5-0.2,0.5-0.5c0-0.3-0.2-0.5-0.5-0.5h-3.2c-0.8,0-1.7,0.2-2.5,0.6c-0.7,0.4-1.4,1-1.9,1.7l-0.5,0.7
		c-0.1,0.2-0.1,0.5,0.1,0.7C13.7,9.5,13.8,9.5,13.9,9.5z"/>
</g>
</svg>
