<?xml version="1.0" encoding="utf-8"?>
<!-- Generator: Adobe Illustrator 25.4.1, SVG Export Plug-In . SVG Version: 6.00 Build 0)  -->
<svg version="1.1" id="Capa_1" xmlns="http://www.w3.org/2000/svg" xmlns:xlink="http://www.w3.org/1999/xlink" x="0px" y="0px"
	 viewBox="0 0 24 24" style="enable-background:new 0 0 24 24;" xml:space="preserve">
<style type="text/css">
	.st0{fill:#263238;}
</style>
<g>
	<path class="st0" d="M23.9,9l-6.2-6.2c-0.2-0.2-0.5-0.2-0.7,0L10.8,9c-0.2,0.2-0.2,0.5,0,0.7c0.2,0.2,0.5,0.2,0.7,0l5.4-5.4v16.6
		c0,0.3,0.2,0.5,0.5,0.5s0.5-0.2,0.5-0.5V4.2l5.4,5.4c0.1,0.1,0.2,0.1,0.3,0.1c0.1,0,0.2,0,0.3-0.1C24,9.5,24,9.2,23.9,9z"/>
	<path class="st0" d="M12.6,14.3l-5.4,5.4V3.1c0-0.3-0.2-0.5-0.5-0.5c-0.3,0-0.5,0.2-0.5,0.5v16.6l-5.4-5.4c-0.2-0.2-0.5-0.2-0.7,0
		C0,14.5,0,14.8,0.1,15l6.2,6.2c0.1,0.1,0.2,0.1,0.3,0.1s0.2,0,0.3-0.1l6.2-6.2c0.2-0.2,0.2-0.5,0-0.7C13,14.1,12.7,14.1,12.6,14.3z
		"/>
</g>
</svg>
