<?xml version="1.0" encoding="utf-8"?>
<!-- Generator: Adobe Illustrator 25.4.1, SVG Export Plug-In . SVG Version: 6.00 Build 0)  -->
<svg version="1.1" id="Capa_1" xmlns="http://www.w3.org/2000/svg" xmlns:xlink="http://www.w3.org/1999/xlink" x="0px" y="0px"
	 viewBox="0 0 24 24" style="enable-background:new 0 0 24 24;" xml:space="preserve">
<style type="text/css">
	.st0{fill:#263238;}
</style>
<g>
	<path class="st0" d="M3.2,7.2h16.6l-5.4,5.4c-0.2,0.2-0.2,0.5,0,0.7c0.1,0.1,0.2,0.1,0.3,0.1c0.1,0,0.2,0,0.3-0.1L21.1,7
		c0.2-0.2,0.2-0.5,0-0.7L15,0.2c-0.2-0.2-0.5-0.2-0.7,0s-0.2,0.5,0,0.7l5.4,5.4H3.2c-0.3,0-0.5,0.2-0.5,0.5C2.7,7,2.9,7.2,3.2,7.2z"
		/>
	<path class="st0" d="M20.8,16.8H4.3l5.4-5.4c0.2-0.2,0.2-0.5,0-0.7c-0.2-0.2-0.5-0.2-0.7,0L2.8,17c-0.1,0.1-0.1,0.2-0.1,0.3
		s0,0.2,0.1,0.3L9,23.8C9.1,23.9,9.2,24,9.3,24s0.2,0,0.3-0.1c0.2-0.2,0.2-0.5,0-0.7l-5.3-5.4h16.6c0.3,0,0.5-0.2,0.5-0.5
		S21.1,16.8,20.8,16.8z"/>
</g>
</svg>
