<?xml version="1.0" encoding="utf-8"?>
<!-- Generator: Adobe Illustrator 25.4.1, SVG Export Plug-In . SVG Version: 6.00 Build 0)  -->
<svg version="1.1" id="Capa_1" xmlns="http://www.w3.org/2000/svg" xmlns:xlink="http://www.w3.org/1999/xlink" x="0px" y="0px"
	 viewBox="0 0 24 24" style="enable-background:new 0 0 24 24;" xml:space="preserve">
<style type="text/css">
	.st0{fill:#263238;}
</style>
<g>
	<path class="st0" d="M18.8,17.5c-0.8,1-1.9,1.8-3.1,2.4s-2.5,0.8-3.8,0.8c-4.8,0-8.8-3.9-8.8-8.8v-1.1l1.6,1.5
		c0.1,0.1,0.2,0.1,0.3,0.1s0.2,0,0.3-0.1c0.2-0.2,0.2-0.5,0-0.7L3.1,9.4c-0.2-0.2-0.5-0.2-0.7,0l-2.3,2.3c-0.2,0.2-0.2,0.5,0,0.7
		s0.5,0.2,0.7,0l1.5-1.5V12c0,5.3,4.3,9.7,9.7,9.7c1.5,0,2.9-0.3,4.2-0.9c1.3-0.6,2.4-1.6,3.4-2.7c0.1-0.2,0.1-0.5,0-0.7
		C19.3,17.2,19,17.3,18.8,17.5z"/>
	<path class="st0" d="M23.9,11.7c-0.2-0.2-0.5-0.2-0.7,0l-1.6,1.5V12c0-5.3-4.3-9.7-9.7-9.7c-1.5,0-2.9,0.3-4.2,0.9
		C6.4,3.8,5.3,4.8,4.4,5.9C4.3,6,4.2,6.2,4.3,6.3c0,0.1,0.1,0.3,0.3,0.3l15.1,6.6l1.3,1.3c0.1,0.1,0.2,0.1,0.3,0.1s0.2,0,0.3-0.1
		l2.3-2.3C24,12.2,24,11.9,23.9,11.7z M8.2,4.2c1.2-0.6,2.5-0.8,3.8-0.8l0,0c4.8,0,8.7,3.9,8.7,8.7v0.8l-0.6-0.2l-0.9-0.9
		c-0.2-0.2-0.5-0.2-0.7,0c0,0,0,0.1-0.1,0.1L5.5,6.1C6.3,5.3,7.2,4.6,8.2,4.2z"/>
</g>
</svg>
