<svg xmlns="http://www.w3.org/2000/svg" viewBox="0 0 24 24" style="enable-background:new 0 0 24 24" xml:space="preserve"><path d="M18.8 17.5c-.8 1-1.9 1.8-3.1 2.4s-2.5.8-3.8.8c-4.8 0-8.8-3.9-8.8-8.8v-1.1l1.6 1.5c.1.1.2.1.3.1s.2 0 .3-.1c.2-.2.2-.5 0-.7L3.1 9.4c-.2-.2-.5-.2-.7 0L.1 11.7c-.2.2-.2.5 0 .7s.5.2.7 0l1.5-1.5V12c0 5.3 4.3 9.7 9.7 9.7 1.5 0 2.9-.3 4.2-.9 1.3-.6 2.4-1.6 3.4-2.7.1-.2.1-.5 0-.7-.3-.2-.6-.1-.8.1zm5.1-5.8c-.2-.2-.5-.2-.7 0l-1.6 1.5V12c0-5.3-4.3-9.7-9.7-9.7-1.5 0-2.9.3-4.2.9-1.3.6-2.4 1.6-3.3 2.7-.1.1-.2.3-.1.4 0 .1.1.3.3.3l15.1 6.6 1.3 1.3c.1.1.2.1.3.1s.2 0 .3-.1l2.3-2.3c.1 0 .1-.3 0-.5zM8.2 4.2c1.2-.6 2.5-.8 3.8-.8 4.8 0 8.7 3.9 8.7 8.7v.8l-.6-.2-.9-.9c-.2-.2-.5-.2-.7 0 0 0 0 .1-.1.1L5.5 6.1c.8-.8 1.7-1.5 2.7-1.9z" style="fill:#263238"/></svg>