<svg xmlns="http://www.w3.org/2000/svg" viewBox="0 0 24 24" style="enable-background:new 0 0 24 24" xml:space="preserve"><path d="M24 14.4c0-.6-.2-1.1-.6-1.5-.4-.4-.9-.6-1.4-.6.2-.3.4-.8.4-1.2 0-1.2-.9-2.2-2.1-2.2l-6.6-.5v-.1c.1-1.2.5-2.1.9-3.1.1-.4.3-.8.5-1.2.3-.8.2-1.6-.2-2.2-.4-.6-1.1-.9-2-.9-.2 0-.3.1-.4.3-.1.3-.8 1.2-1.5 2.3-.9 1.3-2.1 3-2.8 4.4-1.3 1.9-1.8 2.9-1.9 3.1-.1.1-.2.3-.4.4-.2.1-.4.1-.6.1H3.8c-1 0-2 .4-2.7 1.1S0 14.3 0 15.3v2.4c0 1 .4 2 1.1 2.7s1.7 1.1 2.7 1.1h3.1c1.2.8 2.6 1.6 5.1 1.6 2.1 0 3.1-.2 3.4-.3.2 0 .5.1.7.1l3.3.1c.6 0 1.1-.2 1.5-.6.4-.4.6-.9.6-1.5 0-.4-.1-.8-.3-1.2.5 0 1-.2 1.4-.6.4-.4.6-.9.6-1.5 0-.5-.2-1-.5-1.3.2-.1.5-.2.7-.5.3-.3.6-.9.6-1.4zm-2.6-3.3c0 .3-.1.6-.3.8-.2.2-.5.3-.8.3l-4.1-.1c-.8-.1-1.2-.4-1.2-1 0-.7.6-1 1.2-1.1l4.1-.2c.5 0 1.1.6 1.1 1.3zm-14 9.5c-.1 0-.2-.1-.3-.1H3.8c-.8 0-1.4-.3-2-.8-.5-.5-.8-1.2-.8-2v-2.4c0-.8.3-1.4.8-2s1.2-.8 2-.8h1.5c.4 0 .7-.1 1.1-.3.3-.2.6-.4.8-.8 0 0 .4-1 1.8-3.3.7-1.3 1.9-2.9 2.8-4.3.6-.9 1.1-1.6 1.4-2.1.4 0 .7.2.9.5.2.3.3.8.1 1.3-.2.5-.4.9-.6 1.2-.4 1.1-.8 2.1-1 3.4 0 .3.1.6.3.9.1.2.4.3.6.3H15c-.6.3-1 1-1 1.7 0 .8.3 1.3 1 1.7-.6.3-1 1-1 1.7s.3 1.3.9 1.6c-.6.3-.9 1-.9 1.6 0 .7.3 1.3.9 1.6-.5.4-.9 1-.9 1.6 0 .3 0 .7.3 1.1-.5.1-1.2.1-2.3.1-2.3.1-3.5-.6-4.6-1.4zm12.8 1.2c-.2.2-.5.3-.8.3l-3.3-.1c-1.1-.1-1.2-.6-1.2-1 0-.6.5-1.1 1.2-1.1l3.3-.1c.3 0 .6.1.8.3s.3.5.3.8c.1.4-.1.7-.3.9zm1.7-3.3c-.2.2-.5.3-.8.3l-4.9-.1c-.7 0-1.2-.4-1.2-1.1 0-.6.4-1 1.2-1.1l4.9-.1c.3 0 .6.1.8.3.2.2.3.5.3.8 0 .5-.1.8-.3 1zm.8-3.3c-.2.2-.5.3-.8.3l-5.8-.1c-.6 0-1.2-.4-1.2-1.1 0-.7.6-1 1.2-1.1l5.8-.1c.3 0 .6.1.8.3.2.2.3.5.3.8 0 .5-.1.8-.3 1z" style="fill:#263238"/></svg>