<?xml version="1.0" encoding="utf-8"?>
<!-- Generator: Adobe Illustrator 25.4.1, SVG Export Plug-In . SVG Version: 6.00 Build 0)  -->
<svg version="1.1" id="Capa_1" xmlns="http://www.w3.org/2000/svg" xmlns:xlink="http://www.w3.org/1999/xlink" x="0px" y="0px"
	 viewBox="0 0 24 24" style="enable-background:new 0 0 24 24;" xml:space="preserve">
<style type="text/css">
	.st0{fill:#263238;}
</style>
<path class="st0" d="M24,14.4c0-0.6-0.2-1.1-0.6-1.5c-0.4-0.4-0.9-0.6-1.4-0.6c0.2-0.3,0.4-0.8,0.4-1.2c0-1.2-0.9-2.2-2.1-2.2
	c0,0,0,0,0,0l-6.6-0.5c0,0,0,0,0-0.1c0.1-1.2,0.5-2.1,0.9-3.1c0.1-0.4,0.3-0.8,0.5-1.2c0.3-0.8,0.2-1.6-0.2-2.2
	c-0.4-0.6-1.1-0.9-2-0.9c-0.2,0-0.3,0.1-0.4,0.3c-0.1,0.3-0.8,1.2-1.5,2.3c-0.9,1.3-2.1,3-2.8,4.4C6.9,9.8,6.4,10.8,6.3,11
	c-0.1,0.1-0.2,0.3-0.4,0.4c-0.2,0.1-0.4,0.1-0.6,0.1H3.8c-1,0-2,0.4-2.7,1.1S0,14.3,0,15.3v2.4c0,1,0.4,2,1.1,2.7s1.7,1.1,2.7,1.1
	h3.1c1.2,0.8,2.6,1.6,5.1,1.6c2.1,0,3.1-0.2,3.4-0.3c0.2,0,0.5,0.1,0.7,0.1l3.3,0.1l0,0c0.6,0,1.1-0.2,1.5-0.6
	c0.4-0.4,0.6-0.9,0.6-1.5c0-0.4-0.1-0.8-0.3-1.2c0.5,0,1-0.2,1.4-0.6c0.4-0.4,0.6-0.9,0.6-1.5c0-0.5-0.2-1-0.5-1.3
	c0.2-0.1,0.5-0.2,0.7-0.5C23.7,15.5,24,14.9,24,14.4z M21.4,11.1c0,0.3-0.1,0.6-0.3,0.8c-0.2,0.2-0.5,0.3-0.8,0.3l-4.1-0.1
	C15.4,12,15,11.7,15,11.1c0-0.7,0.6-1,1.2-1.1l4.1-0.2C20.8,9.8,21.4,10.4,21.4,11.1z M7.4,20.6c-0.1,0-0.2-0.1-0.3-0.1H3.8
	c-0.8,0-1.4-0.3-2-0.8c-0.5-0.5-0.8-1.2-0.8-2v-2.4c0-0.8,0.3-1.4,0.8-2s1.2-0.8,2-0.8h1.5c0.4,0,0.7-0.1,1.1-0.3
	c0.3-0.2,0.6-0.4,0.8-0.8c0,0,0,0,0,0c0,0,0.4-1,1.8-3.3c0.7-1.3,1.9-2.9,2.8-4.3c0.6-0.9,1.1-1.6,1.4-2.1c0.4,0,0.7,0.2,0.9,0.5
	c0.2,0.3,0.3,0.8,0.1,1.3C14,4,13.8,4.4,13.6,4.7c-0.4,1.1-0.8,2.1-1,3.4c0,0.3,0.1,0.6,0.3,0.9c0.1,0.2,0.4,0.3,0.6,0.3L15,9.3
	c-0.6,0.3-1,1-1,1.7c0,0.8,0.3,1.3,1,1.7c-0.6,0.3-1,1-1,1.7c0,0.7,0.3,1.3,0.9,1.6c-0.6,0.3-0.9,1-0.9,1.6c0,0.7,0.3,1.3,0.9,1.6
	c-0.5,0.4-0.9,1-0.9,1.6c0,0.3,0,0.7,0.3,1.1C13.8,22,13.1,22,12,22C9.7,22.1,8.5,21.4,7.4,20.6z M20.2,21.8
	c-0.2,0.2-0.5,0.3-0.8,0.3L16.1,22c-1.1-0.1-1.2-0.6-1.2-1c0-0.6,0.5-1.1,1.2-1.1l3.3-0.1c0.3,0,0.6,0.1,0.8,0.3s0.3,0.5,0.3,0.8
	C20.6,21.3,20.4,21.6,20.2,21.8z M21.9,18.5c-0.2,0.2-0.5,0.3-0.8,0.3l-4.9-0.1c-0.7,0-1.2-0.4-1.2-1.1c0-0.6,0.4-1,1.2-1.1l4.9-0.1
	c0.3,0,0.6,0.1,0.8,0.3c0.2,0.2,0.3,0.5,0.3,0.8C22.2,18,22.1,18.3,21.9,18.5z M22.7,15.2c-0.2,0.2-0.5,0.3-0.8,0.3l-5.8-0.1
	c-0.6,0-1.2-0.4-1.2-1.1c0-0.7,0.6-1,1.2-1.1l5.8-0.1c0.3,0,0.6,0.1,0.8,0.3c0.2,0.2,0.3,0.5,0.3,0.8C23,14.7,22.9,15,22.7,15.2z"/>
</svg>
