<svg xmlns="http://www.w3.org/2000/svg" viewBox="0 0 24 24" style="enable-background:new 0 0 24 24" xml:space="preserve"><path d="M22.9 3.6c-.7-.7-1.6-1.1-2.7-1.1H17c-1-.8-2.5-1.7-5-1.7-2.1 0-3.1.2-3.3.3-.3 0-.5-.1-.8-.1L4.6.8c-.6 0-1.1.3-1.5.7s-.6.9-.7 1.5c0 .4.1.8.4 1.2-.5 0-1 .2-1.4.6s-.6.9-.6 1.5c0 .5.2.9.5 1.3-.3.1-.5.3-.7.4-.4.4-.6.9-.6 1.6 0 .6.2 1.1.6 1.5.4.3.9.6 1.4.6-.2.4-.4.8-.4 1.2 0 1.2.9 2.2 2.1 2.2l6.6.5v.1c-.1 1.2-.5 2.1-.9 3.2-.1.4-.3.8-.5 1.2-.3.8-.2 1.6.2 2.2.4.6 1.1.9 2 .9.2 0 .3-.1.4-.3.2-.3.8-1.2 1.5-2.3.9-1.4 2.1-3.1 2.8-4.3 1.2-2.1 1.7-3.1 1.8-3.3.1-.1.2-.3.4-.4.2-.1.4-.1.6-.1h1.6c1 0 1.9-.4 2.7-1.1.7-.7 1.1-1.6 1.1-2.7V6.3c0-1.1-.4-2-1.1-2.7zM3.8 2.1c.2-.2.5-.3.8-.3l3.2.1C8.9 2 9 2.5 9 3c0 .6-.5 1-1.1 1l-3.3.1c-.4 0-.6-.1-.9-.3s-.3-.6-.3-.8c0-.4.1-.6.4-.9zM2.1 5.4c.2-.2.5-.3.8-.3l4.9.1c.6 0 1.2.3 1.2 1.1 0 .6-.5 1-1.2 1.1H3c-.3 0-.6-.1-.8-.3-.3-.2-.4-.5-.4-.8 0-.4.1-.7.3-.9zM.9 9.6c0-.3.1-.6.3-.8.2-.2.5-.3.8-.3l5.7.1c.8-.1 1.3.2 1.3 1s-.7 1-1.2 1.1l-5.7.1c-.3 0-.6-.1-.8-.3-.3-.3-.4-.7-.4-.9zm1.7 3.2c0-.3.1-.6.3-.8.2-.2.5-.3.8-.3l4.1.1c.8.1 1.2.4 1.2 1.1 0 .8-.7 1-1.2 1.1l-4.1.2c-.5 0-1.1-.6-1.1-1.4zm20.5-4.1c0 .8-.3 1.5-.8 2s-1.2.8-2 .8h-1.6c-.4 0-.7.1-1 .3s-.6.4-.8.8c0 0-.5 1-1.7 3.2-.8 1.3-1.9 3-2.8 4.3-.6.9-1.1 1.6-1.4 2.1-.4 0-.8-.2-.9-.5-.2-.3-.3-.8-.1-1.3.1-.4.3-.8.5-1.2.4-1 .8-2.1 1-3.4 0-.3-.1-.6-.3-.8-.1-.2-.4-.3-.6-.3H9c.6-.3 1-.9 1-1.7s-.4-1.4-1-1.8c.6-.4.9-.9.9-1.6 0-.7-.3-1.3-.9-1.6.6-.5 1-1 1-1.7s-.4-1.4-.9-1.7c.5-.4.9-.9.9-1.6 0-.3 0-.7-.3-1.1.5 0 1.2-.1 2.3-.1 2.3 0 3.6.8 4.7 1.6.1 0 .2.1.3.1h3.3c.8 0 1.5.3 2 .8s.8 1.2.8 2v2.4z" style="fill:#263238"/></svg>