<?xml version="1.0" encoding="utf-8"?>
<!-- Generator: Adobe Illustrator 25.4.1, SVG Export Plug-In . SVG Version: 6.00 Build 0)  -->
<svg version="1.1" id="Capa_1" xmlns="http://www.w3.org/2000/svg" xmlns:xlink="http://www.w3.org/1999/xlink" x="0px" y="0px"
	 viewBox="0 0 24 24" style="enable-background:new 0 0 24 24;" xml:space="preserve">
<style type="text/css">
	.st0{fill:#263238;}
</style>
<g>
	<path class="st0" d="M22.9,3.6c-0.7-0.7-1.6-1.1-2.7-1.1h-3.2C16,1.7,14.5,0.8,12,0.8c-2.1,0-3.1,0.2-3.3,0.3C8.4,1.1,8.2,1,7.9,1
		L4.6,0.8l0,0C4,0.8,3.5,1.1,3.1,1.5S2.5,2.4,2.4,3c0,0.4,0.1,0.8,0.4,1.2c-0.5,0-1,0.2-1.4,0.6S0.8,5.7,0.8,6.3
		c0,0.5,0.2,0.9,0.5,1.3C1,7.7,0.8,7.9,0.6,8C0.2,8.4,0,8.9,0,9.6c0,0.6,0.2,1.1,0.6,1.5C1,11.4,1.5,11.7,2,11.7
		c-0.2,0.4-0.4,0.8-0.4,1.2c0,1.2,0.9,2.2,2.1,2.2c0,0,0,0,0,0l6.6,0.5c0,0,0,0.1,0,0.1c-0.1,1.2-0.5,2.1-0.9,3.2
		c-0.1,0.4-0.3,0.8-0.5,1.2c-0.3,0.8-0.2,1.6,0.2,2.2c0.4,0.6,1.1,0.9,2,0.9c0.2,0,0.3-0.1,0.4-0.3c0.2-0.3,0.8-1.2,1.5-2.3
		c0.9-1.4,2.1-3.1,2.8-4.3c1.2-2.1,1.7-3.1,1.8-3.3c0.1-0.1,0.2-0.3,0.4-0.4c0.2-0.1,0.4-0.1,0.6-0.1h1.6c1,0,1.9-0.4,2.7-1.1
		c0.7-0.7,1.1-1.6,1.1-2.7V6.3C24,5.2,23.6,4.3,22.9,3.6z M3.8,2.1C4,1.9,4.3,1.8,4.6,1.8l3.2,0.1C8.9,2,9,2.5,9,3
		C9,3.6,8.5,4,7.9,4L4.6,4.1C4.2,4.1,4,4,3.7,3.8S3.4,3.2,3.4,3C3.4,2.6,3.5,2.4,3.8,2.1z M2.1,5.4c0.2-0.2,0.5-0.3,0.8-0.3l4.9,0.1
		C8.4,5.2,9,5.5,9,6.3c0,0.6-0.5,1-1.2,1.1L3,7.4c-0.3,0-0.6-0.1-0.8-0.3C1.9,6.9,1.8,6.6,1.8,6.3C1.8,5.9,1.9,5.6,2.1,5.4z
		 M0.9,9.6c0-0.3,0.1-0.6,0.3-0.8c0.2-0.2,0.5-0.3,0.8-0.3l5.7,0.1C8.5,8.5,9,8.8,9,9.6c0,0.8-0.7,1-1.2,1.1l-5.7,0.1
		c-0.3,0-0.6-0.1-0.8-0.3C1,10.2,0.9,9.8,0.9,9.6z M2.6,12.8c0-0.3,0.1-0.6,0.3-0.8c0.2-0.2,0.5-0.3,0.8-0.3l4.1,0.1
		c0.8,0.1,1.2,0.4,1.2,1.1c0,0.8-0.7,1-1.2,1.1l-4.1,0.2C3.2,14.2,2.6,13.6,2.6,12.8z M23.1,8.7c0,0.8-0.3,1.5-0.8,2
		c-0.5,0.5-1.2,0.8-2,0.8h-1.6c-0.4,0-0.7,0.1-1,0.3s-0.6,0.4-0.8,0.8c0,0,0,0,0,0c0,0-0.5,1-1.7,3.2c-0.8,1.3-1.9,3-2.8,4.3
		c-0.6,0.9-1.1,1.6-1.4,2.1c-0.4,0-0.8-0.2-0.9-0.5c-0.2-0.3-0.3-0.8-0.1-1.3c0.1-0.4,0.3-0.8,0.5-1.2c0.4-1,0.8-2.1,1-3.4
		c0-0.3-0.1-0.6-0.3-0.8c-0.1-0.2-0.4-0.3-0.6-0.3l-1.6,0c0.6-0.3,1-0.9,1-1.7S9.6,11.6,9,11.2c0.6-0.4,0.9-0.9,0.9-1.6
		c0-0.7-0.3-1.3-0.9-1.6C9.6,7.5,10,7,10,6.3S9.6,4.9,9.1,4.6C9.6,4.2,10,3.7,10,3c0-0.3,0-0.7-0.3-1.1c0.5,0,1.2-0.1,2.3-0.1
		c2.3,0,3.6,0.8,4.7,1.6c0.1,0,0.2,0.1,0.3,0.1h3.3c0.8,0,1.5,0.3,2,0.8c0.5,0.5,0.8,1.2,0.8,2V8.7z"/>
</g>
</svg>
