<?xml version="1.0" encoding="utf-8"?>
<!-- Generator: Adobe Illustrator 25.4.1, SVG Export Plug-In . SVG Version: 6.00 Build 0)  -->
<svg version="1.1" id="Capa_1" xmlns="http://www.w3.org/2000/svg" xmlns:xlink="http://www.w3.org/1999/xlink" x="0px" y="0px"
	 viewBox="0 0 24 24" style="enable-background:new 0 0 24 24;" xml:space="preserve">
<style type="text/css">
	.st0{fill:#263238;}
</style>
<g>
	<path class="st0" d="M21.9,3.6h-5.8V1.8c0-0.2,0-0.5-0.1-0.7c-0.1-0.2-0.2-0.4-0.4-0.6c-0.2-0.2-0.4-0.3-0.6-0.4
		C14.7,0,14.5,0,14.3,0H9.9l0,0C9.6,0,9.4,0,9.2,0.1S8.7,0.4,8.6,0.5S8.3,0.9,8.2,1.1C8.1,1.3,8.1,1.6,8.1,1.8v1.8H2.3
		C2,3.6,1.8,3.7,1.8,4S2,4.5,2.3,4.5h1.3l1.1,17.3c0,1.3,1,2.2,2.2,2.2h10.2c1.2,0,2.2-0.9,2.2-2.2l1.1-17.3h1.3
		c0.3,0,0.5-0.2,0.5-0.5C22.2,3.7,22.1,3.6,21.9,3.6z M9,1.8c0-0.1,0-0.2,0-0.3s0.1-0.2,0.2-0.3C9.3,1.1,9.4,1.1,9.5,1
		c0.1,0,0.2,0,0.3,0h4.4l0,0c0.1,0,0.2,0,0.3,0c0.1,0,0.2,0.1,0.3,0.2C14.9,1.3,15,1.4,15,1.5c0,0.1,0,0.2,0,0.3v1.8H9V1.8z
		 M18.5,21.7c0,0.8-0.6,1.3-1.3,1.3H6.9c-0.7,0-1.3-0.6-1.3-1.3L4.6,4.5h15L18.5,21.7z"/>
	<path class="st0" d="M12.1,7.1c-0.3,0-0.5,0.2-0.5,0.5V20c0,0.3,0.2,0.5,0.5,0.5s0.5-0.2,0.5-0.5V7.6C12.5,7.3,12.3,7.1,12.1,7.1z"
		/>
	<path class="st0" d="M8.1,7.1c-0.3,0-0.5,0.2-0.5,0.5L8.1,20c0,0.2,0.2,0.5,0.5,0.5l0,0C8.8,20.4,9,20.2,9,20L8.5,7.6
		C8.5,7.3,8.3,7.1,8.1,7.1z"/>
	<path class="st0" d="M15.2,20c0,0.3,0.2,0.5,0.5,0.5l0,0c0.2,0,0.5-0.2,0.5-0.5l0.5-12.4c0-0.3-0.2-0.5-0.5-0.5
		c-0.3,0-0.5,0.2-0.5,0.5L15.2,20z"/>
</g>
</svg>
