<svg xmlns="http://www.w3.org/2000/svg" viewBox="0 0 24 24" style="enable-background:new 0 0 24 24" xml:space="preserve"><path d="M21.5 20.5c1.8-2.8 2.5-5.4 2.5-8.7 0-4-1.1-6.5-2.7-9.1-.1-.2-.4-.3-.7-.1-.3.1-.3.4-.2.7C22 5.6 23 8 23 11.8c0 3.1-.7 5.5-2.2 8l-2-2c1-1.8 1.6-3.5 1.6-6.1 0-2.8-.7-4.5-1.8-6.4-.1-.2-.4-.3-.7-.2-.2.1-.3.4-.2.7 1.1 1.8 1.7 3.4 1.7 5.9 0 2.2-.5 3.7-1.4 5.4l-2-2c.5-1.1.8-2.2.8-3.4 0-1.3-.3-2.5-.9-3.7-.1-.2-.4-.3-.6-.2-.3.2-.4.5-.3.6.6 1.1.9 2.2.9 3.3 0 .9-.2 1.8-.5 2.7l-3.8-3.8V4.3c0-.2 0-.3-.1-.5-.1-.1-.2-.2-.4-.3-.1-.1-.3-.1-.5-.1s-.3.1-.5.2L7 6.1 2.9 1.9c-.2-.2-.5-.2-.7 0-.2.2-.2.5 0 .7l4.1 4.1-1.2 1s-.1.1-.2.1h-4c-.2 0-.5.1-.7.3s-.2.4-.2.7V15c0 .2.1.5.3.7s.4.3.7.3h3.8c.1 0 .2 0 .2.1l5.1 4.2c.1.1.3.1.5.2h.1c.1 0 .3 0 .4-.1.1-.1.3-.2.4-.3.1-.1.1-.3.1-.5V12l3.5 3.5c0 .1.1.2.2.3h.1l2.3 2.3c0 .1.1.2.2.3h.1l2.3 2.3c0 .1.1.2.2.3h.1l.9.9c.1.1.2.1.3.1s.2 0 .3-.1c.2-.2.2-.5 0-.7l-.6-.7zM10.6 4.4v5.4l-2.9-3 2.9-2.4zm.1 14.9-5-4.1c-.2-.2-.5-.3-.9-.3H1V8.7h3.9c.3 0 .6-.1.9-.3l1.3-1.1 3.7 3.7-.1 8.3z" style="fill:#263238"/></svg>