<?xml version="1.0" encoding="utf-8"?>
<!-- Generator: Adobe Illustrator 25.4.1, SVG Export Plug-In . SVG Version: 6.00 Build 0)  -->
<svg version="1.1" id="Capa_1" xmlns="http://www.w3.org/2000/svg" xmlns:xlink="http://www.w3.org/1999/xlink" x="0px" y="0px"
	 viewBox="0 0 24 24" style="enable-background:new 0 0 24 24;" xml:space="preserve">
<style type="text/css">
	.st0{fill:#263238;}
</style>
<g>
	<g>
		<path class="st0" d="M10.6,20.4C10.6,20.4,10.6,20.4,10.6,20.4c-0.3,0-0.4-0.1-0.6-0.2l-5-4.1c0,0-0.1-0.1-0.2-0.1H1
			c-0.2,0-0.5-0.1-0.7-0.3C0.1,15.6,0,15.3,0,15.1V8.9c0-0.2,0.1-0.5,0.3-0.7C0.5,8,0.7,7.9,1,7.9h3.9l0,0c0.1,0,0.1,0,0.2-0.1
			l5.1-4.2c0.1-0.1,0.3-0.2,0.5-0.2c0.2,0,0.3,0,0.5,0.1s0.3,0.2,0.4,0.3c0.1,0.1,0.1,0.3,0.1,0.5v15c0,0.2,0,0.3-0.1,0.5
			c-0.1,0.1-0.2,0.3-0.4,0.3C10.9,20.4,10.8,20.4,10.6,20.4z M10.7,19.5L10.7,19.5L10.7,19.5z M4.8,15.1c0.3,0,0.6,0.1,0.9,0.3
			l5,4.1V4.5l-5,4.1C5.4,8.8,5.1,8.9,4.8,8.9H1V15L4.8,15.1C4.8,15.1,4.8,15.1,4.8,15.1z"/>
	</g>
	<g>
		<path class="st0" d="M15.5,16c-0.1,0-0.1,0-0.2,0c-0.2-0.1-0.3-0.4-0.2-0.6c0.6-1.1,0.8-2.2,0.8-3.3c0-1.1-0.3-2.2-0.8-3.3
			c-0.1-0.2,0-0.5,0.2-0.6c0.2-0.1,0.5,0,0.6,0.2c0.6,1.2,1,2.4,1,3.7c0,1.2-0.3,2.5-1,3.7C15.9,15.9,15.7,16,15.5,16z"/>
	</g>
	<g>
		<path class="st0" d="M18.2,18.7c-0.1,0-0.1,0-0.2,0c-0.2-0.1-0.3-0.4-0.2-0.7c1.1-1.9,1.7-3.4,1.7-5.9c0-2.5-0.6-4.1-1.7-5.9
			c-0.1-0.2,0-0.5,0.2-0.7s0.5,0,0.7,0.2c1.1,1.9,1.8,3.7,1.8,6.4c0,2.7-0.7,4.5-1.8,6.4C18.5,18.6,18.3,18.7,18.2,18.7z"/>
	</g>
	<g>
		<path class="st0" d="M20.8,21.3c-0.1,0-0.2,0-0.2-0.1c-0.2-0.1-0.3-0.4-0.1-0.7c1.8-2.8,2.6-5.3,2.6-8.6c0-3.8-1.1-6.2-2.6-8.6
			c-0.1-0.2-0.1-0.5,0.1-0.7c0.2-0.1,0.5-0.1,0.7,0.1C22.9,5.5,24,8,24,12c0,3.5-0.8,6.1-2.7,9.1C21.1,21.2,21,21.3,20.8,21.3z"/>
	</g>
</g>
</svg>
