<?xml version="1.0" encoding="utf-8"?>
<!-- Generator: Adobe Illustrator 25.4.1, SVG Export Plug-In . SVG Version: 6.00 Build 0)  -->
<svg version="1.1" id="Capa_1" xmlns="http://www.w3.org/2000/svg" xmlns:xlink="http://www.w3.org/1999/xlink" x="0px" y="0px"
	 viewBox="0 0 24 24" style="enable-background:new 0 0 24 24;" xml:space="preserve">
<style type="text/css">
	.st0{fill:#263238;}
</style>
<path class="st0" d="M19.9,0.5c-0.1-0.2-0.2-0.3-0.4-0.4C19.2,0,19,0,18.9,0s-0.4,0.1-0.6,0.2l-7.2,6c-0.1,0.1-0.3,0.2-0.5,0.2l0,0
	H5.1c-0.3,0-0.6,0.1-0.8,0.3C4.1,6.9,4,7.2,4,7.5v8.9c0,0.3,0.1,0.6,0.3,0.8c0.2,0.2,0.5,0.3,0.8,0.3h5.5c0.2,0,0.4,0,0.5,0.2l7.2,6
	c0.1,0.1,0.4,0.2,0.6,0.2c0,0,0,0,0.1,0c0.2,0,0.3,0,0.5-0.1c0.2-0.1,0.3-0.2,0.4-0.4s0.1-0.4,0.1-0.6V1.1C20,0.9,20,0.7,19.9,0.5z
	 M19.1,22.8C19.1,22.9,19.1,22.9,19.1,22.8C19,23,19,23,19,23c0,0,0,0-0.1,0s0,0,0,0l-7.1-6c-0.3-0.2-0.7-0.4-1.1-0.4H5.1
	c0,0-0.1,0-0.1,0c0,0,0-0.1,0-0.1V7.5c0,0,0-0.1,0-0.1c0,0,0,0,0.1,0h5.5c0.4,0,0.8-0.1,1.1-0.4l7.2-6c0,0,0,0,0,0c0,0,0,0,0.1,0
	c0,0,0,0,0,0c0,0,0,0,0,0.1C19.1,1.1,19.1,22.8,19.1,22.8z"/>
</svg>
