<?xml version="1.0" encoding="utf-8"?>
<!-- Generator: Adobe Illustrator 25.4.1, SVG Export Plug-In . SVG Version: 6.00 Build 0)  -->
<svg version="1.1" id="Capa_1" xmlns="http://www.w3.org/2000/svg" xmlns:xlink="http://www.w3.org/1999/xlink" x="0px" y="0px"
	 viewBox="0 0 24 24" style="enable-background:new 0 0 24 24;" xml:space="preserve">
<style type="text/css">
	.st0{fill:#263238;}
</style>
<g>
	<g>
		<path class="st0" d="M12.5,21.9C12.5,21.9,12.5,21.9,12.5,21.9c-0.3,0-0.5-0.1-0.6-0.2l-6-4.9c-0.1-0.1-0.2-0.1-0.3-0.1H1.1
			c-0.3,0-0.5-0.1-0.7-0.3c-0.2-0.2-0.3-0.4-0.3-0.7V8.3c0-0.3,0.1-0.5,0.3-0.7c0.2-0.2,0.4-0.3,0.7-0.3h4.5l0,0
			c0.1,0,0.2,0,0.3-0.1l6-4.9c0.2-0.1,0.3-0.2,0.5-0.2s0.4,0,0.5,0.1c0.1,0.1,0.3,0.2,0.4,0.4c0.1,0.1,0.1,0.3,0.1,0.5v17.7
			c0,0.2,0,0.4-0.1,0.5s-0.2,0.3-0.4,0.4C12.8,21.8,12.6,21.9,12.5,21.9z M1.1,8.3L1.1,8.3l0,7.4l0,0h4.5c0.3,0,0.7,0.1,1,0.3l6,4.9
			l0,0V3.2l0,0L6.5,8c-0.3,0.2-0.6,0.3-1,0.3l0,0C5.6,8.3,1.1,8.3,1.1,8.3z"/>
	</g>
	<g>
		<path class="st0" d="M18.2,16.7c-0.1,0-0.1,0-0.2,0c-0.2-0.1-0.3-0.4-0.2-0.6c0.7-1.3,1-2.6,1-3.9c0-1.3-0.3-2.6-1-3.9
			c-0.1-0.2,0-0.5,0.2-0.6c0.2-0.1,0.5,0,0.6,0.2c0.7,1.4,1.1,2.9,1.1,4.4c0,1.4-0.4,2.9-1.1,4.4C18.6,16.6,18.4,16.7,18.2,16.7z"/>
	</g>
	<g>
		<path class="st0" d="M21.4,19.7c-0.1,0-0.1,0-0.2,0c-0.2-0.1-0.3-0.4-0.2-0.7c1.3-2.2,2-4.1,2-7.1s-0.7-4.9-2-7
			c-0.1-0.2,0-0.5,0.2-0.7c0.2-0.1,0.5,0,0.7,0.2c1.3,2.3,2.2,4.3,2.2,7.5c0,3.2-0.8,5.1-2.2,7.5C21.7,19.7,21.5,19.7,21.4,19.7z"/>
	</g>
</g>
</svg>
