<?xml version="1.0" encoding="utf-8"?>
<!-- Generator: Adobe Illustrator 25.4.1, SVG Export Plug-In . SVG Version: 6.00 Build 0)  -->
<svg version="1.1" id="Capa_1" xmlns="http://www.w3.org/2000/svg" xmlns:xlink="http://www.w3.org/1999/xlink" x="0px" y="0px"
	 viewBox="0 0 24 24" style="enable-background:new 0 0 24 24;" xml:space="preserve">
<style type="text/css">
	.st0{fill:#263238;}
</style>
<path class="st0" d="M21.5,20.5c1.8-2.8,2.5-5.4,2.5-8.7c0-4-1.1-6.5-2.7-9.1c-0.1-0.2-0.4-0.3-0.7-0.1c-0.3,0.1-0.3,0.4-0.2,0.7
	C22,5.6,23,8,23,11.8c0,3.1-0.7,5.5-2.2,8l-2-2c1-1.8,1.6-3.5,1.6-6.1c0-2.8-0.7-4.5-1.8-6.4c-0.1-0.2-0.4-0.3-0.7-0.2
	c-0.2,0.1-0.3,0.4-0.2,0.7c1.1,1.8,1.7,3.4,1.7,5.9c0,2.2-0.5,3.7-1.4,5.4l-2-2c0.5-1.1,0.8-2.2,0.8-3.4c0-1.3-0.3-2.5-0.9-3.7
	c-0.1-0.2-0.4-0.3-0.6-0.2C15,8,14.9,8.3,15,8.4c0.6,1.1,0.9,2.2,0.9,3.3c0,0.9-0.2,1.8-0.5,2.7l-3.8-3.8V4.3c0-0.2,0-0.3-0.1-0.5
	c-0.1-0.1-0.2-0.2-0.4-0.3c-0.1-0.1-0.3-0.1-0.5-0.1c-0.2,0-0.3,0.1-0.5,0.2L7,6.1L2.9,1.9c-0.2-0.2-0.5-0.2-0.7,0
	C2,2.1,2,2.4,2.2,2.6l4.1,4.1l-1.2,1c0,0-0.1,0.1-0.2,0.1l0,0H0.9c-0.2,0-0.5,0.1-0.7,0.3S0,8.5,0,8.8v6.2c0,0.2,0.1,0.5,0.3,0.7
	s0.4,0.3,0.7,0.3h3.8c0.1,0,0.2,0,0.2,0.1l5.1,4.2c0.1,0.1,0.3,0.1,0.5,0.2c0,0,0,0,0.1,0c0.1,0,0.3,0,0.4-0.1
	c0.1-0.1,0.3-0.2,0.4-0.3c0.1-0.1,0.1-0.3,0.1-0.5V12l3.5,3.5c0,0.1,0.1,0.2,0.2,0.3c0,0,0,0,0.1,0l2.3,2.3c0,0.1,0.1,0.2,0.2,0.3
	c0,0,0,0,0.1,0l2.3,2.3c0,0.1,0.1,0.2,0.2,0.3c0,0,0.1,0,0.1,0l0.9,0.9c0.1,0.1,0.2,0.1,0.3,0.1s0.2,0,0.3-0.1
	c0.2-0.2,0.2-0.5,0-0.7L21.5,20.5z M10.6,4.4v5.4L7.7,6.8L10.6,4.4z M10.7,19.3l-5-4.1c-0.2-0.2-0.5-0.3-0.9-0.3l0,0l-3.8,0l0-6.2
	h3.9l0,0c0.3,0,0.6-0.1,0.9-0.3l1.3-1.1l3.7,3.7L10.7,19.3z"/>
</svg>
