<?xml version="1.0" encoding="utf-8"?>
<!-- Generator: Adobe Illustrator 25.4.1, SVG Export Plug-In . SVG Version: 6.00 Build 0)  -->
<svg version="1.1" id="Capa_1" xmlns="http://www.w3.org/2000/svg" xmlns:xlink="http://www.w3.org/1999/xlink" x="0px" y="0px"
	 viewBox="0 0 24 24" style="enable-background:new 0 0 24 24;" xml:space="preserve">
<style type="text/css">
	.st0{fill:#263238;}
</style>
<g>
	<path class="st0" d="M22,2c-1.8-1.8-4.5-2.4-7.7-1.7C11.2,0.9,8,2.8,5.4,5.4s-4.5,5.8-5.1,8.9c-0.7,3.2,0,5.9,1.7,7.7
		c1.3,1.3,3.2,2,5.3,2c3.6,0,7.9-1.9,11.3-5.4C24.2,13.1,25.7,5.6,22,2z M16.7,1c1.9,0,3.5,0.6,4.6,1.7c1.6,1.6,2.1,4.2,1.4,7
		c0-0.1,0-0.2-0.1-0.3l-8-8c-0.1,0-0.2-0.1-0.3-0.1c0,0,0.1,0,0.1,0C15.3,1.1,16,1,16.7,1z M2.7,21.3c-1.5-1.5-2.1-4-1.4-6.8
		c0,0,0-0.1,0-0.1c0,0.1,0,0.2,0.1,0.3l8,8c0.1,0.1,0.2,0.1,0.3,0.1C6.9,23.4,4.4,23,2.7,21.3z M17.9,17.9c-2.4,2.4-5.3,4.1-7.9,4.7
		c0,0,0,0,0.1,0c0.2-0.2,0.2-0.5,0-0.7l-8-8c-0.2-0.2-0.5-0.2-0.7,0c0,0,0,0,0,0c0.7-2.7,2.3-5.5,4.7-7.9s5.1-4,7.9-4.7c0,0,0,0,0,0
		c-0.2,0.2-0.2,0.5,0,0.7l8,8c0.1,0.1,0.2,0.1,0.3,0.1c0.1,0,0.2,0,0.3-0.1c0,0,0,0,0-0.1C22,12.7,20.4,15.5,17.9,17.9z"/>
	<path class="st0" d="M15.6,7.7L14.3,9l-0.8-0.8C13.3,8,13,8,12.8,8.2c-0.2,0.2-0.2,0.5,0,0.7l0.8,0.8L12,11.3l-0.8-0.8
		c-0.2-0.2-0.5-0.2-0.7,0c-0.2,0.2-0.2,0.5,0,0.7l0.8,0.8l-1.6,1.6l-0.8-0.8c-0.2-0.2-0.5-0.2-0.7,0C8,13,8,13.3,8.2,13.5L9,14.3
		l-1.3,1.3c-0.2,0.2-0.2,0.5,0,0.7c0.1,0.1,0.2,0.1,0.3,0.1s0.2,0,0.3-0.1L9.7,15l0.8,0.8c0.1,0.1,0.2,0.1,0.3,0.1s0.2,0,0.3-0.1
		c0.2-0.2,0.2-0.5,0-0.7l-0.8-0.8l1.6-1.6l0.8,0.8c0.1,0.1,0.2,0.1,0.3,0.1s0.2,0,0.3-0.1c0.2-0.2,0.2-0.5,0-0.7L12.7,12l1.6-1.6
		l0.8,0.8c0.1,0.1,0.2,0.1,0.3,0.1s0.2,0,0.3-0.1c0.2-0.2,0.2-0.5,0-0.7L15,9.7l1.3-1.3c0.2-0.2,0.2-0.5,0-0.7
		C16.1,7.5,15.8,7.5,15.6,7.7z"/>
</g>
</svg>
