<?xml version="1.0" encoding="utf-8"?>
<!-- Generator: Adobe Illustrator 25.4.1, SVG Export Plug-In . SVG Version: 6.00 Build 0)  -->
<svg version="1.1" id="Capa_1" xmlns="http://www.w3.org/2000/svg" xmlns:xlink="http://www.w3.org/1999/xlink" x="0px" y="0px"
	 viewBox="0 0 24 24" style="enable-background:new 0 0 24 24;" xml:space="preserve">
<style type="text/css">
	.st0{fill:#263238;}
</style>
<g>
	<path class="st0" d="M22.2,5.8c-1,0-1.7,0.8-1.7,1.7c0,0.3,0.1,0.6,0.2,0.8c0,0,0,0-0.1,0l-4.5,4.5c0,0,0,0,0,0.1
		c-0.2-0.1-0.5-0.2-0.8-0.2c-0.3,0-0.6,0.1-0.8,0.2c0,0,0,0,0-0.1l-3.3-3.3c0,0,0,0-0.1,0c0.1-0.2,0.2-0.5,0.2-0.8
		c0-1-0.8-1.7-1.7-1.7c-1,0-1.7,0.8-1.7,1.7C7.9,9,8,9.3,8.1,9.5c0,0,0,0-0.1,0l-5.3,5.4c0,0,0,0,0,0.1c-0.2-0.1-0.5-0.2-0.8-0.2
		c-1,0-1.7,0.8-1.7,1.7c0,1,0.8,1.7,1.7,1.7s1.7-0.8,1.7-1.7c0-0.3-0.1-0.6-0.2-0.8c0,0,0,0,0.1,0l5.3-5.3c0,0,0,0,0-0.1
		c0.2,0.1,0.5,0.2,0.8,0.2c0.3,0,0.6-0.1,0.8-0.2c0,0,0,0,0,0.1l3.3,3.3c0,0,0,0,0.1,0c-0.1,0.2-0.2,0.5-0.2,0.8
		c0,1,0.8,1.7,1.7,1.7s1.7-0.8,1.7-1.7c0-0.3-0.1-0.6-0.2-0.8c0,0,0,0,0.1,0l4.5-4.5c0,0,0,0,0-0.1c0.2,0.1,0.5,0.2,0.8,0.2
		c1,0,1.7-0.8,1.7-1.7C23.9,6.6,23.2,5.8,22.2,5.8z M1.8,17.2c-0.4,0-0.8-0.3-0.8-0.8c0-0.4,0.3-0.8,0.8-0.8s0.8,0.3,0.8,0.8
		C2.6,16.9,2.2,17.2,1.8,17.2z M9.6,9.5c-0.4,0-0.8-0.3-0.8-0.8s0.3-0.8,0.8-0.8c0.4,0,0.8,0.3,0.8,0.8C10.3,9.1,10,9.5,9.6,9.5z
		 M15.3,15.2c-0.4,0-0.8-0.3-0.8-0.8s0.3-0.8,0.8-0.8c0.4,0,0.8,0.3,0.8,0.8C16.1,14.8,15.7,15.2,15.3,15.2z M22.2,8.2
		c-0.4,0-0.8-0.3-0.8-0.8s0.3-0.8,0.8-0.8C22.6,6.7,23,7,23,7.5S22.6,8.2,22.2,8.2z"/>
</g>
</svg>
