<?xml version="1.0" encoding="utf-8"?>
<!-- Generator: Adobe Illustrator 25.4.1, SVG Export Plug-In . SVG Version: 6.00 Build 0)  -->
<svg version="1.1" id="Capa_1" xmlns="http://www.w3.org/2000/svg" xmlns:xlink="http://www.w3.org/1999/xlink" x="0px" y="0px"
	 viewBox="0 0 24 24" style="enable-background:new 0 0 24 24;" xml:space="preserve">
<style type="text/css">
	.st0{fill:#263238;}
</style>
<g>
	<g>
		<path class="st0" d="M23.5,24H1.3c-0.3,0-0.7-0.1-0.9-0.4C0.1,23.4,0,23,0,22.7V0.5C0,0.2,0.2,0,0.5,0S1,0.2,1,0.5v22.2
			c0,0.1,0,0.2,0.1,0.2c0,0,0.1,0.1,0.2,0.1h22.2c0.3,0,0.5,0.2,0.5,0.5C24,23.8,23.8,24,23.5,24z"/>
	</g>
	<g>
		<path class="st0" d="M6.9,20.7H4.8c-0.8,0-1.5-0.7-1.5-1.5v-7.8c0-0.8,0.7-1.5,1.5-1.5h2.1c0.8,0,1.5,0.7,1.5,1.5v7.8
			C8.4,20,7.7,20.7,6.9,20.7z M4.8,10.8c-0.3,0-0.5,0.2-0.5,0.5v7.8c0,0.3,0.2,0.5,0.5,0.5h2.1c0.3,0,0.5-0.2,0.5-0.5v-7.8
			c0-0.3-0.2-0.5-0.5-0.5H4.8z"/>
	</g>
	<g>
		<path class="st0" d="M14.3,20.7h-2.1c-0.8,0-1.5-0.7-1.5-1.5V8.9c0-0.8,0.7-1.5,1.5-1.5h2.1c0.8,0,1.5,0.7,1.5,1.5v10.3
			C15.8,20,15.1,20.7,14.3,20.7z M12.2,8.4c-0.3,0-0.5,0.2-0.5,0.5v10.3c0,0.3,0.2,0.5,0.5,0.5h2.1c0.3,0,0.5-0.2,0.5-0.5V8.9
			c0-0.3-0.2-0.5-0.5-0.5H12.2L12.2,8.4z"/>
	</g>
	<g>
		<path class="st0" d="M21.6,20.7h-2.1c-0.8,0-1.5-0.7-1.5-1.5V5.6c0-0.8,0.7-1.5,1.5-1.5h2.1c0.8,0,1.5,0.7,1.5,1.5v13.6
			C23.1,20,22.5,20.7,21.6,20.7z M19.6,5.1c-0.3,0-0.5,0.2-0.5,0.5v13.6c0,0.3,0.2,0.5,0.5,0.5h2.1c0.3,0,0.5-0.2,0.5-0.5V5.6
			c0-0.3-0.2-0.5-0.5-0.5C21.6,5.1,19.6,5.1,19.6,5.1z"/>
	</g>
</g>
</svg>
