<?xml version="1.0" encoding="utf-8"?>
<!-- Generator: Adobe Illustrator 25.4.1, SVG Export Plug-In . SVG Version: 6.00 Build 0)  -->
<svg version="1.1" id="Capa_1" xmlns="http://www.w3.org/2000/svg" xmlns:xlink="http://www.w3.org/1999/xlink" x="0px" y="0px"
	 viewBox="0 0 24 24" style="enable-background:new 0 0 24 24;" xml:space="preserve">
<style type="text/css">
	.st0{fill:#263238;}
</style>
<g>
	<path class="st0" d="M23.2,3.7c-0.4-0.4-0.9-0.6-1.6-0.7h-2.1c-0.3,0-0.5,0.2-0.5,0.5c0,0.2,0.2,0.5,0.5,0.5l0,0h2.1
		c0.3,0,0.7,0.1,0.9,0.4c0.2,0.2,0.4,0.5,0.4,0.9v13.6c0,0.3-0.1,0.7-0.4,0.9C22.2,19.9,22,20,21.6,20h-2.1c-0.3,0-0.5,0.2-0.5,0.5
		s0.2,0.5,0.5,0.5l0,0h2.1c0.6,0,1.1-0.2,1.5-0.7s0.6-0.9,0.7-1.6V5.2C23.8,4.6,23.6,4.1,23.2,3.7z"/>
	<path class="st0" d="M4.5,3L4.5,3H2.3C1.1,3,0.2,4,0.2,5.2v13.6C0.2,20,1.1,21,2.3,21h2.2c0.3,0,0.5-0.2,0.5-0.5S4.7,20,4.5,20l0,0
		H2.3c-0.7,0-1.1-0.5-1.1-1.2V5.2C1.1,4.5,1.6,4,2.3,4h2.2c0.3,0,0.5-0.2,0.5-0.5C4.9,3.2,4.7,3,4.5,3z"/>
	<path class="st0" d="M19.6,16.3c0.3,0,0.5-0.2,0.5-0.5V8.2c0-0.3-0.2-0.5-0.5-0.5c-0.3,0-0.5,0.2-0.5,0.5v7.6
		C19.1,16.1,19.3,16.3,19.6,16.3z"/>
	<path class="st0" d="M15.8,5.9c-0.3,0-0.5,0.2-0.5,0.5v11.4c0,0.3,0.2,0.5,0.5,0.5c0.3,0,0.5-0.2,0.5-0.5V6.3
		C16.3,6,16.1,5.9,15.8,5.9z"/>
	<path class="st0" d="M12,6.8c-0.3,0-0.5,0.2-0.5,0.5v9.5c0,0.3,0.2,0.5,0.5,0.5s0.5-0.2,0.5-0.5V7.3C12.5,7,12.3,6.8,12,6.8z"/>
	<path class="st0" d="M8.2,5.9C8,5.9,7.8,6,7.8,6.3v11.4c0,0.3,0.2,0.5,0.5,0.5s0.5-0.2,0.5-0.5V6.3C8.7,6,8.5,5.9,8.2,5.9z"/>
	<path class="st0" d="M4.5,7.7C4.2,7.7,4,7.9,4,8.2v7.6c0,0.3,0.2,0.5,0.5,0.5s0.5-0.2,0.5-0.5V8.2C4.9,7.9,4.7,7.7,4.5,7.7z"/>
</g>
</svg>
