<?xml version="1.0" encoding="utf-8"?>
<!-- Generator: Adobe Illustrator 25.4.1, SVG Export Plug-In . SVG Version: 6.00 Build 0)  -->
<svg version="1.1" id="Capa_1" xmlns="http://www.w3.org/2000/svg" xmlns:xlink="http://www.w3.org/1999/xlink" x="0px" y="0px"
	 viewBox="0 0 24 24" style="enable-background:new 0 0 24 24;" xml:space="preserve">
<style type="text/css">
	.st0{fill:#263238;}
</style>
<g>
	<path class="st0" d="M23.6,9c-0.3-0.3-0.7-0.5-1.2-0.5l0,0h-4.8l-5.2-6.9c-0.2-0.2-0.6-0.2-0.8,0L6.5,8.5H1.6l0,0
		C1.2,8.5,0.8,8.6,0.5,9C0.2,9.3,0,9.7,0,10.1c0,0.1,0,0.3,0,0.4l2.8,10.1c0.1,0.6,0.5,1.1,1,1.4c0.5,0.3,1.1,0.5,1.6,0.5l0,0h12.9
		l0,0c0.6,0,1.2-0.2,1.6-0.5c0.5-0.3,0.8-0.9,1-1.4l2.8-10.1c0,0,0,0,0-0.1l0-0.3v0C24,9.7,23.8,9.3,23.6,9z M12,2.7l4.3,5.8H7.7
		L12,2.7z M23,10.3l-2.8,10.1c-0.1,0.4-0.3,0.7-0.6,0.9s-0.7,0.3-1.1,0.3l0,0H5.6c-0.4,0-0.8-0.1-1.1-0.3c-0.3-0.2-0.5-0.6-0.6-0.9
		L1,10.3c0,0,0-0.1,0-0.1c0-0.2,0-0.3,0.2-0.4c0.1-0.1,0.3-0.2,0.4-0.2l0,0l0,0h20.8l0,0c0.2,0,0.3,0,0.4,0.2
		c0.1,0.1,0.2,0.3,0.2,0.4L23,10.3z"/>
	<path class="st0" d="M13.4,12.9c-0.5-0.2-1.1-0.3-1.6-0.1c-0.5,0.1-1.1,0.4-1.4,0.8c-0.4,0.4-0.7,0.9-0.8,1.4
		c-0.1,0.5,0,1.1,0.1,1.6c0.2,0.5,0.6,1,1,1.3c0.4,0.3,1,0.5,1.5,0.5l0,0c0.8,0,1.4-0.3,2-0.8s0.8-1.3,0.8-2c0-0.6-0.1-1.1-0.5-1.5
		C14.2,13.6,14,13.1,13.4,12.9z M13.7,16.8c-0.3,0.3-0.8,0.5-1.3,0.5c-0.4,0-0.7-0.1-1-0.3c-0.3-0.2-0.5-0.5-0.7-0.8
		c-0.1-0.3-0.2-0.7-0.1-1.1c0-0.3,0.2-0.7,0.5-1c0.2-0.2,0.6-0.4,1-0.5c0.1,0,0.2,0,0.3,0c0.2,0,0.5,0,0.7,0.1
		c0.3,0.1,0.6,0.4,0.8,0.7c0.2,0.3,0.2,0.7,0.2,1.1C14.2,16,14,16.5,13.7,16.8z"/>
</g>
</svg>
