<?xml version="1.0" encoding="utf-8"?>
<!-- Generator: Adobe Illustrator 25.4.1, SVG Export Plug-In . SVG Version: 6.00 Build 0)  -->
<svg version="1.1" id="Capa_1" xmlns="http://www.w3.org/2000/svg" xmlns:xlink="http://www.w3.org/1999/xlink" x="0px" y="0px"
	 viewBox="0 0 24 24" style="enable-background:new 0 0 24 24;" xml:space="preserve">
<style type="text/css">
	.st0{fill:#263238;}
</style>
<g>
	<path class="st0" d="M23.5,11.9L23.5,11.9c-0.1-0.3-0.4-0.6-0.8-0.7l-1.6-0.6l0,0V5.7c0-0.8-0.3-1.5-0.9-2.1
		c-0.6-0.6-1.3-0.9-2.1-0.9h-2.3v-1c0-0.4-0.2-0.9-0.5-1.2s-0.7-0.5-1.2-0.5H9.9C9.4,0.1,9,0.3,8.7,0.6C8.4,0.9,8.2,1.3,8.2,1.8v0.9
		H5.9C5.2,2.7,4.4,3,3.8,3.6C3.3,4.1,3,4.9,3,5.7v4.8l-1.6,0.6c-0.4,0.1-0.7,0.4-0.9,0.7c-0.1,0.2-0.2,0.6,0,1.1L3,19.4
		c0,0.1,0.1,0.3,0.3,0.3c0.1,0.1,0.2,0.1,0.4,0.1h0c1.8-0.1,3.1-1.1,3.9-1.9l-0.2-0.2L7.7,18c1.3,1.2,2.8,1.9,4.3,1.9
		c1.9,0,3.4-1,4.3-1.9l-0.2-0.2l0.3,0.2c0.8,0.8,2.2,1.8,3.9,1.9c0.1,0,0.3,0,0.4-0.1c0.1-0.1,0.2-0.2,0.3-0.4l2.5-6.5
		C23.7,12.6,23.6,12.1,23.5,11.9z M8.9,1.8c0-0.2,0.1-0.5,0.3-0.6c0.2-0.2,0.4-0.3,0.6-0.3h4.3c0.2,0,0.5,0.1,0.6,0.3
		c0.2,0.2,0.3,0.4,0.3,0.6v0.9H8.9V1.8z M3.7,5.7c0-0.6,0.2-1.2,0.6-1.6s1-0.6,1.6-0.6h12.1c0.6,0,1.2,0.2,1.6,0.6s0.6,1,0.6,1.6
		v4.6l-7.8-3.1c-0.3-0.1-0.7-0.1-1,0l-7.8,3.1L3.7,5.7L3.7,5.7z M7.2,17.5c-0.7,0.7-2,1.6-3.5,1.7l-2.5-6.5c0-0.2,0-0.3,0-0.5
		c0-0.1,0.2-0.2,0.4-0.3l10-4v11.3c-1.2-0.1-2.4-0.7-3.4-1.6C7.9,17.2,7.5,17.2,7.2,17.5z M22.9,12.7l-2.5,6.5
		c-1.5-0.1-2.7-1-3.5-1.7c-0.1-0.1-0.3-0.2-0.5-0.2c-0.2,0-0.4,0.1-0.5,0.2c-0.7,0.7-1.9,1.5-3.4,1.6V7.9l10,4
		c0.2,0,0.3,0.2,0.4,0.3C22.9,12.4,22.9,12.6,22.9,12.7z"/>
	<path class="st0" d="M20.6,23.3c0,0-0.1-0.1-0.1-0.1c-1.5-0.8-2.8-2-3.4-2.6c-0.1-0.1-0.2-0.1-0.3-0.1s-0.2,0-0.3,0.1
		c-2.7,1.8-6,1.8-8.8,0c-0.1,0-0.2-0.1-0.3-0.1c-0.1,0-0.2,0.1-0.3,0.1c-0.6,0.6-1.9,1.8-3.4,2.6c0,0-0.1,0.1-0.1,0.1s0,0.1,0,0.2
		c0,0,0,0.1,0,0.1c0,0,0,0.1,0.1,0.1c0,0,0.1,0,0.1,0.1c0,0,0.1,0,0.1,0C5,23.7,6,23.2,7.1,22.6c0,0,0.1,0,0.2,0c0.1,0,0.1,0,0.2,0
		c1.4,0.7,3,1.1,4.6,1.1c1.6,0,3.1-0.4,4.6-1.1c0,0,0.1,0,0.2,0c0.1,0,0.1,0,0.2,0c1,0.5,2.1,1.1,3.2,1.3c0,0,0.1,0,0.1,0
		s0.1,0,0.1-0.1c0,0,0.1-0.1,0.1-0.1s0-0.1,0-0.1l0,0C20.7,23.5,20.7,23.4,20.6,23.3z"/>
</g>
</svg>
