<?xml version="1.0" encoding="utf-8"?>
<!-- Generator: Adobe Illustrator 25.4.1, SVG Export Plug-In . SVG Version: 6.00 Build 0)  -->
<svg version="1.1" id="Capa_1" xmlns="http://www.w3.org/2000/svg" xmlns:xlink="http://www.w3.org/1999/xlink" x="0px" y="0px"
	 viewBox="0 0 24 24" style="enable-background:new 0 0 24 24;" xml:space="preserve">
<style type="text/css">
	.st0{fill:#263238;}
</style>
<path class="st0" d="M23.9,2.5c0-0.1-0.1-0.3-0.3-0.4s-0.3-0.2-0.4-0.3c-0.1,0-0.3-0.1-0.5-0.1c-6,0-9.3,1.3-10.7,4
	c-1.4-2.7-4.8-4-10.7-4c-0.1,0-0.3,0-0.5,0.1C0.6,1.8,0.5,1.9,0.4,2C0.2,2.2,0.1,2.3,0.1,2.5C0,2.6,0,2.8,0,2.9v14.7
	C0,18.5,0.6,19,1.3,19c6.9,0,9,1.5,10.3,3.1l0,0c0,0,0,0,0.1,0.1c0,0,0,0,0,0c0,0,0.1,0,0.2,0l0,0l0,0l0,0c0,0,0.1,0,0.2,0
	c0,0,0,0,0,0c0,0,0.1,0,0.1-0.1l0,0c1.3-1.6,3.5-3.1,10.3-3.1c0.3,0,0.7-0.1,0.9-0.4s0.4-0.6,0.4-0.9V2.9C24,2.8,24,2.6,23.9,2.5z
	 M1.3,18.1C1,18.1,1,17.7,1,17.7V2.9c0,0,0-0.1,0-0.1c0,0,0-0.1,0.1-0.1c0,0,0,0,0,0c0,0,0.1,0,0.1,0l0,0c6.3,0,9.4,1.4,10.2,4.5
	v13.6C9.5,18.9,6.4,18.1,1.3,18.1z M23.1,17.8c0,0.1,0,0.2-0.1,0.2s-0.1,0.1-0.2,0.1c-5.1,0-8.2,0.8-10.2,2.6V7.2
	c0.8-3.1,4-4.5,10.2-4.5c0,0,0.1,0,0.1,0c0,0,0.1,0,0.1,0.1c0,0,0,0,0.1,0.1c0,0,0,0.1,0,0.1L23.1,17.8L23.1,17.8z"/>
</svg>
