<?xml version="1.0" encoding="utf-8"?>
<!-- Generator: Adobe Illustrator 25.4.1, SVG Export Plug-In . SVG Version: 6.00 Build 0)  -->
<svg version="1.1" id="Capa_1" xmlns="http://www.w3.org/2000/svg" xmlns:xlink="http://www.w3.org/1999/xlink" x="0px" y="0px"
	 viewBox="0 0 24 24" style="enable-background:new 0 0 24 24;" xml:space="preserve">
<style type="text/css">
	.st0{fill:#263238;}
</style>
<g>
	<path class="st0" d="M21.1,5h-2.8V3.8c0-0.6-0.2-1.1-0.6-1.5c-0.4-0.4-0.9-0.6-1.5-0.6H7.9C7.3,1.7,6.8,2,6.4,2.3
		C6,2.7,5.8,3.2,5.8,3.8V5H3C1.4,5,0.1,6.3,0.1,7.9v11.5c0,1.6,1.3,2.9,2.9,2.9h18c1.6,0,2.9-1.3,2.9-2.9V7.9C24,6.3,22.6,5,21.1,5z
		 M6.8,3.8c0-0.3,0.1-0.6,0.3-0.8c0.2-0.2,0.5-0.3,0.8-0.3h8.2c0.3,0,0.6,0.1,0.8,0.3c0.2,0.2,0.3,0.5,0.3,0.8V5H6.7L6.8,3.8
		L6.8,3.8z M3,5.9h18c1.1,0,2,0.9,2,2v2.8H1V7.9C1,6.8,1.9,5.9,3,5.9z M9.2,11.7h5.6v0.7H9.2V11.7z M21.1,21.4H3c-1.1,0-2-0.9-2-2
		v-7.7h7.2v0.8c0,0.2,0.1,0.5,0.2,0.6s0.4,0.2,0.6,0.2h5.7c0.2,0,0.5-0.1,0.6-0.2c0.1-0.2,0.2-0.4,0.2-0.6v-0.8h7.2v7.7
		C23,20.5,22.1,21.4,21.1,21.4z"/>
</g>
</svg>
