<?xml version="1.0" encoding="utf-8"?>
<!-- Generator: Adobe Illustrator 25.4.1, SVG Export Plug-In . SVG Version: 6.00 Build 0)  -->
<svg version="1.1" id="Capa_1" xmlns="http://www.w3.org/2000/svg" xmlns:xlink="http://www.w3.org/1999/xlink" x="0px" y="0px"
	 viewBox="0 0 24 24" style="enable-background:new 0 0 24 24;" xml:space="preserve">
<style type="text/css">
	.st0{fill:#263238;}
</style>
<path class="st0" d="M23.5,13.3h-3.9v-3.1c0-0.2,0-0.4,0-0.6c1.7-1.4,1.8-3.4,1.8-5.5c0-0.3-0.2-0.5-0.5-0.5s-0.5,0.2-0.5,0.5
	c0,1.7-0.1,3.3-1.1,4.4c-0.4-1.3-1.2-2.3-2.5-3c0-0.2,0.1-0.4,0.1-0.6c0-1.3-0.5-2.5-1.4-3.4C14.6,0.6,13.4,0,12,0
	c-1.3,0-2.5,0.5-3.4,1.4C7.7,2.4,7.2,3.6,7.2,5c0,0.2,0,0.4,0.1,0.6C6.1,6.2,5.2,7.2,4.8,8.4c-0.9-1-1.1-2.3-1.1-4.4
	c0-0.3-0.2-0.5-0.5-0.5S2.8,3.8,2.8,4.1c0,2.1,0.1,4,1.8,5.5c0,0.2,0,0.5,0,0.7v3.1h-4c-0.3,0-0.5,0.2-0.5,0.5s0.2,0.5,0.5,0.5h3.9
	v1.3c0,1.1,0.2,2.2,0.7,3.1c-1.4,1.2-2.4,2.6-2.4,4.9c0,0.3,0.2,0.5,0.5,0.5s0.5-0.2,0.5-0.5c0-1.9,0.7-2.9,1.9-4
	C6.9,21.6,9.3,23,12,23s5.1-1.4,6.4-3.6c1.2,1.1,1.9,2.2,1.9,4c0,0.3,0.2,0.5,0.5,0.5s0.5-0.2,0.5-0.5c0-2.2-1-3.6-2.4-4.9
	c0.4-1,0.7-2,0.7-3.1v-1.3h3.9c0.3,0,0.5-0.2,0.5-0.5S23.8,13.3,23.5,13.3z M8.1,4.9c0-1.1,0.4-2,1.1-2.8C10,1.4,11,1,12,1
	s2,0.4,2.8,1.1C15.5,2.9,16,3.9,16,4.9c0,0,0,0.1,0,0.1c-1.1-0.4-2.4-0.6-3.9-0.6c-1.5,0-2.8,0.2-3.9,0.7C8.1,5.1,8.1,5,8.1,4.9z
	 M12.5,22.1V8.5C12.5,8.2,12.3,8,12,8s-0.5,0.2-0.5,0.5v13.6c-3.4-0.2-6.1-3.1-6.1-6.6v-5.3c0-3.5,3.4-4.8,6.6-4.8
	c1.3,0,2.8,0.2,4,0.7c0,0,0,0,0,0l0,0c1.4,0.7,2.5,1.9,2.5,4.1v5.3C18.6,19,15.9,21.9,12.5,22.1z"/>
</svg>
