<svg version="1.1" id="Capa_1" xmlns="http://www.w3.org/2000/svg" x="0" y="0" viewBox="0 0 24 24" style="enable-background:new 0 0 24 24" xml:space="preserve"><style>.st0{fill:#263238}</style><path class="st0" d="M18.1.2H5.9c-1.2 0-2.2 1-2.2 2.2v19.2c0 1.2 1 2.2 2.2 2.2h12.2c1.2 0 2.2-1 2.2-2.2V2.4c0-1.2-1-2.2-2.2-2.2zm1.3 21.4c0 .7-.6 1.3-1.3 1.3H5.9c-.7 0-1.3-.6-1.3-1.3V2.4c0-.7.6-1.3 1.3-1.3h12.2c.7 0 1.3.6 1.3 1.3v19.2z"/><path class="st0" d="M6.7 8.1h10.5c.3 0 .5-.2.5-.5V4.1c0-.3-.2-.5-.5-.5H6.7c-.3 0-.5.2-.5.5v3.5c.1.3.3.5.5.5zm.5-3.5h9.6v2.6H7.2V4.6zm0 5.6c-.7 0-1.3.6-1.3 1.3 0 .7.6 1.3 1.3 1.3s1.3-.6 1.3-1.3c0-.7-.6-1.3-1.3-1.3zm4.8 0c-.7 0-1.3.6-1.3 1.3 0 .7.6 1.3 1.3 1.3.7 0 1.3-.6 1.3-1.3s-.6-1.3-1.3-1.3zm4.8 0c-.7 0-1.3.6-1.3 1.3 0 .7.6 1.3 1.3 1.3.8 0 1.3-.6 1.3-1.3 0-.7-.6-1.3-1.3-1.3zm-9.6 4.4c-.7 0-1.3.6-1.3 1.3 0 .7.6 1.3 1.3 1.3s1.3-.6 1.3-1.3c0-.7-.6-1.3-1.3-1.3zm4.8 0c-.7 0-1.3.6-1.3 1.3 0 .7.6 1.3 1.3 1.3.7 0 1.3-.6 1.3-1.3 0-.7-.6-1.3-1.3-1.3zM7.2 19c-.7 0-1.3.6-1.3 1.3 0 .7.6 1.3 1.3 1.3s1.3-.6 1.3-1.3c0-.7-.6-1.3-1.3-1.3zm4.8 0c-.7 0-1.3.6-1.3 1.3 0 .7.6 1.3 1.3 1.3.7 0 1.3-.6 1.3-1.3 0-.7-.6-1.3-1.3-1.3zm4.8-4.4c-.7 0-1.3.6-1.3 1.3v4.4c0 .7.6 1.3 1.3 1.3.8 0 1.3-.6 1.3-1.3v-4.4c0-.7-.6-1.3-1.3-1.3z"/></svg>