<?xml version="1.0" encoding="utf-8"?>
<!-- Generator: Adobe Illustrator 25.4.1, SVG Export Plug-In . SVG Version: 6.00 Build 0)  -->
<svg version="1.1" id="Capa_1" xmlns="http://www.w3.org/2000/svg" xmlns:xlink="http://www.w3.org/1999/xlink" x="0px" y="0px"
	 viewBox="0 0 24 24" style="enable-background:new 0 0 24 24;" xml:space="preserve">
<style type="text/css">
	.st0{fill:#263238;}
</style>
<g>
	<path class="st0" d="M18.1,0.2H5.9c-1.2,0-2.2,1-2.2,2.2v19.2c0,1.2,1,2.2,2.2,2.2h12.2c1.2,0,2.2-1,2.2-2.2V2.4
		C20.3,1.2,19.3,0.2,18.1,0.2z M19.4,21.6c0,0.7-0.6,1.3-1.3,1.3H5.9c-0.7,0-1.3-0.6-1.3-1.3V2.4c0-0.7,0.6-1.3,1.3-1.3h12.2
		c0.7,0,1.3,0.6,1.3,1.3C19.4,2.4,19.4,21.6,19.4,21.6z"/>
	<path class="st0" d="M6.7,8.1h10.5c0.3,0,0.5-0.2,0.5-0.5V4.1c0-0.3-0.2-0.5-0.5-0.5H6.7c-0.3,0-0.5,0.2-0.5,0.5v3.5
		C6.3,7.9,6.5,8.1,6.7,8.1z M7.2,4.6h9.6v2.6H7.2V4.6z"/>
	<path class="st0" d="M7.2,10.2c-0.7,0-1.3,0.6-1.3,1.3c0,0.7,0.6,1.3,1.3,1.3s1.3-0.6,1.3-1.3C8.5,10.8,7.9,10.2,7.2,10.2z"/>
	<path class="st0" d="M12,10.2c-0.7,0-1.3,0.6-1.3,1.3c0,0.7,0.6,1.3,1.3,1.3c0.7,0,1.3-0.6,1.3-1.3S12.7,10.2,12,10.2z"/>
	<path class="st0" d="M16.8,10.2c-0.7,0-1.3,0.6-1.3,1.3c0,0.7,0.6,1.3,1.3,1.3c0.8,0,1.3-0.6,1.3-1.3
		C18.1,10.8,17.5,10.2,16.8,10.2z"/>
	<path class="st0" d="M7.2,14.6c-0.7,0-1.3,0.6-1.3,1.3c0,0.7,0.6,1.3,1.3,1.3s1.3-0.6,1.3-1.3C8.5,15.2,7.9,14.6,7.2,14.6z"/>
	<path class="st0" d="M12,14.6c-0.7,0-1.3,0.6-1.3,1.3c0,0.7,0.6,1.3,1.3,1.3c0.7,0,1.3-0.6,1.3-1.3C13.3,15.2,12.7,14.6,12,14.6z"
		/>
	<path class="st0" d="M7.2,19c-0.7,0-1.3,0.6-1.3,1.3c0,0.7,0.6,1.3,1.3,1.3s1.3-0.6,1.3-1.3C8.5,19.6,7.9,19,7.2,19z"/>
	<path class="st0" d="M12,19c-0.7,0-1.3,0.6-1.3,1.3c0,0.7,0.6,1.3,1.3,1.3c0.7,0,1.3-0.6,1.3-1.3C13.3,19.6,12.7,19,12,19z"/>
	<path class="st0" d="M16.8,14.6c-0.7,0-1.3,0.6-1.3,1.3v4.4c0,0.7,0.6,1.3,1.3,1.3c0.8,0,1.3-0.6,1.3-1.3v-4.4
		C18.1,15.2,17.5,14.6,16.8,14.6z"/>
</g>
</svg>
