<?xml version="1.0" encoding="utf-8"?>
<!-- Generator: Adobe Illustrator 25.4.1, SVG Export Plug-In . SVG Version: 6.00 Build 0)  -->
<svg version="1.1" id="Capa_1" xmlns="http://www.w3.org/2000/svg" xmlns:xlink="http://www.w3.org/1999/xlink" x="0px" y="0px"
	 viewBox="0 0 24 24" style="enable-background:new 0 0 24 24;" xml:space="preserve">
<style type="text/css">
	.st0{fill:#263238;}
</style>
<g>
	<path class="st0" d="M23.2,6.9c-0.4-0.4-1-0.7-1.6-0.7h-3.2c-0.3,0-0.6-0.1-0.9-0.4l-1.4-2.3l0,0c-0.4-0.5-1-0.8-1.6-0.8h-5
		C8.9,2.7,8.3,3,7.9,3.5l0,0L6.4,5.8C6.2,6.1,5.9,6.2,5.6,6.2H5.2V5.4c0-0.3-0.2-0.5-0.5-0.5H3.4C3.2,4.9,3,5.1,3,5.4v0.9H2.3
		c-0.6,0-1.1,0.2-1.6,0.7c-0.4,0.4-0.7,1-0.7,1.6V19c0,0.6,0.2,1.1,0.7,1.6c0.4,0.4,1,0.7,1.6,0.7h19.3c0.6,0,1.1-0.2,1.6-0.7
		s0.7-1,0.7-1.6V8.5C23.9,7.9,23.6,7.3,23.2,6.9z M3.9,5.9h0.4v0.4H3.9V5.9z M22.9,19c0,0.3-0.1,0.7-0.3,0.9
		c-0.2,0.2-0.6,0.4-0.9,0.4H2.3c-0.3,0-0.7-0.1-0.9-0.4c-0.2-0.2-0.4-0.5-0.4-0.9V8.5c0-0.3,0.1-0.7,0.4-0.9S2,7.2,2.3,7.2h3.3
		c0.6,0,1.1-0.3,1.5-0.8l0,0l1.4-2.3c0.2-0.2,0.5-0.4,0.8-0.4h5c0.3,0,0.6,0.1,0.8,0.4l1.4,2.3l0,0c0.4,0.5,1,0.8,1.6,0.8h3.2
		c0.3,0,0.7,0.1,0.9,0.4s0.4,0.6,0.4,0.9V19L22.9,19z"/>
	<path class="st0" d="M12,8c-2.7,0-4.9,2.2-4.9,4.9s2.2,4.9,4.9,4.9s4.9-2.2,4.9-4.9S14.7,8,12,8z M12,16.8c-2.1,0-3.9-1.8-3.9-3.9
		S9.9,9,12,9s3.9,1.8,3.9,3.9S14.1,16.8,12,16.8z"/>
</g>
</svg>
