<?xml version="1.0" encoding="utf-8"?>
<!-- Generator: Adobe Illustrator 25.4.1, SVG Export Plug-In . SVG Version: 6.00 Build 0)  -->
<svg version="1.1" id="Capa_1" xmlns="http://www.w3.org/2000/svg" xmlns:xlink="http://www.w3.org/1999/xlink" x="0px" y="0px"
	 viewBox="0 0 24 24" style="enable-background:new 0 0 24 24;" xml:space="preserve">
<style type="text/css">
	.st0{fill:#263238;}
</style>
<g>
	<path class="st0" d="M23.3,6.9c-0.4-0.4-1-0.7-1.6-0.7h-3.3c-0.3,0-0.6-0.1-0.9-0.4l-1.4-2.3l0,0c-0.4-0.5-1-0.8-1.6-0.8H9.5
		c-0.6,0-1.2,0.3-1.6,0.8l0,0L6.4,5.8C6.1,6,5.9,6.2,5.6,6.2H5.2V5.3C5.2,5,5,4.8,4.7,4.8H3.4C3.1,4.8,2.9,5,2.9,5.3v0.9H2.3
		c-0.6,0-1.2,0.2-1.6,0.7S0,7.9,0,8.4v10.7c0,0.6,0.2,1.2,0.7,1.6c0.4,0.4,1,0.7,1.6,0.7h19.5c0.6,0,1.2-0.2,1.6-0.7s0.7-1,0.7-1.6
		V8.4C24,7.9,23.8,7.3,23.3,6.9z M3.8,5.9h0.4v0.4H3.8V5.9z M23,19.1c0,0.3-0.1,0.7-0.3,0.9s-0.6,0.4-0.9,0.4H2.3
		c-0.3,0-0.7-0.1-0.9-0.4S1,19.4,1,19.1V8.4c0-0.3,0.1-0.7,0.4-0.9c0.2-0.2,0.6-0.4,0.9-0.4h3.3c0.6,0,1.1-0.3,1.5-0.8l0,0L8.6,4
		c0.2-0.2,0.5-0.4,0.8-0.4h5.1c0.3,0,0.6,0.1,0.8,0.4l1.4,2.3l0,0c0.4,0.5,1,0.8,1.6,0.8h3.3c0.3,0,0.7,0.1,0.9,0.4
		C22.8,7.8,23,8.1,23,8.4V19.1L23,19.1z"/>
	<path class="st0" d="M14.5,15.9c-0.6,0.5-1.3,0.8-2,0.9c-0.8,0.1-1.5,0-2.2-0.3c-0.7-0.3-1.2-0.8-1.6-1.4c-0.4-0.6-0.6-1.3-0.6-2.1
		l0.3,0.3c0.1,0.1,0.2,0.1,0.3,0.1c0.1,0,0.2,0,0.3-0.1c0.2-0.2,0.2-0.5,0-0.7l-1.1-1.2c-0.2-0.2-0.5-0.2-0.7,0l-1.1,1.1
		C6,12.7,6,13,6.1,13.2c0.2,0.2,0.5,0.2,0.7,0l0.3-0.3c0,0.9,0.3,1.8,0.8,2.6c0.5,0.8,1.2,1.4,2.1,1.8c0.7,0.3,1.4,0.5,2.1,0.5
		c0.2,0,0.4,0,0.6,0c0.9-0.1,1.8-0.5,2.5-1.1c0.2-0.2,0.2-0.5,0-0.7C15,15.8,14.7,15.8,14.5,15.9z"/>
	<path class="st0" d="M17.2,12.5l-0.3,0.3c0-0.9-0.3-1.8-0.8-2.6c-0.5-0.8-1.2-1.4-2.1-1.8C13.2,8,12.3,7.9,11.4,8S9.6,8.4,8.9,9.1
		C8.7,9.2,8.7,9.3,8.7,9.5c0,0.1,0.1,0.3,0.2,0.4l6.3,3.6l0.8,0.8c0.1,0.1,0.2,0.1,0.3,0.1s0.2,0,0.3-0.1l1.1-1.1
		c0.2-0.2,0.2-0.5,0-0.7C17.7,12.4,17.4,12.3,17.2,12.5z M11.5,9c0.8-0.1,1.5,0,2.2,0.3c0.7,0.3,1.2,0.8,1.6,1.4
		c0.4,0.6,0.6,1.3,0.6,2l0,0l-0.2-0.2c-0.1-0.1-0.2-0.1-0.4-0.1l-5.2-3C10.5,9.2,11,9,11.5,9z"/>
</g>
</svg>
