<svg xmlns="http://www.w3.org/2000/svg" viewBox="0 0 24 24" style="enable-background:new 0 0 24 24" xml:space="preserve"><path d="M23.7 9.1c-.1-.1-.3-.2-.5-.1-.5.2-1.3.4-2 .4-1.4 0-2.6-.5-3.5-1.5-1-1-1.5-2.2-1.5-3.5 0-.8.1-1.5.4-2 .1-.2 0-.4-.1-.5s-.3-.2-.5-.1c-2.2.9-3.5 3.1-3.5 5.6V8c-.5-.2-1-.2-1.5-.2-3.3 0-6 2.4-6.5 6 0 0 0 .1-.1.1 0 0-.1 0-.1.1-1.9.1-4.1 1.4-4.1 4s1.8 4.3 4.7 4.3H16c3.2 0 5.6-2.3 5.6-5.3 0-1.7-.7-3-1.9-4 1.8-.4 3.4-1.6 4.1-3.4.1-.2.1-.4-.1-.5zM20.6 17c0 2.5-2 4.3-4.6 4.3H4.9c-.9 0-3.8-.2-3.8-3.3 0-2 1.6-3 3.1-3.2.2 0 .5-.1.7-.3.2-.2.3-.4.3-.7.5-3.1 2.8-5.2 5.6-5.2 2.6 0 4.2 1.7 4.9 3.4.1.2.2.4.4.5.1.1.4.2.6.2 2.5.5 3.9 2.1 3.9 4.3zm-2.3-4.8c-.4-.2-.9-.3-1.5-.4h-.1l-.1-.1c-.5-1.3-1.6-2.7-3.3-3.5 0-.3-.1-.6-.1-1 0-1.6.8-3.1 2-4.1v1.2c0 1.6.6 3.1 1.7 4.3 1.1 1.1 2.7 1.7 4.3 1.7.4 0 .8 0 1.2-.1-1 1.3-2.5 2-4.1 2z" style="fill:#263238"/></svg>