<?xml version="1.0" encoding="utf-8"?>
<!-- Generator: Adobe Illustrator 25.4.1, SVG Export Plug-In . SVG Version: 6.00 Build 0)  -->
<svg version="1.1" id="Capa_1" xmlns="http://www.w3.org/2000/svg" xmlns:xlink="http://www.w3.org/1999/xlink" x="0px" y="0px"
	 viewBox="0 0 24 24" style="enable-background:new 0 0 24 24;" xml:space="preserve">
<style type="text/css">
	.st0{fill:#263238;}
</style>
<g>
	<path class="st0" d="M17.7,20.2H5.4c-3.2,0-5.2-1.8-5.2-4.8c0-3,2.4-4.4,4.4-4.7c0,0,0.1,0,0.1-0.1c0,0,0-0.1,0.1-0.1
		C5.4,6.5,8.3,3.8,12,3.8c3.4,0,5.6,2.3,6.4,4.5c0,0,0,0.1,0.1,0.1c0,0,0.1,0,0.1,0c3.2,0.5,5.2,2.8,5.2,5.9
		C23.9,17.7,21.2,20.2,17.7,20.2z M12,4.7c-3.2,0-5.7,2.4-6.3,6c0,0.2-0.1,0.5-0.3,0.7c-0.2,0.2-0.4,0.3-0.7,0.3l0,0
		c-1.7,0.3-3.6,1.5-3.6,3.8c0,2.4,1.6,3.8,4.3,3.8h12.4c3,0,5.2-2.1,5.2-4.9c0-3.1-2.3-4.6-4.5-4.9c-0.2,0-0.4-0.1-0.6-0.3
		c-0.2-0.1-0.3-0.3-0.4-0.5C16.8,6.8,15,4.7,12,4.7z"/>
</g>
</svg>
