<?xml version="1.0" encoding="utf-8"?>
<!-- Generator: Adobe Illustrator 25.4.1, SVG Export Plug-In . SVG Version: 6.00 Build 0)  -->
<svg version="1.1" id="Capa_1" xmlns="http://www.w3.org/2000/svg" xmlns:xlink="http://www.w3.org/1999/xlink" x="0px" y="0px"
	 viewBox="0 0 24 24" style="enable-background:new 0 0 24 24;" xml:space="preserve">
<style type="text/css">
	.st0{fill:#263238;}
</style>
<g>
	<path class="st0" d="M23.7,9.1C23.6,9,23.4,8.9,23.2,9c-0.5,0.2-1.3,0.4-2,0.4c-1.4,0-2.6-0.5-3.5-1.5c-1-1-1.5-2.2-1.5-3.5
		c0-0.8,0.1-1.5,0.4-2c0.1-0.2,0-0.4-0.1-0.5s-0.3-0.2-0.5-0.1c-2.2,0.9-3.5,3.1-3.5,5.6c0,0.2,0,0.4,0,0.6C12,7.8,11.5,7.8,11,7.8
		c-3.3,0-6,2.4-6.5,6c0,0,0,0.1-0.1,0.1c0,0-0.1,0-0.1,0.1l0,0c-1.9,0.1-4.1,1.4-4.1,4s1.8,4.3,4.7,4.3H16c3.2,0,5.6-2.3,5.6-5.3
		c0-1.7-0.7-3-1.9-4c1.8-0.4,3.4-1.6,4.1-3.4C23.9,9.4,23.9,9.2,23.7,9.1z M20.6,17c0,2.5-2,4.3-4.6,4.3H4.9c-0.9,0-3.8-0.2-3.8-3.3
		c0-2,1.6-3,3.1-3.2c0.2,0,0.5-0.1,0.7-0.3c0.2-0.2,0.3-0.4,0.3-0.7c0.5-3.1,2.8-5.2,5.6-5.2c2.6,0,4.2,1.7,4.9,3.4
		c0.1,0.2,0.2,0.4,0.4,0.5c0.1,0.1,0.4,0.2,0.6,0.2C19.2,13.2,20.6,14.8,20.6,17z M18.3,12.2c-0.4-0.2-0.9-0.3-1.5-0.4
		c0,0-0.1,0-0.1,0c0,0,0,0-0.1-0.1C16.1,10.4,15,9,13.3,8.2c0-0.3-0.1-0.6-0.1-1c0-1.6,0.8-3.1,2-4.1c0,0.3,0,0.7,0,1.2
		c0,1.6,0.6,3.1,1.7,4.3c1.1,1.1,2.7,1.7,4.3,1.7c0.4,0,0.8,0,1.2-0.1C21.4,11.5,19.9,12.2,18.3,12.2z"/>
</g>
</svg>
