<?xml version="1.0" encoding="utf-8"?>
<!-- Generator: Adobe Illustrator 25.4.1, SVG Export Plug-In . SVG Version: 6.00 Build 0)  -->
<svg version="1.1" id="Capa_1" xmlns="http://www.w3.org/2000/svg" xmlns:xlink="http://www.w3.org/1999/xlink" x="0px" y="0px"
	 viewBox="0 0 24 24" style="enable-background:new 0 0 24 24;" xml:space="preserve">
<style type="text/css">
	.st0{fill:#263238;}
</style>
<path class="st0" d="M20.3,8.3c0-4.5-3.7-8.3-8.3-8.3S3.7,3.8,3.7,8.3c0,4.4,3.4,8,7.8,8.2v3.2H9c-0.3,0-0.5,0.2-0.5,0.5
	s0.2,0.5,0.5,0.5h2.5v2.8c0,0.3,0.2,0.5,0.5,0.5s0.5-0.2,0.5-0.5v-2.8H15c0.3,0,0.5-0.2,0.5-0.5s-0.2-0.5-0.5-0.5h-2.5v-3.2
	C16.8,16.3,20.3,12.7,20.3,8.3z M4.7,8.3C4.7,4.3,8,1,12,1s7.3,3.3,7.3,7.3S16,15.6,12,15.6S4.7,12.3,4.7,8.3z"/>
</svg>
