<?xml version="1.0" encoding="utf-8"?>
<!-- Generator: Adobe Illustrator 25.4.1, SVG Export Plug-In . SVG Version: 6.00 Build 0)  -->
<svg version="1.1" id="Capa_1" xmlns="http://www.w3.org/2000/svg" xmlns:xlink="http://www.w3.org/1999/xlink" x="0px" y="0px"
	 viewBox="0 0 24 24" style="enable-background:new 0 0 24 24;" xml:space="preserve">
<style type="text/css">
	.st0{fill:#263238;}
</style>
<path class="st0" d="M24,12.8l-1.8-8.4c-0.3-1.7-1.4-2.6-3.1-2.6H4.9c-1.7,0-2.8,1-3.1,2.6L0,12.8c0,0,0,0,0,0.1v6.2
	c0,0.8,0.3,1.6,0.9,2.2s1.4,0.9,2.2,0.9h17.8c0.8,0,1.6-0.3,2.2-0.9c0.6-0.6,0.9-1.4,0.9-2.2V12.8C24,12.9,24,12.8,24,12.8z
	 M2.7,4.6c0.2-1.2,1-1.8,2.2-1.8h14.2c1.2,0,2,0.6,2.2,1.8l1.6,7.8h-7.4c-0.3,0-0.5,0.2-0.5,0.5c0,0.8-0.3,1.6-0.9,2.2
	S12.8,16,12,16s-1.6-0.3-2.2-0.9s-0.9-1.3-0.9-2.2c0-0.3-0.2-0.5-0.5-0.5H1.1L2.7,4.6z M22.4,20.7c-0.4,0.4-1,0.6-1.5,0.6H3.1
	c-0.6,0-1.2-0.2-1.5-0.6c-0.4-0.4-0.6-1-0.6-1.5v-5.8H8c0.1,0.9,0.5,1.7,1.2,2.4c0.8,0.8,1.8,1.2,2.8,1.2s2.1-0.4,2.8-1.2
	c0.6-0.6,1.1-1.5,1.2-2.4H23v5.7C23,19.7,22.8,20.2,22.4,20.7z"/>
</svg>
