<?xml version="1.0" encoding="utf-8"?>
<!-- Generator: Adobe Illustrator 25.4.1, SVG Export Plug-In . SVG Version: 6.00 Build 0)  -->
<svg version="1.1" id="Capa_1" xmlns="http://www.w3.org/2000/svg" xmlns:xlink="http://www.w3.org/1999/xlink" x="0px" y="0px"
	 viewBox="0 0 24 24" style="enable-background:new 0 0 24 24;" xml:space="preserve">
<style type="text/css">
	.st0{fill:#263238;}
</style>
<g>
	<path class="st0" d="M23.9,12.8l-1.8-8.3c-0.3-1.7-1.4-2.6-3.1-2.6H5c-1.7,0-2.8,1-3.1,2.6l-1.8,8.3c0,0,0,0,0,0.1V19
		c0,0.8,0.3,1.6,0.9,2.2c0.6,0.6,1.4,0.9,2.2,0.9h17.6c0.8,0,1.6-0.3,2.2-0.9c0.6-0.6,0.9-1.4,0.9-2.2V12.8
		C23.9,12.9,23.9,12.8,23.9,12.8z M2.8,4.6c0.2-1.2,1-1.8,2.2-1.8h14c1.2,0,2,0.6,2.2,1.8l1.6,7.8h-7.3c-0.3,0-0.5,0.2-0.5,0.5
		c0,0.8-0.3,1.6-0.9,2.1c-0.6,0.6-1.3,0.9-2.1,0.9s-1.6-0.3-2.1-0.9C9.3,14.5,9,13.7,9,12.9c0-0.3-0.2-0.5-0.5-0.5H1.1L2.8,4.6z
		 M22.3,20.6c-0.4,0.4-1,0.6-1.5,0.6H3.2c-0.6,0-1.1-0.2-1.5-0.6c-0.4-0.4-0.6-1-0.6-1.5v-5.7h7c0.1,0.9,0.5,1.7,1.1,2.3
		c0.8,0.8,1.8,1.2,2.8,1.2s2-0.4,2.8-1.2c0.6-0.6,1-1.5,1.1-2.3h7V19C22.9,19.6,22.7,20.2,22.3,20.6z"/>
	<path class="st0" d="M5.9,6.4h12.3c0.3,0,0.5-0.2,0.5-0.5c0-0.3-0.2-0.5-0.5-0.5H5.9c-0.3,0-0.5,0.2-0.5,0.5
		C5.4,6.2,5.6,6.4,5.9,6.4z"/>
	<path class="st0" d="M5,9.9h14c0.3,0,0.5-0.2,0.5-0.5c0-0.3-0.2-0.5-0.5-0.5H5c-0.3,0-0.5,0.2-0.5,0.5C4.5,9.7,4.7,9.9,5,9.9z"/>
</g>
</svg>
