<?xml version="1.0" encoding="utf-8"?>
<!-- Generator: Adobe Illustrator 25.4.1, SVG Export Plug-In . SVG Version: 6.00 Build 0)  -->
<svg version="1.1" id="Capa_1" xmlns="http://www.w3.org/2000/svg" xmlns:xlink="http://www.w3.org/1999/xlink" x="0px" y="0px"
	 viewBox="0 0 24 24" style="enable-background:new 0 0 24 24;" xml:space="preserve">
<style type="text/css">
	.st0{fill:#263238;}
</style>
<path class="st0" d="M22.2,2.1C22.1,2,22.1,2,22,1.9c-0.1,0-0.2-0.1-0.3-0.1c-0.1,0-0.2,0-0.3,0c-1.2,0.5-2.6,0.8-4.1,0.8
	c-1.1,0-2.7-0.6-4.4-1.1c-2-0.7-4.3-1.5-6.3-1.5c-2.7,0-4,0.5-4.4,0.8c-0.1,0-0.3,0.2-0.3,0.3C1.8,1.3,1.7,1.5,1.7,1.6v21.8
	c0,0.3,0.2,0.5,0.5,0.5s0.5-0.2,0.5-0.5v-8.6c0.4-0.2,1.5-0.7,4-0.7c1.9,0,4,0.5,6,1c1.8,0.4,3.4,0.8,4.7,0.8c2.3,0,4.1-0.7,4.5-0.9
	c0.1,0,0.2-0.1,0.3-0.2c0.1-0.1,0.1-0.2,0.1-0.4V2.4C22.3,2.3,22.3,2.2,22.2,2.1z M21.3,14.3c-0.6,0.2-2,0.7-4,0.7
	c-1.2,0-2.8-0.4-4.5-0.8c-2.1-0.5-4.2-1-6.2-1c-2.1,0-3.3,0.3-4,0.6l0-12.2C3,1.5,4.1,1,6.7,1c1.8,0,3.9,0.7,6,1.4
	c1.7,0.6,3.4,1.2,4.7,1.2c1.4,0,2.7-0.2,4-0.7V14.3z"/>
</svg>
