<?xml version="1.0" encoding="utf-8"?>
<!-- Generator: Adobe Illustrator 25.4.1, SVG Export Plug-In . SVG Version: 6.00 Build 0)  -->
<svg version="1.1" id="Capa_1" xmlns="http://www.w3.org/2000/svg" xmlns:xlink="http://www.w3.org/1999/xlink" x="0px" y="0px"
	 viewBox="0 0 24 24" style="enable-background:new 0 0 24 24;" xml:space="preserve">
<style type="text/css">
	.st0{fill:#263238;}
</style>
<path class="st0" d="M22.5,18.2L15.6,7.3c-0.3-0.5-0.5-1.1-0.5-1.6V1h1.3c0.3,0,0.5-0.2,0.5-0.5s-0.2-0.5-0.5-0.5H7.6
	c-0.3,0-0.5,0.2-0.5,0.5S7.3,1,7.6,1h1.3v4.7c0,0.6-0.1,1.2-0.5,1.6L1.5,18.2c-0.7,1.2-0.8,2.6-0.1,3.8s1.9,1.9,3.3,1.9h14.7
	c1.4,0,2.6-0.7,3.3-1.9C23.3,20.8,23.2,19.4,22.5,18.2z M9.2,7.8c0.4-0.6,0.6-1.4,0.6-2.2V1h4.3v4.7c0,0.8,0.2,1.5,0.6,2.2l4,6.3
	H5.2L9.2,7.8z M21.8,21.6c-0.5,0.9-1.4,1.4-2.4,1.4H4.7c-1,0-1.9-0.5-2.4-1.4s-0.5-2,0.1-2.8l2.3-3.6h14.8l2.3,3.6
	C22.2,19.6,22.2,20.7,21.8,21.6z"/>
</svg>
