<?xml version="1.0" encoding="utf-8"?>
<!-- Generator: Adobe Illustrator 25.4.1, SVG Export Plug-In . SVG Version: 6.00 Build 0)  -->
<svg version="1.1" id="Capa_1" xmlns="http://www.w3.org/2000/svg" xmlns:xlink="http://www.w3.org/1999/xlink" x="0px" y="0px"
	 viewBox="0 0 24 24" style="enable-background:new 0 0 24 24;" xml:space="preserve">
<style type="text/css">
	.st0{fill:#263238;}
</style>
<g>
	<path class="st0" d="M23.4,6.5l-5.9-5.9C17,0,16.5-0.1,15.9,0c-0.5,0.1-1,0.4-1.4,0.9l-0.7,0.7c-1.5,1.5-1.7,3.4-1.8,4.8v0.1
		c0,0.6-0.5,1.3-0.9,1.7L0.7,18.6C0.2,19.1,0,19.8,0,20.5c0,0.7,0.4,1.3,0.9,1.8L1.6,23c0.6,0.6,1.3,1,2.1,1c0.6,0,1.2-0.2,1.7-0.7
		l10.5-10.5c0.4-0.4,1.2-0.9,1.7-0.9c1.3-0.1,3.4-0.2,4.9-1.8l0.7-0.7C23.6,9,23.9,8.6,24,8.1C24.1,7.5,23.9,6.9,23.4,6.5z M17.5,11
		c-0.9,0-1.8,0.7-2.3,1.2L4.7,22.6c-0.8,0.8-1.8,0.4-2.4-0.2l-0.7-0.7C1.3,21.3,1,20.9,1,20.5c0-0.4,0.1-0.8,0.4-1.2L11.9,8.8
		C12.4,8.3,13,7.4,13,6.5V6.4c0.1-1,0.2-2.3,0.9-3.4l7,7C19.8,10.8,18.4,10.9,17.5,11z M23,7.9c0,0.3-0.2,0.6-0.6,0.9l-0.7,0.7l0,0
		l-7.2-7.3l0,0l0.7-0.7c0.3-0.3,0.6-0.5,0.9-0.6c0,0,0.1,0,0.1,0c0.2,0,0.4,0.1,0.6,0.3l5.9,5.9C23,7.4,23.1,7.6,23,7.9z"/>
	<path class="st0" d="M10.3,12.6c-0.6,0-1.1,0.5-1.1,1.1s0.5,1.1,1.1,1.1s1.1-0.5,1.1-1.1C11.4,13.1,10.9,12.6,10.3,12.6z"/>
</g>
</svg>
