<?xml version="1.0" encoding="utf-8"?>
<!-- Generator: Adobe Illustrator 25.4.1, SVG Export Plug-In . SVG Version: 6.00 Build 0)  -->
<svg version="1.1" id="Capa_1" xmlns="http://www.w3.org/2000/svg" xmlns:xlink="http://www.w3.org/1999/xlink" x="0px" y="0px"
	 viewBox="0 0 24 24" style="enable-background:new 0 0 24 24;" xml:space="preserve">
<style type="text/css">
	.st0{fill:#263238;}
</style>
<path class="st0" d="M20.7,9.4c-0.1-0.2-0.2-0.3-0.4-0.3h-6l1.5-8.2c0-0.1,0-0.2,0-0.3c0-0.1,0-0.1-0.1-0.2c0,0-0.1-0.1-0.2-0.1
	c-0.1,0-0.4,0-0.5,0c-0.1,0-0.1,0.1-0.2,0.1L3.3,14c-0.1,0.1-0.1,0.3,0,0.5c0.1,0.2,0.2,0.3,0.4,0.3h6l-1.5,8.3c0,0.1,0,0.2,0,0.3
	c0,0.1,0,0.1,0.1,0.2c0,0,0.1,0.1,0.2,0.1c0.1,0,0.1,0,0.2,0c0.1,0,0.2,0,0.3,0c0.1,0,0.1-0.1,0.2-0.1L20.7,9.9
	C20.8,9.8,20.8,9.6,20.7,9.4z M9.5,22l1.4-7.5c0-0.1,0-0.3-0.1-0.4C10.7,14,10.5,14,10.4,14H4.7l9.9-11.9l-1.4,7.5
	c0,0.1,0,0.3,0.1,0.4c0.1,0.1,0.2,0.2,0.4,0.2h5.6L9.5,22z"/>
</svg>
