<?xml version="1.0" encoding="utf-8"?>
<!-- Generator: Adobe Illustrator 25.4.1, SVG Export Plug-In . SVG Version: 6.00 Build 0)  -->
<svg version="1.1" id="Capa_1" xmlns="http://www.w3.org/2000/svg" xmlns:xlink="http://www.w3.org/1999/xlink" x="0px" y="0px"
	 viewBox="0 0 24 24" style="enable-background:new 0 0 24 24;" xml:space="preserve">
<style type="text/css">
	.st0{fill:#263238;}
</style>
<g>
	<path class="st0" d="M24,12c0-0.4-0.1-0.8-0.2-1.2s-0.4-0.7-0.7-1s-0.6-0.5-1-0.7c-0.4-0.2-0.8-0.2-1.2-0.2c-0.4,0-1,0-1.7,0.2
		c0.5-0.4,1-0.8,1.3-1.1c1.2-1.2,1.2-3.2,0-4.4c-0.3-0.3-0.6-0.5-1-0.7c-0.8-0.3-1.6-0.3-2.4,0c-0.4,0.1-0.7,0.4-1,0.7
		c-0.3,0.3-0.7,0.8-1.1,1.3c0.1-0.7,0.1-1.3,0.1-1.8C15.1,1.4,13.7,0,12,0c-0.4,0-0.8,0.1-1.2,0.2s-0.7,0.4-1,0.7s-0.5,0.6-0.7,1
		C8.9,2.3,8.9,2.7,8.9,3.1s0,1,0.1,1.7C8.6,4.3,8.3,3.8,8,3.5C7.7,3.2,7.3,3,7,2.8c-0.8-0.3-1.6-0.3-2.4,0C4.2,3,3.8,3.2,3.6,3.5
		C3,4.1,2.6,4.9,2.6,5.7c0,0.9,0.3,1.6,0.9,2.2C3.8,8.2,4.4,8.6,4.8,9c-0.8,0-1.3-0.1-1.7-0.1S2.3,9,1.9,9.1c-0.4,0.1-0.7,0.4-1,0.7
		s-0.5,0.6-0.7,1S0,11.6,0,12c0,1.7,1.4,3.1,3.1,3.1c0.4,0,1,0,1.7-0.2c-0.5,0.4-1,0.8-1.3,1.1c-0.3,0.3-0.5,0.6-0.7,1
		c-0.1,0.4-0.2,0.8-0.2,1.2s0.1,0.8,0.2,1.2c0.1,0.4,0.4,0.7,0.7,1c0.6,0.6,1.4,0.9,2.2,0.9s1.6-0.3,2.2-0.9
		c0.3-0.3,0.7-0.8,1.1-1.3c0,0.8-0.1,1.3-0.1,1.8c0,0.4,0.1,0.8,0.2,1.2c0.1,0.4,0.4,0.7,0.7,1s0.6,0.5,1,0.7
		c0.4,0.1,0.8,0.2,1.2,0.2l0,0c1.7,0,3.1-1.4,3.1-3.1c0-0.4,0-1-0.2-1.7c0.4,0.5,0.8,1,1.1,1.3c0.6,0.6,1.4,0.9,2.2,0.9
		c0.8,0,1.6-0.3,2.2-0.9c0.3-0.3,0.5-0.6,0.7-1c0.1-0.4,0.2-0.8,0.2-1.2c0-0.4-0.1-0.8-0.2-1.2s-0.4-0.7-0.7-1
		c-0.3-0.3-0.8-0.7-1.3-1.1c0.7,0.1,1.2,0.2,1.7,0.2C22.6,15.1,24,13.7,24,12z M20.3,17.4c0.1,0.3,0.1,0.5,0.1,0.8
		c0,0.3,0,0.6-0.1,0.8c-0.1,0.3-0.3,0.5-0.5,0.7c-0.8,0.8-2.3,0.8-3.1,0c-0.5-0.5-1.3-1.6-2.2-3l0,0c0-0.1-0.2-0.2-0.3-0.2
		c0,0-0.1,0-0.2,0l0,0c0,0,0,0-0.1,0s0,0-0.1,0l0,0c0,0-0.1,0.1-0.1,0.1l0,0c0,0,0,0.1,0,0.2c0,0,0,0.1,0,0.1l0,0
		c0.3,1.7,0.5,3,0.5,3.6c0,1.2-1,2.2-2.2,2.2c-0.3,0-0.6,0-0.8-0.1c-0.3-0.1-0.5-0.3-0.7-0.5c-0.2-0.2-0.4-0.4-0.5-0.7
		c-0.1-0.2-0.1-0.5-0.1-0.8c0-0.7,0.2-1.9,0.5-3.6l0,0c0,0,0-0.1,0-0.1c0,0,0,0,0-0.1c0,0,0-0.1,0-0.1c0,0,0-0.1-0.1-0.1l0,0
		c0,0,0,0-0.1,0l0,0l0,0c0,0-0.1,0-0.1,0c-0.1,0-0.1,0-0.2,0l0,0c0,0-0.1,0.1-0.1,0.1l0,0c-0.9,1.4-1.8,2.5-2.2,3
		c-0.8,0.8-2.3,0.8-3.1,0c-0.2-0.2-0.4-0.4-0.5-0.7c-0.1-0.3-0.1-0.5-0.1-0.8c0-0.3,0-0.6,0.1-0.8c0.1-0.3,0.3-0.5,0.5-0.7
		c0.5-0.5,1.5-1.3,3-2.2l0,0c0,0,0.1,0,0.1-0.1c0,0,0-0.1,0-0.1s0,0,0-0.1c0,0,0-0.1,0-0.2l0,0c0,0,0,0,0,0c0,0,0,0,0-0.1l0,0
		c0,0,0,0-0.1-0.1c0,0-0.1-0.1-0.2-0.1c0,0,0,0,0,0c0,0-0.1,0-0.1,0l0,0c-1.8,0.3-3.1,0.5-3.8,0.5c-1.2,0-2.2-1-2.2-2.2
		c0-0.3,0-0.6,0.1-0.8c0.1-0.3,0.3-0.5,0.5-0.7C1.8,10.3,2,10.1,2.3,10c0.2-0.1,0.5-0.1,0.8-0.1c0.7,0,1.9,0.2,3.7,0.5c0,0,0,0,0,0
		h0c0,0,0,0,0.1,0c0,0,0,0,0,0c0,0,0.1,0,0.1,0c0,0,0,0,0,0c0,0,0.1,0,0.1-0.1l0,0l0,0c0,0,0,0,0-0.1s0,0,0-0.1l0,0
		c0-0.1,0-0.3-0.1-0.4c0,0,0-0.1-0.1-0.1l0,0c-1.4-0.9-2.5-1.8-3-2.2C3.9,7,3.6,6.4,3.6,5.8s0.2-1.2,0.6-1.5C4.5,4.1,4.7,3.9,5,3.8
		c0.5-0.2,1.2-0.2,1.7,0C7,3.9,7.2,4.1,7.4,4.3c0.5,0.5,1.3,1.5,2.2,3l0,0c0,0,0,0,0.1,0.1c0,0,0.1,0.1,0.2,0.1h0c0,0,0.1,0,0.1,0
		l0,0c0,0,0,0,0.1,0s0,0,0.1,0l0,0c0,0,0.1,0,0.1-0.1c0,0,0.1-0.1,0.1-0.2c0,0,0,0,0,0c0,0,0-0.1,0-0.1l0,0C10,5,9.8,3.8,9.8,3.1
		c0-0.3,0-0.6,0.1-0.8c0.1-0.3,0.3-0.5,0.5-0.7c0.2-0.2,0.4-0.4,0.7-0.5S11.7,0.9,12,1c1.2,0,2.2,1,2.2,2.2c0,0.6-0.2,1.9-0.5,3.6
		l0,0c0,0,0,0.1,0,0.1c0,0,0,0,0,0.1c0,0,0,0.1,0,0.1c0,0,0,0.1,0.1,0.1l0,0c0,0,0,0,0.1,0c0,0,0,0,0.1,0l0,0l0,0c0,0,0,0,0.1,0h0h0
		c0,0,0,0,0.1,0c0,0,0,0,0,0c0,0,0,0,0.1-0.1c0,0,0,0,0,0c1-1.4,1.7-2.5,2.2-3c0.2-0.2,0.4-0.4,0.7-0.5c0.5-0.2,1.2-0.2,1.7,0
		c0.3,0.1,0.5,0.3,0.7,0.5c0.8,0.8,0.8,2.3,0,3.1c-0.5,0.5-1.6,1.3-3,2.2l0,0c0,0-0.1,0.1-0.1,0.1l0,0c0,0,0,0.1,0,0.2
		c0,0,0,0.1,0,0.1l0,0c0,0,0,0,0,0.1c0,0,0,0,0,0l0,0l0,0c0,0,0,0.1,0.1,0.1c0,0,0,0,0,0c0,0,0.1,0,0.1,0c0,0,0,0,0,0s0,0,0.1,0h0
		c0,0,0,0,0,0c1.7-0.2,2.9-0.4,3.6-0.4c0.3,0,0.6,0,0.8,0.1c0.3,0.1,0.5,0.3,0.7,0.5c0.2,0.2,0.4,0.4,0.5,0.7S23,11.7,23,12
		c0,1.2-1,2.2-2.2,2.2c-0.6,0-1.9-0.2-3.6-0.5l0,0c0,0-0.1,0-0.1,0c-0.1,0-0.1,0-0.2,0l0,0c0,0-0.1,0.1-0.1,0.1l0,0v0
		c0,0,0,0.1,0,0.1l0,0c0,0,0,0,0,0.1c0,0.1,0.1,0.3,0.2,0.4l0,0c1.4,1,2.5,1.7,3,2.2C20,16.9,20.2,17.2,20.3,17.4z"/>
	<path class="st0" d="M12,8.2c-2.1,0-3.8,1.7-3.8,3.8s1.7,3.8,3.8,3.8s3.8-1.7,3.8-3.8S14.1,8.2,12,8.2z M12,14.8
		c-1.5,0-2.8-1.2-2.8-2.8c0-1.5,1.2-2.8,2.8-2.8c1.5,0,2.8,1.2,2.8,2.8C14.8,13.5,13.5,14.8,12,14.8z"/>
</g>
</svg>
