<?xml version="1.0" encoding="utf-8"?>
<!-- Generator: Adobe Illustrator 25.4.1, SVG Export Plug-In . SVG Version: 6.00 Build 0)  -->
<svg version="1.1" id="Capa_1" xmlns="http://www.w3.org/2000/svg" xmlns:xlink="http://www.w3.org/1999/xlink" x="0px" y="0px"
	 viewBox="0 0 24 24" style="enable-background:new 0 0 24 24;" xml:space="preserve">
<style type="text/css">
	.st0{fill:#263238;}
</style>
<g>
	<path class="st0" d="M14.1,22.1c-0.1,0-0.2,0-0.3,0l-4.1-1.3c-0.2,0-0.3-0.2-0.4-0.3C9.1,20.2,9,20,9,19.8v-5.9c0,0,0-0.1-0.1-0.2
		L0.3,3.9l0,0C0.2,3.7,0.1,3.5,0,3.3s0-0.4,0.1-0.7c0.1-0.2,0.2-0.4,0.4-0.5C0.8,2,1,1.9,1.2,1.9l0,0h21.6c0.2,0,0.4,0,0.6,0.2
		c0.2,0.1,0.3,0.3,0.4,0.5C24,2.8,24,3,24,3.3c0,0.2-0.1,0.4-0.3,0.6L15,13.7c0,0-0.1,0.1-0.1,0.2v7.3c0,0.1,0,0.3-0.1,0.4
		c0,0.1-0.1,0.2-0.3,0.3C14.5,22,14.3,22,14.1,22.1C14.2,22.1,14.1,22.1,14.1,22.1z M10.1,19.8l4,1.2v-7.2c0-0.3,0.1-0.6,0.3-0.9
		L23,3.2c0,0,0,0,0-0.1c0,0,0-0.1,0-0.1c0,0,0,0-0.1-0.1c0,0-0.1,0-0.1,0H1.2l0,0c0,0-0.1,0-0.1,0C1,2.9,1,3,1,3c0,0,0,0.1,0,0.1
		c0,0,0,0.1,0,0.1l8.7,9.8c0.2,0.2,0.3,0.5,0.3,0.8C10.1,13.9,10.1,19.8,10.1,19.8z M10.1,19.9L10.1,19.9L10.1,19.9z"/>
</g>
</svg>
