<?xml version="1.0" encoding="utf-8"?>
<!-- Generator: Adobe Illustrator 25.4.1, SVG Export Plug-In . SVG Version: 6.00 Build 0)  -->
<svg version="1.1" id="Capa_1" xmlns="http://www.w3.org/2000/svg" xmlns:xlink="http://www.w3.org/1999/xlink" x="0px" y="0px"
	 viewBox="0 0 24 24" style="enable-background:new 0 0 24 24;" xml:space="preserve">
<style type="text/css">
	.st0{fill:#263238;}
</style>
<g>
	<path class="st0" d="M23.2,11.5c-1.1-4.7-2.6-7.3-4.9-8c-0.5-0.1-1-0.2-1.4-0.2c-0.7,0-1.2,0.1-1.9,0.3c-0.8,0.2-1.7,0.5-3,0.5
		S9.7,3.9,9,3.7C8.4,3.5,7.8,3.4,7.1,3.4c-0.5,0-1,0-1.5,0.2c-2.3,0.7-3.8,3.2-4.9,8c-1.1,5.1-0.6,8.2,1.4,9
		c1.8,0.6,3.2-0.9,4.2-2.1c1.2-1.4,2.5-1.9,5.7-1.9c3.1,0,4.5,0.5,5.7,1.9c1.2,1.4,2.3,2.2,3.4,2.2c0.3,0,0.5,0,0.8-0.1
		C24.7,19.5,24,14.9,23.2,11.5z M21.5,19.6c-0.9,0.3-1.9-0.2-3.1-1.7c-1.3-1.7-3-2.3-6.4-2.3c-3.5,0-5.1,0.6-6.5,2.3
		c-1.2,1.5-2.2,2.1-3.1,1.7c-1.4-0.5-1.7-3.5-0.8-7.8c1-4.4,2.3-6.7,4.2-7.2c0.4-0.1,0.8-0.2,1.2-0.2c0.5,0,1.1,0.1,1.6,0.3
		c0.8,0.2,1.8,0.5,3.3,0.5c1.4,0,2.5-0.3,3.3-0.5c0.6-0.1,1.1-0.3,1.6-0.3c0.4,0,0.8,0,1.2,0.1c1.8,0.6,3.2,3,4.2,7.3
		C23.4,16.4,23.1,19,21.5,19.6z"/>
	<path class="st0" d="M13.8,9.4c-0.6,0-1,0.5-1,1c0,0.6,0.5,1,1,1c0.6,0,1-0.5,1-1C14.9,9.8,14.4,9.4,13.8,9.4z"/>
	<path class="st0" d="M16.5,11.7c-0.2-0.1-0.4-0.1-0.6,0c-0.2,0-0.4,0.1-0.5,0.3c-0.1,0.1-0.2,0.3-0.3,0.5c0,0.2,0,0.4,0,0.6
		c0.1,0.2,0.2,0.3,0.4,0.5c0.1,0.1,0.4,0.2,0.6,0.2c0.3,0,0.5-0.1,0.7-0.3c0.2-0.2,0.3-0.4,0.3-0.7c0-0.2,0-0.4-0.2-0.6
		C16.8,11.9,16.7,11.8,16.5,11.7z"/>
	<path class="st0" d="M16.1,7.1c-0.6,0-1,0.5-1,1c0,0.6,0.5,1,1,1c0.6,0,1-0.5,1-1C17.1,7.5,16.7,7.1,16.1,7.1z"/>
	<path class="st0" d="M18.3,9.4c-0.6,0-1,0.5-1,1c0,0.6,0.5,1,1,1c0.6,0,1-0.5,1-1C19.3,9.8,18.9,9.4,18.3,9.4z"/>
	<path class="st0" d="M9.6,9.9h-2v-2c0-0.3-0.2-0.5-0.5-0.5c-0.3,0-0.5,0.2-0.5,0.5v2h-2c-0.3,0-0.5,0.2-0.5,0.5
		c0,0.3,0.2,0.5,0.5,0.5h2v2c0,0.3,0.2,0.5,0.5,0.5c0.3,0,0.5-0.2,0.5-0.5v-2h2c0.3,0,0.5-0.2,0.5-0.5C10,10.1,9.8,9.9,9.6,9.9z"/>
</g>
</svg>
