<?xml version="1.0" encoding="utf-8"?>
<!-- Generator: Adobe Illustrator 25.4.1, SVG Export Plug-In . SVG Version: 6.00 Build 0)  -->
<svg version="1.1" id="Capa_1" xmlns="http://www.w3.org/2000/svg" xmlns:xlink="http://www.w3.org/1999/xlink" x="0px" y="0px"
	 viewBox="0 0 24 24" style="enable-background:new 0 0 24 24;" xml:space="preserve">
<style type="text/css">
	.st0{fill:#263238;}
</style>
<g>
	<path class="st0" d="M20.8,6.2h-3.3c0.4-0.3,0.7-0.8,0.9-1.2c0.3-0.7,0.3-1.3,0.2-2.1c-0.1-0.7-0.5-1.3-1-1.8
		c-0.5-0.5-1.2-0.8-1.8-1c-0.7-0.1-1.4,0-2.1,0.2C13,0.6,12.5,1,12.1,1.6c0,0-0.1,0.1-0.1,0.2c0,0-0.1-0.1-0.1-0.2
		c-0.4-0.6-1-1.1-1.6-1.3C9.7,0.1,9,0,8.3,0.1c-0.7,0.1-1.3,0.5-1.8,1s-0.8,1.2-1,1.8C5.3,3.6,5.4,4.3,5.7,5
		c0.2,0.5,0.5,0.9,0.9,1.2H3.2c-1.2,0-2.3,1-2.3,2.3v2.6c0,1.1,0.8,2,1.8,2.2v7.5c0,0.8,0.3,1.6,0.9,2.2s1.4,0.9,2.2,0.9h12.3
		c0.8,0,1.6-0.3,2.2-0.9c0.6-0.6,0.9-1.4,0.9-2.2v-7.5c1-0.2,1.8-1.1,1.8-2.2V8.4C23,7.2,22,6.2,20.8,6.2z M12.9,2.2
		c0.3-0.4,0.7-0.8,1.2-1c0.5-0.2,1-0.2,1.5-0.1c0.5,0.1,1,0.3,1.3,0.7c0.4,0.3,0.6,0.8,0.7,1.3c0.1,0.5,0,1-0.1,1.5
		c-0.2,0.5-0.5,0.9-1,1.2c-0.4,0.3-0.9,0.4-1.4,0.4h-2.6V3.6C12.5,3.1,12.6,2.6,12.9,2.2z M7.5,5.8C7,5.5,6.7,5.1,6.5,4.6
		s-0.2-1-0.1-1.5c0.1-0.5,0.3-1,0.7-1.3c0.3-0.4,0.8-0.6,1.3-0.7c0.2,0,0.3,0,0.5,0c0.3,0,0.7,0,1,0.2c0.5,0.2,0.9,0.5,1.2,1
		c0.3,0.4,0.4,0.9,0.4,1.4l0,0v2.6H8.9C8.4,6.2,7.9,6.1,7.5,5.8z M1.9,11.1V8.5c0-0.7,0.6-1.3,1.3-1.3h5.7h2.6v5.2H3.2
		C2.5,12.4,1.9,11.8,1.9,11.1z M4.3,22.3c-0.4-0.4-0.6-1-0.6-1.5v-7.4h7.8v9.6H5.8C5.3,22.9,4.7,22.7,4.3,22.3z M19.7,22.3
		c-0.4,0.4-1,0.6-1.5,0.6h-5.7v-9.6h7.8v7.4C20.3,21.4,20.1,21.9,19.7,22.3z M22.1,11.1c0,0.7-0.6,1.3-1.3,1.3h-8.3V7.2h2.6h5.7
		c0.7,0,1.3,0.6,1.3,1.3C22.1,8.5,22.1,11.1,22.1,11.1z"/>
</g>
</svg>
