<?xml version="1.0" encoding="utf-8"?>
<!-- Generator: Adobe Illustrator 25.4.1, SVG Export Plug-In . SVG Version: 6.00 Build 0)  -->
<svg version="1.1" id="Capa_1" xmlns="http://www.w3.org/2000/svg" xmlns:xlink="http://www.w3.org/1999/xlink" x="0px" y="0px"
	 viewBox="0 0 24 24" style="enable-background:new 0 0 24 24;" xml:space="preserve">
<style type="text/css">
	.st0{fill:#263238;}
</style>
<g>
	<path class="st0" d="M22.1,19.1c0.1-0.2,0.1-0.4,0.2-0.6c1.1-3,1.7-5.2,1.7-6.5c0-6.4-5.6-12-12-12S0,5.6,0,12c0,1.9,1.1,5,2,7.2
		l0,0c0.1,0.3,0.3,0.6,0.4,0.9c1.1,1.9,2.6,3.2,4.2,3.6C7,24,7.2,24,7.6,24c0.5,0,1-0.1,1.4-0.4l0.8-0.4c0.3-0.2,0.5-0.5,0.6-0.8
		c0.1-0.3,0-0.7-0.1-1l-4.8-8.4c-0.1-0.1-0.2-0.3-0.3-0.4c-0.1-0.1-0.3-0.2-0.5-0.2c-0.2,0-0.3,0-0.5,0c-0.2,0-0.3,0.1-0.5,0.2
		l-0.8,0.4c-0.7,0.4-1.2,1.1-1.4,1.9C1.2,13.6,1,12.7,1,12C1,6.1,6.1,1,12,1s11,5.1,11,11c0,0.5-0.1,1.3-0.5,2.7
		c-0.2-0.8-0.7-1.5-1.4-1.9l-0.8-0.5l0,0c-0.1-0.1-0.3-0.1-0.5-0.2c-0.2,0-0.3,0-0.5,0s-0.3,0.1-0.5,0.2c-0.1,0.1-0.2,0.2-0.3,0.4
		l-4.8,8.4c-0.2,0.3-0.2,0.7-0.1,1c0.1,0.3,0.3,0.6,0.6,0.8l0.8,0.4c0.4,0.2,0.9,0.4,1.4,0.4c0.3,0,0.6,0,1-0.1
		c1.5-0.4,3.1-1.8,4.2-3.6c0.1-0.3,0.3-0.6,0.4-0.9C22,19.2,22.1,19.2,22.1,19.1C22,19.2,22.1,19.2,22.1,19.1z M3.3,13.6l0.8-0.4
		c0,0,0.1,0,0.1,0c0,0,0.1,0,0.1,0c0,0,0.1,0,0.1,0c0,0,0.1,0,0.1,0.1l4.8,8.4c0,0.1,0,0.2,0,0.3c0,0.1-0.1,0.2-0.2,0.2l-0.8,0.5
		c-0.4,0.2-1,0.3-1.6,0.1c-1.3-0.3-2.7-1.6-3.6-3.2C1.9,17.3,1.9,14.4,3.3,13.6z M17.1,22.9c-0.6,0.1-1.2,0.1-1.6-0.1l-0.8-0.4
		c-0.1,0-0.1-0.1-0.2-0.2c0-0.1,0-0.2,0-0.3l4.8-8.4c0,0,0-0.1,0.1-0.1c0,0,0.1,0,0.1,0c0,0,0,0,0.1,0h0c0,0,0.1,0,0.1,0l0.8,0.4
		c1.4,0.8,1.4,3.6,0,6.1C19.8,21.4,18.4,22.6,17.1,22.9z"/>
</g>
</svg>
