<?xml version="1.0" encoding="utf-8"?>
<!-- Generator: Adobe Illustrator 25.4.1, SVG Export Plug-In . SVG Version: 6.00 Build 0)  -->
<svg version="1.1" id="Capa_1" xmlns="http://www.w3.org/2000/svg" xmlns:xlink="http://www.w3.org/1999/xlink" x="0px" y="0px"
	 viewBox="0 0 24 24" style="enable-background:new 0 0 24 24;" xml:space="preserve">
<style type="text/css">
	.st0{fill:#263238;}
</style>
<g>
	<path class="st0" d="M12,22.7c-0.3,0-0.6-0.1-0.8-0.2C5.6,18.8,0,14.1,0.1,7.4c0-3.4,2.8-6.1,6.2-6.1c3.1,0,5,2.1,5.8,3.3
		c0.8-1.1,2.7-3.3,5.8-3.3c3.3,0,6.1,2.7,6.2,6.1c0,6.8-5.6,11.5-11.1,15.1C12.6,22.6,12.3,22.7,12,22.7z M6.2,2.2
		C3.4,2.2,1.1,4.6,1,7.4c0,6.3,5.4,10.8,10.7,14.3c0.1,0.1,0.4,0.1,0.5,0c5.3-3.5,10.8-8,10.7-14.3c0-2.8-2.3-5.2-5.2-5.2
		c-3.5,0-5.3,3.4-5.3,3.5c-0.1,0.3-0.7,0.3-0.9,0C11.6,5.6,9.8,2.2,6.2,2.2z"/>
</g>
</svg>
