<?xml version="1.0" encoding="utf-8"?>
<!-- Generator: Adobe Illustrator 25.4.1, SVG Export Plug-In . SVG Version: 6.00 Build 0)  -->
<svg version="1.1" id="Capa_1" xmlns="http://www.w3.org/2000/svg" xmlns:xlink="http://www.w3.org/1999/xlink" x="0px" y="0px"
	 viewBox="0 0 24 24" style="enable-background:new 0 0 24 24;" xml:space="preserve">
<style type="text/css">
	.st0{fill:#263238;}
</style>
<g>
	<path class="st0" d="M20.4,21.4c-0.5-4.1-2.3-5.7-3.7-7c-0.9-0.8-1.6-1.4-1.6-2.4s0.7-1.6,1.6-2.4c1.4-1.2,3.2-2.9,3.7-7
		c0-0.6-0.1-1.2-0.6-1.7c-0.4-0.5-1.1-0.8-1.8-0.8H6c-0.7,0-1.3,0.3-1.8,0.8C3.8,1.4,3.6,2,3.6,2.6c0.4,4.1,2.3,5.8,3.7,7
		C8.2,10.4,8.9,11,8.9,12s-0.7,1.6-1.6,2.5c-1.3,1.2-3.2,2.9-3.7,6.9c0,0.6,0.1,1.2,0.5,1.7c0.4,0.5,1.1,0.8,1.8,0.8H18
		c0.7,0,1.3-0.3,1.8-0.8C20.2,22.6,20.4,22,20.4,21.4z M19.1,22.5c-0.2,0.3-0.6,0.5-1,0.5H6c-0.4,0-0.8-0.2-1-0.5
		c-0.2-0.2-0.3-0.6-0.3-0.9c0.4-3.7,2.1-5.2,3.3-6.3c1-0.9,1.9-1.7,1.9-3.2S9,9.7,8,8.9C6.7,7.7,5,6.2,4.7,2.5c0-0.3,0.1-0.7,0.3-1
		c0.2-0.3,0.6-0.4,1-0.4h12.1c0.4,0,0.8,0.1,1,0.5c0.2,0.3,0.3,0.6,0.3,1c-0.4,3.7-2.1,5.2-3.3,6.4c-1,0.9-1.9,1.7-1.9,3.1
		s0.9,2.2,1.9,3.1c1.3,1.2,3,2.7,3.3,6.4C19.4,21.8,19.3,22.2,19.1,22.5z"/>
	<path class="st0" d="M12.9,15.8v-5.6c0-1.1,2.1-1.9,3.4-3.7c0.2-0.3,0.1-0.7-0.3-0.7H8.1c-0.5,0-0.6,0.4-0.3,0.7
		c1.3,1.8,3.3,2.6,3.3,3.7v5.6c0,1.7-2.9,2.7-4.4,4.2c-0.6,0.6-0.3,1.6,0.5,1.6h9.5c0.9,0,1-1,0.5-1.6
		C15.9,18.4,12.9,17.5,12.9,15.8z"/>
</g>
</svg>
