<?xml version="1.0" encoding="utf-8"?>
<!-- Generator: Adobe Illustrator 25.4.1, SVG Export Plug-In . SVG Version: 6.00 Build 0)  -->
<svg version="1.1" id="Capa_1" xmlns="http://www.w3.org/2000/svg" xmlns:xlink="http://www.w3.org/1999/xlink" x="0px" y="0px"
	 viewBox="0 0 24 24" style="enable-background:new 0 0 24 24;" xml:space="preserve">
<style type="text/css">
	.st0{fill:#263238;}
</style>
<g>
	<path class="st0" d="M20.8,1.9H3.2C1.5,1.9,0.1,3.3,0.1,5v14c0,1.7,1.4,3.1,3.1,3.1h17.6c1.7,0,3.1-1.4,3.1-3.1V5
		C23.9,3.3,22.5,1.9,20.8,1.9z M3.2,2.8h17.6c1.2,0,2.1,1,2.1,2.1v12.2l-3.2-2.7c-0.4-0.3-1-0.5-1.5-0.5c-0.6,0-1.1,0.2-1.5,0.7
		l-1.6,1.6c0,0,0-0.1-0.1-0.1l-5-5c-0.4-0.4-1-0.6-1.5-0.7c-0.6,0-1.1,0.2-1.6,0.6L1,16.3V5C1.1,3.8,2,2.8,3.2,2.8z M1.1,19.1v-1.6
		l6.5-5.8c0.2-0.2,0.6-0.3,0.9-0.3c0.3,0,0.6,0.1,0.9,0.4l5,5c0,0,0.1,0,0.1,0.1l-4.4,4.4H3.2C2,21.2,1.1,20.3,1.1,19.1z M20.8,21.2
		h-9.4l5.9-5.9c0.2-0.2,0.5-0.4,0.9-0.4c0.3,0,0.6,0.1,0.9,0.3l3.9,3.2v0.7C22.9,20.3,22,21.2,20.8,21.2z"/>
	<path class="st0" d="M16.4,9.9c1.2,0,2.2-1,2.2-2.2s-1-2.2-2.2-2.2s-2.2,1-2.2,2.2S15.1,9.9,16.4,9.9z M16.4,6.4
		c0.7,0,1.3,0.6,1.3,1.3s-0.6,1.3-1.3,1.3c-0.7,0-1.3-0.6-1.3-1.3S15.7,6.4,16.4,6.4z"/>
</g>
</svg>
