<?xml version="1.0" encoding="utf-8"?>
<!-- Generator: Adobe Illustrator 25.4.1, SVG Export Plug-In . SVG Version: 6.00 Build 0)  -->
<svg version="1.1" id="Capa_1" xmlns="http://www.w3.org/2000/svg" xmlns:xlink="http://www.w3.org/1999/xlink" x="0px" y="0px"
	 viewBox="0 0 24 24" style="enable-background:new 0 0 24 24;" xml:space="preserve">
<style type="text/css">
	.st0{fill:#263238;}
</style>
<path class="st0" d="M23.6,19.4c-1.1-0.2-2.2-0.4-3.2-0.7c1.8-4.1,0-8.9-4.5-11.9c-2.2-1.4-4.4-1.7-6.5-2.1c-2.8-0.5-5.5-0.9-8-3.6
	C1,0.9,0.8,1,0.7,1C0.3,1.1,0.2,1.5,0.1,1.6C-0.4,3.9,0.7,15.3,6,20.2c2,1.8,4.7,2.9,7.2,2.9c0.5,0,1,0,1.5-0.1
	c2.3-0.3,4.1-1.5,5.1-3.2c0,0,0,0,0,0c1.1,0.3,2.3,0.5,3.5,0.7c0,0,0,0,0.1,0c0.2,0,0.4-0.2,0.5-0.4C24,19.7,23.8,19.5,23.6,19.4z
	 M14.6,22c-2.8,0.4-5.8-0.5-8-2.5C1.9,15.1,0.8,4.8,1,2.3c2.6,2.6,5.4,3,8.2,3.5c2.1,0.3,4.1,0.7,6.1,2c4.1,2.7,5.8,7.1,4.1,10.8
	c-4.3-1.3-8-3.6-11.7-7.1c-0.2-0.2-0.5-0.2-0.7,0c-0.2,0.2-0.2,0.5,0,0.7c3.8,3.6,7.6,5.9,11.9,7.2C18.1,20.8,16.5,21.7,14.6,22z"/>
</svg>
