<?xml version="1.0" encoding="utf-8"?>
<!-- Generator: Adobe Illustrator 25.4.1, SVG Export Plug-In . SVG Version: 6.00 Build 0)  -->
<svg version="1.1" id="Capa_1" xmlns="http://www.w3.org/2000/svg" xmlns:xlink="http://www.w3.org/1999/xlink" x="0px" y="0px"
	 viewBox="0 0 24 24" style="enable-background:new 0 0 24 24;" xml:space="preserve">
<style type="text/css">
	.st0{fill:#263238;}
</style>
<g>
	<path class="st0" d="M24,21.2L22.2,4.7c-0.1-0.9-0.9-1.5-1.7-1.4l-2.1,0.2c-0.4,0-0.8,0.2-1,0.6l0,0v-2c0-0.7-0.6-1.3-1.3-1.3h-3.3
		c-0.7,0-1.3,0.6-1.3,1.3v5.2c-0.2-0.4-0.7-0.7-1.2-0.7h-5c-0.5,0-1,0.3-1.2,0.7V4.6c0-0.7-0.6-1.3-1.3-1.3H1.3C0.6,3.3,0,3.8,0,4.6
		v17.3c0,0.7,0.6,1.3,1.3,1.3h1.6c0.6,0,1.1-0.4,1.2-0.9c0.2,0.5,0.7,0.9,1.2,0.9h4.9c0.6,0,1.1-0.4,1.2-0.9
		c0.2,0.5,0.7,0.9,1.2,0.9h3.3c0.7,0,1.3-0.6,1.3-1.3V8.3l1.4,13.5c0.1,0.8,0.8,1.4,1.5,1.4c0,0,0.1,0,0.1,0l2.1-0.2
		c0.4,0,0.8-0.2,1-0.6C23.9,22.1,24,21.6,24,21.2z M3.3,21.9c0,0.2-0.1,0.3-0.3,0.3H1.3c-0.2,0-0.3-0.1-0.3-0.3V4.6
		c0-0.2,0.1-0.3,0.3-0.3h1.6c0.2,0,0.3,0.1,0.3,0.3L3.3,21.9L3.3,21.9z M5.1,10.8h5.6V19H5.1V10.8z M5.4,7.5h4.9
		c0.2,0,0.3,0.1,0.3,0.3v2H5.1v-2C5.1,7.7,5.2,7.5,5.4,7.5z M10.4,22.2H5.4c-0.2,0-0.3-0.1-0.3-0.3v-2h5.6v2
		C10.7,22.1,10.6,22.2,10.4,22.2z M16.5,21.9c0,0.2-0.1,0.3-0.3,0.3h-3.3c-0.2,0-0.3-0.1-0.3-0.3V2.1c0-0.2,0.1-0.3,0.3-0.3h3.3
		c0.2,0,0.3,0.1,0.3,0.3V21.9z M22.9,21.8c-0.1,0.1-0.2,0.2-0.4,0.2l-2.1,0.2c-0.3,0-0.6-0.2-0.6-0.5L18,5.1c0-0.1,0-0.3,0.1-0.5
		c0.1-0.1,0.2-0.2,0.4-0.2l2.1-0.2h0c0.3,0,0.5,0.2,0.6,0.5L23,21.4C23,21.5,23,21.6,22.9,21.8z"/>
</g>
</svg>
