<svg xmlns="http://www.w3.org/2000/svg" viewBox="0 0 24 24" style="enable-background:new 0 0 24 24" xml:space="preserve"><path d="M24 21.2 22.2 4.7c-.1-.9-.9-1.5-1.7-1.4l-2.1.2c-.4 0-.8.2-1 .6v-2c0-.7-.6-1.3-1.3-1.3h-3.3c-.7 0-1.3.6-1.3 1.3v5.2c-.2-.4-.7-.7-1.2-.7h-5c-.5 0-1 .3-1.2.7V4.6c0-.7-.6-1.3-1.3-1.3H1.3C.6 3.3 0 3.8 0 4.6v17.3c0 .7.6 1.3 1.3 1.3h1.6c.6 0 1.1-.4 1.2-.9.2.5.7.9 1.2.9h4.9c.6 0 1.1-.4 1.2-.9.2.5.7.9 1.2.9h3.3c.7 0 1.3-.6 1.3-1.3V8.3l1.4 13.5c.1.8.8 1.4 1.5 1.4h.1l2.1-.2c.4 0 .8-.2 1-.6.6-.3.7-.8.7-1.2zm-20.7.7c0 .2-.1.3-.3.3H1.3c-.2 0-.3-.1-.3-.3V4.6c0-.2.1-.3.3-.3h1.6c.2 0 .3.1.3.3l.1 17.3zm1.8-11.1h5.6V19H5.1v-8.2zm.3-3.3h4.9c.2 0 .3.1.3.3v2H5.1v-2c0-.1.1-.3.3-.3zm5 14.7h-5c-.2 0-.3-.1-.3-.3v-2h5.6v2c0 .2-.1.3-.3.3zm6.1-.3c0 .2-.1.3-.3.3h-3.3c-.2 0-.3-.1-.3-.3V2.1c0-.2.1-.3.3-.3h3.3c.2 0 .3.1.3.3v19.8zm6.4-.1c-.1.1-.2.2-.4.2l-2.1.2c-.3 0-.6-.2-.6-.5L18 5.1c0-.1 0-.3.1-.5.1-.1.2-.2.4-.2l2.1-.2c.3 0 .5.2.6.5L23 21.4c0 .1 0 .2-.1.4z" style="fill:#263238"/></svg>