<?xml version="1.0" encoding="utf-8"?>
<!-- Generator: Adobe Illustrator 25.4.1, SVG Export Plug-In . SVG Version: 6.00 Build 0)  -->
<svg version="1.1" id="Capa_1" xmlns="http://www.w3.org/2000/svg" xmlns:xlink="http://www.w3.org/1999/xlink" x="0px" y="0px"
	 viewBox="0 0 24 24" style="enable-background:new 0 0 24 24;" xml:space="preserve">
<style type="text/css">
	.st0{fill:#263238;}
</style>
<g>
	<path class="st0" d="M21.4,0.5C21.4,0.5,21.4,0.4,21.4,0.5c0-0.2-0.1-0.3-0.2-0.3c0,0-0.1,0-0.2,0l0,0h-4.1c-0.3,0-0.5,0.2-0.5,0.5
		s0.2,0.5,0.5,0.5h2.9L16,4.9c-1.3-1.9-3.6-3.1-6-3.1c-4.1,0-7.4,3.3-7.4,7.4c0,4,3.1,7.2,7.1,7.4c-0.1,0.1-0.2,0.2-0.2,0.3v2.8H7.1
		c-0.3,0-0.5,0.2-0.5,0.5c0,0.3,0.2,0.5,0.5,0.5h2.4v2.8c0,0.3,0.2,0.5,0.5,0.5c0.3,0,0.5-0.2,0.5-0.5v-2.8h2.4
		c0.3,0,0.5-0.2,0.5-0.5c0-0.3-0.2-0.5-0.5-0.5h-2.4v-2.8c0-0.1,0-0.3-0.2-0.3c3.9-0.1,7.1-3.4,7.1-7.4c0-1.2-0.3-2.4-0.9-3.4l4-4
		v2.9c0,0.3,0.2,0.5,0.5,0.5c0.3,0,0.5-0.2,0.5-0.5L21.4,0.5C21.4,0.6,21.4,0.5,21.4,0.5z M9.9,15.6c-3.6,0-6.5-2.9-6.5-6.5
		s2.9-6.5,6.5-6.5s6.5,2.9,6.5,6.5S13.5,15.6,9.9,15.6z"/>
</g>
</svg>
