<?xml version="1.0" encoding="utf-8"?>
<!-- Generator: Adobe Illustrator 25.4.1, SVG Export Plug-In . SVG Version: 6.00 Build 0)  -->
<svg version="1.1" id="Capa_1" xmlns="http://www.w3.org/2000/svg" xmlns:xlink="http://www.w3.org/1999/xlink" x="0px" y="0px"
	 viewBox="0 0 24 24" style="enable-background:new 0 0 24 24;" xml:space="preserve">
<style type="text/css">
	.st0{fill:#263238;}
</style>
<g>
	<path class="st0" d="M23.6,0.6c0,0,0-0.1-0.1-0.1c0,0,0,0,0,0l0,0c0,0-0.1,0-0.1-0.1c0,0-0.1,0-0.2,0l0,0h-5.6
		c-0.3,0-0.5,0.2-0.5,0.5s0.2,0.5,0.5,0.5h4.5l-6.2,6.2C14.2,6,12.1,5,9.7,5c-5.1,0-9.3,4.2-9.3,9.3s4.2,9.3,9.3,9.3
		s9.3-4.2,9.3-9.3c0-2.4-0.9-4.6-2.4-6.3l6.2-6.2v4.5c0,0.3,0.2,0.5,0.5,0.5c0.3,0,0.5-0.2,0.5-0.5V0.8C23.7,0.8,23.7,0.7,23.6,0.6z
		 M9.7,22.8c-4.6,0-8.4-3.8-8.4-8.4S5,6,9.7,6s8.4,3.8,8.4,8.4S14.3,22.8,9.7,22.8z"/>
</g>
</svg>
