<svg xmlns="http://www.w3.org/2000/svg" viewBox="0 0 24 24" style="enable-background:new 0 0 24 24" xml:space="preserve"><path d="M21.4.5s0-.1 0 0c0-.2-.1-.3-.2-.3h-4.3c-.3 0-.5.2-.5.5s.2.5.5.5h2.9L16 4.9c-1.3-1.9-3.6-3.1-6-3.1-4.1 0-7.4 3.3-7.4 7.4 0 4 3.1 7.2 7.1 7.4-.1.1-.2.2-.2.3v2.8H7.1c-.3 0-.5.2-.5.5s.2.5.5.5h2.4v2.8c0 .3.2.5.5.5s.5-.2.5-.5v-2.8h2.4c.3 0 .5-.2.5-.5s-.2-.5-.5-.5h-2.4v-2.8c0-.1 0-.3-.2-.3 3.9-.1 7.1-3.4 7.1-7.4 0-1.2-.3-2.4-.9-3.4l4-4v2.9c0 .3.2.5.5.5s.5-.2.5-.5L21.4.5c0 .1 0 0 0 0zM9.9 15.6c-3.6 0-6.5-2.9-6.5-6.5s2.9-6.5 6.5-6.5 6.5 2.9 6.5 6.5-2.9 6.5-6.5 6.5z" style="fill:#263238"/></svg>