<?xml version="1.0" encoding="utf-8"?>
<!-- Generator: Adobe Illustrator 25.4.1, SVG Export Plug-In . SVG Version: 6.00 Build 0)  -->
<svg version="1.1" id="Capa_1" xmlns="http://www.w3.org/2000/svg" xmlns:xlink="http://www.w3.org/1999/xlink" x="0px" y="0px"
	 viewBox="0 0 24 24" style="enable-background:new 0 0 24 24;" xml:space="preserve">
<style type="text/css">
	.st0{fill:#263238;}
</style>
<g>
	<path class="st0" d="M12,14c-1.6,0-3,1.3-3,3s1.3,3,3,3s3-1.3,3-3S13.7,14,12,14z M12,19.1c-1.1,0-2.1-0.9-2.1-2.1
		c0-1.2,0.9-2.1,2.1-2.1s2.1,0.9,2.1,2.1C14.1,18.2,13.1,19.1,12,19.1z"/>
	<path class="st0" d="M24,6.1c0-0.4,0-0.8-0.2-1.1l-1.6-3.3c-0.2-0.3-0.4-0.7-0.8-0.9l0,0l0,0l0,0c-0.3-0.2-0.7-0.3-1.1-0.3H3.8
		C3.4,0.6,3,0.7,2.6,0.9S2,1.4,1.9,1.8L0.2,5C0.1,5.4,0,5.7,0,6.1c0,0.4,0.1,0.7,0.3,1.1l5.5,8.5c-0.1,0.4-0.1,0.9-0.1,1.4
		c0,3.5,2.8,6.4,6.4,6.4c3.5,0,6.4-2.8,6.4-6.4c0-0.5,0-1-0.1-1.4l5.4-8.5C23.9,6.8,24,6.5,24,6.1z M2.7,2.2C2.8,2,3,1.8,3.2,1.7
		c0.2-0.1,0.4-0.2,0.6-0.2h16.4c0,0,0.1,0,0.1,0l-2.5,4.1H1c0,0,0-0.1,0-0.1L2.7,2.2z M12,10.6c-0.8,0-1.6,0.1-2.4,0.5L6.8,6.6h10.4
		l-2.8,4.6C13.6,10.8,12.8,10.6,12,10.6z M1.2,6.6C1.2,6.6,1.2,6.6,1.2,6.6l4.5,0l3.1,4.9c-1.2,0.7-2.1,1.7-2.6,2.9L1.2,6.6z
		 M12,22.4c-3,0-5.4-2.4-5.4-5.4S9,11.6,12,11.6s5.4,2.4,5.4,5.4S15,22.4,12,22.4z M22.8,6.6l-5,7.8c-0.5-1.2-1.4-2.3-2.6-2.9l6-9.5
		c0,0,0.1,0.1,0.1,0.1l1.6,3.3C23,5.6,23,5.8,23,6.1C23,6.3,22.9,6.5,22.8,6.6z"/>
</g>
</svg>
