<?xml version="1.0" encoding="utf-8"?>
<!-- Generator: Adobe Illustrator 25.4.1, SVG Export Plug-In . SVG Version: 6.00 Build 0)  -->
<svg version="1.1" id="Capa_1" xmlns="http://www.w3.org/2000/svg" xmlns:xlink="http://www.w3.org/1999/xlink" x="0px" y="0px"
	 viewBox="0 0 24 24" style="enable-background:new 0 0 24 24;" xml:space="preserve">
<style type="text/css">
	.st0{fill:#263238;}
</style>
<g>
	<path class="st0" d="M22.7,8.5c-0.2,0-0.4,0-0.5,0.2V1.2c0-0.5-0.3-1-0.9-1.2c-0.5-0.2-1,0-1.3,0.3c-0.1,0.1-4.8,5.8-8.9,5.8H4l0,0
		l0,0H2.2c-0.4,0-0.7,0.1-1,0.4s-0.4,0.6-0.4,1v0.6C0.5,8.4,0,9,0,10.2s0.5,1.8,0.9,2.1v0.6c0,0.4,0.1,0.7,0.4,1s0.6,0.4,1,0.4h3.1
		v8.8c0,0.2,0.1,0.5,0.3,0.7C5.8,23.9,6,24,6.2,24h2.9c0.2,0,0.4,0,0.6-0.1c0.2-0.1,0.3-0.2,0.5-0.4c0.1-0.2,0.2-0.4,0.2-0.6
		c0-0.2,0-0.4,0-0.6c-0.1-0.4-0.3-0.8-0.5-1.3c-0.4-1.1-1-2.4-1.1-4h0.4c0.4,0,0.7-0.1,1-0.4s0.4-0.6,0.4-1v-1c0-0.1,0-0.3,0-0.4
		h0.5c4.2,0,8.9,5.8,8.9,5.8c0.2,0.2,0.5,0.4,0.9,0.4c0.1,0,0.3,0,0.4-0.1c0.5-0.2,0.9-0.6,0.9-1.2v-7.5c0.1,0.1,0.2,0.2,0.4,0.2
		c0,0,0.1,0,0.1,0c0.4-0.1,1.2-0.6,1.2-1.7C24,9.1,23.1,8.6,22.7,8.5z M1.9,13.1c-0.1-0.1-0.1-0.2-0.1-0.3V7.6c0-0.1,0-0.2,0.1-0.3
		C2,7.2,2.1,7.2,2.2,7.2h1.3v6.1H2.2C2.1,13.3,2,13.2,1.9,13.1z M9.6,14.3c0.1,0.1,0.1,0.2,0.1,0.3v0.9c0,0.1,0,0.2-0.1,0.3
		c-0.1,0.1-0.2,0.1-0.3,0.1H8.4c-0.3,0-0.5,0.2-0.5,0.5c0,2.1,0.6,3.6,1.2,4.9c0.2,0.4,0.3,0.8,0.5,1.2c0,0,0,0.1,0,0.2
		c0,0,0,0.1-0.1,0.2c0,0-0.1,0.1-0.1,0.1c0,0-0.1,0-0.2,0H6.3v-8.8h3C9.4,14.2,9.5,14.3,9.6,14.3z M9.3,13.3L9.3,13.3H8.4l0,0H5.8
		l0,0l0,0H4.5V7.1h6.6c0.1,0,0.3,0,0.4,0v6.1c-0.1,0-0.3,0-0.4,0H9.3z M21.2,19.2c0,0.1-0.1,0.2-0.2,0.2c-0.1,0-0.2,0-0.3,0
		c-0.2-0.2-4.1-5.1-8.3-6V7c4.2-1,8.1-5.8,8.3-6l0,0c0-0.1,0.2,0,0.2,0c0.1,0,0.2,0.1,0.2,0.3V19.2z M22.5,11
		c-0.1,0-0.2,0.1-0.3,0.2V9.2c0,0.1,0.1,0.2,0.3,0.2c0.1,0,0.5,0.2,0.5,0.8C23,10.8,22.6,10.9,22.5,11z"/>
</g>
</svg>
