<?xml version="1.0" encoding="utf-8"?>
<!-- Generator: Adobe Illustrator 25.4.1, SVG Export Plug-In . SVG Version: 6.00 Build 0)  -->
<svg version="1.1" id="Capa_1" xmlns="http://www.w3.org/2000/svg" xmlns:xlink="http://www.w3.org/1999/xlink" x="0px" y="0px"
	 viewBox="0 0 24 24" style="enable-background:new 0 0 24 24;" xml:space="preserve">
<style type="text/css">
	.st0{fill:#263238;}
</style>
<path class="st0" d="M23.9,16.1c-0.1-0.1-0.3-0.2-0.5-0.1c-1.2,0.6-2.9,0.9-4.7,0.9c-6.3,0-11.5-5.1-11.5-11.5C7.2,3.6,7.4,2,8,0.7
	c0.1-0.2,0-0.4-0.1-0.5C7.8,0,7.6-0.1,7.4,0C2.9,2,0,6.5,0,11.6C0,18.4,5.6,24,12.4,24c5,0,9.6-2.9,11.5-7.4
	C24,16.5,24,16.2,23.9,16.1z M12.4,23C6.1,23,1,17.9,1,11.6C1,7.3,3.2,3.5,6.7,1.4C6.4,2.6,6.2,3.9,6.2,5.3
	c0,6.9,5.6,12.4,12.4,12.4c1.4,0,2.7-0.2,3.9-0.5C20.5,20.8,16.7,23,12.4,23z"/>
</svg>
