<?xml version="1.0" encoding="utf-8"?>
<!-- Generator: Adobe Illustrator 25.4.1, SVG Export Plug-In . SVG Version: 6.00 Build 0)  -->
<svg version="1.1" id="Capa_1" xmlns="http://www.w3.org/2000/svg" xmlns:xlink="http://www.w3.org/1999/xlink" x="0px" y="0px"
	 viewBox="0 0 24 24" style="enable-background:new 0 0 24 24;" xml:space="preserve">
<style type="text/css">
	.st0{fill:#263238;}
</style>
<path class="st0" d="M21.1,0.8c0-0.1-0.2-0.3-0.3-0.4c-0.1-0.1-0.3-0.1-0.4-0.2c-0.1,0-0.3,0-0.5,0l-10.9,3C8.8,3.3,8.5,3.4,8.3,3.7
	C8.2,3.9,8.1,4.2,8.1,4.5v5.1l0,0V10l0,0v6.9c0,0.6-0.3,1-0.9,1.2l-2.8,1c-0.9,0.3-1.5,1.2-1.5,2.2c0,0.8,0.4,1.6,1.1,2.2
	c0.5,0.3,1,0.5,1.5,0.5c0.3,0,0.6,0,0.8-0.1l1.2-0.4C8.4,23,9,22.1,9,21.2V9.6c0-0.6,0.4-1.1,1-1.2l9.5-2.5c0.1,0,0.2,0,0.3,0
	c0.1,0,0.2,0,0.2,0.1c0.1,0,0.1,0.1,0.2,0.2c0,0.1,0,0.2,0,0.3v1.2v6.6c0,0.5-0.3,1-0.9,1.2l-2.8,1c-0.5,0.1-0.8,0.4-1.1,0.8
	C15.1,17.6,15,18,15,18.6c0,0.9,0.4,1.6,1.1,2.2c0.7,0.5,1.6,0.6,2.4,0.3l1.2-0.4c0.9-0.3,1.5-1.1,1.5-2.1V7.6V6.5V1.2
	C21.2,1.1,21.2,0.9,21.1,0.8z M8.1,21.2c0,0.6-0.3,1-0.9,1.2L6,22.8c-0.5,0.2-1.1,0.1-1.5-0.2c-0.5-0.3-0.7-0.8-0.7-1.4
	c0-0.6,0.3-1.1,0.9-1.3l2.8-1c0.2,0,0.4-0.2,0.6-0.3C8.1,18.5,8.1,21.2,8.1,21.2z M20.3,18.6c0,0.5-0.3,1-0.9,1.2l-1.2,0.4
	c-0.5,0.2-1.1,0.1-1.5-0.2c-0.5-0.3-0.7-0.8-0.7-1.4c0-0.3,0.1-0.6,0.2-0.8c0.2-0.2,0.4-0.4,0.7-0.5l2.8-1c0.2-0.1,0.4-0.2,0.6-0.3
	V18.6z M19.9,4.9c-0.2,0-0.5,0-0.7,0L9.7,7.5C9.4,7.5,9.2,7.7,9,7.8V4.5c0-0.1,0-0.2,0.1-0.2c0-0.1,0.1-0.1,0.2-0.1l10.9-2.9L20,0.7
	l0.2,0.5l0,0V5C20.2,5,20.1,4.9,19.9,4.9z"/>
</svg>
