<svg xmlns="http://www.w3.org/2000/svg" viewBox="0 0 24 24" style="enable-background:new 0 0 24 24" xml:space="preserve"><path d="M21.1.8c0-.1-.2-.3-.3-.4-.1-.1-.3-.1-.4-.2h-.5L9 3.2c-.2.1-.5.2-.7.5-.1.2-.2.5-.2.8v12.4c0 .6-.3 1-.9 1.2l-2.8 1c-.9.3-1.5 1.2-1.5 2.2 0 .8.4 1.6 1.1 2.2.5.3 1 .5 1.5.5.3 0 .6 0 .8-.1l1.2-.4C8.4 23 9 22.1 9 21.2V9.6c0-.6.4-1.1 1-1.2l9.5-2.5h.3c.1 0 .2 0 .2.1.1 0 .1.1.2.2v8.1c0 .5-.3 1-.9 1.2l-2.8 1c-.5.1-.8.4-1.1.8-.3.3-.4.7-.4 1.3 0 .9.4 1.6 1.1 2.2.7.5 1.6.6 2.4.3l1.2-.4c.9-.3 1.5-1.1 1.5-2.1V1.2c0-.1 0-.3-.1-.4zm-13 20.4c0 .6-.3 1-.9 1.2l-1.2.4c-.5.2-1.1.1-1.5-.2-.5-.3-.7-.8-.7-1.4 0-.6.3-1.1.9-1.3l2.8-1c.2 0 .4-.2.6-.3v2.6zm12.2-2.6c0 .5-.3 1-.9 1.2l-1.2.4c-.5.2-1.1.1-1.5-.2-.5-.3-.7-.8-.7-1.4 0-.3.1-.6.2-.8.2-.2.4-.4.7-.5l2.8-1 .6-.3v2.6zm-.4-13.7h-.7L9.7 7.5c-.3 0-.5.2-.7.3V4.5c0-.1 0-.2.1-.2 0-.1.1-.1.2-.1l10.9-2.9-.2-.6.2.5V5s-.1-.1-.3-.1z" style="fill:#263238"/></svg>