<?xml version="1.0" encoding="utf-8"?>
<!-- Generator: Adobe Illustrator 25.4.1, SVG Export Plug-In . SVG Version: 6.00 Build 0)  -->
<svg version="1.1" id="Capa_1" xmlns="http://www.w3.org/2000/svg" xmlns:xlink="http://www.w3.org/1999/xlink" x="0px" y="0px"
	 viewBox="0 0 24 24" style="enable-background:new 0 0 24 24;" xml:space="preserve">
<style type="text/css">
	.st0{fill:#263238;}
</style>
<g>
	<path class="st0" d="M23.3,5.1c-0.3-0.3-0.8-0.5-1.3-0.5h-3.4V2c0-0.5-0.2-0.9-0.5-1.3c-0.3-0.3-0.8-0.5-1.3-0.5H2
		c-0.5,0-0.9,0.2-1.3,0.5S0.2,1.5,0.2,2v19.2c0,0.7,0.3,1.4,0.8,1.9c0.5,0.5,1.2,0.8,1.9,0.8h17.9c0.8,0,1.6-0.3,2.2-0.9
		c0.6-0.6,0.9-1.3,0.9-2.2V6.3C23.8,5.9,23.6,5.4,23.3,5.1z M1.6,22.4c-0.3-0.3-0.5-0.7-0.5-1.2V2c0-0.2,0.1-0.4,0.2-0.6
		C1.5,1.3,1.8,1.2,2,1.2h14.8c0.2,0,0.4,0.1,0.6,0.2s0.2,0.4,0.2,0.6v3l0,0v15.7c0,0.8,0.3,1.5,0.9,2.1H2.8
		C2.4,22.8,2,22.6,1.6,22.4z M22.8,20.7c0,0.6-0.2,1.1-0.6,1.5s-0.9,0.6-1.5,0.6c-0.6,0-1.1-0.2-1.5-0.6c-0.4-0.4-0.6-1-0.6-1.5l0,0
		l0,0V5.5H22c0.2,0,0.4,0.1,0.6,0.2c0.1,0.1,0.2,0.4,0.2,0.6C22.8,6.3,22.8,20.7,22.8,20.7z"/>
	<path class="st0" d="M14.6,4.5h-3.5c-0.3,0-0.5,0.2-0.5,0.5c0,0.3,0.2,0.5,0.5,0.5h3.5c0.3,0,0.5-0.2,0.5-0.5
		C15.1,4.7,14.9,4.5,14.6,4.5z"/>
	<path class="st0" d="M14.6,8.1h-3.5c-0.3,0-0.5,0.2-0.5,0.5c0,0.3,0.2,0.5,0.5,0.5h3.5c0.3,0,0.5-0.2,0.5-0.5
		C15.1,8.2,14.9,8.1,14.6,8.1z"/>
	<path class="st0" d="M14.6,11.5H4.1c-0.3,0-0.5,0.2-0.5,0.5s0.2,0.5,0.5,0.5h10.5c0.3,0,0.5-0.2,0.5-0.5S14.9,11.5,14.6,11.5z"/>
	<path class="st0" d="M14.6,15H4.1c-0.3,0-0.5,0.2-0.5,0.5c0,0.3,0.2,0.5,0.5,0.5h10.5c0.3,0,0.5-0.2,0.5-0.5
		C15.1,15.2,14.9,15,14.6,15z"/>
	<path class="st0" d="M14.6,18.5H4.1c-0.3,0-0.5,0.2-0.5,0.5c0,0.3,0.2,0.5,0.5,0.5h10.5c0.3,0,0.5-0.2,0.5-0.5
		C15.1,18.7,14.9,18.5,14.6,18.5z"/>
	<path class="st0" d="M7.7,9.4c0.2,0,0.4-0.1,0.6-0.2C8.4,9,8.5,8.8,8.5,8.5V5c0-0.2-0.1-0.4-0.2-0.6C8.1,4.2,7.9,4.1,7.7,4.1H4.2
		C4,4.1,3.8,4.2,3.6,4.4C3.4,4.5,3.3,4.8,3.3,5v3.5c0,0.2,0.1,0.4,0.2,0.6C3.7,9.3,4,9.4,4.2,9.4L7.7,9.4L7.7,9.4z"/>
</g>
</svg>
