<?xml version="1.0" encoding="utf-8"?>
<!-- Generator: Adobe Illustrator 25.4.1, SVG Export Plug-In . SVG Version: 6.00 Build 0)  -->
<svg version="1.1" id="Capa_1" xmlns="http://www.w3.org/2000/svg" xmlns:xlink="http://www.w3.org/1999/xlink" x="0px" y="0px"
	 viewBox="0 0 24 24" style="enable-background:new 0 0 24 24;" xml:space="preserve">
<style type="text/css">
	.st0{fill:#263238;}
</style>
<g>
	<path class="st0" d="M12,0.2C5.5,0.2,0.2,5.5,0.2,12S5.5,23.8,12,23.8S23.8,18.5,23.8,12S18.5,0.2,12,0.2z M22.9,11.5h-6.6l0,0l0,0
		c-0.1-1.3-0.9-2.4-1.9-3.1l0,0l2.9-6C20.5,4.2,22.7,7.6,22.9,11.5z M12,15.3c-1.8,0-3.3-1.5-3.3-3.3s1.5-3.3,3.3-3.3
		s3.3,1.5,3.3,3.3S13.8,15.3,12,15.3z M16.4,2.1l-2.9,6l0,0C13,7.8,12.5,7.7,12,7.7S11,7.8,10.5,8l0,0l-2.9-6C9,1.4,10.4,1.1,12,1.1
		S15.1,1.4,16.4,2.1z M6.7,2.5l2.9,6l0,0c-1,0.7-1.8,1.8-1.9,3.1l0,0l0,0H1.2C1.3,7.6,3.5,4.2,6.7,2.5z M1.1,12.5h6.6
		c0.1,1,0.6,1.9,1.3,2.7l0,0l-4,5.3C2.8,18.5,1.2,15.6,1.1,12.5z M5.8,21l4-5.3l0,0c0.6,0.4,1.4,0.6,2.2,0.6s1.5-0.2,2.2-0.6l0,0
		l4,5.3c-1.8,1.2-3.9,1.9-6.2,1.9S7.5,22.2,5.8,21z M19,20.4l-4-5.3l0,0c0.7-0.7,1.2-1.6,1.3-2.7h6.6C22.8,15.6,21.2,18.5,19,20.4z"
		/>
</g>
</svg>
