<svg xmlns="http://www.w3.org/2000/svg" viewBox="0 0 24 24" style="enable-background:new 0 0 24 24" xml:space="preserve"><path d="M12 .2C5.5.2.2 5.5.2 12S5.5 23.8 12 23.8 23.8 18.5 23.8 12 18.5.2 12 .2zm10.9 11.3h-6.6c-.1-1.3-.9-2.4-1.9-3.1l2.9-6c3.2 1.8 5.4 5.2 5.6 9.1zM12 15.3c-1.8 0-3.3-1.5-3.3-3.3s1.5-3.3 3.3-3.3 3.3 1.5 3.3 3.3-1.5 3.3-3.3 3.3zm4.4-13.2-2.9 6c-.5-.3-1-.4-1.5-.4s-1 .1-1.5.3L7.6 2c1.4-.6 2.8-.9 4.4-.9s3.1.3 4.4 1zm-9.7.4 2.9 6c-1 .7-1.8 1.8-1.9 3.1H1.2c.1-4 2.3-7.4 5.5-9.1zm-5.6 10h6.6c.1 1 .6 1.9 1.3 2.7l-4 5.3c-2.2-2-3.8-4.9-3.9-8zM5.8 21l4-5.3c.6.4 1.4.6 2.2.6s1.5-.2 2.2-.6l4 5.3c-1.8 1.2-3.9 1.9-6.2 1.9s-4.5-.7-6.2-1.9zm13.2-.6-4-5.3c.7-.7 1.2-1.6 1.3-2.7h6.6c-.1 3.2-1.7 6.1-3.9 8z" style="fill:#263238"/></svg>