<?xml version="1.0" encoding="utf-8"?>
<!-- Generator: Adobe Illustrator 25.4.1, SVG Export Plug-In . SVG Version: 6.00 Build 0)  -->
<svg version="1.1" id="Capa_1" xmlns="http://www.w3.org/2000/svg" xmlns:xlink="http://www.w3.org/1999/xlink" x="0px" y="0px"
	 viewBox="0 0 24 24" style="enable-background:new 0 0 24 24;" xml:space="preserve">
<style type="text/css">
	.st0{fill:#263238;}
</style>
<g>
	<path class="st0" d="M18.8,12.6c0.3-0.3,0.5-0.6,0.7-1c0.3-0.6,0.4-1.2,0.4-1.9c0-0.7-0.1-1.3-0.5-1.9c-0.3-0.6-0.7-1.1-1.3-1.5
		C17.7,6,17,5.7,16.4,5.6c-0.7-0.1-1.3-0.1-1.9,0.1s-1.2,0.5-1.7,0.9C12.4,7,12,7.4,11.8,7.9c-0.3,0-0.7-0.1-1.1-0.1
		c-3.3,0-5.9,2.4-6.5,6c0,0,0,0.1-0.1,0.1c0,0-0.1,0-0.1,0.1l0,0C2.1,14.2,0,15.5,0,18.1s1.8,4.2,4.7,4.2h11.1
		c3.2,0,5.6-2.3,5.6-5.3C21.5,15.1,20.5,13.5,18.8,12.6z M13.5,7.3c0.4-0.3,0.9-0.6,1.3-0.8c0.5-0.1,1-0.2,1.5-0.1
		c0.5,0.1,1,0.3,1.4,0.6c0.4,0.3,0.8,0.7,1,1.1c0.2,0.5,0.3,0.9,0.4,1.5c0,0.5-0.1,1-0.3,1.5c-0.2,0.4-0.4,0.7-0.8,1
		c-0.4-0.1-0.8-0.2-1.2-0.3c0,0-0.1,0-0.1,0c0,0,0,0-0.1-0.1c-0.6-1.5-1.8-3-3.7-3.6C13,7.8,13.2,7.5,13.5,7.3z M15.9,21.4H4.8
		c-0.9,0-3.8-0.2-3.8-3.3c0-2,1.6-3,3.1-3.2c0.2,0,0.5-0.1,0.7-0.3s0.3-0.4,0.3-0.7c0.5-3.1,2.7-5.2,5.6-5.2c2.6,0,4.2,1.8,4.9,3.4
		c0.1,0.2,0.2,0.4,0.4,0.5c0.1,0.1,0.4,0.2,0.6,0.2c0.4,0,0.9,0.2,1.2,0.3c0,0,0,0,0,0c1.7,0.7,2.7,2.1,2.7,3.9
		C20.6,19.5,18.6,21.4,15.9,21.4z"/>
	<path class="st0" d="M23.3,9.2h-1.5c-0.3,0-0.5,0.2-0.5,0.5c0,0.3,0.2,0.5,0.5,0.5h1.5c0.3,0,0.5-0.2,0.5-0.5
		C23.8,9.4,23.6,9.2,23.3,9.2z"/>
	<path class="st0" d="M15.7,4.1c0.3,0,0.5-0.2,0.5-0.5V2.1c0-0.3-0.2-0.5-0.5-0.5c-0.3,0-0.5,0.2-0.5,0.5v1.5
		C15.2,3.9,15.4,4.1,15.7,4.1z"/>
	<path class="st0" d="M11.1,5.8c0.1,0.1,0.2,0.1,0.3,0.1c0.1,0,0.2,0,0.3-0.1c0.2-0.2,0.2-0.5,0-0.7L10.7,4c-0.2-0.2-0.5-0.2-0.7,0
		c-0.2,0.2-0.2,0.5,0,0.7L11.1,5.8z"/>
	<path class="st0" d="M20,5.9c0.1,0,0.2,0,0.3-0.1l1.1-1.1c0.2-0.2,0.2-0.5,0-0.7c-0.2-0.2-0.5-0.2-0.7,0l-1.1,1.1
		c-0.2,0.2-0.2,0.5,0,0.7C19.7,5.9,19.9,5.9,20,5.9z"/>
</g>
</svg>
