<?xml version="1.0" encoding="utf-8"?>
<!-- Generator: Adobe Illustrator 25.4.1, SVG Export Plug-In . SVG Version: 6.00 Build 0)  -->
<svg version="1.1" id="Capa_1" xmlns="http://www.w3.org/2000/svg" xmlns:xlink="http://www.w3.org/1999/xlink" x="0px" y="0px"
	 viewBox="0 0 24 24" style="enable-background:new 0 0 24 24;" xml:space="preserve">
<style type="text/css">
	.st0{fill:#263238;}
</style>
<g>
	<path class="st0" d="M12.9,1.8c-0.1,0-0.3,0-0.4,0V0.5C12.5,0.2,12.3,0,12,0C5.4,0,0,5.4,0,12c0,1.7,0.3,3.4,1.1,4.9
		c0.1,0.2,0.2,0.3,0.4,0.3c0,0,0.1,0,0.2,0l0.8-0.4c0.8,2,2.1,3.8,3.8,5.1c1.9,1.4,4.2,2.1,6.5,2.1C19,24,24,19,24,12.8
		C24,6.8,19,1.8,12.9,1.8z M1,12C1,6.1,5.7,1.2,11.5,1v10.7l-9.8,4.4C1.2,14.8,1,13.4,1,12z M12.9,23.1c-2.2,0-4.2-0.7-6-2
		c-1.6-1.2-2.8-2.8-3.5-4.7l8.8-3.9c0.2-0.1,0.3-0.2,0.3-0.4V2.8c0.1,0,0.3,0,0.4,0C18.4,2.8,23,7.3,23,12.9
		C23,18.5,18.5,23.1,12.9,23.1z"/>
</g>
</svg>
