<?xml version="1.0" encoding="utf-8"?>
<!-- Generator: Adobe Illustrator 25.4.1, SVG Export Plug-In . SVG Version: 6.00 Build 0)  -->
<svg version="1.1" id="Capa_1" xmlns="http://www.w3.org/2000/svg" xmlns:xlink="http://www.w3.org/1999/xlink" x="0px" y="0px"
	 viewBox="0 0 24 24" style="enable-background:new 0 0 24 24;" xml:space="preserve">
<style type="text/css">
	.st0{fill:#263238;}
</style>
<g>
	<path class="st0" d="M20.1,13.2c0-0.4,0.1-0.8,0.1-1.2c0-4.5-3.7-8.2-8.2-8.2c-1.9,0-3.7,0.7-5,1.8c-2.6-1-6-1.9-6.8-0.4
		C0,5.5-0.1,5.9,0.1,6.3c0.3,1.2,1.7,2.7,3.8,4.5c0,0.4-0.1,0.8-0.1,1.2c0,4.5,3.7,8.2,8.2,8.2c1.9,0,3.7-0.7,5-1.8
		c1.9,0.7,3.7,1.2,4.9,1.2c0.9,0,1.6-0.2,1.9-0.8C24.7,17.4,22.3,15,20.1,13.2z M19.2,12c0,2.1-0.9,4-2.4,5.3
		c-1.8-0.7-3.9-1.7-6.2-3c-2.3-1.3-4.2-2.6-5.7-3.8c0.7-3.2,3.6-5.7,7-5.7C16,4.8,19.2,8,19.2,12z M1,6.1c0-0.1,0-0.3,0-0.4
		c0.2-0.4,1.8-0.5,5.1,0.7c-0.9,1-1.6,2.1-2,3.5C2.3,8.2,1.2,6.9,1,6.1z M12,19.2c-4,0-7.2-3.2-7.2-7.2c0-0.1,0-0.3,0-0.4
		c1.5,1.2,3.4,2.4,5.4,3.6c1.9,1.1,3.9,2.1,5.8,2.9C14.9,18.8,13.5,19.2,12,19.2z M23,18.3c-0.3,0.5-2.3,0.4-5.1-0.7
		c0.9-1,1.6-2.1,2-3.5C22.6,16.5,23.2,17.9,23,18.3z"/>
</g>
</svg>
