<?xml version="1.0" encoding="utf-8"?>
<!-- Generator: Adobe Illustrator 25.4.1, SVG Export Plug-In . SVG Version: 6.00 Build 0)  -->
<svg version="1.1" id="Capa_1" xmlns="http://www.w3.org/2000/svg" xmlns:xlink="http://www.w3.org/1999/xlink" x="0px" y="0px"
	 viewBox="0 0 24 24" style="enable-background:new 0 0 24 24;" xml:space="preserve">
<style type="text/css">
	.st0{fill:#263238;}
</style>
<g>
	<path class="st0" d="M18.4,4.5c0,0-0.1,0-0.1,0c0,0-0.1-0.1-0.1-0.1C17.4,2.3,15.4,0,12,0C8.4,0,5.6,2.6,5,6.4c0,0,0,0.1-0.1,0.2
		c0,0-0.1,0.1-0.2,0.1l0,0c-2,0.3-4.2,1.7-4.2,4.5s2,4.5,5.1,4.5h12c3.4,0,6-2.4,6-5.6C23.5,7.2,21.6,5,18.4,4.5z M17.5,14.8h-12
		c-1,0-4.1-0.2-4.1-3.6c0-2.2,1.8-3.3,3.4-3.5c0.3,0,0.5-0.1,0.7-0.4c0.2-0.2,0.3-0.4,0.4-0.7C6.5,3.2,8.9,1,12,1
		c2.8,0,4.6,1.9,5.3,3.7c0.1,0.2,0.2,0.4,0.4,0.5c0.2,0.1,0.4,0.2,0.6,0.3c2.7,0.4,4.3,2.2,4.3,4.6C22.6,12.7,20.4,14.8,17.5,14.8z"
		/>
	<path class="st0" d="M6.5,18.1C6.3,18,6,18,5.8,18.3l-1.6,2.5c-0.1,0.2-0.1,0.5,0.1,0.7c0.1,0,0.2,0.1,0.3,0.1
		c0.1,0,0.3-0.1,0.4-0.2l1.6-2.5C6.8,18.6,6.8,18.3,6.5,18.1z"/>
	<path class="st0" d="M10,18.3l-3.3,4.9c-0.1,0.2-0.1,0.5,0.1,0.7C6.9,23.9,7,24,7.1,24c0.1,0,0.3-0.1,0.4-0.2l3.3-4.9
		c0.1-0.2,0.1-0.5-0.1-0.7C10.4,18,10.1,18,10,18.3z"/>
	<path class="st0" d="M14.7,18.1c-0.2-0.1-0.5-0.1-0.7,0.1l-1.6,2.5c-0.1,0.2-0.1,0.5,0.1,0.7c0.1,0,0.2,0.1,0.3,0.1
		c0.1,0,0.3-0.1,0.4-0.2l1.6-2.5C15,18.6,14.9,18.3,14.7,18.1z"/>
	<path class="st0" d="M18.2,18.3l-3.3,4.9c-0.1,0.2-0.1,0.5,0.1,0.7c0.1,0,0.2,0.1,0.3,0.1c0.1,0,0.3-0.1,0.4-0.2l3.3-5
		c0.1-0.2,0.1-0.5-0.1-0.7C18.6,18,18.3,18,18.2,18.3z"/>
</g>
</svg>
