<svg xmlns="http://www.w3.org/2000/svg" viewBox="0 0 24 24" style="enable-background:new 0 0 24 24" xml:space="preserve"><path d="M18.4 4.5h-.1l-.1-.1C17.4 2.3 15.4 0 12 0 8.4 0 5.6 2.6 5 6.4c0 0 0 .1-.1.2 0 0-.1.1-.2.1C2.7 7 .5 8.4.5 11.2s2 4.5 5.1 4.5h12c3.4 0 6-2.4 6-5.6-.1-2.9-2-5.1-5.2-5.6zm-.9 10.3h-12c-1 0-4.1-.2-4.1-3.6 0-2.2 1.8-3.3 3.4-3.5.3 0 .5-.1.7-.4.2-.2.3-.4.4-.7C6.5 3.2 8.9 1 12 1c2.8 0 4.6 1.9 5.3 3.7.1.2.2.4.4.5l.6.3c2.7.4 4.3 2.2 4.3 4.6 0 2.6-2.2 4.7-5.1 4.7zm-11 3.3c-.2-.1-.5-.1-.7.2l-1.6 2.5c-.1.2-.1.5.1.7.1 0 .2.1.3.1.1 0 .3-.1.4-.2l1.6-2.5c.2-.3.2-.6-.1-.8zm3.5.2-3.3 4.9c-.1.2-.1.5.1.7.1 0 .2.1.3.1.1 0 .3-.1.4-.2l3.3-4.9c.1-.2.1-.5-.1-.7-.3-.2-.6-.2-.7.1zm4.7-.2c-.2-.1-.5-.1-.7.1l-1.6 2.5c-.1.2-.1.5.1.7.1 0 .2.1.3.1.1 0 .3-.1.4-.2l1.6-2.5c.2-.2.1-.5-.1-.7zm3.5.2-3.3 4.9c-.1.2-.1.5.1.7.1 0 .2.1.3.1.1 0 .3-.1.4-.2l3.3-5c.1-.2.1-.5-.1-.7-.3-.1-.6-.1-.7.2z" style="fill:#263238"/></svg>