<?xml version="1.0" encoding="utf-8"?>
<!-- Generator: Adobe Illustrator 25.4.1, SVG Export Plug-In . SVG Version: 6.00 Build 0)  -->
<svg version="1.1" id="Capa_1" xmlns="http://www.w3.org/2000/svg" xmlns:xlink="http://www.w3.org/1999/xlink" x="0px" y="0px"
	 viewBox="0 0 24 24" style="enable-background:new 0 0 24 24;" xml:space="preserve">
<style type="text/css">
	.st0{fill:#263238;}
</style>
<g>
	<path class="st0" d="M22.9,19.1l-4.8-8.7c0.5-1,0.8-2.1,0.8-3.3c0-3.9-3.1-7-7-7s-7,3.1-7,7c0,1.2,0.3,2.3,0.8,3.3l-4.8,8.7
		c-0.1,0.1-0.1,0.3,0,0.5s0.2,0.2,0.4,0.2l0,0h4.4c0,0,0.1,0,0.1,0S6,19.9,6,20l2.2,3.7c0.1,0.1,0.2,0.2,0.4,0.2c0,0,0,0,0,0
		c0.2,0,0.3-0.1,0.4-0.3l2.9-6.2l2.9,6.2c0.1,0.1,0.2,0.3,0.4,0.3c0,0,0,0,0,0c0.2,0,0.3-0.1,0.4-0.2L18,20c0,0,0.1-0.1,0.1-0.1
		c0,0,0.1,0,0.1,0h4.4l0,0c0.2,0,0.3-0.1,0.4-0.2C23,19.4,23,19.3,22.9,19.1z M11.8,1c3.3,0,6,2.7,6,6c0,1.1-0.3,2.1-0.8,2.9
		c0,0,0,0,0,0c-1.1,1.8-3,3-5.3,3c-3.3,0-6-2.7-6-6S8.5,1,11.8,1z M8.5,22.4l-1.7-2.9c-0.1-0.2-0.3-0.3-0.5-0.5
		c-0.2-0.1-0.4-0.2-0.6-0.1H2l4.2-7.6c1.3,1.7,3.3,2.8,5.6,2.8c0.1,0,0.3,0,0.4,0L8.5,22.4z M18,18.9c-0.2,0-0.4,0-0.6,0.1
		c-0.2,0.1-0.3,0.3-0.5,0.5l-1.7,2.9l-2.8-6.1l1.1-2.3c1.6-0.4,3-1.4,4-2.6l4.2,7.6L18,18.9z"/>
	<path class="st0" d="M11.8,10.8c2.1,0,3.8-1.7,3.8-3.8s-1.7-3.8-3.8-3.8S8.1,5,8.1,7.1S9.8,10.8,11.8,10.8z M11.8,4.3
		c1.5,0,2.8,1.3,2.8,2.8s-1.3,2.8-2.8,2.8C10.3,9.9,9,8.7,9,7.1S10.3,4.3,11.8,4.3z"/>
</g>
</svg>
