<?xml version="1.0" encoding="utf-8"?>
<!-- Generator: Adobe Illustrator 25.4.1, SVG Export Plug-In . SVG Version: 6.00 Build 0)  -->
<svg version="1.1" id="Capa_1" xmlns="http://www.w3.org/2000/svg" xmlns:xlink="http://www.w3.org/1999/xlink" x="0px" y="0px"
	 viewBox="0 0 24 24" style="enable-background:new 0 0 24 24;" xml:space="preserve">
<style type="text/css">
	.st0{fill:#263238;}
</style>
<g>
	<path class="st0" d="M23.8,0.7c0-0.1-0.1-0.2-0.2-0.3c-0.1-0.1-0.2-0.1-0.3-0.2C20-0.7,12.8,2.2,9.1,5.9c-0.6,0.6-1.2,1.3-1.7,2
		C6.1,7.8,5.1,8,4.1,8.4c-3,1.3-3.9,4.7-4.1,6.2c0,0.1,0,0.3,0,0.4c0,0.1,0.1,0.3,0.2,0.4c0.1,0.1,0.2,0.2,0.3,0.2
		c0.1,0,0.3,0.1,0.4,0l4-0.4c0,0.2,0,0.3,0,0.5c0,0.3,0.2,0.7,0.4,0.9l1.7,1.7c0.2,0.2,0.6,0.4,0.9,0.4c0.1,0,0.3,0,0.5,0l-0.4,4
		c0,0.1,0,0.3,0,0.4c0,0.1,0.1,0.3,0.2,0.4C8.7,23.8,8.8,23.9,9,24c0.1,0,0.2,0,0.3,0c0,0,0.1,0,0.1,0c1.4-0.2,4.8-1.1,6.2-4.1
		c0.4-0.9,0.5-2,0.5-3.3c0.7-0.5,1.4-1.1,2-1.7C21.8,11.1,24.6,4.2,23.8,0.7z M15.3,15.9c-0.1,0.1-0.2,0.2-0.2,0.4
		c0.1,1.2,0,2.2-0.4,3.1c-1.1,2.6-4.2,3.3-5.4,3.5l0.5-4.5c0-0.1,0-0.3-0.1-0.4c-0.1-0.1-0.2-0.1-0.3-0.1c-0.3,0-0.6,0-1,0
		c-0.1,0-0.2,0-0.3-0.1L6.3,16c-0.1-0.1-0.1-0.2-0.1-0.3c0-0.3,0-0.6,0-1c0-0.1,0-0.3-0.1-0.3c-0.1-0.1-0.2-0.1-0.3-0.1h0l-4.5,0.5
		c0.2-1.3,1-4.3,3.5-5.4c0.8-0.3,1.9-0.5,3.1-0.4c0.2,0,0.3,0,0.4-0.2c0.5-0.7,1.1-1.5,1.8-2.1c3.6-3.6,10.3-6,13.1-5.5
		c0.5,2.9-1.9,9.4-5.6,13.1C16.8,14.8,16,15.4,15.3,15.9z"/>
	<path class="st0" d="M17.6,5.6c-0.9-0.6-2.2-0.6-3.2,0c-0.5,0.3-0.8,0.7-1,1.3S13.1,8,13.3,8.6c0.1,0.5,0.4,1.1,0.8,1.5
		c0.2,0.2,0.6,0.5,0.9,0.6s0.7,0.2,1.1,0.2c0.4,0,0.7,0,1.1-0.2s0.6-0.3,0.9-0.6c0.4-0.4,0.7-0.9,0.8-1.5c0.1-0.5,0-1.1-0.1-1.7
		C18.5,6.4,18.1,5.9,17.6,5.6z M17.9,8.4c0,0.3-0.2,0.7-0.5,1c-0.2,0.2-0.4,0.3-0.6,0.4c-0.4,0.2-1,0.2-1.4,0
		c-0.2-0.1-0.4-0.2-0.6-0.4l0,0c-0.2-0.2-0.4-0.6-0.5-1c0-0.3,0-0.7,0.1-1.1c0.1-0.3,0.4-0.6,0.7-0.8c0.3-0.2,0.7-0.3,1-0.3
		c0.4,0,0.7,0.1,1,0.3c0.3,0.2,0.5,0.5,0.7,0.8C17.9,7.6,17.9,8,17.9,8.4z"/>
	<path class="st0" d="M6.8,19.6c-0.2,0-0.5,0.1-0.5,0.4c0,0.4-0.2,0.8-0.6,1.2C5.1,21.7,3.3,22,1.9,22c0.1-1.3,0.3-3.2,0.9-3.7
		C3.1,18,3.6,17.8,4,17.7c0.2,0,0.4-0.3,0.4-0.5c0-0.2-0.3-0.4-0.5-0.4c-0.6,0.1-1.3,0.4-1.8,0.8c-1.1,1.1-1.2,4.5-1.2,4.9
		c0,0.1,0,0.2,0.1,0.3C1.2,23,1.3,23,1.4,23l0,0c0.4,0,3.9-0.1,4.9-1.2c0.5-0.5,0.8-1.1,0.8-1.8C7.2,19.8,7,19.6,6.8,19.6z"/>
</g>
</svg>
