<?xml version="1.0" encoding="utf-8"?>
<!-- Generator: Adobe Illustrator 25.4.1, SVG Export Plug-In . SVG Version: 6.00 Build 0)  -->
<svg version="1.1" id="Capa_1" xmlns="http://www.w3.org/2000/svg" xmlns:xlink="http://www.w3.org/1999/xlink" x="0px" y="0px"
	 viewBox="0 0 24 24" style="enable-background:new 0 0 24 24;" xml:space="preserve">
<style type="text/css">
	.st0{fill:#263238;}
</style>
<path class="st0" d="M20.6,5.1c-0.1-0.2-0.3-0.2-0.5-0.2c-0.6,0.1-1.2,0.3-1.9,0.5c-0.8-1.8-1.7-3.6-1.7-3.6
	c-0.1-0.1-0.2-0.2-0.4-0.2c-0.1,0-1.8,0-4,1.2C10.3,0.7,8.1,0,8,0C7.8,0,7.6,0,7.5,0.2C6.7,1.3,6.1,2.7,5.8,3.7
	C4.7,3.4,3.9,3.3,3.8,3.3c-0.2,0-0.4,0-0.5,0.2c-0.1,0.2,0,0.4,0.1,0.6c1.9,2,1.8,4.1,1.5,6.2c0,0-0.2,1.6,0,3
	c-0.6,1.2-0.9,2.4-0.9,3.8c0,4.1,3.2,6.9,7.9,6.9c4.7,0,7.9-2.9,7.9-7.2c0-1.2-0.3-2.4-0.6-3.4C18.6,11.1,18,9,20.6,5.7
	C20.7,5.5,20.7,5.3,20.6,5.1z M17.3,5.6c-1.5,0.5-3.1,1.1-4.8,1.8c-0.9-1.2-1.8-1.8-2.5-2.2c2.6-2.2,5-2.6,5.8-2.6
	C16.1,3.1,16.7,4.3,17.3,5.6z M8,1c0.6,0.2,2,0.9,3.1,2.3C10.5,3.7,9.8,4.2,9,4.8C8.2,4.4,7.4,4.2,6.6,3.9C6.9,3,7.4,1.9,8,1z
	 M5.9,10.4c0.2-1.9,0.4-3.9-0.9-5.9c1.2,0.3,3,0.8,4.5,1.6c0.7,0.4,1.4,0.9,2.2,1.8c-0.8,0.4-1.2,0.6-2.3,1.2L9.2,9.3
	C7.8,10.1,6.7,11,5.9,12C5.8,11.1,5.9,10.4,5.9,10.4z M18.3,13.6c0.3,1.1,0.6,2.1,0.6,3.2c0,3.7-2.8,6.2-6.9,6.2C7.7,23,5,20.6,5,17
	c0-2.9,1.4-5.1,4.6-6.9L9.9,10c1.1-0.6,1.5-0.9,2.4-1.3c1.9-0.9,3.6-1.6,5.3-2.1c0.5-0.1,1-0.3,1.5-0.4
	C17.1,9.2,17.7,11.5,18.3,13.6z"/>
</svg>
