<?xml version="1.0" encoding="utf-8"?>
<!-- Generator: Adobe Illustrator 25.4.1, SVG Export Plug-In . SVG Version: 6.00 Build 0)  -->
<svg version="1.1" id="Capa_1" xmlns="http://www.w3.org/2000/svg" xmlns:xlink="http://www.w3.org/1999/xlink" x="0px" y="0px"
	 viewBox="0 0 24 24" style="enable-background:new 0 0 24 24;" xml:space="preserve">
<style type="text/css">
	.st0{fill:#263238;}
</style>
<path class="st0" d="M24,8.7c0,0,0-0.1,0-0.1v0c0,0,0-0.1-0.1-0.1l0,0c0,0,0,0-0.1-0.1L12.2,1.7c-0.1-0.1-0.3-0.1-0.5,0L0.2,8.3
	C0.1,8.4,0,8.5,0,8.7c0,0.2,0.1,0.3,0.2,0.4l3.9,2.2v6.4c0,0.2,0.1,0.3,0.2,0.4l7.4,4.1c0,0,0,0,0,0c0,0,0,0,0,0s0.1,0,0.1,0
	c0,0,0.1,0,0.2,0c0,0,0,0,0,0c0,0,0,0,0,0l7.4-4.1c0.1-0.1,0.2-0.2,0.2-0.4v-6.4L23,9.6v8.2c0,0.3,0.2,0.5,0.5,0.5S24,18,24,17.7
	L24,8.7L24,8.7z M5.1,11.9l6.4,3.7V21l-6.4-3.6V11.9z M18.9,17.5l-6.4,3.6v-5.5l6.4-3.7V17.5z M12,14.7l-10.5-6l10.5-6l10.5,6
	L12,14.7z"/>
</svg>
