<?xml version="1.0" encoding="utf-8"?>
<!-- Generator: Adobe Illustrator 25.4.1, SVG Export Plug-In . SVG Version: 6.00 Build 0)  -->
<svg version="1.1" id="Capa_1" xmlns="http://www.w3.org/2000/svg" xmlns:xlink="http://www.w3.org/1999/xlink" x="0px" y="0px"
	 viewBox="0 0 24 24" style="enable-background:new 0 0 24 24;" xml:space="preserve">
<style type="text/css">
	.st0{fill:#263238;}
</style>
<g>
	<path class="st0" d="M23.6,3.8l-8-2.8c-0.2-0.1-0.5-0.1-0.7-0.1c0,0-0.1,0-0.1,0c0,0-1.1,0.4-2.8,0.4c-1.7,0-2.8-0.4-2.8-0.4
		c0,0-0.1,0-0.1,0c-0.2,0-0.5,0-0.7,0.1l-8,2.8C0.1,3.9,0,4,0,4.3l0.9,4.5c0,0.2,0.2,0.4,0.4,0.4l2.5,0.3c0.2,0,0.4,0.1,0.5,0.2
		c0.1,0.1,0.2,0.3,0.2,0.5L4.1,22.6c0,0.1,0,0.2,0.1,0.3c0.1,0.1,0.2,0.1,0.3,0.1h14.8c0.1,0,0.2,0,0.3-0.1c0.1-0.1,0.1-0.2,0.1-0.3
		l-0.3-12.4c0-0.2,0-0.4,0.2-0.5c0.1-0.1,0.3-0.2,0.5-0.2l2.5-0.3c0.2,0,0.4-0.2,0.4-0.4L24,4.3C24,4,23.9,3.8,23.6,3.8z M12,2.2
		c1.6,0,2.8-0.3,3.1-0.4c0.1,0,0.2,0,0.3,0c-0.2,0.6-0.6,1.1-1.1,1.5c-0.6,0.5-1.4,0.8-2.2,0.8c-0.8,0-1.6-0.3-2.2-0.8
		C9.2,3,8.9,2.5,8.6,1.8c0.1,0,0.2,0,0.3,0C9.2,1.9,10.3,2.2,12,2.2z M22.2,8.3l-2.2,0.2c-0.4,0-0.8,0.2-1.1,0.6
		c-0.3,0.3-0.4,0.7-0.4,1.1l0.3,11.9H5.1l0.3-11.9c0-0.4-0.1-0.9-0.4-1.1C4.7,8.7,4.3,8.6,3.9,8.5L1.7,8.3L1,4.5l6.7-2.3
		c0.3,0.8,0.8,1.4,1.5,2c0.8,0.6,1.8,1,2.8,1s2-0.3,2.8-1c0.7-0.5,1.1-1.2,1.5-2l6.7,2.3L22.2,8.3z"/>
</g>
</svg>
