<?xml version="1.0" encoding="utf-8"?>
<!-- Generator: Adobe Illustrator 25.4.1, SVG Export Plug-In . SVG Version: 6.00 Build 0)  -->
<svg version="1.1" id="Capa_1" xmlns="http://www.w3.org/2000/svg" xmlns:xlink="http://www.w3.org/1999/xlink" x="0px" y="0px"
	 viewBox="0 0 24 24" style="enable-background:new 0 0 24 24;" xml:space="preserve">
<style type="text/css">
	.st0{fill:#263238;}
</style>
<g>
	<path class="st0" d="M12,0C5.4,0,0,5.4,0,12s5.4,12,12,12s12-5.4,12-12S18.6,0,12,0z M23,12c0,0.1,0,0.3,0,0.4c-0.1,0-0.2,0-0.4,0
		c-6.1,0-11-4.9-11-11c0-0.1,0-0.3,0-0.4c0.1,0,0.2,0,0.4,0C18.1,1,23,5.9,23,12z M1,12c0-0.1,0-0.2,0-0.4c0.1,0,0.3,0,0.4,0
		c6.1,0,11,4.9,11,11c0,0.1,0,0.2,0,0.4c-0.1,0-0.2,0-0.4,0C5.9,23,1,18.1,1,12z M13.3,22.9c0-0.1,0-0.2,0-0.3c0-6.6-5.4-12-12-12
		c-0.1,0-0.2,0-0.3,0c0.7-5,4.6-8.9,9.6-9.6c0,0.1,0,0.2,0,0.3c0,6.6,5.4,12,12,12c0.1,0,0.2,0,0.3,0C22.3,18.4,18.4,22.3,13.3,22.9
		z"/>
</g>
</svg>
