<?xml version="1.0" encoding="utf-8"?>
<!-- Generator: Adobe Illustrator 25.4.1, SVG Export Plug-In . SVG Version: 6.00 Build 0)  -->
<svg version="1.1" id="Capa_1" xmlns="http://www.w3.org/2000/svg" xmlns:xlink="http://www.w3.org/1999/xlink" x="0px" y="0px"
	 viewBox="0 0 24 24" style="enable-background:new 0 0 24 24;" xml:space="preserve">
<style type="text/css">
	.st0{fill:#263238;}
</style>
<g>
	<path class="st0" d="M12,0C5.4,0,0,5.4,0,12s5.4,12,12,12s12-5.4,12-12S18.6,0,12,0z M12,23C5.9,23,1,18.1,1,12S5.9,1,12,1
		s11,4.9,11,11S18.1,23,12,23z"/>
	<path class="st0" d="M17.8,12.5h-5.3V4.3c0-0.3-0.2-0.5-0.5-0.5S11.5,4,11.5,4.3V13c0,0.3,0.2,0.5,0.5,0.5h5.8
		c0.3,0,0.5-0.2,0.5-0.5S18,12.5,17.8,12.5z"/>
</g>
</svg>
