<?xml version="1.0" encoding="utf-8"?>
<!-- Generator: Adobe Illustrator 25.4.1, SVG Export Plug-In . SVG Version: 6.00 Build 0)  -->
<svg version="1.1" id="Capa_1" xmlns="http://www.w3.org/2000/svg" xmlns:xlink="http://www.w3.org/1999/xlink" x="0px" y="0px"
	 viewBox="0 0 24 24" style="enable-background:new 0 0 24 24;" xml:space="preserve">
<style type="text/css">
	.st0{fill:#263238;}
</style>
<g>
	<g>
		<path class="st0" d="M12,24L12,24c-3.3,0-6.3-1.3-8.5-3.6S0,15.1,0,11.9c0-2.9,1.1-5.7,3.1-7.9c0.2-0.2,0.5-0.2,0.7,0
			C4,4.1,4,4.4,3.8,4.6C2,6.6,1,9.2,1,11.9c0,2.9,1.1,5.7,3.2,7.9C6.3,21.8,9,23,12,23l0,0c2.9,0,5.7-1.2,7.8-3.2
			c2.1-2.1,3.3-4.8,3.3-7.8c0-5.9-4.7-10.8-10.6-11v4.8c0,0.3-0.2,0.5-0.5,0.5c-0.3,0-0.5-0.2-0.5-0.5v-5c0-0.1,0-0.2,0-0.3
			c0-0.1,0.1-0.2,0.1-0.2C11.8,0.1,11.9,0,12,0c0.1,0,0.2,0,0.3,0C18.7,0.1,24,5.5,24,12c0,3.2-1.2,6.2-3.5,8.5
			C18.3,22.8,15.2,24,12,24z M12.3,1L12.3,1L12.3,1z"/>
	</g>
	<g>
		<path class="st0" d="M10.7,13.3L5.9,6.6c0-0.1-0.1-0.2-0.1-0.3C5.8,6.1,5.9,6,6,6c0.1-0.1,0.2-0.1,0.3-0.1s0.2,0,0.3,0.1l6.8,4.8
			c0.4,0.3,0.7,0.8,0.8,1.2c0.1,0.5,0,1-0.3,1.4c-0.3,0.4-0.7,0.7-1.2,0.8c-0.5,0.1-1,0-1.4-0.3C11,13.7,10.8,13.5,10.7,13.3z"/>
	</g>
</g>
</svg>
