<?xml version="1.0" encoding="utf-8"?>
<!-- Generator: Adobe Illustrator 25.4.1, SVG Export Plug-In . SVG Version: 6.00 Build 0)  -->
<svg version="1.1" id="Capa_1" xmlns="http://www.w3.org/2000/svg" xmlns:xlink="http://www.w3.org/1999/xlink" x="0px" y="0px"
	 viewBox="0 0 24 24" style="enable-background:new 0 0 24 24;" xml:space="preserve">
<style type="text/css">
	.st0{fill:#263238;}
</style>
<g>
	<path class="st0" d="M23.5,5.4C23.8,5.4,24,5.3,24,5V0.6v0c0,0,0-0.1,0-0.1c0-0.1-0.1-0.2-0.2-0.2c0,0-0.1,0-0.2,0l0,0h-4.4
		c-0.3,0-0.5,0.2-0.5,0.5s0.2,0.5,0.5,0.5h3.3L17,6.4c-1.3-1.2-3.1-1.9-5-1.9s-3.6,0.7-5,1.9L5.6,5L8,2.7C8.2,2.5,8.2,2.2,8,2
		C7.8,1.8,7.5,1.8,7.3,2L5,4.3L1.7,1H5c0.3,0,0.5-0.2,0.5-0.5S5.3,0.1,5,0.1H0.6c0,0-0.1,0-0.2,0c-0.1,0-0.2,0.1-0.2,0.2
		c0,0,0,0.1,0,0.2V5c0,0.3,0.2,0.5,0.5,0.5S1,5.3,1,5V1.7L4.3,5L2,7.3C1.8,7.5,1.8,7.7,2,7.9C2.1,8,2.2,8.1,2.3,8.1
		c0.1,0,0.2,0,0.3-0.1L5,5.6l1.4,1.4c-1.2,1.3-1.9,3.1-1.9,5c0,4.2,3.4,7.6,7.6,7.6c1.9,0,3.6-0.7,5-1.9l2.3,2.3L17,22.3
		c-0.2,0.2-0.2,0.5,0,0.7c0.1,0.1,0.2,0.1,0.3,0.1s0.2,0,0.3-0.1l2.3-2.3l3.2,3.2c0.1,0.1,0.2,0.1,0.3,0.1s0.2,0,0.3-0.1
		c0.2-0.2,0.2-0.5,0-0.7L20.7,20l2.3-2.3c0.2-0.2,0.2-0.5,0-0.7s-0.5-0.2-0.7,0L20,19.3L17.7,17c1.1-1.3,1.9-3.1,1.9-5
		s-0.7-3.6-1.9-5L23,1.7V5C23,5.3,23.2,5.4,23.5,5.4z M12,18.6c-3.6,0-6.6-3-6.6-6.6s3-6.6,6.6-6.6s6.6,3,6.6,6.6S15.7,18.6,12,18.6
		z"/>
</g>
</svg>
