<svg xmlns="http://www.w3.org/2000/svg" viewBox="0 0 24 24" style="enable-background:new 0 0 24 24" xml:space="preserve"><path d="M23.5 5.4c.3 0 .5-.1.5-.4V.5c0-.1-.1-.2-.2-.2h-4.6c-.3 0-.5.2-.5.5s.2.5.5.5h3.3L17 6.4c-1.3-1.2-3.1-1.9-5-1.9s-3.6.7-5 1.9L5.6 5 8 2.7c.2-.2.2-.5 0-.7-.2-.2-.5-.2-.7 0L5 4.3 1.7 1H5c.3 0 .5-.2.5-.5S5.3.1 5 .1H.4C.3.1.2.2.2.3V5c0 .3.2.5.5.5S1 5.3 1 5V1.7L4.3 5 2 7.3c-.2.2-.2.4 0 .6.1.1.2.2.3.2.1 0 .2 0 .3-.1L5 5.6 6.4 7c-1.2 1.3-1.9 3.1-1.9 5 0 4.2 3.4 7.6 7.6 7.6 1.9 0 3.6-.7 5-1.9l2.3 2.3-2.4 2.3c-.2.2-.2.5 0 .7.1.1.2.1.3.1s.2 0 .3-.1l2.3-2.3 3.2 3.2c.1.1.2.1.3.1s.2 0 .3-.1c.2-.2.2-.5 0-.7l-3-3.2 2.3-2.3c.2-.2.2-.5 0-.7s-.5-.2-.7 0L20 19.3 17.7 17c1.1-1.3 1.9-3.1 1.9-5s-.7-3.6-1.9-5L23 1.7V5c0 .3.2.4.5.4zM12 18.6c-3.6 0-6.6-3-6.6-6.6s3-6.6 6.6-6.6 6.6 3 6.6 6.6-2.9 6.6-6.6 6.6z" style="fill:#263238"/></svg>