<?xml version="1.0" encoding="utf-8"?>
<!-- Generator: Adobe Illustrator 25.4.1, SVG Export Plug-In . SVG Version: 6.00 Build 0)  -->
<svg version="1.1" id="Capa_1" xmlns="http://www.w3.org/2000/svg" xmlns:xlink="http://www.w3.org/1999/xlink" x="0px" y="0px"
	 viewBox="0 0 24 24" style="enable-background:new 0 0 24 24;" xml:space="preserve">
<style type="text/css">
	.st0{fill:#263238;}
</style>
<g>
	<path class="st0" d="M12.5,0.9V0.5C12.5,0.2,12.3,0,12,0c-0.3,0-0.5,0.2-0.5,0.5v0.4C5.2,1.1,0.1,6.4,0.1,12.9
		c0,0.2,0.1,0.4,0.3,0.4c0.2,0.1,0.4,0,0.5-0.1c0.3-0.3,0.7-0.5,1.1-0.7c0.8-0.3,1.7-0.3,2.5,0c0.4,0.1,0.8,0.4,1.1,0.7
		c0.1,0.1,0.2,0.1,0.3,0.1l0,0c0.1,0,0.2,0,0.3-0.1c0.7-0.7,1.5-1.1,2.4-1.1c0.9,0,1.8,0.2,2.6,0.8l0.3,0.2v8.6
		c0,0.3-0.1,0.7-0.4,0.9c-0.5,0.5-1.3,0.5-1.8,0c-0.2-0.2-0.4-0.6-0.4-0.9c0-0.3-0.2-0.5-0.5-0.5c-0.3,0-0.5,0.2-0.5,0.5
		c0,0.6,0.2,1.1,0.7,1.6c0.4,0.4,1,0.7,1.6,0.7s1.1-0.2,1.6-0.7c0.4-0.4,0.7-1,0.7-1.6v-8.6l0.3-0.2c0.7-0.6,1.7-0.8,2.6-0.8
		c0.9,0,1.8,0.5,2.4,1.1c0.2,0.2,0.5,0.2,0.7,0c0.3-0.3,0.7-0.5,1.1-0.7c0.8-0.3,1.7-0.3,2.5,0c0.4,0.1,0.8,0.4,1.1,0.7
		c0.1,0.1,0.2,0.1,0.3,0.1c0,0,0.1,0,0.2,0c0.2-0.1,0.3-0.2,0.3-0.4C24,6.4,18.9,1.1,12.5,0.9z M22.5,11.6c-1.1-0.4-2.2-0.4-3.3,0
		c-0.4,0.1-0.7,0.4-1.1,0.6c-0.8-0.6-1.7-1-2.7-1.1c-1.1-0.1-2.3,0.2-3.2,1L12,12.3l-0.2-0.2c-0.8-0.6-1.9-1-2.9-1
		c-0.1,0-0.2,0-0.3,0c-1,0-2,0.4-2.7,1.1c-0.3-0.2-0.7-0.5-1.1-0.6c-1.1-0.4-2.2-0.4-3.3,0c-0.2,0.1-0.3,0.1-0.5,0.2
		c0.6-5.6,5.3-10,11-10s10.4,4.4,11,10C22.9,11.8,22.7,11.7,22.5,11.6z"/>
</g>
</svg>
