<?xml version="1.0" encoding="utf-8"?>
<!-- Generator: Adobe Illustrator 25.4.1, SVG Export Plug-In . SVG Version: 6.00 Build 0)  -->
<svg version="1.1" id="Capa_1" xmlns="http://www.w3.org/2000/svg" xmlns:xlink="http://www.w3.org/1999/xlink" x="0px" y="0px"
	 viewBox="0 0 24 24" style="enable-background:new 0 0 24 24;" xml:space="preserve">
<style type="text/css">
	.st0{fill:#263238;}
</style>
<g>
	<path class="st0" d="M23.8,6.5c-0.1-0.2-0.2-0.3-0.4-0.5c-0.2-0.1-0.4-0.2-0.6-0.2c-0.2,0-0.4,0-0.6,0.1c0,0,0,0-0.1,0l-4.2,3
		c-0.2,0.1-0.3,0.3-0.4,0.5c-0.1,0.2-0.1,0.4-0.1,0.6v4.1c0,0.2,0,0.4,0.1,0.6c0.1,0.2,0.2,0.3,0.4,0.5l0,0l4.3,3c0,0,0,0,0.1,0
		c0.1,0.1,0.3,0.1,0.5,0.1c0,0,0,0,0.1,0c0.2,0,0.4-0.1,0.6-0.2s0.3-0.3,0.4-0.5S24,17.2,24,17V7.1C23.9,6.8,23.9,6.7,23.8,6.5z
		 M23,17c0,0,0,0.1,0,0.1s0,0.1-0.1,0.1c0,0-0.1,0-0.1,0s-0.1,0-0.1,0l-4.2-3c0,0-0.1-0.1-0.1-0.1c0,0,0-0.1,0-0.1V10
		c0,0,0-0.1,0-0.1c0,0,0-0.1,0.1-0.1l4.2-3c0,0,0.1,0,0.1,0s0.1,0,0.1,0c0,0,0.1,0.1,0.1,0.1c0,0,0,0.1,0,0.1V17z"/>
	<path class="st0" d="M12.6,5H3.1C2.3,5,1.5,5.3,0.9,5.9S0,7.3,0,8.1v7.8c0,0.9,0.3,1.6,0.9,2.2C1.5,18.7,2.3,19,3.1,19h9.4l0,0
		c0.9,0,1.6-0.3,2.2-0.9c0.6-0.6,0.9-1.4,0.9-2.2V8.1c0-0.8-0.3-1.6-0.9-2.2C14.2,5.3,13.4,5,12.6,5z M14.8,15.9
		c0,0.6-0.2,1.1-0.6,1.5c-0.4,0.4-1,0.6-1.5,0.6H3.1c-0.6,0-1.1-0.2-1.5-0.6C1.2,17,1,16.5,1,15.9V8.1C1,7.6,1.2,7,1.6,6.6
		S2.6,6,3.1,6h9.5c0.6,0,1.1,0.2,1.5,0.6c0.4,0.4,0.6,1,0.6,1.5C14.8,8.1,14.8,15.9,14.8,15.9z"/>
</g>
</svg>
