<svg xmlns="http://www.w3.org/2000/svg" viewBox="0 0 24 24" style="enable-background:new 0 0 24 24" xml:space="preserve"><path d="M23.8 6.5c-.1-.2-.2-.3-.4-.5-.2-.1-.4-.2-.6-.2-.2 0-.4 0-.6.1h-.1l-4.2 3c-.2.1-.3.3-.4.5-.1.2-.1.4-.1.6v4.1c0 .2 0 .4.1.6.1.2.2.3.4.5l4.3 3h.1c.1.1.3.1.5.1h.1c.2 0 .4-.1.6-.2s.3-.3.4-.5.1-.4.1-.6V7.1c-.1-.3-.1-.4-.2-.6zM23 17v.1s0 .1-.1.1h-.2l-4.2-3-.1-.1V9.9s0-.1.1-.1l4.2-3h.2l.1.1V17zM12.6 5H3.1c-.8 0-1.6.3-2.2.9S0 7.3 0 8.1v7.8c0 .9.3 1.6.9 2.2.6.6 1.4.9 2.2.9h9.4c.9 0 1.6-.3 2.2-.9.6-.6.9-1.4.9-2.2V8.1c0-.8-.3-1.6-.9-2.2-.5-.6-1.3-.9-2.1-.9zm2.2 10.9c0 .6-.2 1.1-.6 1.5-.4.4-1 .6-1.5.6H3.1c-.6 0-1.1-.2-1.5-.6-.4-.4-.6-.9-.6-1.5V8.1c0-.5.2-1.1.6-1.5s1-.6 1.5-.6h9.5c.6 0 1.1.2 1.5.6.4.4.6 1 .6 1.5.1 0 .1 7.8.1 7.8z" style="fill:#263238"/></svg>