<?xml version="1.0" encoding="utf-8"?>
<!-- Generator: Adobe Illustrator 25.4.1, SVG Export Plug-In . SVG Version: 6.00 Build 0)  -->
<svg version="1.1" id="Capa_1" xmlns="http://www.w3.org/2000/svg" xmlns:xlink="http://www.w3.org/1999/xlink" x="0px" y="0px"
	 viewBox="0 0 24 24" style="enable-background:new 0 0 24 24;" xml:space="preserve">
<style type="text/css">
	.st0{fill:#263238;}
</style>
<g>
	<path class="st0" d="M16.6,4.1V0.9c0-0.2-0.1-0.5-0.2-0.6C16.2,0,16,0,15.8,0H8.3C8.1,0,7.8,0.1,7.7,0.2S7.4,0.6,7.4,0.9v3.3
		C5.6,4.4,4.1,6,4.1,7.9v8.2c0,1.9,1.4,3.5,3.3,3.8v3.3c0,0.2,0.1,0.5,0.2,0.6C7.8,23.9,8.1,24,8.3,24h7.4c0.2,0,0.5-0.1,0.6-0.2
		c0.2-0.2,0.2-0.4,0.2-0.6v-3.3c1.9-0.2,3.3-1.8,3.3-3.8V7.8C19.9,5.9,18.4,4.3,16.6,4.1z M15.7,0.9v3.2H8.3V0.9H15.7z M8.3,23v-3.2
		h7.3V23H8.3z M18.9,16.1c0,1.5-1.3,2.8-2.8,2.8H7.9c-1.5,0-2.8-1.3-2.8-2.8V7.8C5,6.3,6.3,5,7.9,5h8.2c1.5,0,2.8,1.3,2.8,2.8V16.1z
		"/>
</g>
</svg>
