<?xml version="1.0" encoding="utf-8"?>
<!-- Generator: Adobe Illustrator 25.4.1, SVG Export Plug-In . SVG Version: 6.00 Build 0)  -->
<svg version="1.1" id="Capa_1" xmlns="http://www.w3.org/2000/svg" xmlns:xlink="http://www.w3.org/1999/xlink" x="0px" y="0px"
	 viewBox="0 0 24 24" style="enable-background:new 0 0 24 24;" xml:space="preserve">
<style type="text/css">
	.st0{fill:#263238;}
</style>
<g>
	<path class="st0" d="M12.9,0.5c-0.1-0.1-0.2-0.2-0.4-0.3c-0.3-0.1-0.7-0.1-0.9,0c-0.1,0-0.3,0.2-0.4,0.3C9.3,2.6,3.5,9.9,3.5,15.4
		c0,5.2,3.4,8.5,8.5,8.5s8.5-3.4,8.5-8.5C20.5,9.9,14.7,2.6,12.9,0.5z M12,22.9c-4.7,0-7.6-2.9-7.6-7.6c0-5.1,5.7-12.2,7.4-14.2l0,0
		c0,0,0,0,0.1,0s0,0,0.1,0s0,0,0,0c1.8,2,7.4,9.1,7.4,14.2C19.6,20,16.7,22.9,12,22.9z"/>
	<path class="st0" d="M16.9,15.3c-0.3,0-0.5,0.2-0.5,0.5c0,0.9-0.4,1.9-1,2.5c-0.7,0.7-1.6,1-2.5,1c-0.3,0-0.5,0.2-0.5,0.5
		s0.2,0.5,0.5,0.5c1.2,0,2.3-0.5,3.2-1.3s1.3-2,1.3-3.2C17.4,15.5,17.2,15.3,16.9,15.3z"/>
</g>
</svg>
