<svg xmlns="http://www.w3.org/2000/svg" viewBox="0 0 24 24" style="enable-background:new 0 0 24 24" xml:space="preserve"><path d="M21.5 19.4c.1-.2.1-.5.2-.8.3-2.3.5-4.2.6-4.5.4 0 .8-.2 1.1-.6.4-.4.6-.9.6-1.5s-.2-1-.6-1.5c-.4-.3-.9-.5-1.5-.5h-.8V3.2c0-1.6-1.2-2.9-2.7-2.9-1.5 0-2.7 1.3-2.7 2.9 0 .3.2.5.5.5s.5-.2.5-.5c0-1.1.8-2 1.7-2s1.7.9 1.7 2V6H20c-.3 0-.5.2-.5.5s.2.5.5.5h.2v3H2c-.6 0-1 .2-1.5.6-.3.4-.5.9-.5 1.5s.2 1 .6 1.5c.3.3.7.5 1.1.6 0 .2.3 1.5.6 4.5 0 .3.1.6.2.8.3.8.9 1.6 1.7 2.1l-1.1 1.3H1.6c-.3 0-.5.2-.5.5s.2.5.5.5h2l1.5-1.8c.7.3 1.5.5 2.2.5h9.3c.8 0 1.5-.1 2.2-.5l1.5 1.8h2c.3 0 .5-.2.5-.5s-.2-.5-.5-.5h-1.5l-1.1-1.3c.8-.6 1.4-1.3 1.8-2.2zm1.3-8.1c.2.2.3.5.3.7 0 .3-.1.6-.3.8-.2.2-.5.3-.8.3H11.1V11H22c.3 0 .5.1.8.3zm-16-.3h3.4v5.2H6.8V11zM.9 12.1c0-.3.1-.6.3-.8.3-.2.5-.3.9-.3h3.8v2.2H2c-.3 0-.6-.1-.8-.3-.1-.2-.3-.5-.3-.8zm18.3 8.6c-.8.5-1.7.7-2.6.7H7.4c-.9 0-1.8-.2-2.6-.7-.7-.4-1.1-.9-1.4-1.6 0-.1-.1-.3-.1-.5-.3-2.7-.5-3.8-.6-4.4h3.2v3h5.2v-3h10.2c-.1.6-.3 1.8-.6 4.4 0 .2 0 .4-.1.6-.2.6-.8 1.1-1.4 1.5z" style="fill:#263238"/></svg>