<svg version="1.1" id="Capa_1" xmlns="http://www.w3.org/2000/svg" x="0" y="0" viewBox="0 0 24 24" style="enable-background:new 0 0 24 24" xml:space="preserve"><style>.st0{fill:#263238}</style><path class="st0" d="M22.5 8.9c-.4-.4-.9-.6-1.5-.6h-6V2.2c0-.6-.2-1.1-.6-1.5s-.9-.6-1.5-.6H3c-.6 0-1.1.2-1.5.6s-.6.9-.6 1.5v21.2c0 .3.2.5.5.5h21.2c.3 0 .5-.2.5-.5v-13c0-.6-.3-1.1-.6-1.5zM1.9 2.2c0-.3.1-.6.3-.8s.5-.3.8-.3h9.8c.3 0 .6.1.8.3.3.2.4.5.4.8v20.7H8.4v-2.8c0-.3-.2-.5-.5-.5s-.5.2-.5.5v2.8H1.9V2.2zm20.2 20.7h-7.2V9.5c0-.1 0-.2.1-.2 0 0 .1-.1.2-.1H21c.3 0 .6.1.8.3.2.2.3.5.3.8v12.6z"/><path class="st0" d="M4.2 19.4c-.1-.1-.3-.1-.5-.1-.1 0-.3.1-.4.2-.1.2-.2.4-.3.5 0 .1 0 .3.1.5s.2.3.3.3c.1.1.3.1.5.1s.3-.1.5-.2c.1-.1.2-.3.2-.5s0-.3-.1-.5c0-.1-.2-.2-.3-.3zm0-4.1c-.1-.1-.3-.1-.5-.1-.1 0-.3.1-.4.2-.1.1-.2.3-.2.4 0 .1 0 .3.1.5.1.1.2.3.3.3.1.1.3.1.5.1s.3-.1.5-.2c.1-.1.2-.3.2-.5s0-.3-.1-.5c-.1 0-.3-.1-.4-.2zm0-4c-.1-.1-.3-.1-.5-.1-.1 0-.3.1-.4.2-.1.1-.2.3-.2.4s0 .3.1.5.2.3.3.3c.1.1.3.1.5.1s.3-.1.5-.2c.1-.1.2-.3.2-.5s0-.3-.1-.5c-.1 0-.3-.2-.4-.2zm0-4.1c-.2-.1-.3-.1-.5-.1-.1 0-.3.1-.4.2-.1.1-.2.3-.3.5 0 .1 0 .3.1.5.1.1.2.3.3.3.1.1.3.1.5.1s.3-.1.5-.2c.2-.2.2-.4.3-.5 0-.2 0-.3-.1-.5-.1-.1-.3-.2-.4-.3zm0-4.1C4 3 3.9 3 3.7 3c-.1 0-.3.1-.4.2-.1.2-.2.4-.3.5 0 .2 0 .3.1.5.1.1.2.3.3.3.1.1.3.1.5.1s.3-.1.5-.2c.1-.1.2-.3.2-.5s0-.3-.1-.5c0-.1-.2-.2-.3-.3zm3.3 13.7c.1.1.3.1.5.1s.3-.1.5-.2.2-.3.2-.5 0-.3-.1-.5c-.1-.1-.2-.3-.3-.3-.1-.1-.3-.1-.5-.1-.1 0-.3.1-.4.2-.1.1-.2.3-.2.4 0 .1 0 .3.1.5 0 .2.1.3.2.4zm0-4.1c.1.1.3.1.5.1s.3-.1.5-.2.2-.3.2-.5 0-.3-.1-.5c-.1-.1-.2-.3-.3-.3-.1-.1-.3-.1-.5-.1-.1 0-.3.1-.4.2-.1.1-.2.3-.2.4 0 .1 0 .3.1.5 0 .2.1.3.2.4zm0-4.1c.2.1.4.1.5.1.2 0 .3-.1.5-.2s.2-.3.2-.5 0-.3-.1-.5c-.1-.1-.2-.3-.3-.3-.2-.1-.3-.1-.5-.1-.1 0-.3.1-.4.2-.1.1-.2.3-.3.5 0 .1 0 .3.1.5.1.1.2.3.3.3zm0-4c.2.1.4.1.5.1.2 0 .3-.1.5-.2.1-.1.2-.3.2-.5s0-.3-.1-.5-.2-.3-.3-.4C8.1 3 8 3 7.8 3c-.1 0-.3.1-.4.2-.1.2-.2.4-.3.5 0 .1 0 .3.1.5.1.1.2.3.3.4zm4.8 14.8c-.1-.1-.3-.1-.5-.1-.1 0-.3.1-.4.2-.1.1-.2.3-.2.4 0 .1 0 .3.1.5.1.1.2.3.3.3.1.1.3.1.5.1s.3-.1.5-.2.2-.3.2-.5 0-.3-.1-.5-.2-.1-.4-.2zm0-4.1c-.1-.1-.3-.1-.5-.1-.1 0-.3.1-.4.2-.1.1-.2.3-.2.4 0 .1 0 .3.1.5.1.1.2.3.3.3.1.1.3.1.5.1s.3-.1.5-.2.2-.3.2-.5 0-.3-.1-.5c-.1 0-.2-.1-.4-.2zm0-4c-.1-.1-.3-.1-.5-.1-.1 0-.3.1-.4.2-.1.1-.2.3-.2.4 0 .1 0 .3.1.5.1.1.2.3.3.3.1.1.3.1.5.1s.3-.1.5-.2.2-.3.2-.5 0-.3-.1-.5c-.1-.1-.2-.2-.4-.2zm.3-2.8c.3-.3.3-.8 0-1.2-.3-.3-.8-.3-1.2 0-.3.3-.3.8 0 1.2.4.3.8.3 1.2 0zm-1-3.9c.1.1.3.1.5.1s.3-.1.5-.2c.1-.1.2-.3.2-.5s0-.3-.1-.5c-.1-.1-.2-.3-.3-.3-.2-.2-.4-.2-.5-.2-.1 0-.3.1-.4.2-.1.1-.2.3-.2.4 0 .1 0 .3.1.5-.1.2.1.4.2.5zm7.7 14.7c-.1 0-.3 0-.4.1-.1.1-.2.2-.3.4 0 .1-.1.3 0 .5 0 .2.1.3.2.4.1.1.2.2.4.2h.5c.1 0 .3-.1.4-.3s.1-.3.1-.4c0-.2-.1-.4-.2-.6-.2-.2-.4-.3-.7-.3zm0-4c-.1 0-.3 0-.4.1-.1.1-.2.2-.3.4 0 .1-.1.3 0 .5 0 .2.1.3.2.4.1.1.2.2.4.2h.5c.1 0 .3-.1.4-.3s.1-.3.1-.4c0-.2-.1-.4-.2-.6-.2-.3-.4-.3-.7-.3zm0-4.1c-.1 0-.3 0-.4.1-.1.1-.2.2-.3.4 0 .1-.1.3 0 .5s.1.3.2.4c.1.1.2.2.4.2h.5c.1 0 .3-.1.4-.3.1-.1.1-.3.1-.4 0-.2-.1-.4-.2-.6-.2-.2-.4-.3-.7-.3zm-3.2 8.1c-.1 0-.3 0-.4.1-.1.1-.2.2-.3.4 0 .1-.1.3 0 .5 0 .1.1.3.2.4.1.1.2.2.4.2h.5c.1 0 .3-.1.4-.3s.1-.3.1-.4c0-.2-.1-.4-.2-.6-.3-.2-.5-.3-.7-.3zm0-4c-.1 0-.3 0-.4.1-.1.1-.2.2-.3.4 0 .1-.1.3 0 .5 0 .1.1.3.2.4.1.1.2.2.4.2h.5c.1 0 .3-.1.4-.3s.1-.3.1-.4c0-.2-.1-.4-.2-.6-.3-.3-.5-.3-.7-.3zm0-4.1c-.1 0-.3 0-.4.1-.1.1-.2.2-.3.4 0 .1-.1.3 0 .5 0 .1.1.3.2.4.1.1.2.2.4.2h.5c.1 0 .3-.1.4-.3.1-.1.1-.3.1-.4 0-.2-.1-.4-.2-.6-.2-.1-.5-.3-.7-.3z"/></svg>