<svg xmlns="http://www.w3.org/2000/svg" viewBox="0 0 24 24" style="enable-background:new 0 0 24 24" xml:space="preserve"><path d="M23 2.1C23 1 22.1 0 20.9 0c-.8 0-1.5.5-1.9 1.2H4.9C4.6.5 3.9 0 3.1 0 1.9.1 1 1 1 2.1c0 1 .8 1.9 1.7 2v17.7c0 .6.2 1.1.6 1.5.4.4 1 .6 1.5.6s1.1-.2 1.5-.6l.2-.2s.1.1.1.2c.2.2.4.3.7.5.2.1.5.1.8.1.3 0 .6 0 .8-.1.2-.1.5-.2.7-.5.2-.2.3-.4.5-.7.1-.2.1-.5.1-.8V2.3h3.3v19.5c0 .3 0 .6.1.8.1.2.2.5.5.7.2.2.4.3.7.5.2.1.5.1.8.1.3 0 .6 0 .8-.1.2-.1.5-.2.7-.5 0 0 .1-.1.1-.2 0 0 .1.1.1.2.4.4 1 .6 1.5.6s1.1-.2 1.5-.6.6-1 .6-1.5V4.1c1.4-.2 2.1-1 2.1-2zm-21 0C2 1.5 2.5 1 3.1 1s1.1.5 1.1 1.1-.5 1.1-1.1 1.1S2 2.7 2 2.1zm3.8 20.5c-.4.4-1.2.4-1.7 0-.2-.2-.3-.5-.3-.9V4c.8-.2 1.3-1 1.4-1.8h1v19.5c-.1.4-.3.7-.4.9zm3.6-.9c0 .1 0 .3-.1.4 0 .1-.1.3-.2.4-.1.1-.2.2-.4.2-.3.1-.6.1-.9 0-.1 0-.3-.1-.4-.2-.1-.1-.2-.2-.2-.4s-.2-.2-.2-.4V2.2h2.3v19.5zm7.5.5c0 .1-.1.3-.2.4-.1.1-.2.2-.4.2-.3.1-.6.1-.9 0-.1 0-.3-.1-.4-.2-.1-.1-.2-.2-.2-.4 0-.1-.1-.3-.1-.4V2.3H17v19.5c0 .1-.1.3-.1.4zm3.1.4c-.2.2-.5.3-.9.3-.3 0-.6-.1-.9-.3s-.3-.5-.3-.9V2.2h1c0 .9.6 1.6 1.4 1.8v17.7c0 .4-.1.7-.3.9zm.9-19.4c-.6 0-1.1-.5-1.1-1.1S20.3 1 20.9 1s1.1.5 1.1 1.1-.5 1.1-1.1 1.1z" style="fill:#263238"/></svg>