<svg xmlns="http://www.w3.org/2000/svg" viewBox="0 0 24 24" style="enable-background:new 0 0 24 24" xml:space="preserve"><path d="M23.5 4.1h-5.1l.6-2.4 2.1-.7c.2-.1.4-.3.3-.6-.1-.2-.3-.4-.6-.3l-2.4.8c-.1 0-.3.2-.3.3l-.7 2.9h-7.1c-.3 0-.5.2-.5.5s.2.5.5.5h.4l.4 2.9c0 .1.1.2.1.3h-4c-3.4 0-5.6 1.9-5.6 4.8v.1c-.4 0-.9.2-1.2.5-.2.3-.4.7-.4 1.2s.2.9.5 1.2l.2.2c-.4.4-.7 1.1-.7 1.8 0 1.4 1 2.5 2.1 2.5h.2c.2 2 1.5 3.3 3.3 3.3h13.6c.5 0 1.1-.2 1.4-.6.4-.4.6-.9.7-1.4l1.8-17h.4c.3.1.5-.1.5-.3s-.2-.5-.5-.5zM1.7 15.6c-.2 0-.4-.1-.5-.2-.1-.1-.2-.3-.2-.5s.1-.4.2-.5.3-.2.5-.2h14.8c.2 0 .4.1.5.2s.2.3.2.5-.1.4-.2.5-.3.2-.5.2H8c-.2 0-.5.1-.6.2L6.2 17 5 15.9c-.2-.1-.4-.2-.6-.2H1.7zm-.8 2.6c0-.9.5-1.6 1.2-1.6h2.3l1.3 1.3s.1.1.2.1h.4c.1 0 .1-.1.2-.1L8 16.6h8c.6 0 1.2.7 1.2 1.6s-.5 1.6-1.2 1.6H2.1c-.6-.1-1.2-.8-1.2-1.6zM12 23H5.7c-1.5 0-2.2-1.1-2.4-2.4h11.5c-.1 1.2-.9 2.4-2.4 2.4H12zm8.3-1c0 .3-.1.6-.4.8-.2.2-.5.3-.8.3h-4.3c.6-.6.9-1.4 1-2.4h.3c1.2 0 2.1-1.2 2.1-2.5 0-.8-.3-1.4-.7-1.9.1 0 .1-.1.2-.2.3-.3.5-.8.5-1.2s-.2-.9-.5-1.2c-.3-.3-.8-.5-1.2-.5H2.6v-.1c0-2.8 2.5-3.8 4.7-3.8H11c2.2 0 4.7 1 4.7 3.8h1c0-2.6-1.9-4.4-4.7-4.8 0-.1.1-.3.1-.4l-.3-2.7h10.3L20.3 22z" style="fill:#263238"/></svg>