<svg xmlns="http://www.w3.org/2000/svg" viewBox="0 0 24 24" style="enable-background:new 0 0 24 24" xml:space="preserve"><path d="m22.9 13.1-1.2-5c0-.2-.2-.4-.5-.4H17V7c.3-.1.5-.2.7-.4.3-.3.5-.7.5-1.2V2.6c0-.3-.2-.5-.5-.5h-2.5c-.3 0-.5.2-.5.5v2.8c0 .2 0 .4.1.6.1.2.2.4.4.5.1.1.3.3.5.4.2.1.3.1.4.1v.7h-2.2V4.6c0-.2 0-.5-.2-.7-.1-.2-.3-.4-.5-.5-.1 0-.1-.1-.2-.1V.9c0-.2-.1-.4-.2-.6s-.5-.3-.7-.3h-.7c-.2 0-.4.1-.6.2-.1.1-.2.3-.2.6v2.4s-.1.1-.2.1c-.3.2-.4.4-.6.6s-.2.5-.2.7v3.1h-2V7c.3-.1.5-.2.7-.4.3-.3.5-.7.5-1.2V2.6c0-.3-.2-.5-.5-.5H5.8c-.3 0-.5.2-.5.5v2.8c0 .4.2.9.5 1.2.2.2.5.4.8.4v.7H2.3c-.2 0-.4.2-.5.4l-.2 1.5c0 .2.1.5.4.5.3 0 .6-.1.6-.4l.1-1h18.2l.9 3.9h-.9c-.4.1-.9.2-1.2.5-.3.2-.7.3-1.1.4-.4 0-.8 0-1.1-.2l-.7-.4c-1-.5-2.2-.5-3.1 0l-.6.3c-.8.4-1.8.4-2.6 0L10 13c-1-.5-2.3-.5-3.2 0l-.7.4c-.3.2-.7.2-1.1.2-.3 0-.7-.1-1-.3l-.1-.1c-.4-.2-.8-.4-1.3-.4h-.5l.3-1.6c0-.2-.1-.5-.4-.6s-.5.1-.6.4L1 13.3c0 .2 0 .4.2.5s.3.1.5 0 .5-.2.8-.2h.2v9.6c0 .2.1.4.2.6s.4.2.6.2h1c.2 0 .4-.1.6-.2s.2-.4.2-.6v-7.6c.2-.4 0-.6-.3-.6s-.5.2-.5.5V23h-.7v-9c.4.2.8.4 1.3.4h.1c.5 0 1-.1 1.4-.3l.7-.4c.7-.4 1.6-.4 2.3 0l.5.3c1.1.6 2.4.6 3.5 0l.6-.3c.7-.4 1.5-.3 2.2 0l.7.4c.5.2 1.1.4 1.6.3.4 0 .9-.1 1.2-.4v9h-.7v-7.4c0-.3-.2-.5-.5-.5s-.5.2-.5.5v7.6c0 .2.1.4.2.6s.4.2.6.2h1c.2 0 .4-.1.6-.2s.2-.4.2-.6v-9.6h1l.4.1c.1 0 .3 0 .5-.1.2-.2.2-.4.2-.5zm-7.1-7.4V3.1h1.6v2.3c0 .2-.1.4-.2.5-.2.1-.4.2-.6.2h-.4c-.1 0-.1-.1-.2-.1-.1-.2-.2-.2-.2-.3zm-9.5-.3V3.1h1.6v2.3c0 .2-.1.4-.2.5-.1.1-.3.2-.5.2h-.1c-.2 0-.4-.1-.6-.2-.1-.1-.2-.3-.2-.5zm4.4-.8v-.2l.1-.1c.2-.1.4-.3.6-.5s.2-.5.2-.7V1h.4v2c0 .3.1.5.2.8.1.2.3.4.6.5 0 0 .1 0 .1.1v3.3h-2.4l.2-3.1z" style="fill:#263238"/></svg>