<svg xmlns="http://www.w3.org/2000/svg" viewBox="0 0 24 24" style="enable-background:new 0 0 24 24" xml:space="preserve"><path d="M20.5 5.4c0-1-.5-1.9-1.3-2.1V.5c0-.1-.1-.3-.2-.4-.2-.1-.3-.1-.5-.1l-5.7 1.9c-.2 0-.3.2-.3.4v.3h-1.1c-.3 0-.5.2-.5.5v2.3l-5 7.4c-.2 0-.3-.1-.5-.1-1 0-1.8.8-1.8 1.8s.8 1.8 1.8 1.8c.2 0 .4 0 .6-.1l3.3 4.1H6.5c-.2 0-.4.1-.5.3L5.3 23h-.5c-.3 0-.5.2-.5.5s.2.5.5.5h10.9c.3 0 .5-.2.5-.5s-.2-.5-.5-.5h-.5l-.8-2.6c0-.2-.2-.3-.5-.3H13v-.4c0-.3-.2-.5-.5-.5s-.5.2-.5.5v.4h-1.5l-3.8-4.6c.2-.3.3-.6.3-1s-.1-.8-.4-1.1l4.3-6.2v.4c0 .3.2.5.5.5h1.1v.2c0 .2.1.4.3.4l5.7 2h.1c.1 0 .2 0 .3-.1.1-.1.2-.2.2-.4V7.4c.8-.2 1.4-1 1.4-2zM14.2 23H6.3l.6-2h6.7l.6 2zm-9.7-8.5c0-.4.3-.8.8-.8.1 0 .3 0 .4.1.2.1.3.4.3.6 0 .4-.3.8-.8.8-.3 0-.7-.4-.7-.7zm7.4-7.4V3.7h.6v3.4h-.6zm6.3 2.4-4.7-1.6V2.8l4.7-1.6v8.3zm.9-3.2V4.4c.2.2.3.5.3.9.1.5-.1.8-.3 1z" style="fill:#263238"/></svg>