<svg xmlns="http://www.w3.org/2000/svg" viewBox="0 0 24 24" style="enable-background:new 0 0 24 24" xml:space="preserve"><path d="M23.8 1.3c-.1-.2-.3-.4-.5-.5-.2-.1-.4-.2-.7-.2s-.5 0-.7.2l-5.4 3.4c-.2.1-.4.1-.6.1s-.4 0-.6-.1L9 .2C8.7.1 8.4 0 8 0s-.7.1-1 .2L.8 4.5c-.2.1-.4.3-.6.5-.1.2-.2.5-.2.7V22c0 .2 0 .5.2.7.1.2.3.4.5.5.2.1.4.2.7.2s.5 0 .7-.2l5.4-3.4c.2-.1.4-.1.6-.1.2 0 .4 0 .6.1l6.2 4c.3.1.7.2 1 .2h.1c.3 0 .6-.1.8-.2l6.4-4.2c.2-.1.4-.3.5-.5.1-.2.2-.5.2-.7V2c.1-.2 0-.5-.1-.7zM7 18.9l-5.4 3.5h-.4l-.1-.1V5.5l.1-.1 6.2-4.2h.1v17.5c-.1 0-.3 0-.5.2zm2.1-.1c-.2-.1-.4-.2-.6-.2V1.1h.1l6.3 4c.2.1.3.1.5.2V23c-.1 0-.1 0-.2-.1l-6.1-4.1zm13.9-.5v.2l-.1.1-6.3 4.1V5.4c.2 0 .4-.1.6-.2l5.4-3.5h.4l.1.1V2C23 2 23 18.3 23 18.3z" style="fill:#263238"/></svg>