<svg version="1.1" id="Capa_1" xmlns="http://www.w3.org/2000/svg" x="0" y="0" viewBox="0 0 24 24" style="enable-background:new 0 0 24 24" xml:space="preserve"><style>.st0{fill:#263238}</style><path class="st0" d="M20.2 1.6v-1c0-.3-.2-.5-.5-.5s-.5.2-.5.5v.8h-1.5V.6c0-.3-.2-.5-.5-.5s-.5.2-.5.5v.8h-1.6V.6c0-.3-.2-.5-.5-.5s-.5.2-.5.5v.8H9.9V.6c0-.3-.2-.5-.5-.5s-.5.2-.5.5v.8H7.3V.6c0-.3-.2-.5-.5-.5s-.5.2-.5.5v.8H4.9V.6c0-.3-.2-.5-.5-.5s-.5.2-.5.5v1c-1.2.5-2.1 1.7-2.1 3v14.6c0 1.3.8 2.5 2 3v1.2c0 .3.2.5.5.5s.5-.2.5-.5v-1.1h14.4v1.1c0 .3.2.5.5.5s.5-.2.5-.5v-1.2c1.2-.5 2-1.6 2-3V4.6c0-1.4-.8-2.5-2-3zm-15.1.7H19c1.2 0 2.2 1 2.2 2.2v3H2.8v-3c0-1.2 1-2.2 2.3-2.2zM19 21.4H5.1c-1.2 0-2.2-1-2.2-2.2V8.5h18.4v10.7c0 1.2-1.1 2.2-2.3 2.2z"/><path class="st0" d="M17.3 9.5H6.7c-1.2 0-2.2 1-2.2 2.2v5.8c0 1.2 1 2.2 2.2 2.2h10.6c1.2 0 2.2-1 2.2-2.2v-5.8c.1-1.2-.9-2.2-2.2-2.2zm1.3 8.1c0 .7-.6 1.3-1.3 1.3H6.7c-.7 0-1.3-.6-1.3-1.3v-5.8c0-.7.6-1.3 1.3-1.3h10.6c.7 0 1.3.6 1.3 1.3v5.8z"/><path class="st0" d="M15.3 12.9H8.8c-.3 0-.5.2-.5.5s.2.5.5.5h6.5c.3 0 .5-.2.5-.5-.1-.3-.3-.5-.5-.5zm-8.4-7c.3 0 .6-.3.6-.6s-.3-.6-.6-.6-.6.3-.6.6c-.1.3.2.6.6.6zm5.1 0c.3 0 .6-.3.6-.6s-.3-.6-.6-.6-.6.3-.6.6.3.6.6.6zm5.2 0c.3 0 .6-.3.6-.6s-.3-.6-.6-.6-.6.3-.6.6.3.6.6.6z"/></svg>