<svg xmlns="http://www.w3.org/2000/svg" viewBox="0 0 24 24" style="enable-background:new 0 0 24 24" xml:space="preserve"><path d="M20.3 14.5c-.2 0-.5 0-.8-.1-.5-.2-1-.6-1.2-1.3-.4-1-.3-2.2.1-3.4.7-1.6 2-2.7 3.3-2.7.3 0 .5 0 .8.1.5.2.9.6 1.2 1.3.4 1 .3 2.2-.1 3.4-.7 1.6-2 2.7-3.3 2.7zm1.5-6.6c-.9 0-1.9.9-2.4 2.2-.4 1-.5 2-.1 2.7.1.2.3.6.7.7.1 0 .2.1.4.1.9 0 1.9-.9 2.4-2.2.4-1 .4-2 .1-2.7-.1-.2-.3-.6-.7-.7-.1-.1-.2-.1-.4-.1zm-4 14.5c-.9 0-1.8-.3-2.8-.6-1-.3-2.1-.7-3-.7-.9 0-2 .3-3 .7-1 .3-2 .6-2.8.6-1.6 0-2.9-1.3-2.9-3 0-.4 0-.8.2-1.2.4-1 1.3-1.6 2.2-2.1.8-.5 1.6-1 2.2-1.9 1.5-2.5 2.2-3.5 4.1-3.5 1.9 0 2.6 1.1 4.1 3.5.5.9 1.4 1.4 2.2 1.9.9.5 1.8 1.1 2.2 2.1.1.3.2.8.2 1.2 0 1.6-1.3 3-2.9 3zM12 20.1c1.1 0 2.2.4 3.3.7.9.3 1.8.6 2.5.6 1.1 0 1.9-.9 1.9-2.1 0-.3 0-.6-.1-.8-.2-.7-1-1.2-1.8-1.6-.9-.5-1.9-1.1-2.5-2.2-1.5-2.5-2-3-3.3-3-1.3 0-1.8.6-3.3 3-.7 1.1-1.6 1.7-2.5 2.2-.8.5-1.5.9-1.8 1.6-.1.3-.1.5-.1.8 0 1.2.9 2.1 1.9 2.1.7 0 1.6-.3 2.5-.6 1.1-.3 2.2-.7 3.3-.7zM8.7 9.4c-1.4 0-2.6-1.5-2.9-3.5-.3-2.2.6-4 2.1-4.2h.3c1.4 0 2.6 1.5 2.9 3.5.3 2.2-.6 4-2.1 4.2h-.3zm-.5-6.8h-.1c-1 .1-1.6 1.5-1.3 3.1.2 1.5 1.1 2.7 2 2.7h.1c.9-.1 1.5-1.6 1.3-3.2-.3-1.4-1.2-2.6-2-2.6zm7.1 6.8H15c-1.5-.2-2.4-2.1-2.1-4.2.3-2.2 1.7-3.8 3.2-3.5 1.5.2 2.4 2.1 2.1 4.2-.3 2-1.5 3.5-2.9 3.5zm.6-6.8c-.9 0-1.7 1.2-2 2.7-.2 1.6.3 3 1.3 3.2h.1c.9 0 1.8-1.2 2-2.7.2-1.6-.3-3-1.3-3.2h-.1zM3.7 14.5c-1.3 0-2.6-1.1-3.3-2.7-.5-1.2-.6-2.5-.1-3.4.2-.6.7-1 1.2-1.3.2-.1.5-.1.7-.1 1.3 0 2.6 1.1 3.3 2.7.5 1.2.6 2.5.1 3.4-.2.6-.7 1-1.2 1.3-.2.1-.4.1-.7.1zM2.2 7.9c-.1 0-.3.1-.4.1-.3.2-.5.5-.7.8-.3.7-.2 1.7.1 2.7.5 1.3 1.5 2.2 2.4 2.2.1 0 .3 0 .4-.1.3-.1.6-.5.7-.7.3-.8.3-1.8-.1-2.8-.5-1.2-1.5-2.2-2.4-2.2z" style="fill:#263238"/></svg>