<svg version="1.1" id="Capa_1" xmlns="http://www.w3.org/2000/svg" x="0" y="0" viewBox="0 0 24 24" style="enable-background:new 0 0 24 24" xml:space="preserve"><style>.st0{fill:#263238}</style><path class="st0" d="M22.1 2C18.9.8 15.3.1 12 .1 8.5.1 4.9.8 1.9 2 .8 2.5.9 3.1 1 3.4l.5 1.3c.3.6.8.7 1.1.7 0 .1 0 .3.1.5 0 .1.6 1.2 1.3 2.7 1.8 3.9 5.2 11.4 6.7 14.5.1.2.3.4.5.6.3.3.5.3.8.3s.5-.1.7-.2c.2-.1.4-.3.5-.6l8-17.2c.1-.2.1-.3.1-.5h.1c.3 0 .7-.1 1-.8l.6-1.4c.2-.3 0-.9-.9-1.3zm-1.8 3.6-7.9 17.2-.1.1c-.1.1-.3.1-.4 0l-.1-.1c-1.5-3.2-4.9-10.5-6.7-14.5-1-1.8-1.4-2.6-1.5-2.7v-.2s0-.1.3-.2c.3-.2.6-.3.8-.4 2.4-.7 4.8-1.1 7.3-1.1 2.1 0 4.2.3 6.2.8l1.8.6c.1 0 .2.1.3.2v.3zm1.3-1.2c0 .1-.1.1-.1.2h-.2s-.1 0-.2-.1c-.8-.3-1.6-.6-2.5-.8-2-.6-4.1-.9-6.5-.9-2.8 0-5.4.4-7.7 1.2-.5.1-.9.3-1.4.4-.1 0-.2.1-.2.1-.3 0-.3 0-.4-.1l-.5-1.3s.1-.1.3-.2c3-1.2 6.5-1.8 9.8-1.8 3.2 0 6.7.7 9.8 1.9.2 0 .3.1.3.2l-.5 1.2z"/><path class="st0" d="M8.5 6.8c-1 0-1.8.8-1.8 1.8s.8 1.8 1.8 1.8 1.8-.8 1.8-1.8c-.1-1.1-.8-1.8-1.8-1.8zm7 .8c-1 0-1.8.8-1.8 1.8s.8 1.8 1.8 1.8 1.8-.8 1.8-1.8-.8-1.8-1.8-1.8zM12 13.8c-1 0-1.8.8-1.8 1.8s.8 1.8 1.8 1.8 1.8-.8 1.8-1.8-.8-1.8-1.8-1.8z"/></svg>