<svg xmlns="http://www.w3.org/2000/svg" viewBox="0 0 24 24" style="enable-background:new 0 0 24 24" xml:space="preserve"><path d="M23.8 20.8c-.2-.1-.5-.1-.7.1-.2.3-.5.5-.8.7-.3.1-.7.2-1.1.2-.4 0-.7-.1-1.1-.2-.3-.1-.6-.4-.8-.7-.3-.4-.7-.8-1.2-1-.5-.2-1-.3-1.5-.3s-1.1.1-1.5.3c-.5.2-.9.6-1.2 1-.2.3-.5.5-.8.7-.3.1-.7.2-1.1.2-.4 0-.7-.1-1.1-.2-.3-.1-.6-.4-.8-.7-.3-.4-.7-.8-1.2-1-.5-.2-1-.3-1.5-.3s-1.1.1-1.5.3c-.5.2-.9.6-1.2 1-.2.3-.5.5-.8.7-.3.1-.7.2-1.1.2s-.8 0-1.1-.2c-.3-.1-.6-.4-.8-.7-.1-.2-.4-.3-.7-.1-.2.2-.3.5-.1.7.3.4.7.8 1.2 1s1 .3 1.5.3 1.1-.1 1.5-.3.9-.6 1.2-1c.2-.3.5-.5.8-.7.3-.1.7-.2 1.1-.2s.7.1 1.1.2c.3.1.6.4.8.7.3.4.7.8 1.2 1s1 .3 1.5.3 1.1-.1 1.5-.3.9-.6 1.2-1c.2-.3.5-.5.8-.7.3-.2.7-.2 1.1-.2s.7.1 1.1.2c.3.1.6.4.8.7.3.4.7.8 1.2 1 .4.2 1 .3 1.4.3.5 0 1.1-.1 1.5-.3s.9-.6 1.2-1c.2-.2.2-.5 0-.7zM1.3 17.9c.5.2 1 .3 1.5.3s1.1-.1 1.5-.3.9-.6 1.2-1c.2-.3.5-.5.8-.7.3-.2.7-.3 1.1-.3s.7.1 1.1.2.6.4.8.7c.3.4.7.8 1.2 1 .4.2 1 .3 1.4.3h.1c.5 0 1-.1 1.4-.3.5-.2.9-.6 1.2-1 .2-.3.5-.5.8-.7.3-.1.7-.2 1.1-.2.4 0 .7.1 1.1.2.3.1.6.4.8.7.3.4.7.8 1.2 1s1 .3 1.5.3 1.1-.1 1.5-.3c.5-.2.9-.6 1.2-1 .1-.2.1-.5-.1-.7-.2-.1-.5-.1-.7.1-.2.3-.5.5-.8.7-.3.2-.7.2-1.1.2s-.7-.1-1.1-.2c-.3-.1-.6-.4-.8-.7-.3-.4-.7-.8-1.2-1-.5-.2-1-.3-1.5-.3s-1.1.1-1.5.3-.9.6-1.2 1c-.2.3-.5.5-.8.7-.3.1-.7.2-1.1.2-.4 0-.7-.1-1.1-.2-.3-.1-.6-.4-.8-.7-.3-.4-.7-.8-1.2-1s-.9-.2-1.4-.2c-.5 0-1.1.1-1.5.3s-.9.6-1.2 1c-.2.3-.5.5-.8.7-.3.1-.7.2-1.1.2s-.7 0-1.1-.2c-.3-.1-.6-.4-.8-.7-.1-.2-.4-.3-.7-.1-.2.1-.3.4-.1.7.2.4.7.8 1.2 1zM5 3.8c.3 0 .5-.2.5-.5s.1-.6.4-.9c.5-.4 1.3-.4 1.8.1.2.2.4.5.4.9V12c0 .3.2.5.5.5.2 0 .4-.2.4-.5v-1.8h6V12c0 .3.2.5.5.5s.5-.2.5-.5V3.4c0-.3.1-.6.4-.9.5-.5 1.3-.5 1.8 0 .2.2.4.5.4.9 0 .3.2.5.5.5s.5-.2.5-.5c0-.6-.2-1.2-.6-1.6-.5-.4-1.1-.6-1.7-.6-.6 0-1.2.2-1.6.6-.4.4-.6 1-.6 1.6v.1H9v-.1c0-.6-.2-1.2-.6-1.6-.4-.4-1-.6-1.6-.6-.6 0-1.2.2-1.6.6-.4.4-.6 1-.6 1.6 0 .2.2.4.4.4zm9.9.6v4.8H9V4.4h5.9z" style="fill:#263238"/></svg>