<svg xmlns="http://www.w3.org/2000/svg" viewBox="0 0 24 24" style="enable-background:new 0 0 24 24" xml:space="preserve"><path d="M2.1 1c-.2-.2-.5-.2-.7 0-.7.6-1 1.6-1.1 2.8 0 2.1 1.1 4.4 2.8 6.1l4.4 4.4c.4.4.8.6 1.3.8.5.1 1 .1 1.5 0h.6c.2 0 .4.1.5.3l.6.5c.1.1.2.2.2.4 0 .1.1.3.1.4v.3c0 .6.2 1.1.6 1.5l4.6 4.7c.4.4 1.1.7 1.7.7.6 0 1.2-.2 1.7-.7.4-.4.7-1.1.7-1.7 0-.6-.2-1.2-.7-1.7L2.1 1zm18.3 21.6c-.5.5-1.5.5-2 0l-4.6-4.7c-.2-.2-.3-.5-.3-.8v-.3c0-.3 0-.6-.1-.8-.1-.2-.3-.5-.5-.7l-.6-.5c-.2-.2-.6-.4-.9-.5h-1c-.3.1-.7.1-1.1 0-.3-.1-.7-.3-.9-.5L3.9 9.3C2.3 7.8 1.3 5.6 1.3 3.8c0-.7.2-1.3.5-1.9l18.5 18.6c.3.3.4.6.4 1 .1.5 0 .8-.3 1.1zM13.6 9.2c.1 0 .2 0 .3-.1l.6-.6c.1-.1.2-.3.3-.4 0-.1.1-.3.1-.5v-.8c0-.4 0-.7.2-1.1.1-.3.3-.7.6-.9l4-4c.2-.2.2-.5 0-.7-.2-.1-.5-.1-.7 0l-4 4c-.3.3-.6.8-.8 1.2-.2.4-.3 1-.3 1.4v.9s0 .1-.1.1l-.6.6c-.2.2-.2.5 0 .7.2.1.3.2.4.2zm10.2-4.9c-.2-.2-.5-.2-.7 0l-4 4c-.2.2-.6.5-.9.6-.3.1-.7.2-1.1.2h-.8c-.2 0-.3 0-.5.1-.1 0-.3.1-.4.3l-.4.5c-.2.2-.2.5 0 .7.1.1.2.1.3.1.1 0 .2 0 .3-.1l.6-.6.1-.1h.9c.5 0 1-.1 1.4-.3.5-.2.9-.5 1.2-.8l4-4c.2-.1.2-.4 0-.6zM17 7c.1.1.2.1.3.1.1 0 .2 0 .3-.1l4.1-4.1c.2-.2.2-.5 0-.7s-.5-.2-.7 0l-4 4.1c-.2.2-.2.5 0 .7zM8.8 17.4l-5.1 5.1c-.6.6-1.6.6-2.2 0-.3-.3-.5-.7-.5-1.1 0-.4.2-.8.5-1.1L5.7 16c.2-.2.2-.5 0-.7-.2-.2-.5-.2-.7 0L.7 19.6c-.4.6-.7 1.2-.7 1.9s.2 1.3.7 1.8c.5.5 1.1.7 1.8.7s1.3-.2 1.8-.7l5.1-5.1c.2-.2.2-.5 0-.7-.2-.3-.4-.3-.6-.1z" style="fill:#263238"/></svg>