<svg xmlns="http://www.w3.org/2000/svg" viewBox="0 0 24 24" style="enable-background:new 0 0 24 24" xml:space="preserve"><path d="M21.1 2.8h-.7V.6c0-.3-.2-.5-.5-.5H4.2c-.3 0-.5.2-.5.5v2.2h-.8c-.3 0-.5.2-.5.5s.2.5.5.5h.8v2.5l.1.1h15.9c.3 0 .5-.2.5-.5V3.8h.2v3l-8.7 2c-.2 0-.4.2-.4.5v3.9h-.9c-.3 0-.5.2-.5.5v8.4c0 .3.1.7.3 1 .2.3.5.5.8.6.2.1.5.1.8.1.3 0 .5 0 .8-.1.3-.1.6-.3.7-.6.2-.3.3-.6.3-.9v-8.5c0-.3-.2-.5-.5-.5h-.9V9.6l8.7-2c.2 0 .4-.2.4-.5V3.3c.3-.3.1-.5-.2-.5zm-5.2 2.8.4-.4c.2-.2.2-.5 0-.7s-.5-.2-.7 0l-1 1.1H5.4l2.8-2.7c.2-.2.2-.5 0-.7-.2-.2-.5-.2-.7 0L4.7 5V1.1h8.8l-2.3 2.3c-.2.2-.2.5 0 .6.1.1.2.1.3.1.1 0 .2 0 .3-.1l3-3h4.5v4.5c.1.1-3.4.1-3.4.1zM13 22.2c0 .1 0 .2-.1.4-.1.1-.2.2-.3.2-.3.1-.6.1-.9 0-.1 0-.2-.1-.3-.2-.1-.1-.1-.2-.1-.4v-8H13v8z" style="fill:#263238"/></svg>