<svg version="1.1" id="Capa_1" xmlns="http://www.w3.org/2000/svg" x="0" y="0" viewBox="0 0 24 24" style="enable-background:new 0 0 24 24" xml:space="preserve"><style>.st0{fill:#263238}</style><path class="st0" d="M13.2 11.8c-.5-.2-1.1-.3-1.7-.2s-1.1.4-1.5.8c-.4.4-.7 1-.8 1.5-.1.6 0 1.1.2 1.7.2.5.6 1 1.1 1.3.5.3 1 .5 1.6.5.8 0 1.5-.3 2.1-.9.6-.6.9-1.3.9-2.1 0-.6-.2-1.1-.5-1.6-.5-.5-.9-.8-1.4-1zm.2 4.1c-.7.7-1.8.8-2.5.2-.3-.2-.6-.5-.7-.9-.2-.4-.2-.8-.1-1.2.1-.4.3-.7.5-1 .3-.3.6-.5 1-.5h.4c.2 0 .5 0 .8.1.4.1.7.4.9.7.2.3.3.7.3 1.1 0 .6-.2 1.1-.6 1.5zm2.7-11.7H8c-.3 0-.7.1-.9.4-.3.2-.4.5-.4.8v3.3c0 .3.1.7.4.9.2.3.5.4.9.4h8.2c.3 0 .7-.1.9-.4.2-.2.4-.6.4-.9V5.4c0-.3-.1-.7-.4-.9-.3-.2-.6-.3-1-.3zm.4 4.5c0 .1 0 .2-.1.2 0 0-.1.1-.2.1H8c-.1.1-.2 0-.3 0 0 0-.1-.1-.1-.2V5.4c0-.1 0-.2.1-.2 0 0 .1-.1.2-.1h8.2c.1 0 .2 0 .2.1 0 0 .1.1.1.2v3.3z"/><path class="st0" d="M18.9 1.9c-.6-.6-1.5-1-2.4-1h-.9c0-.1-.1-.3-.3-.4-.2-.2-.5-.4-.9-.4H9.6c-.3 0-.7.1-.9.4-.2.1-.3.2-.3.4h-.9c-.9 0-1.7.3-2.4 1-.6.6-1 1.5-1 2.4v12.6c0 2 5.9 3.4 7.7 3.8h.2c1.8-.4 7.7-1.8 7.7-3.8V4.3c.2-1-.1-1.8-.8-2.4zm0 14.9c0 .7-2.8 2-6.9 2.9-4.1-.9-6.9-2.1-6.9-2.9V4.3c0-.6.2-1.2.7-1.7.5-.5 1-.7 1.7-.7h1.2c.3 0 .5-.2.5-.5 0-.1 0-.2.1-.2s.2-.2.3-.2h4.9c.1 0 .2 0 .2.1s.1.1.1.2c0 .3.2.5.5.5h1.3c.6 0 1.2.2 1.7.7.4.5.7 1.1.7 1.8l-.1 12.5z"/><path class="st0" d="M16.5 20.7c-.2-.2-.5-.2-.7 0-.2.2-.2.5 0 .7l.8.8H7.5l.8-.8c.2-.2.2-.5 0-.7-.2-.2-.5-.2-.7 0L6 22.3l-.9.9c-.2.2-.2.5 0 .7.1.1.2.1.3.1.1 0 .2 0 .3-.1l.7-.7h11.1l.7.7c.1.1.2.1.3.1s.2 0 .3-.1c.2-.2.2-.5 0-.7l-2.3-2.5z"/></svg>