<?xml version="1.0" encoding="utf-8"?>
<!-- Generator: Adobe Illustrator 25.4.1, SVG Export Plug-In . SVG Version: 6.00 Build 0)  -->
<svg version="1.1" id="Capa_1" xmlns="http://www.w3.org/2000/svg" xmlns:xlink="http://www.w3.org/1999/xlink" x="0px" y="0px"
	 viewBox="0 0 24 24" style="enable-background:new 0 0 24 24;" xml:space="preserve">
<style type="text/css">
	.st0{fill:#263238;}
</style>
<g>
	<g>
		<path class="st0" d="M16.1,23.9c-1.4,0-2.2-0.4-2.8-0.8c-0.4-0.2-0.7-0.4-1.3-0.4c-0.5,0-0.8,0.2-1.3,0.4
			c-0.6,0.3-1.4,0.8-2.8,0.8c-2.8,0-6.1-6.1-6.1-10.1c0-5.2,1.9-8.2,5.3-8.6c1-0.1,1.9,0.1,2.8,0.4c0.7,0.2,1.4,0.4,2.1,0.4
			c0.7,0,1.4-0.2,2.1-0.4c0.9-0.2,1.8-0.5,2.8-0.4l0,0c3.5,0.3,5.3,3.2,5.3,8.6C22.1,17.8,18.9,23.9,16.1,23.9z M12,21.8
			c0.8,0,1.3,0.3,1.7,0.6c0.5,0.3,1.1,0.6,2.3,0.6c2.2,0,5.1-5.8,5.1-9.2c0-4.8-1.4-7.3-4.4-7.6c-0.8-0.1-1.6,0.1-2.4,0.4
			C13.6,6.8,12.8,7,12,7s-1.6-0.2-2.4-0.4C8.8,6.3,8,6.2,7.2,6.2c-3.6,0.3-4.4,4.3-4.4,7.6c0,3.4,2.9,9.2,5.1,9.2
			c1.2,0,1.8-0.3,2.3-0.6C10.7,22,11.2,21.8,12,21.8z"/>
	</g>
	<g>
		<path class="st0" d="M15.4,3.4c-1.1,1.1-2.3,1.4-2.9,1.4c0,0-0.1,0-0.2,0c0,0-0.1,0-0.1-0.1c0,0-0.1-0.1-0.1-0.1c0,0,0-0.1,0-0.2
			c0.1-1.1,0.6-2.2,1.4-3c1.1-1.1,2.3-1.4,2.9-1.4c0,0,0.1,0,0.2,0c0,0,0.1,0,0.1,0.1c0,0,0.1,0.1,0.1,0.1s0,0.1,0,0.2
			C16.7,1.7,16.2,2.7,15.4,3.4z"/>
	</g>
	<g>
		<path class="st0" d="M10,17c0.7,0,1.2-1.1,1.2-2.4s-0.5-2.4-1.2-2.4s-1.2,1.1-1.2,2.4S9.3,17,10,17z"/>
	</g>
	<g>
		<path class="st0" d="M14,17c0.7,0,1.2-1.1,1.2-2.4s-0.5-2.4-1.2-2.4c-0.7,0-1.2,1.1-1.2,2.4S13.4,17,14,17z"/>
	</g>
</g>
</svg>
