<?xml version="1.0" encoding="utf-8"?>
<!-- Generator: Adobe Illustrator 25.4.1, SVG Export Plug-In . SVG Version: 6.00 Build 0)  -->
<svg version="1.1" id="Capa_1" xmlns="http://www.w3.org/2000/svg" xmlns:xlink="http://www.w3.org/1999/xlink" x="0px" y="0px"
	 viewBox="0 0 24 24" style="enable-background:new 0 0 24 24;" xml:space="preserve">
<style type="text/css">
	.st0{fill:#263238;}
</style>
<g>
	<path class="st0" d="M24,10.7c0-0.5-0.2-1.1-0.6-1.5c-0.3-0.4-0.8-0.8-1.3-0.9c-0.3-0.1-0.6-0.1-1-0.1c-0.3,0-0.6,0-0.8,0.1V6.4
		c0-1-0.4-1.8-1.1-2.5c-0.7-0.7-1.5-1.1-2.5-1.1H7.3c-1,0-1.9,0.4-2.6,1.1S3.7,5.5,3.7,6.5v1.8c-0.2,0-0.5-0.1-0.8-0.1
		c-0.3,0-0.7,0-1,0.1c-0.5,0.2-1,0.5-1.3,0.9S0.1,10.2,0,10.7c0,0.5,0,1.1,0.2,1.5c0.2,0.4,0.4,0.7,0.7,1c0.3,0.3,0.7,0.5,1.1,0.6
		c0,0,0.1,0,0.2,0v6.7c0,0.3,0.2,0.5,0.5,0.5h18.3c0.3,0,0.5-0.2,0.5-0.5v-6.7c0.1,0,0.1,0,0.2,0c0.4-0.1,0.8-0.3,1.1-0.6
		c0.3-0.3,0.6-0.6,0.8-1C23.9,11.8,24,11.2,24,10.7z M4.6,6.5c0-0.7,0.3-1.3,0.8-1.9c0.5-0.5,1.2-0.8,1.9-0.8h9.5
		c0.7,0,1.3,0.3,1.8,0.8s0.8,1.2,0.8,1.8v2.3C19.2,8.8,19,9,18.9,9.1c-0.8,0.9-0.7,2-0.7,2v2.2H5.9v-2.2c0,0,0-1.2-0.7-2
		C5,8.9,4.9,8.8,4.7,8.7L4.6,6.5L4.6,6.5z M18.1,15H5.9v-0.8h12.2V15z M5.9,15.9h12.2v4.2H5.9V15.9z M3.3,14c0.1,0,0.2,0,0.3,0
		c0.2,0,0.4-0.3,0.3-0.6c0-0.2-0.3-0.4-0.6-0.3c-0.3,0.1-0.6,0-0.9,0c-0.3-0.1-0.5-0.2-0.8-0.4s-0.4-0.4-0.5-0.7
		C1,11.5,1,11.2,1,10.8c0-0.3,0.1-0.7,0.4-1c0.2-0.3,0.5-0.5,0.8-0.6c0.2,0,0.4-0.1,0.6-0.1c0.7,0,1.3,0.2,1.6,0.6
		C5,10.2,4.9,11,4.9,11v9.1H3.3V14z M22.8,11.9c-0.1,0.2-0.3,0.5-0.5,0.7s-0.5,0.3-0.8,0.4c-0.3,0.1-0.6,0.1-0.9,0
		c-0.2,0-0.5,0.1-0.6,0.3c0,0.2,0.1,0.5,0.3,0.6c0.1,0,0.1,0,0.2,0v6.2H19v-6.5l0,0l0,0V11c0,0,0-0.8,0.5-1.3
		c0.3-0.4,0.9-0.6,1.6-0.6c0.2,0,0.4,0,0.6,0.1c0.3,0.1,0.6,0.3,0.8,0.6c0.2,0.3,0.3,0.6,0.4,1C23.1,11.2,23,11.5,22.8,11.9z"/>
</g>
</svg>
