<?xml version="1.0" encoding="utf-8"?>
<!-- Generator: Adobe Illustrator 25.4.1, SVG Export Plug-In . SVG Version: 6.00 Build 0)  -->
<svg version="1.1" id="Capa_1" xmlns="http://www.w3.org/2000/svg" xmlns:xlink="http://www.w3.org/1999/xlink" x="0px" y="0px"
	 viewBox="0 0 24 24" style="enable-background:new 0 0 24 24;" xml:space="preserve">
<style type="text/css">
	.st0{fill:#263238;}
</style>
<path class="st0" d="M23.5,18.9h-1l0.4-1c0.5-1.3,0.6-2.8,0.1-4.2l-0.6-2.1c-0.2-0.7-0.1-1.5,0.2-2.2l0.4-0.8c0,0,0,0,0,0
	c0.2-0.2,0.4-0.4,0.5-0.7c0.1-0.3,0.1-0.6,0-0.9c0-0.3-0.2-0.6-0.4-0.8c-0.2-0.2-0.4-0.4-0.7-0.5c-0.2-0.1-0.5,0-0.6,0.3
	c-0.1,0.2,0,0.5,0.3,0.6c0.1,0,0.2,0.1,0.3,0.2c0.1,0.1,0.1,0.2,0.1,0.3c0,0.1,0,0.3,0,0.4c0,0,0,0.1-0.1,0.2H7.1l0.5-3.5
	c0-0.1,0-0.3-0.1-0.4C7.5,3.8,7.3,3.8,7.2,3.8H5.7c0-0.3,0.2-1,0.5-1.2c0.1-0.1,0.2-0.1,0.3-0.1c0.2,0,0.5-0.1,0.5-0.4
	c0-0.2-0.1-0.5-0.4-0.5c-0.4,0-0.8,0-1.1,0.3C5.3,2.1,5.1,2.5,4.9,2.9C4.8,2.7,4.5,2.5,4.4,2.2c-0.5-0.4-1.2-0.7-2-0.8
	c-0.2,0-0.5,0.2-0.5,0.4s0.2,0.5,0.5,0.5c0.5,0,1.1,0.2,1.4,0.6C4,3.2,4.2,3.5,4.3,3.8H3c-0.1,0-0.3,0.1-0.4,0.2
	C2.5,4,2.5,4.2,2.5,4.3l0.8,3.5H1.4c0,0-0.1-0.1-0.1-0.2c0-0.1,0-0.3,0-0.4s0.1-0.3,0.1-0.4c0.1-0.1,0.2-0.2,0.3-0.2
	C2,6.4,2.1,6.1,2,5.9C1.9,5.7,1.6,5.5,1.4,5.6C1.1,5.7,0.9,5.9,0.7,6.1S0.3,6.7,0.3,7c0,0.3,0,0.6,0.1,0.9c0.1,0.2,0.2,0.4,0.4,0.6
	l0.5,0.9c0.3,0.7,0.4,1.4,0.2,2.2l-0.6,2.1c-0.4,1.3-0.4,2.8,0.1,4.2l0.4,1h-1c-0.3,0-0.5,0.2-0.5,0.5v2.7c0,0.3,0.2,0.5,0.5,0.5
	h19.4c0.3,0,0.5-0.2,0.5-0.5s-0.2-0.5-0.5-0.5H1v-1.8H23v1.8h-1.7c-0.3,0-0.5,0.2-0.5,0.5s0.2,0.5,0.5,0.5h2.2
	c0.3,0,0.5-0.2,0.5-0.5v-2.7C24,19.1,23.8,18.9,23.5,18.9z M22.1,17.6l-0.5,1.3h-3.3l0.4-1.1c0.5-1.2,0.5-2.7,0.1-4l-0.6-2
	c-0.2-0.7-0.1-1.4,0.2-2.1L19,8.8v0h3L21.9,9c-0.5,0.9-0.6,1.9-0.3,2.9l0.6,2.1C22.6,15.2,22.5,16.4,22.1,17.6z M15,18.9l0.1-0.8
	c0.3-1.5,0.2-3.1-0.1-4.6c-0.2-0.9-0.2-1.9-0.1-2.8l0.2-2h2.8l-0.3,0.5c-0.4,0.9-0.5,1.8-0.3,2.8l0.6,2c0.3,1.1,0.3,2.3-0.1,3.3
	l-0.5,1.5C17.3,18.9,15,18.9,15,18.9z M7.1,18.9l-0.9-1.6c-0.6-1.1-0.6-2.2-0.1-3.3l0.9-2c0.4-1,0.3-2-0.4-2.9c0,0,0,0,0,0L6.1,8.8
	h2.7l0.2,2c0.1,0.9,0,1.9-0.1,2.8c-0.3,1.5-0.4,3.1-0.1,4.6l0.1,0.8C8.9,18.9,7.1,18.9,7.1,18.9z M9.8,18c-0.2-1.4-0.2-2.8,0.1-4.2
	c0.2-1,0.3-2.1,0.1-3.1L9.8,8.8h1.7v10.1H9.9L9.8,18z M12.4,8.8h1.8l-0.2,1.9c-0.1,1.1,0,2.1,0.1,3.1c0.3,1.4,0.3,2.8,0.1,4.2
	l-0.2,1h-1.6C12.4,18.9,12.4,8.8,12.4,8.8z M3.6,4.7h1.3h0c0,0,0,0,0.1,0l0,0h1.5L6.1,7.8H4.3L3.6,4.7z M1.9,17.6
	c-0.4-1.1-0.5-2.4-0.1-3.5l0.6-2.1c0.3-1,0.2-2-0.3-2.9L2.1,8.8h2.8c0,0,0,0.1,0.1,0.2l0.9,0.9c0.4,0.6,0.6,1.3,0.3,1.9l-0.9,2
	c-0.6,1.3-0.5,2.8,0.2,4.1L6,19H2.4L1.9,17.6z"/>
</svg>
