<?xml version="1.0" encoding="utf-8"?>
<!-- Generator: Adobe Illustrator 25.4.1, SVG Export Plug-In . SVG Version: 6.00 Build 0)  -->
<svg version="1.1" id="Capa_1" xmlns="http://www.w3.org/2000/svg" xmlns:xlink="http://www.w3.org/1999/xlink" x="0px" y="0px"
	 viewBox="0 0 24 24" style="enable-background:new 0 0 24 24;" xml:space="preserve">
<style type="text/css">
	.st0{fill:#263238;}
</style>
<g>
	<path class="st0" d="M8.4,14.1c-0.5,0.5-1.1,1.1-1.6,1.5c-0.2,0.1-0.2,0.5-0.1,0.7c0.1,0.1,0.2,0.2,0.4,0.2c0.1,0,0.2,0,0.3-0.1
		c0.6-0.5,1.2-1.1,1.7-1.6c0.2-0.2,0.2-0.5,0-0.7C8.8,13.9,8.6,13.9,8.4,14.1z"/>
	<path class="st0" d="M5.8,17.5H5.4l0.4-0.7C6,16.6,6,16.3,5.7,16.2c-1.2-0.8-2.2-1.8-3-2.9c-1-1.1-1.6-2.5-1.7-4
		C1,8.2,1.5,7,2.2,6.1C2.9,5.3,4,4.7,5.1,4.5c0.2,0,0.4-0.3,0.4-0.6S5.2,3.5,4.9,3.5c-1.4,0.2-2.6,1-3.5,2S0,7.9,0,9.4
		c0.1,1.7,0.8,3.3,1.9,4.6c0.8,1.1,1.8,2,2.9,2.8l-0.3,0.5c0,0.1-0.1,0.2-0.1,0.4s0,0.3,0.1,0.4c0.1,0.1,0.2,0.2,0.3,0.3
		s0.3,0.1,0.4,0.1h0v5.1c0,0.3,0.2,0.5,0.5,0.5s0.5-0.2,0.5-0.5V18C6.3,17.7,6,17.5,5.8,17.5z"/>
	<path class="st0" d="M4.4,5.1C3.6,5.4,2.8,6,2.4,6.7C1.8,7.4,1.6,8.4,1.6,9.2c0,0.3,0.2,0.5,0.5,0.5l0,0c0.3,0,0.5-0.2,0.5-0.5
		c0-0.7,0.2-1.4,0.6-2s1-1,1.6-1.2C5,5.9,5.2,5.6,5.1,5.4C5,5.1,4.7,5,4.4,5.1z"/>
	<path class="st0" d="M22.7,5.5c-0.9-1.1-2.2-1.8-3.5-2c-0.3,0-0.5,0.1-0.6,0.4c0,0.2,0.1,0.5,0.4,0.6c1.2,0.2,2.2,0.8,2.9,1.7
		c0.8,0.9,1.2,2,1.2,3.2c-0.1,1.5-0.7,2.9-1.7,4c-0.7,0.9-1.5,1.7-2.4,2.4c-0.2,0.1-0.2,0.5-0.1,0.7c0.1,0.1,0.2,0.2,0.4,0.2
		c0.1,0,0.2,0,0.3-0.1c0.9-0.7,1.8-1.6,2.5-2.5c1.1-1.3,1.8-2.9,1.9-4.6C24.1,7.9,23.6,6.5,22.7,5.5z"/>
	<path class="st0" d="M18,17.5h-0.3l0.4-0.7c0.1-0.2,0.1-0.5-0.1-0.6c-0.8-0.6-1.6-1.2-2.3-2c-0.2-0.2-0.5-0.2-0.7,0
		c-0.2,0.2-0.2,0.5,0,0.7c0.6,0.7,1.3,1.3,2.1,1.9l-0.3,0.5c0,0.1-0.1,0.3-0.1,0.4c0,0.1,0,0.3,0.1,0.4c0.1,0.1,0.2,0.2,0.3,0.3
		s0.3,0.1,0.4,0.1h0v5c0,0.3,0.2,0.5,0.5,0.5c0.3,0,0.5-0.2,0.5-0.5V18C18.5,17.7,18.3,17.5,18,17.5z"/>
	<path class="st0" d="M12.1,0c-1.8,0-3.5,0.7-4.8,2s-2,3-2,4.8c0,1.7,0.8,3.5,2.2,5.3c1,1.2,2.2,2.4,3.5,3.4l-0.4,0.7
		c-0.1,0.1-0.1,0.3-0.1,0.4s0,0.3,0.1,0.4c0.1,0.1,0.2,0.2,0.3,0.3s0.3,0.1,0.4,0.1h0.1v6.1c0,0.3,0.2,0.5,0.5,0.5s0.5-0.2,0.5-0.5
		v-6.6c0-0.3-0.2-0.5-0.5-0.5h-0.4l0.5-0.8c0,0,0,0,0,0c0.1,0.2,0.4,0.3,0.7,0.1c1.5-1.1,2.9-2.3,4-3.7c1.4-1.8,2.2-3.7,2.2-5.3
		c0-1.8-0.7-3.5-2-4.8S13.9,0,12.1,0z M15.9,11.5c-1.1,1.4-2.4,2.6-3.8,3.6l0,0c0-0.1-0.1-0.1-0.1-0.2c-1.3-1-2.6-2.1-3.6-3.4
		c-1.3-1.7-2-3.3-2-4.8c0-1.5,0.6-3,1.7-4.1S10.5,1,12.1,1s3,0.6,4.1,1.7c1.1,1.1,1.7,2.5,1.7,4.1C17.9,8.2,17.2,9.8,15.9,11.5z"/>
	<path class="st0" d="M12.4,1.7L12.4,1.7c-1.4,0-2.7,0.6-3.7,1.5c-1,1-1.5,2.4-1.5,3.7c0,0.3,0.2,0.5,0.5,0.5l0,0
		c0.3,0,0.5-0.2,0.5-0.5c0-1.2,0.5-2.3,1.3-3.1s1.9-1.3,3.1-1.3c0.3,0,0.5-0.2,0.5-0.5C12.9,1.9,12.7,1.7,12.4,1.7z"/>
	<path class="st0" d="M8.4,8.4C8.3,8.1,8,8,7.7,8.1C7.5,8.2,7.4,8.4,7.5,8.7c0.4,1,0.9,1.9,1.5,2.7c0.1,0.1,0.2,0.2,0.4,0.2
		c0.1,0,0.2,0,0.3-0.1c0.2-0.1,0.2-0.5,0.1-0.7C9.1,10.1,8.7,9.2,8.4,8.4z"/>
</g>
</svg>
