<?xml version="1.0" encoding="utf-8"?>
<!-- Generator: Adobe Illustrator 25.4.1, SVG Export Plug-In . SVG Version: 6.00 Build 0)  -->
<svg version="1.1" id="Capa_1" xmlns="http://www.w3.org/2000/svg" xmlns:xlink="http://www.w3.org/1999/xlink" x="0px" y="0px"
	 viewBox="0 0 24 24" style="enable-background:new 0 0 24 24;" xml:space="preserve">
<style type="text/css">
	.st0{fill:#263238;}
</style>
<path class="st0" d="M23.1,8.2c-0.5,0-0.9,0.4-0.9,0.9v2.4h-1.5V6.3c0-0.7-0.6-1.3-1.3-1.3s-1.3,0.6-1.3,1.3v5.3H6V6.3
	C6,5.5,5.4,5,4.7,5S3.4,5.5,3.4,6.3v5.3H1.8V9.1c0-0.5-0.4-0.9-0.9-0.9C0.5,8.2,0,8.6,0,9.1v5.7c0,0.5,0.4,0.9,0.9,0.9
	c0.5,0,0.9-0.4,0.9-0.9v-2.4h1.5v5.3c0,0.7,0.6,1.3,1.3,1.3s1.3-0.6,1.3-1.3v-5.3h12.2v5.3c0,0.7,0.6,1.3,1.3,1.3s1.3-0.6,1.3-1.3
	v-5.3h1.5v2.4c0,0.5,0.4,0.9,0.9,0.9c0.5,0,0.9-0.4,0.9-0.9V9.1C24,8.6,23.6,8.2,23.1,8.2z M4.3,6.2c0-0.2,0.1-0.3,0.3-0.3
	C4.9,5.9,5,6,5,6.2v5.3H4.3V6.2z M5,17.7C5,17.9,4.9,18,4.7,18c-0.2,0-0.3-0.1-0.3-0.3v-5.3H5V17.7z M19.1,6.2
	c0-0.2,0.1-0.3,0.3-0.3s0.3,0.1,0.3,0.3v5.3h-0.7V6.2z M19.8,17.7c0,0.2-0.1,0.3-0.3,0.3s-0.3-0.1-0.3-0.3v-5.3h0.7V17.7z"/>
</svg>
