<?xml version="1.0" encoding="utf-8"?>
<!-- Generator: Adobe Illustrator 25.4.1, SVG Export Plug-In . SVG Version: 6.00 Build 0)  -->
<svg version="1.1" id="Capa_1" xmlns="http://www.w3.org/2000/svg" xmlns:xlink="http://www.w3.org/1999/xlink" x="0px" y="0px"
	 viewBox="0 0 24 24" style="enable-background:new 0 0 24 24;" xml:space="preserve">
<style type="text/css">
	.st0{fill:#263238;}
</style>
<g>
	<path class="st0" d="M10.5,11.3l-0.2,0c-0.4-0.1-0.7-0.3-1-0.7c-0.2-0.3-0.4-0.7-0.4-1.1V9c0-0.3-0.2-0.5-0.5-0.5
		C8.2,8.5,8,8.7,8,9v0.5c0,0.6,0.2,1.2,0.6,1.7c0.4,0.5,0.9,0.9,1.5,1l0.2,0c0,0,0.1,0,0.1,0c0.2,0,0.4-0.1,0.5-0.3
		C10.9,11.6,10.8,11.4,10.5,11.3z"/>
	<path class="st0" d="M19.1,18.1c-0.2,0-0.4,0-0.6,0l-1.2-3.4c0.7-0.4,1.3-0.9,1.9-1.4c1.6-1.6,2.5-3.7,2.5-5.9
		c0-0.2-0.1-0.4-0.2-0.6c-0.1-0.1-0.4-0.2-0.6-0.2H5.7c-0.2,0-0.4,0.1-0.6,0.2C4.9,7,4.8,7.2,4.8,7.4l0,0c0,0.5,0,1,0.1,1.4H2.5
		C2.2,8.8,2,9,2,9.3s0.2,0.5,0.5,0.5h2.7c0.4,1.3,1.1,2.6,2.1,3.6c0.6,0.6,1.4,1.1,2.1,1.6l-3.3,8.4c-0.1,0.2,0,0.5,0.3,0.6
		c0,0,0.1,0,0.2,0C6.8,24,7,23.9,7,23.7l1-2.4h8.2c0.1,1.5,1.4,2.7,2.9,2.7c1.6,0,2.9-1.3,2.9-2.9S20.7,18.1,19.1,18.1z M5.8,7.6
		h14.9c0,2-0.8,3.8-2.2,5.1c-1.4,1.4-3.3,2.2-5.3,2.2c-2,0-3.9-0.8-5.3-2.2C6.6,11.3,5.8,9.5,5.8,7.6z M10.3,15.3
		c0.9,0.3,1.9,0.5,2.9,0.5c1.1,0,2.1-0.2,3.2-0.6l1.2,3.3c-0.6,0.4-1.1,1-1.3,1.8H8.4L10.3,15.3z M19.1,23c-1.1,0-2-0.9-2-2
		c0-0.8,0.5-1.5,1.2-1.8c0,0,0,0,0,0c0,0,0,0,0,0c0.2-0.1,0.5-0.1,0.7-0.1c1.1,0,2,0.9,2,2S20.2,23,19.1,23z"/>
	<path class="st0" d="M9.7,6C9.8,6,9.9,6,10,5.9l0.7-0.6C10.9,5.2,11,5,11.1,4.9c0.1-0.2,0.1-0.4,0.1-0.6s0-0.4-0.1-0.6
		c-0.1-0.2-0.2-0.4-0.3-0.5c0,0-0.1-0.1-0.1-0.2c0,0,0-0.1,0-0.2c0-0.1,0-0.1,0-0.2c0,0,0.1-0.1,0.2-0.2L11.4,2
		c0.2-0.1,0.2-0.5,0.1-0.7S11,1.1,10.8,1.2l-0.5,0.4C10.1,1.8,10,1.9,9.9,2.1C9.8,2.3,9.7,2.5,9.7,2.7s0,0.4,0.1,0.6
		c0.1,0.2,0.2,0.4,0.3,0.5c0,0,0.1,0.1,0.1,0.1c0,0,0.1,0.1,0.1,0.2c0,0,0,0.1,0,0.2s-0.1,0.1-0.1,0.1L9.4,5.2
		c-0.2,0.2-0.2,0.5,0,0.7C9.4,6,9.6,6,9.7,6z"/>
	<path class="st0" d="M12.5,6c0.1,0,0.2,0,0.3-0.1l0.9-0.8C13.9,5,14,4.8,14.1,4.6c0.1-0.2,0.2-0.4,0.2-0.7s0-0.5-0.1-0.7
		S14,2.8,13.9,2.6c-0.1-0.1-0.1-0.2-0.2-0.3s0-0.2,0-0.3c0-0.1,0-0.2,0.1-0.3s0.1-0.2,0.3-0.3l0.7-0.5c0.2-0.1,0.2-0.5,0.1-0.7
		s-0.5-0.2-0.7-0.1l-0.6,0.5c-0.2,0.1-0.4,0.3-0.5,0.6c-0.1,0.2-0.2,0.5-0.2,0.7s0,0.5,0.1,0.8c0.1,0.2,0.2,0.5,0.4,0.6
		c0.1,0.1,0.1,0.1,0.2,0.3c0,0.1,0,0.2,0,0.3c0,0.1,0,0.2-0.1,0.3s-0.1,0.2-0.2,0.2l-0.9,0.8c-0.2,0.2-0.2,0.5,0,0.7
		C12.2,6,12.3,6,12.5,6z"/>
	<path class="st0" d="M15.7,6C15.8,6,16,6,16,5.9l0.7-0.6C16.9,5.2,17,5,17.1,4.9c0.1-0.2,0.1-0.4,0.1-0.6s0-0.4-0.1-0.6
		c0-0.2-0.1-0.3-0.3-0.5c0,0-0.1-0.1-0.1-0.2c0,0,0-0.1,0-0.2c0-0.1,0-0.1,0-0.2c0,0,0.1-0.1,0.2-0.2L17.5,2
		c0.2-0.1,0.2-0.5,0.1-0.7s-0.5-0.2-0.7-0.1l-0.5,0.4c-0.2,0.1-0.3,0.3-0.4,0.5c-0.1,0.2-0.2,0.4-0.2,0.6c0,0.2,0,0.4,0.1,0.6
		c0.1,0.2,0.2,0.4,0.3,0.5c0,0,0.1,0.1,0.1,0.1c0,0,0,0.1,0,0.2c0,0,0,0.1,0,0.2c0,0-0.1,0.1-0.1,0.1l-0.7,0.6
		c-0.2,0.2-0.2,0.5,0,0.7C15.5,6,15.6,6,15.7,6z"/>
</g>
</svg>
