<?xml version="1.0" encoding="utf-8"?>
<!-- Generator: Adobe Illustrator 25.4.1, SVG Export Plug-In . SVG Version: 6.00 Build 0)  -->
<svg version="1.1" id="Capa_1" xmlns="http://www.w3.org/2000/svg" xmlns:xlink="http://www.w3.org/1999/xlink" x="0px" y="0px"
	 viewBox="0 0 24 24" style="enable-background:new 0 0 24 24;" xml:space="preserve">
<style type="text/css">
	.st0{fill:#263238;}
</style>
<g>
	<path class="st0" d="M21.5,19.4c0.1-0.2,0.1-0.5,0.2-0.8c0.3-2.3,0.5-4.2,0.6-4.5c0.4,0,0.8-0.2,1.1-0.6c0.4-0.4,0.6-0.9,0.6-1.5
		c0-0.6-0.2-1-0.6-1.5C23,10.2,22.5,10,21.9,10h-0.8V3.2c0-1.6-1.2-2.9-2.7-2.9c-1.5,0-2.7,1.3-2.7,2.9c0,0.3,0.2,0.5,0.5,0.5
		s0.5-0.2,0.5-0.5c0-1.1,0.8-2,1.7-2s1.7,0.9,1.7,2V6H20c-0.3,0-0.5,0.2-0.5,0.5c0,0.3,0.2,0.5,0.5,0.5h0.2V10H2
		c-0.6,0-1,0.2-1.5,0.6C0.2,11,0,11.5,0,12.1c0,0.6,0.2,1,0.6,1.5c0.3,0.3,0.7,0.5,1.1,0.6c0,0.2,0.3,1.5,0.6,4.5
		c0,0.3,0.1,0.6,0.2,0.8c0.3,0.8,0.9,1.6,1.7,2.1l-1.1,1.3H1.6c-0.3,0-0.5,0.2-0.5,0.5s0.2,0.5,0.5,0.5h2l1.5-1.8
		c0.7,0.3,1.5,0.5,2.2,0.5h0h4.3H12h4.6h0c0.8,0,1.5-0.1,2.2-0.5l1.5,1.8h2c0.3,0,0.5-0.2,0.5-0.5s-0.2-0.5-0.5-0.5h-1.5l-1.1-1.3
		C20.5,21,21.1,20.3,21.5,19.4z M22.8,11.3c0.2,0.2,0.3,0.5,0.3,0.7c0,0.3-0.1,0.6-0.3,0.8c-0.2,0.2-0.5,0.3-0.8,0.3H11.1V11H22
		C22.3,11,22.5,11.1,22.8,11.3z M6.8,11h3.4v5.2H6.8V11z M0.9,12.1c0-0.3,0.1-0.6,0.3-0.8C1.5,11.1,1.7,11,2.1,11h3.8v2.2H2
		c-0.3,0-0.6-0.1-0.8-0.3C1.1,12.7,0.9,12.4,0.9,12.1z M19.2,20.7c-0.8,0.5-1.7,0.7-2.6,0.7H12h-0.3H7.4c-0.9,0-1.8-0.2-2.6-0.7
		c-0.7-0.4-1.1-0.9-1.4-1.6c0-0.1-0.1-0.3-0.1-0.5c-0.3-2.7-0.5-3.8-0.6-4.4h3.2v3h5.2v-3h10.2c-0.1,0.6-0.3,1.8-0.6,4.4
		c0,0.2,0,0.4-0.1,0.6C20.4,19.8,19.8,20.3,19.2,20.7z"/>
</g>
</svg>
