<?xml version="1.0" encoding="utf-8"?>
<!-- Generator: Adobe Illustrator 25.4.1, SVG Export Plug-In . SVG Version: 6.00 Build 0)  -->
<svg version="1.1" id="Capa_1" xmlns="http://www.w3.org/2000/svg" xmlns:xlink="http://www.w3.org/1999/xlink" x="0px" y="0px"
	 viewBox="0 0 24 24" style="enable-background:new 0 0 24 24;" xml:space="preserve">
<style type="text/css">
	.st0{fill:#263238;}
</style>
<path class="st0" d="M22.9,11.8c-0.4-0.4-0.9-0.7-1.5-1V5.4c0-0.7-0.3-1.4-0.8-1.9c-0.5-0.5-1.2-0.8-1.9-0.8H5.4
	C4.7,2.6,4,2.9,3.5,3.5S2.7,4.6,2.7,5.4v5.5c-0.5,0.2-1.1,0.5-1.5,1C0.4,12.6,0,13.6,0,14.7v5.7v0.5c0,0.3,0.2,0.5,0.5,0.5
	S1,21.2,1,20.9v-0.4c0-0.2,0.1-0.4,0.2-0.6c0.1-0.1,0.4-0.2,0.6-0.2h20.4c0.2,0,0.4,0.1,0.6,0.2c0.1,0.1,0.2,0.4,0.2,0.6v0.4
	c0,0.3,0.2,0.5,0.5,0.5s0.5-0.2,0.5-0.5v-0.4v-5.8C24,13.6,23.7,12.6,22.9,11.8z M11.6,10.3v0.4h-7v-0.4C4.6,10,4.7,9.6,5,9.4
	S5.6,9,5.9,9h4.4c0.3,0,0.7,0.1,0.9,0.4C11.4,9.6,11.6,9.9,11.6,10.3L11.6,10.3z M12.5,10.3c0-0.3,0.1-0.7,0.4-0.9S13.5,9,13.8,9
	h4.4c0.3,0,0.7,0.1,0.9,0.4s0.4,0.6,0.4,0.9v0.4h-7V10.3L12.5,10.3z M4.2,4.2C4.6,3.8,5,3.6,5.5,3.6h13.3c0.5,0,0.9,0.2,1.2,0.5
	c0.3,0.3,0.5,0.8,0.5,1.2v4.4c-0.1-0.4-0.3-0.8-0.6-1.1c-0.4-0.4-1-0.7-1.6-0.7h-4.5c-0.6,0-1.1,0.2-1.6,0.7c0,0-0.1,0.1-0.2,0.2
	c0-0.1-0.1-0.1-0.2-0.2c-0.4-0.4-1-0.7-1.6-0.7H5.9C5.3,8,4.7,8.3,4.3,8.7C4,9,3.8,9.4,3.7,9.8V5.4C3.7,4.9,3.9,4.5,4.2,4.2z
	 M22.3,18.6H1.9c-0.3,0-0.6,0.1-0.9,0.2v-4.2c0-0.8,0.3-1.6,0.9-2.2c0.6-0.6,1.3-0.9,2.2-0.9H20c0.8,0,1.6,0.3,2.2,0.9
	c0.6,0.6,0.9,1.3,0.9,2.2v4.2C22.8,18.7,22.6,18.6,22.3,18.6z"/>
</svg>
