<?xml version="1.0" encoding="utf-8"?>
<!-- Generator: Adobe Illustrator 25.4.1, SVG Export Plug-In . SVG Version: 6.00 Build 0)  -->
<svg version="1.1" id="Capa_1" xmlns="http://www.w3.org/2000/svg" xmlns:xlink="http://www.w3.org/1999/xlink" x="0px" y="0px"
	 viewBox="0 0 24 24" style="enable-background:new 0 0 24 24;" xml:space="preserve">
<style type="text/css">
	.st0{fill:#263238;}
</style>
<g>
	<path class="st0" d="M21.4,10.9c-0.6-0.6-1.5-1-2.3-1h-1.6V9.1l0,0c0.5-0.5,0.8-1.2,0.8-2c0-0.8-0.3-1.5-0.9-2.1
		c-0.6-0.6-1.3-0.9-2.1-0.9c0,0-0.1,0-0.2,0c-0.6-2.4-2.7-4.2-5.2-4.2C8.5,0.1,7,0.7,6,1.9l0,0C5.8,1.8,5.6,1.8,5.4,1.7
		c-0.3,0-0.7,0-1.1,0.1C4,1.9,3.7,2.1,3.4,2.3C3.1,2.5,2.9,2.8,2.8,3.1c-0.1,0.3-0.2,0.7-0.2,1s0,0.7,0.2,1c0,0.1,0.1,0.3,0.2,0.4
		C2.8,5.6,2.7,5.7,2.6,5.8C2,6.4,1.7,7.1,1.7,7.9C1.7,8.7,2,9.5,2.6,10c0.2,0.2,0.5,0.4,0.8,0.6v10.9c0,0.7,0.3,1.3,0.7,1.8
		c0.5,0.5,1.1,0.7,1.8,0.7h9c0.7,0,1.3-0.3,1.8-0.7c0.5-0.5,0.7-1.1,0.7-1.8v-0.8H19c0.9,0,1.7-0.3,2.3-1c0.6-0.6,1-1.5,1-2.3v-4.1
		C22.3,12.3,22,11.5,21.4,10.9z M2.7,7.9c0-0.5,0.2-1,0.6-1.4S4.1,6,4.6,6C5,6,5.4,6.1,5.7,6.4c0.2,0.1,0.5,0.1,0.7-0.1
		c0.1-0.2,0.1-0.5-0.1-0.7c-0.5-0.3-1-0.5-1.6-0.5c-0.3,0-0.6,0-0.9,0.1c0-0.1-0.1-0.2-0.1-0.3C3.5,4.7,3.5,4.5,3.5,4.3
		c0-0.2,0-0.4,0.1-0.6c0.1-0.2,0.2-0.4,0.4-0.5C4.2,3,4.4,2.9,4.6,2.9c0.2,0,0.4-0.1,0.6,0c0.2,0,0.4,0.1,0.6,0.2
		c0.2,0.1,0.3,0.2,0.5,0.4C6.5,3.6,6.7,3.9,6.7,4c0,0.3,0.2,0.5,0.5,0.5S7.6,4.2,7.6,4c0-0.3-0.3-0.8-0.5-1.1C7,2.8,6.9,2.7,6.9,2.6
		c0.9-0.9,2-1.4,3.2-1.4c2.4,0,4.3,2,4.3,4.4c0,0.3,0,0.5-0.1,0.8c0,0.2,0.1,0.5,0.4,0.6c0,0,0,0,0.1,0c0.2,0,0.4-0.1,0.5-0.4
		c0-0.3,0.1-0.7,0.1-1c0-0.1,0-0.2,0-0.3h0c0.5,0,1,0.2,1.4,0.6c0.4,0.4,0.6,0.9,0.6,1.4s-0.2,1-0.6,1.4c-0.4,0.4-0.9,0.6-1.4,0.6
		c-0.5,0-1.2-0.3-1.6-0.7c-0.1-0.1-0.2-0.1-0.3-0.1H7.1c-0.2,0-0.4,0.1-0.4,0.3C6.3,9.8,5.3,10,4.7,10c-0.5,0-1-0.2-1.4-0.6
		C2.9,8.9,2.7,8.5,2.7,7.9z M16.5,21.4c0,0.4-0.1,0.8-0.5,1.1c-0.3,0.3-0.7,0.5-1.1,0.5h-9c-0.4,0-0.8-0.1-1.1-0.5
		c-0.3-0.3-0.5-0.7-0.5-1.1V10.9c0.1,0,0.2,0,0.3,0c1.2,0,2.3-0.6,2.8-1.6h5.7c0.6,0.5,1.4,0.8,2.1,0.8c0.4,0,0.8-0.1,1.1-0.2
		L16.5,21.4L16.5,21.4z M21.4,17.3c0,0.6-0.2,1.2-0.7,1.7c-0.4,0.5-1.1,0.7-1.7,0.7h-1.6v-8.9H19c0.6,0,1.2,0.2,1.7,0.7
		c0.4,0.4,0.7,1.1,0.7,1.7V17.3z"/>
	<path class="st0" d="M10.4,11.5c-0.3,0-0.5,0.2-0.5,0.5v8.2c0,0.3,0.2,0.5,0.5,0.5s0.5-0.2,0.5-0.5V12
		C10.9,11.8,10.6,11.5,10.4,11.5z"/>
	<path class="st0" d="M13.6,11.5c-0.3,0-0.5,0.2-0.5,0.5v8.2c0,0.3,0.2,0.5,0.5,0.5s0.5-0.2,0.5-0.5V12
		C14.1,11.8,13.9,11.5,13.6,11.5z"/>
	<path class="st0" d="M7.1,11.5c-0.3,0-0.5,0.2-0.5,0.5v8.2c0,0.3,0.2,0.5,0.5,0.5c0.3,0,0.5-0.2,0.5-0.5V12
		C7.6,11.8,7.4,11.5,7.1,11.5z"/>
</g>
</svg>
