<?xml version="1.0" encoding="utf-8"?>
<!-- Generator: Adobe Illustrator 25.4.1, SVG Export Plug-In . SVG Version: 6.00 Build 0)  -->
<svg version="1.1" id="Capa_1" xmlns="http://www.w3.org/2000/svg" xmlns:xlink="http://www.w3.org/1999/xlink" x="0px" y="0px"
	 viewBox="0 0 24 24" style="enable-background:new 0 0 24 24;" xml:space="preserve">
<style type="text/css">
	.st0{fill:#263238;}
</style>
<g>
	<path class="st0" d="M12.9,17.5c0-0.5-0.4-0.8-0.9-0.8c-0.2,0-0.4,0-0.6,0.2c-0.1,0.1-0.3,0.3-0.3,0.5l-0.9,4.5c0,0.1,0,0.2,0,0.4
		c0,1,0.8,1.7,1.9,1.7s1.9-0.7,1.9-1.7c0-0.1,0-0.3,0-0.5L12.9,17.5z"/>
	<path class="st0" d="M19.5,19.3L16,16.9c-0.3-0.2-0.7-0.2-1,0c-0.1,0.1-0.2,0.2-0.2,0.4c0,0.1,0,0.3,0.1,0.4l2.7,3.5
		c0,0.1,0.1,0.1,0.2,0.2c0.5,0.5,1.5,0.5,2,0c0.5-0.5,0.5-1.5,0-2C19.8,19.5,19.7,19.4,19.5,19.3z"/>
	<path class="st0" d="M22.5,15.9h-3.6c-0.2,0-0.4,0.2-0.4,0.4c0,0.2,0.1,0.4,0.3,0.5l3.4,1.1c0.5,0.1,1.2-0.3,1.2-0.9
		C23.3,16.2,22.9,15.9,22.5,15.9z"/>
	<path class="st0" d="M5.5,16.3c0-0.2-0.2-0.4-0.5-0.4H1.5c-0.4,0-0.8,0.5-0.8,1c0,0.5,0.6,1,1.1,0.9l3.4-1.1
		C5.4,16.7,5.5,16.6,5.5,16.3z"/>
	<path class="st0" d="M8.5,16.7c-0.2,0-0.3,0-0.5,0.1l-3.5,2.5c-0.1,0-0.2,0.1-0.3,0.2C4,19.7,3.9,19.9,3.9,20s-0.1,0.3-0.1,0.5
		c0,0.2,0,0.4,0.1,0.5c0.1,0.1,0.2,0.3,0.3,0.4c0.3,0.2,0.6,0.4,1,0.4c0.4,0,0.7-0.1,1-0.4c0.1,0,0.1-0.1,0.2-0.2l2.7-3.5
		c0.2-0.3,0.1-0.6-0.1-0.9C8.8,16.8,8.7,16.7,8.5,16.7z"/>
	<path class="st0" d="M12.9,15.6L12.9,15.6c3,0,5.3-2.3,5.3-5.2c0-1-0.4-1.8-0.7-2.5c0.5-0.8,0.7-1.7,0.7-2.7c0-3.1-2.7-5-5.2-5.2
		c-0.1,0-0.2,0-0.3,0c-0.1,0-0.2,0.1-0.3,0.2c-0.1,0.1-0.1,0.2-0.2,0.3c0,0.1-0.1,0.2-0.1,0.3c0,0.8-0.3,1.4-0.7,2.1
		c-0.7-0.9-1.6-1.3-3-1.3c-0.2,0-0.3,0-0.5,0.1C7.7,1.9,7.6,2.1,7.6,2.3C7.6,3,7.2,3.5,6.8,4C6.4,4.5,5.9,5.1,5.9,6
		c0,0.9,0.2,1.5,0.8,2.1C6.4,8.6,6.1,9.2,6,9.8c-0.4,2.6,1,4.1,1.9,4.8c0.1,0.1,0.3,0.2,0.5,0.2c0.1,0,0.2,0,0.3,0s0.2,0,0.3,0
		c0.2,0,0.3-0.1,0.5-0.2c0.1,0,0.1-0.1,0.2-0.2C10.6,15.2,11.7,15.6,12.9,15.6z M17.2,10.4c0,2.4-1.9,4.2-4.3,4.2l0,0
		c-1,0-2-0.3-2.7-1c0.9-1.3,2.3-2,3.6-2.7c0.5-0.3,1-0.5,1.4-0.8c0.6-0.4,1.2-0.9,1.6-1.3C17.1,9.3,17.2,9.8,17.2,10.4z M12.9,1
		L12.9,1L12.9,1L12.9,1z M6.8,6c0-0.5,0.3-0.9,0.7-1.4c0.4-0.5,0.9-1.1,1-2c1.1,0,1.7,0.4,2.2,1.2c-0.5,0.6-1.1,1.1-1.6,1.7
		C8.4,6,7.8,6.6,7.3,7.3C6.9,7,6.8,6.6,6.8,6z M8.9,13.8C8.9,13.8,8.9,13.9,8.9,13.8c-0.1,0.1-0.2,0.1-0.2,0.1s-0.1,0-0.1,0
		s-0.1,0-0.1,0C7.5,13.2,6.5,12,6.8,10c0.2-1.4,1.4-2.6,2.8-3.9c1.5-1.4,3.2-3,3.3-5.2c2.1,0.2,4.2,1.7,4.2,4.2c0,1.1-0.3,2.6-2.6,4
		c-0.4,0.2-0.9,0.5-1.4,0.8C11.7,10.9,9.8,11.9,8.9,13.8z"/>
</g>
</svg>
