<?xml version="1.0" encoding="utf-8"?>
<!-- Generator: Adobe Illustrator 25.4.1, SVG Export Plug-In . SVG Version: 6.00 Build 0)  -->
<svg version="1.1" id="Capa_1" xmlns="http://www.w3.org/2000/svg" xmlns:xlink="http://www.w3.org/1999/xlink" x="0px" y="0px"
	 viewBox="0 0 24 24" style="enable-background:new 0 0 24 24;" xml:space="preserve">
<style type="text/css">
	.st0{fill:#263238;}
</style>
<g>
	<path class="st0" d="M22.5,8.9c-0.4-0.4-0.9-0.6-1.5-0.6h-5.7c-0.1,0-0.2,0-0.3,0V2.2c0-0.6-0.2-1.1-0.6-1.5s-0.9-0.6-1.5-0.6H3
		c-0.6,0-1.1,0.2-1.5,0.6S0.9,1.6,0.9,2.2v21.2c0,0.3,0.2,0.5,0.5,0.5h12.9c0,0,0,0,0.1,0c0,0,0,0,0.1,0h8.1c0.3,0,0.5-0.2,0.5-0.5
		V10.4C23.1,9.8,22.8,9.3,22.5,8.9z M1.9,2.2c0-0.3,0.1-0.6,0.3-0.8S2.7,1.1,3,1.1h9.8c0.3,0,0.6,0.1,0.8,0.3
		C13.9,1.6,14,1.9,14,2.2v7.3v13.4H8.4v-2.8c0-0.3-0.2-0.5-0.5-0.5s-0.5,0.2-0.5,0.5v2.8H1.9V2.2z M22.1,22.9h-7.2V9.5
		c0-0.1,0-0.2,0.1-0.2c0,0,0.1-0.1,0.2-0.1H21c0.3,0,0.6,0.1,0.8,0.3c0.2,0.2,0.3,0.5,0.3,0.8V22.9z"/>
	<path class="st0" d="M4.2,19.4c-0.1-0.1-0.3-0.1-0.5-0.1c-0.1,0-0.3,0.1-0.4,0.2C3.2,19.7,3.1,19.9,3,20c0,0.1,0,0.3,0.1,0.5
		s0.2,0.3,0.3,0.3c0.1,0.1,0.3,0.1,0.5,0.1c0.2,0,0.3-0.1,0.5-0.2c0.1-0.1,0.2-0.3,0.2-0.5c0-0.2,0-0.3-0.1-0.5
		C4.5,19.6,4.3,19.5,4.2,19.4z"/>
	<path class="st0" d="M4.2,15.3c-0.1-0.1-0.3-0.1-0.5-0.1c-0.1,0-0.3,0.1-0.4,0.2c-0.1,0.1-0.2,0.3-0.2,0.4c0,0.1,0,0.3,0.1,0.5
		c0.1,0.1,0.2,0.3,0.3,0.3c0.1,0.1,0.3,0.1,0.5,0.1c0.2,0,0.3-0.1,0.5-0.2c0.1-0.1,0.2-0.3,0.2-0.5c0-0.2,0-0.3-0.1-0.5
		C4.5,15.5,4.3,15.4,4.2,15.3z"/>
	<path class="st0" d="M4.2,11.3c-0.1-0.1-0.3-0.1-0.5-0.1c-0.1,0-0.3,0.1-0.4,0.2c-0.1,0.1-0.2,0.3-0.2,0.4s0,0.3,0.1,0.5
		s0.2,0.3,0.3,0.3c0.1,0.1,0.3,0.1,0.5,0.1c0.2,0,0.3-0.1,0.5-0.2c0.1-0.1,0.2-0.3,0.2-0.5c0-0.2,0-0.3-0.1-0.5
		C4.5,11.5,4.3,11.3,4.2,11.3z"/>
	<path class="st0" d="M4.2,7.2C4,7.1,3.9,7.1,3.7,7.1c-0.1,0-0.3,0.1-0.4,0.2C3.2,7.4,3.1,7.6,3,7.8c0,0.1,0,0.3,0.1,0.5
		c0.1,0.1,0.2,0.3,0.3,0.3c0.1,0.1,0.3,0.1,0.5,0.1c0.2,0,0.3-0.1,0.5-0.2C4.6,8.3,4.6,8.1,4.7,8c0-0.2,0-0.3-0.1-0.5
		C4.5,7.4,4.3,7.3,4.2,7.2z"/>
	<path class="st0" d="M4.2,3.1C4,3,3.9,3,3.7,3c-0.1,0-0.3,0.1-0.4,0.2C3.2,3.4,3.1,3.6,3,3.7C3,3.9,3,4,3.1,4.2
		c0.1,0.1,0.2,0.3,0.3,0.3c0.1,0.1,0.3,0.1,0.5,0.1c0.2,0,0.3-0.1,0.5-0.2c0.1-0.1,0.2-0.3,0.2-0.5c0-0.2,0-0.3-0.1-0.5
		C4.5,3.3,4.3,3.2,4.2,3.1z"/>
	<path class="st0" d="M7.5,16.8c0.1,0.1,0.3,0.1,0.5,0.1c0.2,0,0.3-0.1,0.5-0.2s0.2-0.3,0.2-0.5c0-0.2,0-0.3-0.1-0.5
		c-0.1-0.1-0.2-0.3-0.3-0.3c-0.1-0.1-0.3-0.1-0.5-0.1c-0.1,0-0.3,0.1-0.4,0.2c-0.1,0.1-0.2,0.3-0.2,0.4c0,0.1,0,0.3,0.1,0.5
		C7.3,16.6,7.4,16.7,7.5,16.8z"/>
	<path class="st0" d="M7.5,12.7c0.1,0.1,0.3,0.1,0.5,0.1c0.2,0,0.3-0.1,0.5-0.2s0.2-0.3,0.2-0.5c0-0.2,0-0.3-0.1-0.5
		c-0.1-0.1-0.2-0.3-0.3-0.3c-0.1-0.1-0.3-0.1-0.5-0.1c-0.1,0-0.3,0.1-0.4,0.2c-0.1,0.1-0.2,0.3-0.2,0.4c0,0.1,0,0.3,0.1,0.5
		C7.3,12.5,7.4,12.6,7.5,12.7z"/>
	<path class="st0" d="M7.5,8.6C7.7,8.7,7.9,8.7,8,8.7c0.2,0,0.3-0.1,0.5-0.2S8.7,8.2,8.7,8c0-0.2,0-0.3-0.1-0.5
		C8.5,7.4,8.4,7.2,8.3,7.2C8.1,7.1,8,7.1,7.8,7.1c-0.1,0-0.3,0.1-0.4,0.2C7.3,7.4,7.2,7.6,7.1,7.8c0,0.1,0,0.3,0.1,0.5
		C7.3,8.4,7.4,8.6,7.5,8.6z"/>
	<path class="st0" d="M7.5,4.6C7.7,4.7,7.9,4.7,8,4.7c0.2,0,0.3-0.1,0.5-0.2c0.1-0.1,0.2-0.3,0.2-0.5c0-0.2,0-0.3-0.1-0.5
		C8.5,3.3,8.4,3.2,8.3,3.1C8.1,3,8,3,7.8,3c-0.1,0-0.3,0.1-0.4,0.2C7.3,3.4,7.2,3.6,7.1,3.7c0,0.1,0,0.3,0.1,0.5
		C7.3,4.3,7.4,4.5,7.5,4.6z"/>
	<path class="st0" d="M12.3,19.4c-0.1-0.1-0.3-0.1-0.5-0.1c-0.1,0-0.3,0.1-0.4,0.2c-0.1,0.1-0.2,0.3-0.2,0.4c0,0.1,0,0.3,0.1,0.5
		c0.1,0.1,0.2,0.3,0.3,0.3c0.1,0.1,0.3,0.1,0.5,0.1c0.2,0,0.3-0.1,0.5-0.2s0.2-0.3,0.2-0.5c0-0.2,0-0.3-0.1-0.5S12.5,19.5,12.3,19.4
		z"/>
	<path class="st0" d="M12.3,15.3c-0.1-0.1-0.3-0.1-0.5-0.1c-0.1,0-0.3,0.1-0.4,0.2c-0.1,0.1-0.2,0.3-0.2,0.4c0,0.1,0,0.3,0.1,0.5
		c0.1,0.1,0.2,0.3,0.3,0.3c0.1,0.1,0.3,0.1,0.5,0.1c0.2,0,0.3-0.1,0.5-0.2s0.2-0.3,0.2-0.5c0-0.2,0-0.3-0.1-0.5
		C12.6,15.5,12.5,15.4,12.3,15.3z"/>
	<path class="st0" d="M12.3,11.3c-0.1-0.1-0.3-0.1-0.5-0.1c-0.1,0-0.3,0.1-0.4,0.2c-0.1,0.1-0.2,0.3-0.2,0.4c0,0.1,0,0.3,0.1,0.5
		c0.1,0.1,0.2,0.3,0.3,0.3c0.1,0.1,0.3,0.1,0.5,0.1c0.2,0,0.3-0.1,0.5-0.2s0.2-0.3,0.2-0.5c0-0.2,0-0.3-0.1-0.5
		C12.6,11.4,12.5,11.3,12.3,11.3z"/>
	<path class="st0" d="M12.6,8.5c0.3-0.3,0.3-0.8,0-1.2c-0.3-0.3-0.8-0.3-1.2,0c-0.3,0.3-0.3,0.8,0,1.2C11.8,8.8,12.2,8.8,12.6,8.5z"
		/>
	<path class="st0" d="M11.6,4.6c0.1,0.1,0.3,0.1,0.5,0.1c0.2,0,0.3-0.1,0.5-0.2c0.1-0.1,0.2-0.3,0.2-0.5c0-0.2,0-0.3-0.1-0.5
		c-0.1-0.1-0.2-0.3-0.3-0.3C12.2,3,12,3,11.9,3c-0.1,0-0.3,0.1-0.4,0.2c-0.1,0.1-0.2,0.3-0.2,0.4c0,0.1,0,0.3,0.1,0.5
		C11.3,4.3,11.5,4.5,11.6,4.6z"/>
	<path class="st0" d="M19.3,19.3c-0.1,0-0.3,0-0.4,0.1c-0.1,0.1-0.2,0.2-0.3,0.4c0,0.1-0.1,0.3,0,0.5c0,0.2,0.1,0.3,0.2,0.4
		c0.1,0.1,0.2,0.2,0.4,0.2c0.1,0,0.3,0,0.5,0c0.1,0,0.3-0.1,0.4-0.3s0.1-0.3,0.1-0.4c0-0.2-0.1-0.4-0.2-0.6
		C19.8,19.4,19.6,19.3,19.3,19.3z"/>
	<path class="st0" d="M19.3,15.3c-0.1,0-0.3,0-0.4,0.1c-0.1,0.1-0.2,0.2-0.3,0.4c0,0.1-0.1,0.3,0,0.5c0,0.2,0.1,0.3,0.2,0.4
		c0.1,0.1,0.2,0.2,0.4,0.2c0.1,0,0.3,0,0.5,0c0.1,0,0.3-0.1,0.4-0.3s0.1-0.3,0.1-0.4c0-0.2-0.1-0.4-0.2-0.6
		C19.8,15.3,19.6,15.3,19.3,15.3z"/>
	<path class="st0" d="M19.3,11.2c-0.1,0-0.3,0-0.4,0.1c-0.1,0.1-0.2,0.2-0.3,0.4c0,0.1-0.1,0.3,0,0.5s0.1,0.3,0.2,0.4
		c0.1,0.1,0.2,0.2,0.4,0.2c0.1,0,0.3,0,0.5,0c0.1,0,0.3-0.1,0.4-0.3c0.1-0.1,0.1-0.3,0.1-0.4c0-0.2-0.1-0.4-0.2-0.6
		C19.8,11.3,19.6,11.2,19.3,11.2z"/>
	<path class="st0" d="M16.1,19.3c-0.1,0-0.3,0-0.4,0.1c-0.1,0.1-0.2,0.2-0.3,0.4c0,0.1-0.1,0.3,0,0.5c0,0.1,0.1,0.3,0.2,0.4
		c0.1,0.1,0.2,0.2,0.4,0.2c0.1,0,0.3,0,0.5,0c0.1,0,0.3-0.1,0.4-0.3s0.1-0.3,0.1-0.4c0-0.2-0.1-0.4-0.2-0.6
		C16.5,19.4,16.3,19.3,16.1,19.3z"/>
	<path class="st0" d="M16.1,15.3c-0.1,0-0.3,0-0.4,0.1c-0.1,0.1-0.2,0.2-0.3,0.4c0,0.1-0.1,0.3,0,0.5c0,0.1,0.1,0.3,0.2,0.4
		c0.1,0.1,0.2,0.2,0.4,0.2c0.2,0,0.3,0,0.5,0c0.1,0,0.3-0.1,0.4-0.3s0.1-0.3,0.1-0.4c0-0.2-0.1-0.4-0.2-0.6
		C16.5,15.3,16.3,15.3,16.1,15.3z"/>
	<path class="st0" d="M16.1,11.2c-0.1,0-0.3,0-0.4,0.1c-0.1,0.1-0.2,0.2-0.3,0.4c0,0.1-0.1,0.3,0,0.5c0,0.1,0.1,0.3,0.2,0.4
		c0.1,0.1,0.2,0.2,0.4,0.2c0.1,0,0.3,0,0.5,0c0.1,0,0.3-0.1,0.4-0.3c0.1-0.1,0.1-0.3,0.1-0.4c0-0.2-0.1-0.4-0.2-0.6
		C16.6,11.4,16.3,11.2,16.1,11.2z"/>
</g>
</svg>
