<?xml version="1.0" encoding="utf-8"?>
<!-- Generator: Adobe Illustrator 25.4.1, SVG Export Plug-In . SVG Version: 6.00 Build 0)  -->
<svg version="1.1" id="Capa_1" xmlns="http://www.w3.org/2000/svg" xmlns:xlink="http://www.w3.org/1999/xlink" x="0px" y="0px"
	 viewBox="0 0 24 24" style="enable-background:new 0 0 24 24;" xml:space="preserve">
<style type="text/css">
	.st0{fill:#263238;}
</style>
<g>
	<g>
		<path class="st0" d="M3.2,23.9c-0.4,0-0.8-0.1-1.1-0.2s-0.8-0.4-1-0.7c-0.3-0.3-0.5-0.7-0.7-1c-0.1-0.4-0.2-0.8-0.2-1.2
			c0-0.4,0.1-0.9,0.3-1.2s0.4-0.7,0.8-1l9.1-8.3c0.2-0.1,0.3-0.4,0.4-0.6c0-0.2,0-0.5,0-0.7C9.9,6.1,10.4,3.6,12,2
			c1.8-1.9,4.8-2.4,7.1-1.4l0.1,0l0.1,0.1c0,0,0.1,0.1,0.1,0.2v0.1l0,0.1c0,0.1-0.1,0.1-0.1,0.2l-3.3,3.3c-0.2,0.2-0.4,0.6-0.4,0.9
			c0,0.3,0.1,0.7,0.4,0.9L17.4,8c0.5,0.5,1.3,0.5,1.8,0l3.4-3.4l0.1,0c0,0,0.1,0,0.2,0h0.1l0.1,0.1c0,0,0.1,0.1,0.1,0.2
			c1,1.9,0.6,5.2-1.4,7.2c-1.6,1.5-4,2-6.8,1.3c-0.2,0-0.5,0-0.7,0c-0.2,0-0.4,0.2-0.6,0.4l-8.4,9.2c-0.3,0.3-0.6,0.6-1,0.8
			c-0.4,0.2-0.8,0.3-1.2,0.3C3.3,23.9,3.3,23.9,3.2,23.9z M16.6,1.1c-1.5,0-2.9,0.6-4,1.6c-1.9,1.9-1.4,4.8-1,5.9
			c0.1,0.4,0.1,0.8,0,1.2c-0.1,0.4-0.3,0.8-0.6,1l-9.2,8.3c-0.2,0.2-0.4,0.4-0.5,0.7c-0.1,0.3-0.2,0.6-0.2,0.9c0,0.3,0,0.6,0.1,0.9
			c0.1,0.3,0.3,0.5,0.5,0.7c0.2,0.2,0.5,0.4,0.7,0.5c0.3,0.1,0.6,0.2,0.9,0.2c0.3,0,0.6-0.1,0.9-0.2c0.3-0.1,0.5-0.3,0.7-0.5
			l8.5-9.2c0.3-0.3,0.6-0.5,1-0.6s0.8-0.1,1.2,0c1.1,0.3,3.9,0.8,5.8-1c1.5-1.5,1.9-3.9,1.4-5.5L20,8.7c-0.4,0.4-1,0.7-1.6,0.7
			c-0.6,0-1.1-0.2-1.6-0.7l-1.5-1.5c-0.4-0.4-0.7-1-0.7-1.6s0.2-1.1,0.7-1.6l2.9-2.9C17.6,1.1,17.2,1.1,16.6,1.1z M19.6,8.4
			L19.6,8.4L19.6,8.4z M18.7,1.5L18.7,1.5L18.7,1.5z"/>
	</g>
	<g>
		<path class="st0" d="M3.3,21.7c0.5,0,0.9-0.4,0.9-0.9c0-0.5-0.4-0.9-0.9-0.9s-0.9,0.4-0.9,0.9C2.4,21.3,2.8,21.7,3.3,21.7z"/>
	</g>
</g>
</svg>
