<?xml version="1.0" encoding="utf-8"?>
<!-- Generator: Adobe Illustrator 25.4.1, SVG Export Plug-In . SVG Version: 6.00 Build 0)  -->
<svg version="1.1" id="Capa_1" xmlns="http://www.w3.org/2000/svg" xmlns:xlink="http://www.w3.org/1999/xlink" x="0px" y="0px"
	 viewBox="0 0 24 24" style="enable-background:new 0 0 24 24;" xml:space="preserve">
<style type="text/css">
	.st0{fill:#263238;}
</style>
<g>
	<path class="st0" d="M18.2,16.8c-0.8,0-1.3,0.6-1.3,1.3c0,0.7,0.6,1.3,1.3,1.3c0.7,0,1.3-0.6,1.3-1.3C19.6,17.5,19,16.8,18.2,16.8z
		 M18.2,18.6c-0.2,0-0.4-0.2-0.4-0.4c0-0.2,0.2-0.4,0.4-0.4s0.4,0.2,0.4,0.4C18.6,18.4,18.5,18.6,18.2,18.6z"/>
	<path class="st0" d="M5.9,16.8c-0.8,0-1.3,0.6-1.3,1.3c0,0.7,0.6,1.3,1.3,1.3s1.3-0.6,1.3-1.3C7.2,17.5,6.7,16.8,5.9,16.8z
		 M5.9,18.6c-0.2,0-0.4-0.2-0.4-0.4c0-0.2,0.2-0.4,0.4-0.4c0.2,0,0.4,0.2,0.4,0.4C6.3,18.4,6.1,18.6,5.9,18.6z"/>
	<path class="st0" d="M22.1,2.3L22.1,2.3c0-0.6-0.1-1.1-0.5-1.6C21.2,0.3,20.6,0,20,0H4.1C3.5,0,3,0.3,2.5,0.7s-0.7,1-0.7,1.6l0,0
		v3.5v7.1v3.5v1.8V20c0,0.7,0.3,1.3,0.9,1.8V23c0,0.3,0.1,0.5,0.3,0.7C3.3,23.9,3.5,24,3.8,24h1.5c0.3,0,0.5-0.1,0.7-0.3
		c0.2-0.2,0.3-0.4,0.3-0.7v-0.7h11.4V23c0,0.3,0.1,0.5,0.3,0.7s0.4,0.3,0.7,0.3h1.5c0.3,0,0.5-0.1,0.7-0.3c0.2-0.2,0.3-0.4,0.3-0.7
		v-1.2c0.5-0.4,0.9-1.1,0.9-1.8v-1.8l0,0V2.3L22.1,2.3z M5.9,21.2H4.1c-0.7,0-1.3-0.6-1.3-1.3v-1.8v-1.8c0-0.7,0.6-1.3,1.3-1.3H20
		c0.7,0,1.3,0.6,1.3,1.3v3.5c0,0.7-0.6,1.3-1.3,1.3h-1.8H5.9z M2.8,5.8c0-0.7,0.6-1.3,1.3-1.3l0,0h7.5v9.7H4.1
		c-0.7,0-1.3-0.6-1.3-1.3V5.8z M21.3,5.8v7.1c0,0.7-0.6,1.3-1.3,1.3h-7.5V4.5H20l0,0l0,0C20.7,4.5,21.3,5.1,21.3,5.8z M4.1,1H20
		c0.3,0,0.7,0.1,0.9,0.4c0.2,0.2,0.4,0.6,0.4,0.9S21.2,3,20.9,3.2c-0.2,0.2-0.6,0.4-0.9,0.4l0,0H4.1l0,0c-0.3,0-0.7-0.1-0.9-0.4
		S2.8,2.6,2.8,2.3S3,1.6,3.2,1.4S3.8,1,4.1,1z M5.4,22.9L5.4,22.9L5.4,22.9l-1.6,0h0v0v-0.7h0.4h1.3V22.9z M20.4,22.2v0.7v0h0h-1.5
		h0v0v-0.7h1.3H20.4z"/>
</g>
</svg>
