<?xml version="1.0" encoding="utf-8"?>
<!-- Generator: Adobe Illustrator 25.4.1, SVG Export Plug-In . SVG Version: 6.00 Build 0)  -->
<svg version="1.1" id="Capa_1" xmlns="http://www.w3.org/2000/svg" xmlns:xlink="http://www.w3.org/1999/xlink" x="0px" y="0px"
	 viewBox="0 0 24 24" style="enable-background:new 0 0 24 24;" xml:space="preserve">
<style type="text/css">
	.st0{fill:#263238;}
</style>
<g>
	<path class="st0" d="M23.6,1.9c-0.2-0.3-0.6-0.4-1-0.4h-3.8H2.4c-0.3,0-0.5,0.2-0.5,0.5v11.5c0,1.4,0.5,2.7,1.5,3.7
		s2.3,1.5,3.7,1.5h6.7c0.7,0,1.4-0.1,2-0.4c0.6-0.3,1.2-0.7,1.7-1.2c0.5-0.5,0.9-1.1,1.2-1.7c0.3-0.6,0.4-1.3,0.4-2V8.2h1.5
		c0.9,0,1.7-0.3,2.3-1c0.6-0.6,1-1.4,1-2.3v-2C24,2.5,23.9,2.1,23.6,1.9z M18.2,13.4c0,0.6-0.1,1.1-0.3,1.6c-0.2,0.5-0.5,1-1,1.4
		c-0.4,0.4-0.9,0.7-1.4,1c-0.5,0.2-1.1,0.3-1.6,0.3H7.2c-1.2,0-2.3-0.4-3.1-1.2c-0.8-0.8-1.2-1.9-1.2-3.1v-11h15.4V13.4z M23,4.9
		c0,0.6-0.2,1.2-0.7,1.6c-0.4,0.4-1,0.7-1.6,0.7h-1.5V2.4h3.4c0.1,0,0.2,0,0.3,0.1C23,2.6,23,2.7,23,2.9V4.9z"/>
	<path class="st0" d="M20.6,21.6H0.5c-0.3,0-0.5,0.2-0.5,0.5s0.2,0.5,0.5,0.5h20.2c0.3,0,0.5-0.2,0.5-0.5S20.9,21.6,20.6,21.6z"/>
</g>
</svg>
