<?xml version="1.0" encoding="utf-8"?>
<!-- Generator: Adobe Illustrator 25.4.1, SVG Export Plug-In . SVG Version: 6.00 Build 0)  -->
<svg version="1.1" id="Capa_1" xmlns="http://www.w3.org/2000/svg" xmlns:xlink="http://www.w3.org/1999/xlink" x="0px" y="0px"
	 viewBox="0 0 24 24" style="enable-background:new 0 0 24 24;" xml:space="preserve">
<style type="text/css">
	.st0{fill:#263238;}
</style>
<g>
	<path class="st0" d="M23.3,10.6L23.3,10.6c-0.2-0.3-0.6-0.5-1-0.7c-0.3-0.1-0.6-0.3-0.9-0.5c0,0,0,0-0.1-0.1
		c-0.1,0-0.1-0.1-0.2-0.2h0.7c0.2,0,0.4-0.1,0.4-0.4c0-0.2-0.1-0.4-0.4-0.4H21c-0.1,0-0.2,0-0.3,0.1c-0.1-0.1-0.1-0.3-0.2-0.5
		c-0.5-1-1-2.3-2.3-2.9c-1.5-0.8-4.3-1-6.2-1c-0.7,0-4.3,0-6.2,1C4.5,5.8,4,7,3.5,8C3.4,8.1,3.3,8.3,3.2,8.5c0,0-0.1-0.1-0.2-0.1
		H2.1C2,8.4,1.8,8.5,1.8,8.8c0,0.2,0.1,0.4,0.4,0.4h0.7c0,0.1-0.1,0.1-0.2,0.2c0,0,0,0-0.1,0C2.2,9.6,2,9.8,1.7,10
		c-0.4,0.2-0.8,0.4-1,0.7c-0.5,0.7-0.7,4.2-0.6,5.5c0.1,1.6,0.5,2.5,0.5,2.6c0,0.2,0.2,0.3,0.5,0.3h0.2v0.3c0,0.3,0.2,0.5,0.5,0.5
		h2.9c0.3,0,0.5-0.2,0.5-0.5V19h0.3c0.4,0,0.7,0,1-0.1s0.8-0.2,1.5-0.2c1.6-0.1,3.1-0.2,4.1-0.2c0.9,0,2.6,0,4.1,0.2
		c0.8,0,1.1,0.2,1.5,0.2c0.3,0.1,0.6,0.1,1,0.1h0.3v0.3c0,0.3,0.2,0.5,0.5,0.5h2.9c0.3,0,0.5-0.2,0.5-0.5V19H23
		c0.2,0,0.4-0.1,0.5-0.3c0,0,0.3-1,0.5-2.6C24,14.8,23.9,11.3,23.3,10.6z M6.2,6C7.4,5.4,10,5.1,12,5.1s4.5,0.3,5.8,0.9
		c1,0.5,1.4,1.5,1.9,2.4C19.8,8.6,19.9,8.8,20,9c-1.3-0.2-3.9-0.4-8-0.4S5.4,8.8,4,9c0.1-0.2,0.2-0.4,0.3-0.6C4.8,7.5,5.2,6.5,6.2,6
		z M23,16c-0.1,1-0.2,1.7-0.3,2h-0.4l0,0h-2.9l0,0h-0.8c-0.3,0-0.5,0-0.8-0.1c-0.3-0.1-0.8-0.2-1.6-0.3c-1.6-0.1-3.2-0.2-4.2-0.2
		c-1,0-2.6,0-4.2,0.2C7,17.8,6.5,17.9,6.2,18c-0.3,0.1-0.5,0.1-0.8,0.1H4.6l0,0H1.8l0,0H1.4C1.3,17.7,1.1,17,1,16
		c-0.2-1.6,0.1-4.5,0.4-4.9c0.1-0.1,0.4-0.3,0.7-0.5c0.3-0.1,0.7-0.4,1-0.6C3.6,10,6.2,9.5,12,9.5c5.8,0,8.3,0.5,8.9,0.6
		c0.3,0.2,0.7,0.4,1,0.6c0.3,0.1,0.6,0.3,0.7,0.5C22.8,11.6,23.1,14.4,23,16z"/>
	<path class="st0" d="M15,13.9c-1.3-0.2-1.8-0.2-3-0.2s-1.7,0.1-3,0.2c-1.2,0.1-2.2,0.4-2.6,0.9c-0.6,0.6,0.3,1.2,1,1.3
		c0.7,0.1,2,0,4.6,0s3.9,0,4.6,0c0.7-0.1,1.5-0.7,1-1.3C17.2,14.4,16.3,14.1,15,13.9z"/>
	<path class="st0" d="M21,11.2C20.9,11.2,20.9,11.2,21,11.2c-0.7,0-1.3,0-2.4,0.3C18,11.7,17.4,12,17,12.3c-0.1,0.1-0.1,0.3,0,0.4
		c0.9,0.1,1.8,0.1,2.7,0.1c0.5,0,1.1-0.1,1.2-0.6C21,11.9,21,11.6,21,11.2C21,11.3,21,11.2,21,11.2z"/>
	<path class="st0" d="M7,12.3c-0.5-0.3-1-0.6-1.5-0.8c-1.1-0.3-1.7-0.4-2.3-0.3c0,0-0.1,0-0.1,0c0,0,0,0,0,0.1c0,0.3,0,0.6,0,0.9
		c0.1,0.5,0.7,0.6,1.2,0.6c0.9,0,1.8,0,2.7-0.1C7.1,12.6,7.1,12.4,7,12.3z"/>
</g>
</svg>
