<?xml version="1.0" encoding="utf-8"?>
<!-- Generator: Adobe Illustrator 25.4.1, SVG Export Plug-In . SVG Version: 6.00 Build 0)  -->
<svg version="1.1" id="Capa_1" xmlns="http://www.w3.org/2000/svg" xmlns:xlink="http://www.w3.org/1999/xlink" x="0px" y="0px"
	 viewBox="0 0 24 24" style="enable-background:new 0 0 24 24;" xml:space="preserve">
<style type="text/css">
	.st0{fill:#263238;}
</style>
<g>
	<path class="st0" d="M24,9.8C24,9.8,24,9.7,24,9.8L24,9.8L21.5,4c-0.5-1.1-1.7-1.8-3-1.8h-13C4.2,2.1,3,2.9,2.5,4L0,9.7l0,0
		c0,0,0,0,0,0.1c0,0,0,0,0,0.1l0,0v9.4v2.1c0,0.3,0.2,0.5,0.5,0.5h2.1c0.3,0,0.5-0.2,0.5-0.5v-1.6h17.8v1.6c0,0.3,0.2,0.5,0.5,0.5
		h2.1c0.3,0,0.5-0.2,0.5-0.5v-2.1l0,0V9.8L24,9.8C24,9.9,24,9.9,24,9.8z M1,18.8v-8.4h22v8.4H1z M3.4,4.3c0.3-0.8,1.2-1.3,2.1-1.3
		h12.9c1,0,1.8,0.5,2.1,1.3l2.2,5.1H1.2L3.4,4.3z M2.1,20.9H1v-1.1h1.1V20.9z M21.9,20.9v-1.1H23v1.1H21.9z"/>
	<path class="st0" d="M4.7,12.6c-0.8,0-1.5,0.7-1.5,1.5s0.7,1.5,1.5,1.5s1.5-0.7,1.5-1.5S5.5,12.6,4.7,12.6z M4.7,14.6
		c-0.3,0-0.6-0.2-0.6-0.6s0.2-0.6,0.6-0.6c0.3,0,0.6,0.2,0.6,0.6S5,14.6,4.7,14.6z"/>
	<path class="st0" d="M19.3,12.6c-0.8,0-1.5,0.7-1.5,1.5s0.7,1.5,1.5,1.5s1.5-0.7,1.5-1.5S20.1,12.6,19.3,12.6z M19.3,14.6
		c-0.3,0-0.6-0.2-0.6-0.6s0.2-0.6,0.6-0.6c0.3,0,0.6,0.2,0.6,0.6S19.6,14.6,19.3,14.6z"/>
</g>
</svg>
