<?xml version="1.0" encoding="utf-8"?>
<!-- Generator: Adobe Illustrator 25.4.1, SVG Export Plug-In . SVG Version: 6.00 Build 0)  -->
<svg version="1.1" id="Capa_1" xmlns="http://www.w3.org/2000/svg" xmlns:xlink="http://www.w3.org/1999/xlink" x="0px" y="0px"
	 viewBox="0 0 24 24" style="enable-background:new 0 0 24 24;" xml:space="preserve">
<style type="text/css">
	.st0{fill:#263238;}
</style>
<g>
	<path class="st0" d="M20.3,2.7H3.6c-2,0-3.6,1.6-3.6,3.6v11.4c0,2,1.6,3.6,3.6,3.6h16.7c2,0,3.6-1.6,3.6-3.6V6.3
		C23.9,4.3,22.3,2.7,20.3,2.7z M3.6,3.7h16.7c1.4,0,2.6,1.2,2.6,2.6V8H1V6.3C1,4.8,2.2,3.7,3.6,3.7z M20.3,20.3H3.6
		c-1.4,0-2.6-1.2-2.6-2.6V8.9h21.9v8.8C22.9,19.2,21.8,20.3,20.3,20.3z"/>
	<path class="st0" d="M7,14.4H5.5c-0.3,0-0.6,0.2-0.6,0.6c0,0.3,0.2,0.6,0.6,0.6H7c0.3,0,0.6-0.2,0.6-0.6C7.6,14.7,7.4,14.4,7,14.4z
		"/>
</g>
</svg>
