<?xml version="1.0" encoding="utf-8"?>
<!-- Generator: Adobe Illustrator 25.4.1, SVG Export Plug-In . SVG Version: 6.00 Build 0)  -->
<svg version="1.1" id="Capa_1" xmlns="http://www.w3.org/2000/svg" xmlns:xlink="http://www.w3.org/1999/xlink" x="0px" y="0px"
	 viewBox="0 0 24 24" style="enable-background:new 0 0 24 24;" xml:space="preserve">
<style type="text/css">
	.st0{fill:#263238;}
</style>
<g>
	<path class="st0" d="M7.9,19.9c-0.8,0-1.4,0.6-1.4,1.4c0,0.8,0.6,1.4,1.4,1.4s1.4-0.6,1.4-1.4C9.3,20.5,8.6,19.9,7.9,19.9z
		 M7.9,21.7c-0.2,0-0.4-0.2-0.4-0.4s0.2-0.4,0.4-0.4c0.2,0,0.4,0.2,0.4,0.4S8.1,21.7,7.9,21.7z"/>
	<path class="st0" d="M20.8,19.9c-0.8,0-1.4,0.6-1.4,1.4c0,0.8,0.6,1.4,1.4,1.4c0.8,0,1.4-0.6,1.4-1.4
		C22.2,20.5,21.6,19.9,20.8,19.9z M20.8,21.7c-0.2,0-0.4-0.2-0.4-0.4s0.2-0.4,0.4-0.4s0.4,0.2,0.4,0.4S21,21.7,20.8,21.7z"/>
	<path class="st0" d="M23.9,4.9c0-0.1-0.1-0.2-0.2-0.4c-0.1-0.1-0.2-0.2-0.3-0.2S23.1,4.1,23,4.1H5.1c0,0,0,0,0,0L4.6,1.8
		c0-0.2-0.2-0.4-0.5-0.4H0.5C0.2,1.4,0,1.6,0,1.9s0.2,0.5,0.5,0.5h3.3l2.7,15.3C6.5,17.9,6.7,18,7,18h14.8c0.3,0,0.5-0.2,0.5-0.5
		s-0.2-0.5-0.5-0.5H7.4l-0.5-2.7c0,0,0,0,0.1,0h14.4c0.2,0,0.4-0.1,0.6-0.2c0.2-0.1,0.3-0.3,0.3-0.5L24,5.3C24,5.2,24,5,23.9,4.9z
		 M21.4,13.4H7c-0.1,0-0.1,0-0.2,0.1L5.3,5.2H23L21.4,13.4z"/>
</g>
</svg>
