<?xml version="1.0" encoding="utf-8"?>
<!-- Generator: Adobe Illustrator 25.4.1, SVG Export Plug-In . SVG Version: 6.00 Build 0)  -->
<svg version="1.1" id="Capa_1" xmlns="http://www.w3.org/2000/svg" xmlns:xlink="http://www.w3.org/1999/xlink" x="0px" y="0px"
	 viewBox="0 0 24 24" style="enable-background:new 0 0 24 24;" xml:space="preserve">
<style type="text/css">
	.st0{fill:#263238;}
</style>
<g>
	<path class="st0" d="M22.7,2.5h-3.3l0,0l0,0H4.6l0,0l0,0H1.3C0.6,2.5,0,3.1,0,3.8v3.3l0,0l0,0V12l0,0l0,0v3.3
		c0,0.7,0.6,1.3,1.3,1.3h21.4c0.7,0,1.3-0.6,1.3-1.3V3.8C24,3.1,23.4,2.5,22.7,2.5z M4.7,14.3c-0.2-0.5-0.6-1.1-1-1.5
		c-0.4-0.4-0.9-0.8-1.5-1c-0.4-0.1-0.8-0.3-1.3-0.3v-4c0.4,0,0.9-0.1,1.3-0.3c0.5-0.2,1.1-0.6,1.5-1c0.4-0.4,0.8-0.9,1-1.5
		C4.9,4.3,5,3.8,5.1,3.4H19c0.1,1,0.6,2,1.3,2.8C21,6.9,22,7.4,23.1,7.5v4c-1,0.1-2,0.6-2.8,1.3c-0.7,0.7-1.2,1.7-1.3,2.8H5.1
		C5,15.2,4.9,14.7,4.7,14.3z M23,3.8v2.8c-0.8-0.1-1.5-0.4-2.1-1c-0.6-0.6-0.9-1.3-1-2.1h2.8C22.9,3.4,23,3.6,23,3.8z M1.3,3.4h2.8
		C4.1,3.7,4,4,3.9,4.3C3.7,4.8,3.4,5.2,3.1,5.5C2.7,5.8,2.3,6.1,1.9,6.3C1.6,6.4,1.3,6.5,1,6.5V3.7C1,3.6,1.1,3.4,1.3,3.4z M1,15.3
		v-2.8c0.3,0,0.6,0.1,0.9,0.2c0.4,0.2,0.8,0.4,1.2,0.8c0.3,0.3,0.6,0.7,0.8,1.2C3.9,15,4,15.3,4.1,15.6H1.3C1.1,15.6,1,15.5,1,15.3z
		 M22.7,15.6h-2.8c0.1-0.8,0.4-1.5,1-2.1c0.6-0.6,1.3-0.9,2.1-1v2.8C23,15.5,22.9,15.6,22.7,15.6z"/>
	<path class="st0" d="M21.8,18.1H2.2c-0.3,0-0.5,0.2-0.5,0.5s0.2,0.5,0.5,0.5h19.7c0.3,0,0.5-0.2,0.5-0.5S22.1,18.1,21.8,18.1z"/>
	<path class="st0" d="M20.2,20.6H3.8c-0.3,0-0.5,0.2-0.5,0.5c0,0.3,0.2,0.5,0.5,0.5h16.4c0.3,0,0.5-0.2,0.5-0.5
		C20.7,20.7,20.5,20.6,20.2,20.6z"/>
	<path class="st0" d="M12,4.9C9.4,4.9,7.4,7,7.4,9.5s2.1,4.6,4.6,4.6s4.6-2.1,4.6-4.6C16.6,7,14.5,4.9,12,4.9z M12,13.2
		c-2,0-3.6-1.6-3.6-3.6S10,5.9,12,5.9s3.6,1.6,3.6,3.6C15.6,11.5,14,13.2,12,13.2z"/>
</g>
</svg>
