<?xml version="1.0" encoding="utf-8"?>
<!-- Generator: Adobe Illustrator 25.4.1, SVG Export Plug-In . SVG Version: 6.00 Build 0)  -->
<svg version="1.1" id="Capa_1" xmlns="http://www.w3.org/2000/svg" xmlns:xlink="http://www.w3.org/1999/xlink" x="0px" y="0px"
	 viewBox="0 0 24 24" style="enable-background:new 0 0 24 24;" xml:space="preserve">
<style type="text/css">
	.st0{fill:#263238;}
</style>
<g>
	<path class="st0" d="M22.3,13.9c-0.3-0.8-0.7-1.5-1.3-2.1c-0.6-0.6-1.3-1.1-2-1.4c-0.2-0.1-0.4-0.1-0.6-0.2l0.8-8.8
		c0-0.1,0-0.3-0.1-0.4c-0.7-0.6-1.6-1-2.4-1c-0.9,0-1.8,0.3-2.4,1C14.1,1.1,14,1.3,14,1.4l0.6,8.9c-0.1,0-0.3,0.1-0.4,0.1
		c-0.8,0.3-1.5,0.8-2,1.4c-0.6,0.6-1,1.3-1.3,2.1c-0.3,0.8-0.4,1.6-0.4,2.4v7c0,0.3,0.2,0.5,0.5,0.5h11.4c0.3,0,0.5-0.2,0.5-0.5
		v-7.1C22.8,15.6,22.7,14.7,22.3,13.9z M14.9,1.6c0.9-0.7,2.3-0.7,3.2,0l-0.8,8.5c-0.6-0.1-1.3-0.1-1.9,0L14.9,1.6z M21.8,22.9H11.3
		v-6.6c0-0.7,0.1-1.4,0.3-2c0.2-0.7,0.6-1.3,1.1-1.8c0.5-0.5,1.1-0.9,1.7-1.2c1.3-0.5,2.8-0.5,4.1,0c0.6,0.3,1.2,0.7,1.7,1.2
		s0.9,1.1,1.1,1.8c0.2,0.7,0.4,1.4,0.3,2L21.8,22.9L21.8,22.9z"/>
	<path class="st0" d="M18,3.1c0-0.8-0.6-1.4-1.4-1.4c-0.8,0-1.4,0.6-1.4,1.4s0.6,1.4,1.4,1.4C17.3,4.5,18,3.9,18,3.1z M16.2,3.1
		c0-0.2,0.2-0.4,0.4-0.4c0.2,0,0.4,0.2,0.4,0.4s-0.2,0.4-0.5,0.4C16.3,3.5,16.2,3.3,16.2,3.1z"/>
	<path class="st0" d="M6.9,0.7L2.2,1.4c-0.2,0-0.4,0.2-0.4,0.5v18.3l-0.6,3.2c0,0.2,0.1,0.5,0.4,0.6c0,0,0,0,0.1,0
		c0.2,0,0.4-0.1,0.5-0.4l0.5-3.2c0,0,0,0,0-0.1v-6h4.2c0.3,0,0.5-0.2,0.5-0.5V1.1c0-0.1,0-0.3-0.2-0.4C7.2,0.7,7,0.6,6.9,0.7z
		 M2.7,13.3v-11l3.7-0.6V3l-3,0.4C3.2,3.4,3,3.7,3.1,3.9c0,0.2,0.2,0.4,0.5,0.4h0L6.5,4v1.8H3.6C3.3,5.8,3.1,6,3.1,6.3
		c0,0.3,0.2,0.5,0.5,0.5h2.9v1.4l-3,0.4c-0.2,0-0.4,0.3-0.4,0.5c0,0.2,0.2,0.4,0.5,0.4h0l2.9-0.4V11H3.6c-0.3,0-0.5,0.2-0.5,0.5
		c0,0.3,0.2,0.5,0.5,0.5h2.9v1.4L2.7,13.3L2.7,13.3z"/>
</g>
</svg>
