<?xml version="1.0" encoding="utf-8"?>
<!-- Generator: Adobe Illustrator 25.4.1, SVG Export Plug-In . SVG Version: 6.00 Build 0)  -->
<svg version="1.1" id="Capa_1" xmlns="http://www.w3.org/2000/svg" xmlns:xlink="http://www.w3.org/1999/xlink" x="0px" y="0px"
	 viewBox="0 0 24 24" style="enable-background:new 0 0 24 24;" xml:space="preserve">
<style type="text/css">
	.st0{fill:#263238;}
</style>
<g>
	<path class="st0" d="M22.9,2.8c0-0.1-0.2-0.3-0.3-0.4c-0.1-0.1-0.3-0.1-0.4-0.2c-0.1,0-0.3,0-0.5,0l-4,1V2.4c0-0.6-0.2-1.3-0.7-1.7
		c-0.4-0.4-1-0.7-1.7-0.7H3.1C2.9,0,2.6,0,2.3,0.1S1.8,0.4,1.6,0.6C1.4,0.8,1.2,1,1.1,1.3C1,1.6,1,1.9,1,2.1v21.4
		C1,23.8,1.2,24,1.5,24S2,23.8,2,23.5v-1.3h14.7v1.3c0,0.3,0.2,0.5,0.5,0.5c0.3,0,0.5-0.2,0.5-0.5v-4.1l4,1c0.1,0,0.2,0,0.2,0
		s0.1,0,0.2,0c0.1,0,0.3-0.1,0.4-0.2c0.1-0.1,0.2-0.2,0.3-0.4s0.1-0.3,0.1-0.4V3.2C23,3.1,23,2.9,22.9,2.8z M2,4.3h6.9v14H2V4.3z
		 M16.7,4.3v1.8H9.8V4.3H16.7z M9.8,7.1h1.7v1.5c0,0.3,0.2,0.5,0.5,0.5c0.3,0,0.5-0.2,0.5-0.5V7.1H14v1.5c0,0.3,0.2,0.5,0.5,0.5
		S15,8.9,15,8.6V7.1h1.7v11.2H9.8V7.1z M2.1,1.7c0-0.1,0.1-0.2,0.2-0.4C2.4,1.2,2.6,1.1,2.7,1C2.8,1,3,1,3.1,1h12.2
		c0.4,0,0.7,0.1,1,0.4s0.4,0.6,0.4,1v0.9H2V2.1C2,2,2,1.8,2.1,1.7z M2,19.3h6.9v2H2V19.3z M9.8,21.3v-2h6.9v2H9.8z M22,19.5
		l-4.3-1.1V6.6l0,0l0,0V4.2l4.3-1h0l0,0L22,19.5L22,19.5l0.3,0.3L22,19.5z"/>
	<path class="st0" d="M6.7,9.5c-0.3,0-0.5,0.2-0.5,0.5v2.7c0,0.3,0.2,0.5,0.5,0.5c0.3,0,0.5-0.2,0.5-0.5V9.9C7.2,9.6,7,9.5,6.7,9.5z
		"/>
</g>
</svg>
