<?xml version="1.0" encoding="utf-8"?>
<!-- Generator: Adobe Illustrator 25.4.1, SVG Export Plug-In . SVG Version: 6.00 Build 0)  -->
<svg version="1.1" id="Capa_1" xmlns="http://www.w3.org/2000/svg" xmlns:xlink="http://www.w3.org/1999/xlink" x="0px" y="0px"
	 viewBox="0 0 24 24" style="enable-background:new 0 0 24 24;" xml:space="preserve">
<style type="text/css">
	.st0{fill:#263238;}
</style>
<g>
	<path class="st0" d="M23,2.1c0-1.1-0.9-2.1-2.1-2.1c-0.8,0-1.5,0.5-1.9,1.2H4.9c-0.3-0.7-1-1.2-1.8-1.2C1.9,0.1,1,1,1,2.1
		c0,1,0.8,1.9,1.7,2v17.7c0,0.6,0.2,1.1,0.6,1.5c0.4,0.4,1,0.6,1.5,0.6s1.1-0.2,1.5-0.6c0,0,0.1-0.1,0.2-0.2c0,0,0.1,0.1,0.1,0.2
		c0.2,0.2,0.4,0.3,0.7,0.5c0.2,0.1,0.5,0.1,0.8,0.1c0.3,0,0.6,0,0.8-0.1c0.2-0.1,0.5-0.2,0.7-0.5c0.2-0.2,0.3-0.4,0.5-0.7
		c0.1-0.2,0.1-0.5,0.1-0.8V2.3h3.3v19.5c0,0.3,0,0.6,0.1,0.8c0.1,0.2,0.2,0.5,0.5,0.7c0.2,0.2,0.4,0.3,0.7,0.5
		c0.2,0.1,0.5,0.1,0.8,0.1c0.3,0,0.6,0,0.8-0.1c0.2-0.1,0.5-0.2,0.7-0.5c0,0,0.1-0.1,0.1-0.2c0,0,0.1,0.1,0.1,0.2
		c0.4,0.4,1,0.6,1.5,0.6s1.1-0.2,1.5-0.6s0.6-1,0.6-1.5V4.1C22.3,3.9,23,3.1,23,2.1z M2,2.1C2,1.5,2.5,1,3.1,1s1.1,0.5,1.1,1.1
		S3.7,3.2,3.1,3.2S2,2.7,2,2.1z M5.8,22.6c-0.4,0.4-1.2,0.4-1.7,0c-0.2-0.2-0.3-0.5-0.3-0.9V4c0.8-0.2,1.3-1,1.4-1.8h1v19.5
		C6.1,22.1,5.9,22.4,5.8,22.6z M9.4,21.7c0,0.1,0,0.3-0.1,0.4c0,0.1-0.1,0.3-0.2,0.4c-0.1,0.1-0.2,0.2-0.4,0.2
		c-0.3,0.1-0.6,0.1-0.9,0c-0.1,0-0.3-0.1-0.4-0.2c-0.1-0.1-0.2-0.2-0.2-0.4S7,21.9,7,21.7c0,0,0-0.1,0-0.1V2.2h2.3V21.7z M16.9,22.2
		c0,0.1-0.1,0.3-0.2,0.4c-0.1,0.1-0.2,0.2-0.4,0.2c-0.3,0.1-0.6,0.1-0.9,0c-0.1,0-0.3-0.1-0.4-0.2c-0.1-0.1-0.2-0.2-0.2-0.4
		c0-0.1-0.1-0.3-0.1-0.4V2.3H17v19.5v0C17,21.9,16.9,22.1,16.9,22.2z M20,22.6c-0.2,0.2-0.5,0.3-0.9,0.3c-0.3,0-0.6-0.1-0.9-0.3
		s-0.3-0.5-0.3-0.9V2.2h1c0,0.9,0.6,1.6,1.4,1.8v17.7C20.3,22.1,20.2,22.4,20,22.6z M20.9,3.2c-0.6,0-1.1-0.5-1.1-1.1S20.3,1,20.9,1
		S22,1.5,22,2.1S21.5,3.2,20.9,3.2z"/>
</g>
</svg>
