<?xml version="1.0" encoding="utf-8"?>
<!-- Generator: Adobe Illustrator 25.4.1, SVG Export Plug-In . SVG Version: 6.00 Build 0)  -->
<svg version="1.1" id="Capa_1" xmlns="http://www.w3.org/2000/svg" xmlns:xlink="http://www.w3.org/1999/xlink" x="0px" y="0px"
	 viewBox="0 0 24 24" style="enable-background:new 0 0 24 24;" xml:space="preserve">
<style type="text/css">
	.st0{fill:#263238;}
</style>
<g>
	<path class="st0" d="M23.1,0H0.9C0.6,0,0.4,0.2,0.4,0.5v3.4c0,0.3,0.2,0.5,0.5,0.5s0.5-0.2,0.5-0.5V1h21.2v14.5
		c0,0.3,0.2,0.5,0.5,0.5s0.5-0.2,0.5-0.5v-15C23.6,0.2,23.4,0,23.1,0z"/>
	<path class="st0" d="M23.1,17c-0.3,0-0.5,0.2-0.5,0.5v5.6h-3.7V6.9c0-0.3-0.2-0.5-0.5-0.5H5.5c-0.3,0-0.5,0.2-0.5,0.5V23H1.4V6.3
		c0-0.3-0.2-0.5-0.5-0.5S0.4,6,0.4,6.3v17.2c0,0.3,0.2,0.5,0.5,0.5h22.2c0.3,0,0.5-0.2,0.5-0.5v-6C23.6,17.2,23.4,17,23.1,17z
		 M11.5,23.1H6V7.4h5.5V23.1z M18,23.1h-5.5V7.4H18V23.1z"/>
	<path class="st0" d="M2.8,12.1l-0.7,1c-0.1,0.2-0.1,0.5,0.1,0.7c0.2,0.1,0.5,0.1,0.7-0.1l0.3-0.4l0.3,0.4c0.1,0.1,0.2,0.2,0.4,0.2
		c0.1,0,0.2,0,0.3-0.1c0.2-0.1,0.2-0.4,0.1-0.7l-0.7-1C3.4,11.9,3,11.9,2.8,12.1z"/>
	<path class="st0" d="M2.1,15.6l0.7,1c0.1,0.1,0.2,0.2,0.4,0.2s0.3-0.1,0.4-0.2l0.7-1c0.1-0.2,0.1-0.5-0.1-0.7
		C4,14.8,3.7,14.8,3.6,15l-0.3,0.4L2.9,15c-0.1-0.2-0.4-0.2-0.7-0.1S1.9,15.3,2.1,15.6z"/>
	<path class="st0" d="M17.4,2H3.9C3.6,2,3.4,2.2,3.4,2.5v2.4c0,0.3,0.2,0.5,0.5,0.5h16.2c0.3,0,0.5-0.2,0.5-0.5V2.5
		c0-0.3-0.2-0.5-0.5-0.5h-1c-0.3,0-0.5,0.2-0.5,0.5S18.8,3,19.1,3h0.5v1.5H4.4V3h13.1c0.3,0,0.5-0.2,0.5-0.5S17.7,2,17.4,2z"/>
	<path class="st0" d="M5.6,3.7c0,0,0,0.1,0.1,0.1s0.1,0,0.1-0.1s0-0.1-0.1-0.1S5.6,3.7,5.6,3.7z"/>
	<path class="st0" d="M5.1,3.7c0,0.3,0.3,0.6,0.6,0.6c0.3,0,0.6-0.3,0.6-0.6S6.1,3.1,5.7,3.1C5.4,3.1,5.1,3.4,5.1,3.7z M6.1,3.7
		c0,0.2-0.1,0.3-0.3,0.3S5.4,3.9,5.4,3.7s0.1-0.3,0.3-0.3S6.1,3.5,6.1,3.7z"/>
	<path class="st0" d="M7.1,3.7c0,0,0,0.1,0.1,0.1s0.1,0,0.1-0.1s0-0.1-0.1-0.1S7.1,3.7,7.1,3.7z"/>
	<path class="st0" d="M6.7,3.7c0,0.3,0.3,0.6,0.6,0.6c0.3,0,0.6-0.3,0.6-0.6S7.6,3.1,7.3,3.1C6.9,3.1,6.7,3.4,6.7,3.7z M7.6,3.7
		c0,0.2-0.1,0.3-0.3,0.3S6.9,3.9,6.9,3.7s0.1-0.3,0.3-0.3S7.6,3.5,7.6,3.7z"/>
	<path class="st0" d="M8.7,3.7c0,0,0,0.1,0.1,0.1c0,0,0.1,0,0.1-0.1s0-0.1-0.1-0.1C8.8,3.6,8.7,3.7,8.7,3.7z"/>
	<path class="st0" d="M8.2,3.7c0,0.3,0.3,0.6,0.6,0.6c0.3,0,0.6-0.3,0.6-0.6S9.2,3.1,8.9,3.1C8.5,3.1,8.2,3.4,8.2,3.7z M9.2,3.7
		c0,0.2-0.1,0.3-0.3,0.3c-0.2,0-0.3-0.1-0.3-0.3s0.1-0.3,0.3-0.3C9,3.4,9.2,3.5,9.2,3.7z"/>
	<path class="st0" d="M10.3,3.7c0,0,0,0.1,0.1,0.1c0.1,0,0.1,0,0.1-0.1s0-0.1-0.1-0.1C10.3,3.6,10.3,3.7,10.3,3.7z"/>
	<path class="st0" d="M9.8,3.7c0,0.3,0.3,0.6,0.6,0.6c0.3,0,0.6-0.3,0.6-0.6s-0.3-0.6-0.6-0.6C10.1,3.1,9.8,3.4,9.8,3.7z M10.8,3.7
		c0,0.2-0.1,0.3-0.3,0.3c-0.2,0-0.3-0.1-0.3-0.3s0.1-0.3,0.3-0.3S10.8,3.5,10.8,3.7z"/>
	<path class="st0" d="M11.9,3.7c0,0,0,0.1,0.1,0.1c0.1,0,0.1,0,0.1-0.1s0-0.1-0.1-0.1C11.9,3.6,11.9,3.7,11.9,3.7z"/>
	<path class="st0" d="M11.4,3.7c0,0.3,0.3,0.6,0.6,0.6c0.3,0,0.6-0.3,0.6-0.6S12.4,3.1,12,3.1C11.7,3.1,11.4,3.4,11.4,3.7z
		 M12.4,3.7c0,0.2-0.1,0.3-0.3,0.3c-0.2,0-0.3-0.1-0.3-0.3s0.1-0.3,0.3-0.3C12.2,3.4,12.4,3.5,12.4,3.7z"/>
	<path class="st0" d="M13.4,3.7c0,0,0,0.1,0.1,0.1c0.1,0,0.1,0,0.1-0.1s0-0.1-0.1-0.1C13.5,3.6,13.4,3.7,13.4,3.7z"/>
	<path class="st0" d="M12.9,3.7c0,0.3,0.3,0.6,0.6,0.6c0.3,0,0.6-0.3,0.6-0.6s-0.3-0.6-0.6-0.6C13.2,3.1,12.9,3.4,12.9,3.7z
		 M13.9,3.7c0,0.2-0.1,0.3-0.3,0.3c-0.2,0-0.3-0.1-0.3-0.3s0.1-0.3,0.3-0.3S13.9,3.5,13.9,3.7z"/>
	<path class="st0" d="M15,3.7c0,0,0,0.1,0.1,0.1c0.1,0,0.1,0,0.1-0.1s0-0.1-0.1-0.1C15.1,3.6,15,3.7,15,3.7z"/>
	<path class="st0" d="M14.5,3.7c0,0.3,0.3,0.6,0.6,0.6s0.6-0.3,0.6-0.6s-0.3-0.6-0.6-0.6C14.8,3.1,14.5,3.4,14.5,3.7z M15.5,3.7
		c0,0.2-0.1,0.3-0.3,0.3s-0.3-0.1-0.3-0.3s0.1-0.3,0.3-0.3S15.5,3.5,15.5,3.7z"/>
	<path class="st0" d="M16.6,3.7c0,0,0,0.1,0.1,0.1c0,0,0.1,0,0.1-0.1s0-0.1-0.1-0.1C16.7,3.6,16.6,3.7,16.6,3.7z"/>
	<path class="st0" d="M16.1,3.7c0,0.3,0.3,0.6,0.6,0.6c0.3,0,0.6-0.3,0.6-0.6s-0.3-0.6-0.6-0.6C16.4,3.1,16.1,3.4,16.1,3.7z
		 M17.1,3.7c0,0.2-0.1,0.3-0.3,0.3c-0.2,0-0.3-0.1-0.3-0.3c0-0.2,0.1-0.3,0.3-0.3C16.9,3.4,17.1,3.5,17.1,3.7z"/>
	<path class="st0" d="M18.3,3.9c0,0,0.1,0,0.1-0.1s0-0.1-0.1-0.1c0,0-0.1,0-0.1,0.1S18.2,3.9,18.3,3.9z"/>
	<path class="st0" d="M18.3,4.4c0.3,0,0.6-0.3,0.6-0.6s-0.3-0.6-0.6-0.6s-0.6,0.3-0.6,0.6S18,4.4,18.3,4.4z M18.3,3.4
		c0.2,0,0.3,0.1,0.3,0.3s-0.1,0.3-0.3,0.3c-0.2,0-0.3-0.1-0.3-0.3C17.9,3.5,18.1,3.4,18.3,3.4z"/>
</g>
</svg>
