<?xml version="1.0" encoding="utf-8"?>
<!-- Generator: Adobe Illustrator 25.4.1, SVG Export Plug-In . SVG Version: 6.00 Build 0)  -->
<svg version="1.1" id="Capa_1" xmlns="http://www.w3.org/2000/svg" xmlns:xlink="http://www.w3.org/1999/xlink" x="0px" y="0px"
	 viewBox="0 0 24 24" style="enable-background:new 0 0 24 24;" xml:space="preserve">
<style type="text/css">
	.st0{fill:#263238;}
</style>
<g>
	<path class="st0" d="M18.9,3c-0.1,0-0.2,0-0.2,0c-2.3-1.2-4.3-1.7-6.6-1.7S7.5,1.8,5.4,2.9C5.1,3.1,4.8,3,4.6,2.7
		c0-0.1-0.1-0.3,0-0.4c0-0.1,0.1-0.3,0.3-0.3C7,0.7,9.5,0.1,12,0.1c2.5,0,4.7,0.5,7.2,1.8c0.1,0.1,0.2,0.2,0.3,0.3s0,0.3,0,0.4
		c0,0.1-0.1,0.2-0.2,0.2C19.1,3,19,3,18.9,3z M1.9,9.3c-0.1,0-0.2,0-0.3-0.1C1.4,9.1,1.4,8.9,1.3,8.8c0-0.1,0-0.3,0.1-0.4
		c1.2-1.7,2.7-3,4.5-3.9c3.7-1.9,8.5-1.9,12.2,0c1.8,0.9,3.3,2.2,4.5,3.9c0.1,0.1,0.1,0.3,0.1,0.4c0,0.1-0.1,0.3-0.2,0.4
		c0,0-0.1,0.1-0.2,0.1c-0.1,0-0.1,0-0.2,0s-0.1,0-0.2-0.1c0,0-0.1-0.1-0.1-0.1c-1-1.5-2.4-2.7-4-3.5c-3.4-1.7-7.8-1.7-11.2,0
		c-1.6,0.8-3,2-4,3.5c0,0.1-0.1,0.1-0.2,0.2C2.1,9.3,2,9.3,1.9,9.3z M9.3,23.7c-0.1,0-0.1,0-0.2,0c0,0-0.1-0.1-0.2-0.1
		c-1-1-1.6-1.7-2.4-3.1c-0.8-1.5-1.2-3.3-1.2-5.2c0-3.5,3-6.4,6.7-6.4c3.8,0,6.8,2.9,6.8,6.4c0,0.1,0,0.1,0,0.2c0,0,0,0.1-0.1,0.2
		c0,0-0.1,0.1-0.2,0.1c0,0-0.1,0-0.2,0s-0.1,0-0.2,0c0,0-0.1,0-0.2-0.1c0,0-0.1-0.1-0.1-0.2c0,0,0-0.1,0-0.2c0-2.9-2.5-5.2-5.5-5.2
		s-5.5,2.3-5.5,5.2c0,1.7,0.4,3.3,1.1,4.6c0.7,1.4,1.3,1.9,2.2,2.9c0.1,0.1,0.1,0.2,0.1,0.4c0,0.1,0,0.3-0.1,0.4
		C9.7,23.6,9.5,23.7,9.3,23.7z M17.9,21.5c-1.4,0-2.7-0.3-3.7-1c-0.9-0.6-1.6-1.4-2.1-2.3c-0.5-0.9-0.7-1.9-0.7-2.9
		c0-0.1,0-0.1,0-0.2c0,0,0-0.1,0.1-0.2c0,0,0.1-0.1,0.2-0.1s0.1,0,0.2,0s0.1,0,0.2,0c0.1,0,0.1,0.1,0.2,0.1s0.1,0.1,0.1,0.2
		c0,0,0,0.1,0,0.2c0,0.8,0.2,1.6,0.6,2.4c0.4,0.7,1,1.4,1.7,1.8c0.8,0.6,1.8,0.8,3,0.8c0.4,0,0.8,0,1.2-0.1c0.3,0,0.6,0.1,0.7,0.5
		c0,0.1,0,0.3-0.1,0.4c-0.1,0.1-0.2,0.2-0.4,0.2C18.8,21.4,18.3,21.5,17.9,21.5L17.9,21.5z M15.5,23.9c0,0-0.1,0-0.1,0
		c-1.9-0.5-3.1-1.2-4.4-2.5c-1.6-1.6-2.6-3.9-2.6-6.2c0-1.9,1.6-3.5,3.7-3.5s3.7,1.6,3.7,3.5c0,1.3,1.1,2.3,2.5,2.3s2.5-1,2.5-2.3
		c0-4.5-3.9-8.2-8.6-8.2c-3.4,0-6.5,1.9-7.9,4.8c-0.4,0.9-0.7,2.1-0.7,3.3c0,0.9,0.1,2.4,0.8,4.3c0.1,0.3,0,0.6-0.3,0.7
		c0,0-0.1,0-0.2,0c-0.1,0-0.1,0-0.2,0c0,0-0.1-0.1-0.2-0.1c0,0-0.1-0.1-0.1-0.2c-0.6-1.5-0.8-3.1-0.8-4.7c0-1.4,0.2-2.7,0.8-3.9
		C4.7,8,8.2,5.9,12,5.9c5.4,0,9.8,4.2,9.8,9.4c0,1.9-1.6,3.5-3.7,3.5c-2,0-3.7-1.6-3.7-3.5c0-1.3-1.1-2.3-2.5-2.3s-2.5,1-2.5,2.3
		c0,2,0.8,3.9,2.2,5.4c1.1,1.1,2.2,1.7,3.9,2.2c0.3,0.1,0.5,0.4,0.4,0.7c0,0.1-0.1,0.2-0.2,0.3C15.7,23.9,15.6,23.9,15.5,23.9z"/>
</g>
</svg>
