<?xml version="1.0" encoding="utf-8"?>
<!-- Generator: Adobe Illustrator 25.4.1, SVG Export Plug-In . SVG Version: 6.00 Build 0)  -->
<svg version="1.1" id="Capa_1" xmlns="http://www.w3.org/2000/svg" xmlns:xlink="http://www.w3.org/1999/xlink" x="0px" y="0px"
	 viewBox="0 0 24 24" style="enable-background:new 0 0 24 24;" xml:space="preserve">
<style type="text/css">
	.st0{fill:#263238;}
</style>
<g>
	<path class="st0" d="M9.4,0C9.2,0,9.1,0.1,9,0.2C8.9,0.3,8.9,0.5,8.9,0.7c0.8,3.1-0.8,5.6-2.6,8.2C5,11,3.6,13.1,3.6,15.5
		c0,2.3,0.9,4.4,2.5,6c1.6,1.6,3.7,2.5,6,2.5s4.4-0.9,6-2.5c1.6-1.6,2.5-3.7,2.5-6C20.4,5.5,13.1,0,9.4,0z M9,18.2
		c0-1.5,0.5-2.6,1-3.6c0.4-1,0.9-1.8,0.8-2.8c1.9,0.5,4.3,3.7,4.3,6.5c0,3.7-2.3,3.9-3,3.9C11.3,22.2,9,21.8,9,18.2z M17.3,20.8
		c-1.1,1.1-2.6,1.8-4.1,2.1c1.5-0.5,2.8-1.8,2.8-4.7c0-3.5-3.1-7.6-5.8-7.6c-0.1,0-0.3,0-0.4,0.2c-0.1,0.1-0.1,0.2-0.1,0.4
		c0.2,1-0.2,1.9-0.7,2.9c-0.5,1.1-1.1,2.4-1.1,4c0,2.8,1.3,4.2,2.8,4.7c-1.5-0.2-3-1-4.1-2.1c-1.4-1.4-2.2-3.3-2.2-5.3
		c0-2.1,1.3-4,2.6-6.1c1.6-2.6,3.4-5.2,2.8-8.4c3.4,0.6,9.4,5.6,9.4,14.5C19.5,17.5,18.7,19.4,17.3,20.8z"/>
</g>
</svg>
