<?xml version="1.0" encoding="utf-8"?>
<!-- Generator: Adobe Illustrator 25.4.1, SVG Export Plug-In . SVG Version: 6.00 Build 0)  -->
<svg version="1.1" id="Capa_1" xmlns="http://www.w3.org/2000/svg" xmlns:xlink="http://www.w3.org/1999/xlink" x="0px" y="0px"
	 viewBox="0 0 24 24" style="enable-background:new 0 0 24 24;" xml:space="preserve">
<style type="text/css">
	.st0{fill:#263238;}
</style>
<g>
	<path class="st0" d="M20.8,0H3.2C1.7,0,0.5,1.2,0.5,2.7v18.5c0,1.5,1.2,2.7,2.7,2.7h17.6c1.5,0,2.7-1.2,2.7-2.7V2.7
		C23.5,1.2,22.3,0,20.8,0z M22.5,2.7v4.6H8.6V1h12.1C21.8,1,22.5,1.8,22.5,2.7z M15.4,15.4H8.6V8.3h6.8V15.4z M3.2,1h4.5v14.4H1.5
		V2.7C1.4,1.8,2.2,1,3.2,1z M1.4,21.3v-4.9h6.7h0.5h6.8V23H3.2C2.2,23,1.4,22.2,1.4,21.3z M20.8,23h-4.4V8.3h6.2v13
		C22.5,22.2,21.8,23,20.8,23z"/>
</g>
</svg>
