<?xml version="1.0" encoding="utf-8"?>
<!-- Generator: Adobe Illustrator 25.4.1, SVG Export Plug-In . SVG Version: 6.00 Build 0)  -->
<svg version="1.1" id="Capa_1" xmlns="http://www.w3.org/2000/svg" xmlns:xlink="http://www.w3.org/1999/xlink" x="0px" y="0px"
	 viewBox="0 0 24 24" style="enable-background:new 0 0 24 24;" xml:space="preserve">
<style type="text/css">
	.st0{fill:#263238;}
</style>
<g>
	<path class="st0" d="M22.9,13.1l-1.2-5c0-0.2-0.2-0.4-0.5-0.4H17V7c0.3-0.1,0.5-0.2,0.7-0.4c0.3-0.3,0.5-0.7,0.5-1.2V2.6
		c0-0.3-0.2-0.5-0.5-0.5h-2.5c-0.3,0-0.5,0.2-0.5,0.5v2.8c0,0.2,0,0.4,0.1,0.6c0.1,0.2,0.2,0.4,0.4,0.5c0.1,0.1,0.3,0.3,0.5,0.4
		C15.9,7,16,7,16.1,7v0.7h-2.2V4.6c0-0.2,0-0.5-0.2-0.7c-0.1-0.2-0.3-0.4-0.5-0.5c-0.1,0-0.1-0.1-0.2-0.1c0,0,0-0.1,0-0.2V0.9
		c0-0.2-0.1-0.4-0.2-0.6S12.3,0,12.1,0h-0.7c-0.2,0-0.4,0.1-0.6,0.2c-0.1,0.1-0.2,0.3-0.2,0.6v2.2c0,0.1,0,0.1,0,0.2
		c0,0-0.1,0.1-0.2,0.1C10.1,3.5,10,3.7,9.8,3.9S9.6,4.4,9.6,4.6v3.1h-2V7c0.3-0.1,0.5-0.2,0.7-0.4c0.3-0.3,0.5-0.7,0.5-1.2V2.6
		c0-0.3-0.2-0.5-0.5-0.5H5.8c-0.3,0-0.5,0.2-0.5,0.5v2.8c0,0.4,0.2,0.9,0.5,1.2C6,6.8,6.3,7,6.6,7v0.7H2.3c-0.2,0-0.4,0.2-0.5,0.4
		L1.6,9.6c0,0.2,0.1,0.5,0.4,0.5c0.3,0,0.6-0.1,0.6-0.4l0.1-1h18.2l0.9,3.9c-0.3,0-0.6,0-0.9,0c-0.4,0.1-0.9,0.2-1.2,0.5
		c-0.3,0.2-0.7,0.3-1.1,0.4c-0.4,0-0.8,0-1.1-0.2l-0.7-0.4c-1-0.5-2.2-0.5-3.1,0l-0.6,0.3c-0.8,0.4-1.8,0.4-2.6,0L10,13
		c-1-0.5-2.3-0.5-3.2,0l-0.7,0.4c-0.3,0.2-0.7,0.2-1.1,0.2c-0.3,0-0.7-0.1-1-0.3l-0.1-0.1c-0.4-0.2-0.8-0.4-1.3-0.4
		c-0.1,0-0.3,0-0.5,0l0.3-1.6c0-0.2-0.1-0.5-0.4-0.6s-0.5,0.1-0.6,0.4l-0.4,2.3c0,0.2,0,0.4,0.2,0.5s0.3,0.1,0.5,0
		c0.2-0.1,0.5-0.2,0.8-0.2c0,0,0.1,0,0.2,0v9.6c0,0.2,0.1,0.4,0.2,0.6s0.4,0.2,0.6,0.2h1c0.2,0,0.4-0.1,0.6-0.2s0.2-0.4,0.2-0.6
		v-7.6C5.5,15.2,5.3,15,5,15c-0.3,0-0.5,0.2-0.5,0.5V23H3.8v-9c0.4,0.2,0.8,0.4,1.3,0.4c0,0,0.1,0,0.1,0c0.5,0,1-0.1,1.4-0.3
		l0.7-0.4c0.7-0.4,1.6-0.4,2.3,0l0.5,0.3c1.1,0.6,2.4,0.6,3.5,0l0.6-0.3c0.7-0.4,1.5-0.3,2.2,0l0.7,0.4c0.5,0.2,1.1,0.4,1.6,0.3
		c0.4,0,0.9-0.1,1.2-0.4v9h-0.7v-7.4c0-0.3-0.2-0.5-0.5-0.5c-0.3,0-0.5,0.2-0.5,0.5v7.6c0,0.2,0.1,0.4,0.2,0.6s0.4,0.2,0.6,0.2h1
		c0.2,0,0.4-0.1,0.6-0.2s0.2-0.4,0.2-0.6v-9.6c0,0,0.1,0,0.1,0c0.3,0,0.6,0,0.9,0l0.4,0.1c0.1,0,0.3,0,0.5-0.1
		C22.9,13.4,22.9,13.2,22.9,13.1z M15.8,5.7c0-0.1,0-0.2,0-0.3V3.1h1.6v2.3c0,0.2-0.1,0.4-0.2,0.5C17,6,16.8,6.1,16.6,6.1h-0.1
		c-0.1,0-0.2,0-0.3,0c-0.1,0-0.1-0.1-0.2-0.1C15.9,5.8,15.8,5.8,15.8,5.7z M6.3,5.4V3.1h1.6v2.3c0,0.2-0.1,0.4-0.2,0.5
		C7.6,6,7.4,6.1,7.2,6.1H7.1C6.9,6.1,6.7,6,6.5,5.9C6.4,5.8,6.3,5.6,6.3,5.4z M10.7,4.6c0,0,0-0.1,0-0.2c0,0,0.1-0.1,0.1-0.1
		c0.2-0.1,0.4-0.3,0.6-0.5s0.2-0.5,0.2-0.7V1H12v2c0,0.3,0.1,0.5,0.2,0.8c0.1,0.2,0.3,0.4,0.6,0.5c0,0,0.1,0,0.1,0.1
		c0,0,0,0.1,0,0.2v3.1h-2.4L10.7,4.6L10.7,4.6z"/>
</g>
</svg>
