<?xml version="1.0" encoding="utf-8"?>
<!-- Generator: Adobe Illustrator 25.4.1, SVG Export Plug-In . SVG Version: 6.00 Build 0)  -->
<svg version="1.1" id="Capa_1" xmlns="http://www.w3.org/2000/svg" xmlns:xlink="http://www.w3.org/1999/xlink" x="0px" y="0px"
	 viewBox="0 0 24 24" style="enable-background:new 0 0 24 24;" xml:space="preserve">
<style type="text/css">
	.st0{fill:#263238;}
</style>
<g>
	<path class="st0" d="M16.9,15.9l-0.4,1.3c-0.1,0.2,0,0.5,0.3,0.6c0,0,0.1,0,0.1,0c0.2,0,0.4-0.1,0.4-0.3l0.4-1.3
		c0.1-0.2,0-0.5-0.3-0.6C17.3,15.5,17,15.6,16.9,15.9z"/>
	<path class="st0" d="M13.9,4.4c0,0,0.1,0,0.1,0c0.2,0,0.4-0.1,0.5-0.3L15,2.8c0.1-0.2,0-0.5-0.3-0.6c-0.2-0.1-0.5,0-0.6,0.3
		l-0.4,1.3C13.5,4.1,13.7,4.4,13.9,4.4z"/>
	<path class="st0" d="M23.6,3.5L13.4,0.1c-0.2-0.1-0.5,0-0.6,0.3L11,5.4c-0.1,0.2,0,0.5,0.3,0.6s0.5,0,0.6-0.3l1.6-4.6l9.3,3.1
		l-4.9,14.6L16.1,18h0c-0.1-0.8-0.7-1.3-1.5-1.3h-2V9.8c0-0.9-0.2-1.8-0.7-2.5S10.7,6,9.9,5.6l-3.7-2c-0.1,0-0.2-0.1-0.4,0
		c-0.1,0-0.2,0-0.3,0.1C5.4,3.7,5.3,3.8,5.3,4c0,0.1,0,0.2,0,0.4l0.3,0.7c0,0,0,0.1,0,0.2c0,0,0,0.1,0,0.2S5.5,5.6,5.5,5.6
		S5.4,5.7,5.3,5.7C3.8,6.2,2.5,7.1,1.5,8.3C1.2,8.7,1,9.2,1,9.7v1.5c0,0.3,0.1,0.7,0.4,0.9c0.2,0.2,0.6,0.4,0.9,0.4h1.2
		c0.4,0,0.8-0.1,1.1-0.4c0.3-0.3,0.4-0.7,0.4-1.1c0,0,0,0,0-0.1l0,0l0,0c0,0,0,0,0.1,0C5.9,11,6.7,11.3,7,12c0.1,0.3,0,0.6-0.1,0.9
		c-0.1,0.3-0.4,0.5-0.7,0.6L4.8,14c-0.5,0.1-0.9,0.4-1.3,0.7c-0.4,0.4-0.8,0.9-1,1.4s-0.3,1.1-0.3,1.7v0.5H2c-0.2,0-0.5,0-0.7,0.1
		c-0.2,0.1-0.4,0.2-0.6,0.4c-0.2,0.2-0.3,0.4-0.4,0.6c-0.1,0.2-0.1,0.5-0.1,0.7v0.3c0,0.2,0.1,0.4,0.2,0.6c-0.1,0.3-0.2,0.6-0.3,1
		c0,0.5,0.1,1.1,0.3,1.5c0.1,0.2,0.2,0.3,0.4,0.4C1.1,23.9,1.3,24,1.4,24l0,0h6.3c0.3,0,0.5-0.2,0.5-0.5S8.1,23,7.8,23H1.4
		c0,0-0.1,0-0.1,0c0,0,0,0-0.1-0.1c-0.2-0.3-0.2-0.6-0.2-1c0-0.3,0.1-0.5,0.2-0.8h6.2C7.8,21.1,8,21,8,20.7s-0.2-0.5-0.5-0.5H1.1V20
		c0-0.1,0-0.2,0-0.3c0-0.1,0.1-0.1,0.2-0.2c0.1-0.1,0.2-0.1,0.3-0.2s0.2,0,0.3,0h6.1c0.3,0,0.5-0.2,0.5-0.5c0-0.3-0.2-0.5-0.5-0.5
		H3.1v-0.5c0-0.4,0.1-0.9,0.2-1.3c0.1-0.4,0.4-0.8,0.8-1c0.3-0.2,0.6-0.4,1-0.5l1.3-0.4c0.5-0.2,1-0.5,1.2-1.1
		c0.3-0.5,0.3-1.1,0.2-1.6c-0.3-1-1.2-1.6-2.6-1.8c-0.1,0-0.3,0-0.5,0c-0.1,0-0.3,0.1-0.4,0.2c-0.1,0.1-0.2,0.2-0.3,0.4
		c0,0.1-0.1,0.3-0.1,0.5c0,0.1,0,0.3-0.1,0.4c-0.1,0.1-0.2,0.1-0.4,0.1H2.3c-0.1,0-0.2,0-0.2-0.1c0,0-0.1-0.1-0.1-0.2V11h0.7
		c0.3,0,0.5-0.2,0.5-0.5c0-0.3-0.2-0.5-0.5-0.5H1.9V9.8C1.9,9.5,2,9.2,2.2,9c0.9-1.1,2.1-1.9,3.4-2.3c0.2,0,0.4-0.1,0.5-0.3
		c0.1-0.1,0.3-0.3,0.4-0.5c0.1-0.2,0.1-0.4,0.1-0.6c0-0.2,0-0.4-0.1-0.5l3,1.6c0.6,0.3,1.2,0.8,1.5,1.4c0.4,0.6,0.6,1.3,0.6,2v6.9
		h-1.3c-0.8,0-1.5,0.7-1.5,1.5v4.3c0,0.8,0.7,1.5,1.5,1.5h4.3c0.8,0,1.5-0.7,1.5-1.5V19l2,0.9c0,0,0.1,0,0.2,0c0,0,0.1,0,0.2,0
		c0.1,0,0.2-0.1,0.2-0.3l5.2-15.5C24,3.8,23.8,3.6,23.6,3.5z M15.1,22.5c0,0.3-0.2,0.5-0.5,0.5h-4.3c-0.3,0-0.5-0.2-0.5-0.5v-4.3
		c0-0.3,0.2-0.5,0.5-0.5h4.3c0.3,0,0.5,0.2,0.5,0.5V22.5z"/>
	<path class="st0" d="M13.3,8.8l1.4,3.7c0,0.1,0.1,0.2,0.3,0.3c0,0,0.1,0,0.1,0c0.1,0,0.2,0,0.3-0.1l2.8-2c0.3-0.2,0.5-0.5,0.7-0.9
		c0.1-0.3,0.2-0.7,0.1-1.1c0-0.2-0.1-0.4-0.3-0.6c-0.1-0.2-0.3-0.3-0.5-0.4c-0.2-0.1-0.4-0.1-0.7-0.1c-0.2,0-0.4,0-0.7,0.2l-0.5,0.3
		l-0.2-0.5c-0.1-0.2-0.3-0.4-0.5-0.5C15.4,7,15.2,6.9,15,6.9c-0.2,0-0.5,0-0.7,0C14,7,13.8,7.1,13.6,7.3c-0.2,0.2-0.3,0.5-0.4,0.8
		C13.1,8.3,13.2,8.6,13.3,8.8z M14.2,8.2c0-0.1,0.1-0.2,0.1-0.3c0,0,0.1-0.1,0.2-0.1c0,0,0.1,0,0.2,0c0,0,0,0,0.1,0
		c0.1,0,0.2,0,0.2,0.1c0.1,0,0.1,0.1,0.2,0.2l0.5,0.9c0,0.1,0.1,0.2,0.3,0.2c0.1,0,0.2,0,0.4,0l1-0.5c0,0,0.1,0,0.2,0
		c0.1,0,0.1,0,0.2,0c0.1,0,0.1,0.1,0.2,0.1c0,0,0.1,0.1,0.1,0.2c0,0.2,0,0.4,0,0.5c0,0.1-0.2,0.3-0.3,0.4l-2.3,1.6l-1.2-3.1
		C14.2,8.4,14.1,8.3,14.2,8.2z"/>
	<circle class="st0" cx="6.9" cy="8.2" r="0.5"/>
	<circle class="st0" cx="11.4" cy="19.5" r="0.5"/>
	<circle class="st0" cx="13.4" cy="19.5" r="0.5"/>
	<path class="st0" d="M11.4,20.7c-0.3,0-0.5,0.2-0.5,0.5c0,0.3,0.2,0.5,0.5,0.5c0.3,0,0.5-0.2,0.5-0.5S11.7,20.7,11.4,20.7z"/>
	<path class="st0" d="M13.4,20.7c-0.3,0-0.5,0.2-0.5,0.5c0,0.3,0.2,0.5,0.5,0.5s0.5-0.2,0.5-0.5S13.7,20.7,13.4,20.7z"/>
</g>
</svg>
