<?xml version="1.0" encoding="utf-8"?>
<!-- Generator: Adobe Illustrator 25.4.1, SVG Export Plug-In . SVG Version: 6.00 Build 0)  -->
<svg version="1.1" id="Capa_1" xmlns="http://www.w3.org/2000/svg" xmlns:xlink="http://www.w3.org/1999/xlink" x="0px" y="0px"
	 viewBox="0 0 24 24" style="enable-background:new 0 0 24 24;" xml:space="preserve">
<style type="text/css">
	.st0{fill:#263238;}
</style>
<g>
	<path class="st0" d="M23.8,8.9C23.7,8.9,23.7,8.9,23.8,8.9L22,7.1C21.9,7,21.8,7,21.7,6.9c-0.1,0-0.2,0-0.3,0s-0.2,0-0.3,0
		S21,7,20.9,7.1c0,0,0,0,0,0h0c-0.2,0-0.3-0.1-0.4-0.1c0,0,0-0.2,0-0.4c0-0.3,0-0.7-0.2-1.1c-0.4-0.5-0.8-1-1.2-1.4
		c-0.7-0.7-2.1-1.9-4.3-2.8c-0.8-0.3-1.7-0.5-2.6-0.5l0,0c-1.5,0-2.7,0.7-3.1,1.1C8.7,2.2,8.4,2.7,8.4,2.7c-0.1,0.2-0.1,0.4,0,0.6
		c0.1,0.2,0.3,0.2,0.5,0.1c0.1,0,0.3-0.1,0.5-0.1c0.3-0.1,0.7-0.1,1.1,0c0.7,0,1.5,0.4,2,0.8c0.7,0.6,1,1.3,1.1,2.3
		c0,0.8-1.1,2.1-1.5,2.5c-0.1,0.2-0.2,0.4-0.2,0.6c0,0.1,0,0.2,0,0.3c0,0,0,0-0.1,0c-0.3-0.1-0.6-0.2-0.9-0.1
		c-0.3,0-0.6,0.2-0.8,0.4l-0.2,0.2C9.5,10.6,9,11.2,8.1,12C6,14,2.2,17.4,0.5,18.9c-0.1,0.1-0.2,0.2-0.3,0.4C0,19.4,0,19.6,0,19.8
		c0,0.2,0,0.4,0.1,0.5c0,0.2,0.1,0.3,0.3,0.4l2,2C2.5,22.9,2.7,23,2.8,23c0.1,0,0.3,0.1,0.5,0.1h0c0.2,0,0.4,0,0.5-0.1
		c0.1-0.1,0.3-0.2,0.4-0.3c1.6-1.9,5-5.6,7-7.6c0.7-0.7,1.1-1.1,1.5-1.5c0.2-0.2,0.4-0.4,0.5-0.5c0.2-0.2,0.4-0.6,0.4-0.9
		c0-0.3,0-0.7-0.1-1l0,0l0,0c0.1,0,0.2,0,0.3,0c0.2,0,0.5-0.1,0.6-0.2c0.8-0.8,1.6-1.5,2-1.7C16.9,9.1,17.2,9,17.3,9
		c0.3,0,0.6,0,0.8,0.2l0,0c0.1,0.1,0.1,0.4,0,0.6L18,9.9c-0.1,0.1-0.1,0.1-0.2,0.2c0,0.1,0,0.2,0,0.3s0,0.2,0,0.3
		c0,0.1,0.1,0.2,0.2,0.2l1.8,1.7c0.1,0,0.1,0.1,0.2,0.1c0.1,0,0.2,0,0.3,0l0,0c0.2,0,0.4-0.1,0.6-0.2l2.9-2.8C24,9.7,24,9.5,24,9.3
		C24,9.1,23.9,9,23.8,8.9z M12.5,12.5c-0.1,0.1-0.3,0.3-0.5,0.5c-0.3,0.3-0.8,0.8-1.5,1.5c-2,1.9-5.4,5.7-7,7.6c0,0-0.1,0-0.1,0.1
		c0,0-0.1,0-0.1,0c0,0-0.1,0-0.1,0c0,0-0.1,0-0.1-0.1l-2-2c0,0,0-0.1-0.1-0.1c0,0,0-0.1,0-0.1c0,0,0-0.1,0-0.1c0,0,0-0.1,0.1-0.1
		c1.7-1.5,5.5-4.9,7.7-7c0.8-0.8,1.4-1.4,1.7-1.7l0.2-0.2c0.1-0.1,0.2-0.1,0.3-0.2c0,0,0.1,0,0.1,0c0.1,0,0.2,0,0.2,0
		c0.1,0,0.1,0.1,0.2,0.1l0.9,0.9c0,0,0.1,0.1,0.1,0.2c0,0.1,0.1,0.2,0,0.4C12.7,12.3,12.6,12.4,12.5,12.5z M20.3,12l-1.5-1.5
		c0.5-0.5,0.5-1.4,0-1.8c-0.1-0.1-0.2-0.1-0.3-0.2c-0.4-0.2-0.9-0.3-1.4-0.3c-0.2,0-0.7,0.1-1.3,0.5c-0.6,0.3-1.5,1.2-2.1,1.8l-1-1
		c0.8-0.9,1.7-2.1,1.6-3.1C14.4,5,13.9,4,13,3.3c-0.6-0.5-1.7-0.9-2.5-0.9c-0.1,0-0.2,0-0.3,0c0.5-0.2,1.1-0.5,1.9-0.5
		c0.8,0,1.5,0.1,2.3,0.4c2.2,0.9,3.5,2.1,4,2.6c0.4,0.4,0.8,0.8,1.1,1.3c0,0.1,0,0.3,0,0.5c0,0.3,0,0.8,0.3,1.1
		c0.3,0.3,0.7,0.3,0.9,0.4c0.1,0,0.3,0,0.5,0c0.1,0,0.2-0.1,0.3-0.1L23,9.4L20.3,12z"/>
</g>
</svg>
