<?xml version="1.0" encoding="utf-8"?>
<!-- Generator: Adobe Illustrator 25.4.1, SVG Export Plug-In . SVG Version: 6.00 Build 0)  -->
<svg version="1.1" id="Capa_1" xmlns="http://www.w3.org/2000/svg" xmlns:xlink="http://www.w3.org/1999/xlink" x="0px" y="0px"
	 viewBox="0 0 24 24" style="enable-background:new 0 0 24 24;" xml:space="preserve">
<style type="text/css">
	.st0{fill:#263238;}
</style>
<path class="st0" d="M19.9,9.9c-0.5-0.3-1.1-0.3-1.6-0.2c-0.5,0.1-0.9,0.5-1.2,1l-0.8,2V4.4c0-0.5-0.2-1.1-0.6-1.4
	c-0.4-0.4-0.9-0.6-1.4-0.6c-0.4,0-0.7,0.1-1.1,0.3V2.1c0-0.5-0.2-1.1-0.6-1.4s-0.9-0.6-1.4-0.6s-1.1,0.2-1.4,0.6
	C9.4,1,9.2,1.4,9.2,1.9C8.8,1.7,8.5,1.6,8.1,1.6c-0.5,0-1.1,0.2-1.4,0.6C6.3,2.6,6.1,3,6.1,3.6V5C5.8,4.8,5.4,4.7,5.1,4.7
	C4.5,4.7,4,4.9,3.6,5.2S3.1,6.1,3.1,6.7v8.4c0,5.5,3,8.9,7.7,8.9c4.8,0,6.4-2.4,7.3-4.5l2.5-6.8C21.1,11.4,20.8,10.4,19.9,9.9z
	 M19.8,12.2l-2.5,6.8C16.5,21,15.1,23,10.8,23s-6.8-3-6.8-7.9V6.7c0-0.3,0.1-0.5,0.3-0.7c0.4-0.4,1.1-0.4,1.5,0
	c0.2,0.2,0.3,0.5,0.3,0.7V12c0,0.3,0.2,0.5,0.5,0.5s0.5-0.2,0.5-0.5V6.7V3.6c0-0.3,0.1-0.5,0.3-0.7c0.4-0.4,1.1-0.4,1.5,0
	c0.2,0.2,0.3,0.5,0.3,0.7v7.6c0,0.3,0.2,0.5,0.5,0.5c0.1,0,0.2,0,0.3-0.1c0.1-0.1,0.1-0.2,0.1-0.3V2.1c0-0.3,0.1-0.5,0.3-0.7
	c0.4-0.4,1.1-0.4,1.5,0c0.2,0.2,0.3,0.5,0.3,0.7v2.3v6.8v0c0,0.3,0.2,0.5,0.5,0.5s0.5-0.2,0.5-0.5v0V4.4c0-0.3,0.1-0.5,0.3-0.7
	c0.4-0.4,1.1-0.4,1.5,0c0.2,0.2,0.3,0.5,0.3,0.7v10.7l0,0c0,0,0,0.1,0,0.2c0,0,0,0.1,0.1,0.1c0,0,0,0,0,0c0,0,0.1,0.1,0.1,0.1l0,0h0
	c0,0,0.1,0,0.1,0l0,0c0,0,0.1,0,0.2,0l0,0c0,0,0,0,0.1,0c0,0,0.1-0.1,0.1-0.1l0,0l1.7-4.2c0.1-0.2,0.3-0.4,0.6-0.5
	c0.3-0.1,0.6,0,0.9,0.1C20,11.1,19.9,11.7,19.8,12.2z"/>
</svg>
