<?xml version="1.0" encoding="utf-8"?>
<!-- Generator: Adobe Illustrator 25.4.1, SVG Export Plug-In . SVG Version: 6.00 Build 0)  -->
<svg version="1.1" id="Capa_1" xmlns="http://www.w3.org/2000/svg" xmlns:xlink="http://www.w3.org/1999/xlink" x="0px" y="0px"
	 viewBox="0 0 24 24" style="enable-background:new 0 0 24 24;" xml:space="preserve">
<style type="text/css">
	.st0{fill:#263238;}
</style>
<path class="st0" d="M20.7,8.7c0-1-0.4-1.9-1.1-2.7S17.9,4.9,17,4.9c0-1.3-0.5-2.6-1.4-3.5C14.6,0.5,13.4,0,12,0
	c-1.3,0-2.6,0.5-3.5,1.4C7.6,2.4,7,3.6,7,4.9C6,5,5.1,5.4,4.4,6.1C3.7,6.8,3.3,7.7,3.3,8.7c0,2,1.4,3.6,3.3,3.8v2.4
	c0,0.4,0.1,0.9,0.5,1.2c0.3,0.3,0.7,0.5,1.2,0.5c0.1,0,0.1,0,0.2,0l3.1,7.1c0,0.2,0.2,0.3,0.4,0.3s0.4-0.1,0.4-0.3l4.8-11.2
	c0.9-0.1,1.7-0.4,2.4-1.1C20.3,10.6,20.7,9.7,20.7,8.7z M12,22.3l-2.6-6.1c0.1,0,0.1-0.1,0.2-0.1c0.3-0.3,0.5-0.7,0.5-1.2v-3.2
	c0.4,0.3,1.2,0.6,2,0.6c0.8,0,1.6-0.4,2.2-1.1c0.5,0.6,1.2,1,2,1.2L12,22.3z M16.9,11.5c-0.9,0-1.8-0.5-2.3-1.4
	c-0.1-0.1-0.2-0.2-0.4-0.2c-0.2,0-0.3,0.1-0.4,0.3c-0.3,0.7-1.1,1.2-1.8,1.2c-0.6,0-1.2-0.2-1.4-0.4c-0.3-0.2-0.7-0.2-1-0.1
	c-0.3,0.2-0.5,0.5-0.5,0.9v3.2c0,0.2-0.1,0.4-0.2,0.5c-0.3,0.3-0.8,0.3-1.1,0c-0.1-0.1-0.2-0.3-0.2-0.5V12c0-0.3-0.2-0.5-0.5-0.5
	H6.9c-1.5,0-2.7-1.2-2.7-2.8c0-0.7,0.3-1.4,0.8-2c0.5-0.5,1.3-0.8,2-0.8h0.5C7.8,5.9,8,5.7,8,5.4V5c0-1.1,0.4-2.1,1.2-2.9
	C9.9,1.4,10.9,1,12,1c1.1,0,2.1,0.4,2.9,1.2C15.6,2.9,16,3.9,16,5v0.4c0,0.3,0.2,0.5,0.5,0.5h0.4c0.7,0,1.4,0.3,2,0.8
	c0.5,0.5,0.8,1.3,0.8,2s-0.3,1.4-0.8,2C18.4,11.2,17.7,11.5,16.9,11.5z"/>
</svg>
