<?xml version="1.0" encoding="utf-8"?>
<!-- Generator: Adobe Illustrator 25.4.1, SVG Export Plug-In . SVG Version: 6.00 Build 0)  -->
<svg version="1.1" id="Capa_1" xmlns="http://www.w3.org/2000/svg" xmlns:xlink="http://www.w3.org/1999/xlink" x="0px" y="0px"
	 viewBox="0 0 24 24" style="enable-background:new 0 0 24 24;" xml:space="preserve">
<style type="text/css">
	.st0{fill:#263238;}
</style>
<g>
	<path class="st0" d="M19.4,3.5H18v-1C18,2.2,17.8,2,17.5,2h-3.9V0.6c0-0.3-0.2-0.5-0.5-0.5h-2.4c-0.3,0-0.5,0.2-0.5,0.5V2H6.8
		c-0.1,0-0.1,0-0.2,0H4.6c-0.2,0-0.5,0.2-0.5,0.5c0,1,0.4,2.9,2.2,3.3v10.7c0,0.1,0,0.3,0.1,0.3l1.8,1.6l-1.6,1
		c-0.2,0.1-0.2,0.3-0.2,0.5l0.8,3.5c0,0.2,0.2,0.4,0.5,0.4h8.4c0.2,0,0.4-0.1,0.5-0.4l0.8-3.5c0-0.2,0-0.4-0.2-0.5L16,18.6l1.8-1.6
		c0.1-0.1,0.1-0.2,0.1-0.3V4.5h0.9v10.8c0,0.3,0.2,0.5,0.5,0.5s0.5-0.2,0.5-0.5V4C19.8,3.8,19.6,3.5,19.4,3.5z M11.2,1.1h1.5v1h-1.5
		V1.1z M5.2,3h1.2v1.8C5.5,4.5,5.3,3.6,5.2,3z M15.8,22.9H8.2l-0.7-2.9L9.2,19c0,0,0,0,0.1,0h5.6l0,0l1.5,1.1L15.8,22.9z M17,16.4
		L15.1,18h-6l-1.9-1.7V3H17C17,3,17,16.4,17,16.4z"/>
	<path class="st0" d="M12,19.9c-0.6,0-1.1,0.5-1.1,1.1c0,0.6,0.5,1.1,1.1,1.1c0.6,0,1.1-0.5,1.1-1.1C13.1,20.4,12.6,19.9,12,19.9z
		 M12,21.2c-0.1,0-0.1,0-0.1-0.1c0-0.1,0-0.1,0.1-0.1c0.1,0,0.1,0,0.1,0.1C12.1,21.1,12,21.2,12,21.2z"/>
</g>
</svg>
