<?xml version="1.0" encoding="utf-8"?>
<!-- Generator: Adobe Illustrator 25.4.1, SVG Export Plug-In . SVG Version: 6.00 Build 0)  -->
<svg version="1.1" id="Capa_1" xmlns="http://www.w3.org/2000/svg" xmlns:xlink="http://www.w3.org/1999/xlink" x="0px" y="0px"
	 viewBox="0 0 24 24" style="enable-background:new 0 0 24 24;" xml:space="preserve">
<style type="text/css">
	.st0{fill:#263238;}
</style>
<g>
	<path class="st0" d="M20.8,14.7l-3-7.7c-0.1-0.2-0.3-0.3-0.6-0.3L16,6.9l-0.2-1.3l0,0c0-0.1,0-2.2-1.4-3.6c-0.8-0.8-1.9-1.1-3.3-1
		V0.6c0-0.3-0.2-0.5-0.5-0.5c-0.3,0-0.5,0.2-0.5,0.5V1c-0.7,0-1.9,0-3,0.9c-1,0.8-1.6,2-1.7,3.7v0L5.4,6.4L3.9,6c-0.1,0-0.3,0-0.4,0
		C3.4,6.2,3.3,6.3,3.3,6.4c0,0.1-0.5,3.1,1.5,4.2L3.2,21.9c0,0.2,0,0.4,0.2,0.5l2.2,1.4c0.1,0,0.2,0.1,0.2,0.1h9.6
		c0.1,0,0.2,0,0.3-0.1l2.1-1.6c0.1-0.1,0.2-0.3,0.2-0.4L16.1,7.9L17,7.8l2.8,7l-1.6,1.4c-0.2,0.2-0.2,0.5,0,0.7
		c0.1,0.1,0.2,0.1,0.4,0.1c0.1,0,0.2,0,0.3-0.1l1.9-1.6C20.8,15.1,20.8,14.9,20.8,14.7z M7.8,2.6C9,1.7,10.4,2,10.6,2c0,0,0,0,0.1,0
		l0,0l0,0h0c1.3-0.1,2.3,0.1,3,0.8c0.8,0.7,1,1.8,1.1,2.4H6.5C6.7,4,7.1,3.1,7.8,2.6z M4.2,7.1l1.1,0.3L4.9,9.6
		C4.3,8.9,4.2,7.8,4.2,7.1z M15.3,22.9H6l-1.8-1.2L6.4,6.1h8.5L17,21.6L15.3,22.9z"/>
</g>
</svg>
