<?xml version="1.0" encoding="utf-8"?>
<!-- Generator: Adobe Illustrator 25.4.1, SVG Export Plug-In . SVG Version: 6.00 Build 0)  -->
<svg version="1.1" id="Capa_1" xmlns="http://www.w3.org/2000/svg" xmlns:xlink="http://www.w3.org/1999/xlink" x="0px" y="0px"
	 viewBox="0 0 24 24" style="enable-background:new 0 0 24 24;" xml:space="preserve">
<style type="text/css">
	.st0{fill:#263238;}
</style>
<g>
	<path class="st0" d="M3.2,24L3.2,24c-0.8,0-2.4-1.7-2.4-1.7C0.6,22.1,0,21.5,0,20.8c0-0.2,0-0.4,0.1-0.7c0.1-0.2,0.2-0.4,0.4-0.5
		C1.1,19,7.2,11.9,9.5,9.2l0.1-0.1c-0.2-0.6-0.2-1.3-0.2-2c0-4,3.2-7.1,7.2-7.1c4,0,7.3,3.2,7.3,7s-3.3,7.1-7.3,7.1
		c-1,0-1.8-0.1-2.6-0.5l0,0c-0.2,0.2-0.5,0.4-0.9,0.5c-0.2,0-0.5,0-1.1-0.2c-0.2,0-0.5-0.1-0.6-0.1c-0.1,0-0.2,0.2-0.2,0.3
		c0,0.1,0.2,0.4,0.3,0.6c0.2,0.4,0.3,0.7,0.3,1c-0.1,0.5-1,1.5-1.7,1.6c-0.3,0-0.7-0.1-1-0.2C8.7,17,8.5,16.9,8.5,17
		c-0.1,0.1-0.1,0.1,0.1,0.6c0.1,0.2,0.2,0.5,0.2,0.8c0,0.6-0.3,0.9-0.6,1.2c-0.4,0.3-0.7,0.6-1.4,0.6c-0.2,0-0.5,0-0.7-0.1
		c-0.1,0-0.4-0.1-0.5,0c-0.2,0-0.2,0-0.3,0.3c0,0,0,0.3,0,0.4c0.1,0.5,0.2,1.2-0.3,1.7c-0.1,0.1-0.2,0.2-0.3,0.4
		c-0.2,0.2-0.5,0.5-1,1.1C3.5,23.9,3.3,24,3.2,24z M16.7,1c-3.5,0-6.3,2.7-6.3,6.1c0,0.7,0,1.3,0.2,1.9c0,0.1,0,0.3-0.1,0.5
		l-0.3,0.3c-4.1,4.8-8.5,9.9-9,10.4c-0.1,0-0.1,0.1-0.2,0.2c0,0.1,0,0.2,0,0.2c0,0.3,0.2,0.6,0.4,0.9C1.8,22,2.7,22.8,3.1,23
		c0.4-0.4,0.7-0.7,0.9-0.9c0.1-0.1,0.2-0.2,0.4-0.4c0.1-0.1,0-0.5,0-0.9c0-0.3-0.1-0.7,0-1c0.2-0.6,0.6-0.8,1.1-0.9
		c0.3,0,0.6,0,0.9,0c0.2,0,0.4,0.1,0.5,0.1c0.2,0,0.4-0.1,0.7-0.4c0.2-0.2,0.3-0.3,0.3-0.5c0-0.1-0.1-0.2-0.1-0.4
		c-0.2-0.4-0.5-1.1,0.1-1.6c0.6-0.5,1.2-0.2,1.7,0c0.1,0.1,0.4,0.2,0.5,0.2c0.3,0,0.8-0.6,0.9-0.8c0-0.1-0.1-0.3-0.2-0.4
		c-0.2-0.4-0.4-0.9-0.3-1.3c0.1-0.3,0.6-0.9,1-1c0.2,0,0.5,0,1.1,0.2c0.2,0,0.5,0.1,0.6,0.1c0.1,0,0.3-0.2,0.5-0.3
		c0.1-0.1,0.2-0.1,0.3-0.2c0.1-0.1,0.3-0.1,0.4,0c0.8,0.3,1.5,0.5,2.4,0.5c3.5,0,6.4-2.7,6.4-6.1C23.1,3.7,20.2,1,16.7,1z M13,13.2
		L13,13.2L13,13.2z M18.2,8.1c-0.1,0-0.3,0-0.4,0c-0.4-0.1-0.8-0.3-1.2-0.6c-0.3-0.3-0.5-0.7-0.6-1.2s0-0.9,0.1-1.3
		c0.2-0.4,0.5-0.8,0.8-1c0.4-0.2,0.8-0.4,1.2-0.4c0.6,0,1.2,0.2,1.6,0.7c0.4,0.4,0.7,1,0.7,1.6c0,0.4-0.1,0.9-0.4,1.2
		c-0.2,0.4-0.6,0.7-1,0.8C18.8,8,18.5,8.1,18.2,8.1z M18.2,4.5c-0.2,0-0.5,0.1-0.7,0.2c-0.2,0.1-0.4,0.3-0.5,0.6s-0.1,0.5-0.1,0.8
		c0,0.2,0.2,0.5,0.3,0.7c0.2,0.2,0.4,0.3,0.7,0.3c0.2,0,0.5,0,0.8-0.1c0.2-0.1,0.4-0.2,0.6-0.5c0.1-0.2,0.2-0.5,0.2-0.7
		c0-0.3-0.1-0.7-0.4-0.9C18.9,4.7,18.5,4.5,18.2,4.5z"/>
</g>
</svg>
