<?xml version="1.0" encoding="utf-8"?>
<!-- Generator: Adobe Illustrator 25.4.1, SVG Export Plug-In . SVG Version: 6.00 Build 0)  -->
<svg version="1.1" id="Capa_1" xmlns="http://www.w3.org/2000/svg" xmlns:xlink="http://www.w3.org/1999/xlink" x="0px" y="0px"
	 viewBox="0 0 24 24" style="enable-background:new 0 0 24 24;" xml:space="preserve">
<style type="text/css">
	.st0{fill:#263238;}
</style>
<g>
	<path class="st0" d="M20.9,7.8c0.8,0,1.5-0.6,1.5-1.5V1.5c0-0.8-0.6-1.5-1.5-1.5H3.1C2.2,0,1.6,0.7,1.6,1.5v4.8
		c0,0.8,0.6,1.5,1.5,1.5h0.3v4.4H3.1c-0.8,0-1.5,0.6-1.5,1.5v8.8c0,0.8,0.6,1.5,1.5,1.5h17.8c0.8,0,1.5-0.6,1.5-1.5v-8.8
		c0-0.8-0.6-1.5-1.5-1.5h-0.3V7.8H20.9z M21.4,1.5v4.8c0,0.2-0.2,0.5-0.5,0.5h-3.7V4.4h1.2c0.3,0,0.5-0.2,0.5-0.5s-0.2-0.5-0.5-0.5
		h-1.2V1h3.7C21.2,1,21.4,1.2,21.4,1.5z M12.5,6.8V1h3.7v5.8H12.5z M7.9,6.8V1h3.6v5.8H7.9z M2.6,6.3V1.5C2.6,1.3,2.8,1,3.1,1h3.9
		v2.4H5.6c-0.3,0-0.5,0.2-0.5,0.5s0.2,0.5,0.5,0.5h1.3v2.4H3.1C2.8,6.8,2.6,6.5,2.6,6.3z M2.6,22.5v-6h4.4v1.7H5.6
		c-0.3,0-0.5,0.2-0.5,0.5c0,0.3,0.2,0.5,0.5,0.5h1.3V23H3.1C2.8,23,2.6,22.8,2.6,22.5z M11.5,16.6V23H7.9v-6.5H11.5z M16.2,16.6V23
		h-3.7v-6.5H16.2z M20.9,23h-3.7v-3.8h1.3c0.3,0,0.5-0.2,0.5-0.5c0-0.3-0.2-0.5-0.5-0.5h-1.3v-1.7h4.2v6C21.4,22.8,21.2,23,20.9,23z
		 M21.4,13.7v2H2.6v-2c0-0.2,0.2-0.5,0.5-0.5h17.8C21.2,13.2,21.4,13.4,21.4,13.7z M19.6,12.2h-4.8v-0.9c0-0.3-0.2-0.5-0.5-0.5
		c-0.3,0-0.5,0.2-0.5,0.5v0.9h-1.4v-1.7c0-0.2,0-0.5-0.2-0.7c-0.1-0.2-0.3-0.4-0.5-0.5l-0.7-0.4c-0.2-0.1-0.5-0.2-0.7-0.2
		c-0.2,0-0.5,0.1-0.7,0.3c-0.2,0.2-0.2,0.5,0,0.7c0.2,0.2,0.5,0.2,0.7,0c0,0,0,0,0.1,0c0,0,0,0,0.1,0l0.7,0.4c0.1,0,0.1,0.1,0.2,0.2
		c0,0.1,0,0.1,0,0.2v1.7h-1.4v-0.9c0-0.3-0.2-0.5-0.5-0.5c-0.3,0-0.5,0.2-0.5,0.5v0.9H4.3V7.8h15.3L19.6,12.2L19.6,12.2z"/>
</g>
</svg>
