<?xml version="1.0" encoding="utf-8"?>
<!-- Generator: Adobe Illustrator 25.4.1, SVG Export Plug-In . SVG Version: 6.00 Build 0)  -->
<svg version="1.1" id="Capa_1" xmlns="http://www.w3.org/2000/svg" xmlns:xlink="http://www.w3.org/1999/xlink" x="0px" y="0px"
	 viewBox="0 0 24 24" style="enable-background:new 0 0 24 24;" xml:space="preserve">
<style type="text/css">
	.st0{fill:#263238;}
</style>
<g>
	<path class="st0" d="M23.7,11.7c0-0.1-0.1-0.3-0.2-0.4l-6.4-5.2V0.5c0-0.3-0.2-0.5-0.5-0.5H7.4C7.1,0,6.9,0.2,6.9,0.5v5.6l-6.4,5.3
		l0,0c0,0,0,0-0.1,0.1c0,0,0,0,0,0c0,0,0,0.1,0,0.2v3.8c0,0.3,0.2,0.5,0.5,0.5h22.5c0.3,0,0.5-0.2,0.5-0.5V11.7L23.7,11.7L23.7,11.7
		z M16.1,1v4.9H7.9V1H16.1z M7.6,6.8h8.8l5.4,4.5H2.1L7.6,6.8z M1.3,15.1v-2.8h21.5v2.8H1.3z"/>
	<path class="st0" d="M5.3,17.1c-0.2-0.1-0.4-0.2-0.7-0.2l0,0c-0.2,0-0.5,0.2-0.5,0.5c0,0.3,0.2,0.5,0.5,0.5c0,0,0,0,0,0
		C5,18,5.2,18.3,5.3,18.6c0.1,0.3,0.2,0.6,0.2,1c0,0.3-0.1,0.7-0.2,1S5,21.1,4.7,21.4c-0.2,0.1-0.3,0.4-0.4,0.6
		c-0.1,0.2-0.1,0.5-0.1,0.7c0,0.2,0,0.5,0.1,0.7c0.1,0.2,0.2,0.4,0.4,0.6C4.8,24,4.9,24,5,24c0.1,0,0.3,0,0.4-0.2
		c0.2-0.2,0.1-0.5,0-0.7c-0.1,0-0.1-0.1-0.2-0.2c0,0,0-0.1,0-0.3c0-0.1,0-0.2,0-0.3c0-0.1,0.1-0.2,0.2-0.2c0.4-0.3,0.7-0.7,0.9-1.2
		c0.2-0.4,0.3-0.9,0.3-1.4c0-0.5-0.1-0.9-0.3-1.4C6,17.8,5.7,17.4,5.3,17.1z"/>
	<path class="st0" d="M9.7,17.1c-0.2-0.1-0.4-0.2-0.7-0.2c-0.3,0-0.5,0.2-0.5,0.5c0,0.3,0.2,0.5,0.5,0.5c0,0,0,0,0,0
		c0.3,0.2,0.5,0.5,0.6,0.8c0.1,0.3,0.2,0.6,0.2,1c0,0.3-0.1,0.7-0.2,1S9.3,21.1,9,21.4c-0.2,0.1-0.3,0.3-0.4,0.6
		c-0.1,0.2-0.1,0.5-0.1,0.7c0,0.2,0,0.5,0.1,0.7c0.1,0.2,0.2,0.4,0.4,0.6C9.1,24,9.2,24,9.3,24c0.1,0,0.3,0,0.4-0.2
		c0.2-0.2,0.1-0.5,0-0.7c-0.1,0-0.1-0.1-0.2-0.2c0,0,0-0.1,0-0.3c0-0.1,0-0.2,0-0.3c0-0.1,0.1-0.2,0.2-0.2c0.4-0.3,0.7-0.7,0.9-1.2
		c0.2-0.4,0.3-0.9,0.3-1.4c0-0.5-0.1-0.9-0.3-1.4C10.3,17.8,10.1,17.4,9.7,17.1z"/>
	<path class="st0" d="M14,17.1c-0.2-0.1-0.4-0.2-0.7-0.2l0,0c-0.2,0-0.5,0.2-0.5,0.5c0,0.3,0.2,0.5,0.5,0.5c0,0,0,0,0,0
		c0.3,0.2,0.5,0.5,0.6,0.8c0.1,0.3,0.2,0.6,0.2,1c0,0.3-0.1,0.7-0.2,1s-0.4,0.6-0.6,0.8c-0.2,0.1-0.3,0.4-0.4,0.6
		c-0.1,0.2-0.1,0.5-0.1,0.7c0,0.2,0,0.5,0.1,0.7c0.1,0.2,0.2,0.4,0.4,0.6c0.1,0.1,0.2,0.1,0.3,0.1c0.1,0,0.3,0,0.4-0.2
		c0.2-0.2,0.1-0.5,0-0.7c-0.1,0-0.1-0.1-0.2-0.2c0,0,0-0.1,0-0.3c0-0.1,0-0.2,0-0.3c0-0.1,0.1-0.2,0.2-0.2c0.4-0.3,0.7-0.7,0.9-1.2
		c0.2-0.4,0.3-0.9,0.3-1.4c0-0.5-0.1-0.9-0.3-1.4C14.7,17.8,14.4,17.4,14,17.1z"/>
	<path class="st0" d="M18.8,17.1c-0.2-0.1-0.4-0.2-0.7-0.2l0,0c-0.2,0-0.5,0.2-0.5,0.5c0,0.3,0.2,0.5,0.5,0.5c0,0,0,0,0,0
		c0.3,0.2,0.5,0.5,0.6,0.8c0.1,0.3,0.2,0.6,0.2,1c0,0.3-0.1,0.7-0.2,1c-0.1,0.3-0.3,0.6-0.6,0.8c-0.2,0.1-0.3,0.3-0.5,0.6
		c-0.1,0.2-0.1,0.5-0.1,0.7c0,0.2,0,0.5,0.1,0.7c0.1,0.2,0.2,0.4,0.5,0.6c0.1,0.1,0.2,0.1,0.3,0.1c0.1,0,0.3,0,0.4-0.2
		c0.1-0.2,0.1-0.5,0-0.7c-0.1,0-0.1-0.1-0.2-0.2c0,0,0-0.1,0-0.2s0-0.2,0-0.3c0-0.1,0.1-0.2,0.2-0.2c0.4-0.3,0.7-0.7,0.9-1.2
		c0.2-0.4,0.3-0.9,0.3-1.4c0-0.5-0.1-0.9-0.3-1.4C19.5,17.8,19.2,17.4,18.8,17.1z"/>
</g>
</svg>
