<?xml version="1.0" encoding="utf-8"?>
<!-- Generator: Adobe Illustrator 25.4.1, SVG Export Plug-In . SVG Version: 6.00 Build 0)  -->
<svg version="1.1" id="Capa_1" xmlns="http://www.w3.org/2000/svg" xmlns:xlink="http://www.w3.org/1999/xlink" x="0px" y="0px"
	 viewBox="0 0 24 24" style="enable-background:new 0 0 24 24;" xml:space="preserve">
<style type="text/css">
	.st0{fill:#263238;}
</style>
<g>
	<path class="st0" d="M20.5,5.4c0-1-0.5-1.9-1.3-2.1V0.5c0-0.1-0.1-0.3-0.2-0.4C18.8,0,18.7,0,18.5,0l-5.7,1.9
		c-0.2,0-0.3,0.2-0.3,0.4v0.3h-1.1c-0.3,0-0.5,0.2-0.5,0.5v2.3l-5,7.4c-0.2,0-0.3-0.1-0.5-0.1c-1,0-1.8,0.8-1.8,1.8s0.8,1.8,1.8,1.8
		c0.2,0,0.4,0,0.6-0.1l3.3,4.1H6.5c-0.2,0-0.4,0.1-0.5,0.3L5.3,23H4.8c-0.3,0-0.5,0.2-0.5,0.5S4.5,24,4.8,24h10.9
		c0.3,0,0.5-0.2,0.5-0.5S16,23,15.7,23h-0.5l-0.8-2.6c0-0.2-0.2-0.3-0.5-0.3H13v-0.4c0-0.3-0.2-0.5-0.5-0.5c-0.3,0-0.5,0.2-0.5,0.5
		v0.4h-1.5l-3.8-4.6c0.2-0.3,0.3-0.6,0.3-1c0-0.4-0.1-0.8-0.4-1.1l4.3-6.2v0.4c0,0.3,0.2,0.5,0.5,0.5h1.1v0.2c0,0.2,0.1,0.4,0.3,0.4
		l5.7,2c0,0,0.1,0,0.1,0c0.1,0,0.2,0,0.3-0.1c0.1-0.1,0.2-0.2,0.2-0.4V7.4C19.9,7.2,20.5,6.4,20.5,5.4z M14.2,23H6.3l0.6-2h6.7
		L14.2,23z M4.5,14.5c0-0.4,0.3-0.8,0.8-0.8c0.1,0,0.3,0,0.4,0.1l0,0l0,0c0.2,0.1,0.3,0.4,0.3,0.6c0,0.4-0.3,0.8-0.8,0.8
		C4.9,15.2,4.5,14.8,4.5,14.5z M11.9,7.1V3.7h0.6v3.4H11.9z M18.2,9.5l-4.7-1.6V2.8l4.7-1.6V9.5z M19.1,6.3V4.4
		c0.2,0.2,0.3,0.5,0.3,0.9C19.5,5.8,19.3,6.1,19.1,6.3z"/>
</g>
</svg>
