<?xml version="1.0" encoding="utf-8"?>
<!-- Generator: Adobe Illustrator 25.4.1, SVG Export Plug-In . SVG Version: 6.00 Build 0)  -->
<svg version="1.1" id="Capa_1" xmlns="http://www.w3.org/2000/svg" xmlns:xlink="http://www.w3.org/1999/xlink" x="0px" y="0px"
	 viewBox="0 0 24 24" style="enable-background:new 0 0 24 24;" xml:space="preserve">
<style type="text/css">
	.st0{fill:#263238;}
</style>
<g>
	<path class="st0" d="M16.8,0.4c0-0.2-0.2-0.4-0.5-0.4H7.6C7.3,0,7.1,0.1,7.1,0.4L4.3,16.1c0,0.1,0,0.3,0.1,0.4
		c0.1,0.1,0.2,0.2,0.4,0.2h6v4.5H9c-0.2,0-0.4,0.1-0.4,0.3L7.9,23H6.7c-0.3,0-0.5,0.2-0.5,0.5c0,0.3,0.2,0.5,0.5,0.5h10.6
		c0.3,0,0.5-0.2,0.5-0.5c0-0.3-0.2-0.5-0.5-0.5h-1.2l-0.7-1.6c-0.1-0.2-0.2-0.3-0.4-0.3h-1.9v-4.5h1.6v0.9c-0.4,0.2-0.7,0.6-0.7,1.1
		c0,0.7,0.5,1.2,1.2,1.2s1.2-0.5,1.2-1.2c0-0.5-0.3-0.9-0.7-1.1v-0.9h3.4c0.1,0,0.3,0,0.4-0.2c0.1-0.1,0.1-0.2,0.1-0.4L16.8,0.4z
		 M15.2,19C15,19,15,18.9,15,18.7s0.1-0.2,0.2-0.2c0.1,0,0.2,0.1,0.2,0.2S15.3,19,15.2,19z M9.9,15.7l1-14.8h1.9l1,14.8H9.9z M7.9,1
		H10L9,15.7H5.4L7.9,1z M15,23H8.9l0.4-1h5.4L15,23z M12.1,21.1h-0.4v-4.5h0.4V21.1z M14.8,15.7L13.8,1h2.1l2.6,14.8H14.8z"/>
</g>
</svg>
