<?xml version="1.0" encoding="utf-8"?>
<!-- Generator: Adobe Illustrator 25.4.1, SVG Export Plug-In . SVG Version: 6.00 Build 0)  -->
<svg version="1.1" id="Capa_1" xmlns="http://www.w3.org/2000/svg" xmlns:xlink="http://www.w3.org/1999/xlink" x="0px" y="0px"
	 viewBox="0 0 24 24" style="enable-background:new 0 0 24 24;" xml:space="preserve">
<style type="text/css">
	.st0{fill:#263238;}
</style>
<path class="st0" d="M23.6,11.5h-2.3c-0.2,0-0.4,0.1-0.4,0.3c0-2.3-1-4.4-2.5-6.1c-1.6-1.6-3.8-2.5-6.1-2.5c0.2,0,0.3-0.2,0.3-0.4
	V0.5c0-0.3-0.2-0.5-0.5-0.5c-0.3,0-0.5,0.2-0.5,0.5v2.3c0,0.2,0.1,0.4,0.3,0.4c-1.7,0-3.3,0.5-4.7,1.5C5.8,5.7,4.7,7.1,4,8.7
	c-0.4,1-0.6,2.1-0.7,3.2c0-0.2-0.2-0.3-0.4-0.3H0.5C0.2,11.5,0,11.7,0,12c0,0.3,0.2,0.5,0.5,0.5h2.3c0.2,0,0.4-0.1,0.4-0.3
	c0,0.5,0,1.1,0.1,1.5c0.3,1.7,1.2,3.3,2.4,4.5c1.3,1.3,2.8,2.1,4.5,2.4c0.5,0.1,1.1,0.1,1.5,0.1c-0.2,0-0.3,0.2-0.3,0.4v2.3
	c0,0.3,0.2,0.5,0.5,0.5c0.3,0,0.5-0.2,0.5-0.5v-2.3c0-0.2-0.1-0.4-0.3-0.4c1.1,0,2.2-0.2,3.2-0.7c1.6-0.7,3-1.8,3.9-3.2
	c1-1.4,1.4-3,1.5-4.7c0,0.2,0.2,0.3,0.4,0.3h2.3c0.3,0,0.5-0.2,0.5-0.5C24,11.7,23.8,11.5,23.6,11.5z M18.5,16.4
	c-0.9,1.3-2.1,2.3-3.5,2.9c-1.4,0.6-3,0.8-4.5,0.4c-1.5-0.3-2.9-1.1-4-2.2c-1.1-1.1-1.8-2.5-2.2-4C4,12,4.2,10.4,4.8,9
	s1.6-2.6,2.9-3.5s2.8-1.3,4.3-1.3c2.1,0,4,0.8,5.5,2.3s2.3,3.5,2.3,5.5C19.9,13.6,19.4,15.1,18.5,16.4z"/>
</svg>
