<?xml version="1.0" encoding="utf-8"?>
<!-- Generator: Adobe Illustrator 25.4.1, SVG Export Plug-In . SVG Version: 6.00 Build 0)  -->
<svg version="1.1" id="Capa_1" xmlns="http://www.w3.org/2000/svg" xmlns:xlink="http://www.w3.org/1999/xlink" x="0px" y="0px"
	 viewBox="0 0 24 24" style="enable-background:new 0 0 24 24;" xml:space="preserve">
<style type="text/css">
	.st0{fill:#263238;}
</style>
<g>
	<g>
		<path class="st0" d="M12,23.9c-0.2,0-0.4,0-0.6-0.1c-0.2-0.1-0.3-0.2-0.5-0.4c-2.2-3-7.3-10.4-7.3-15.2c0-4.4,3.8-8,8.4-8
			s8.4,3.6,8.4,8c0,4.8-5.1,12.3-7.3,15.2c-0.1,0.2-0.3,0.3-0.5,0.4C12.4,23.9,12.2,23.9,12,23.9z M12,1c-4.1,0-7.4,3.2-7.4,7
			c0,4.7,5.5,12.4,7.1,14.7c0,0,0.1,0.1,0.1,0.1c0.1,0,0.2,0,0.3,0c0,0,0.1,0,0.1-0.1c1.7-2.3,7.1-10,7.1-14.7C19.4,4.2,16.1,1,12,1
			z"/>
	</g>
	<g>
		<path class="st0" d="M12,11.6c-1.7,0-3.1-1.4-3.1-3.1s1.4-3.1,3.1-3.1s3.1,1.4,3.1,3.1S13.7,11.6,12,11.6z M12,6.3
			c-1.2,0-2.2,1-2.2,2.2s1,2.2,2.2,2.2s2.2-1,2.2-2.2S13.2,6.3,12,6.3z"/>
	</g>
</g>
</svg>
