<?xml version="1.0" encoding="utf-8"?>
<!-- Generator: Adobe Illustrator 25.4.1, SVG Export Plug-In . SVG Version: 6.00 Build 0)  -->
<svg version="1.1" id="Capa_1" xmlns="http://www.w3.org/2000/svg" xmlns:xlink="http://www.w3.org/1999/xlink" x="0px" y="0px"
	 viewBox="0 0 24 24" style="enable-background:new 0 0 24 24;" xml:space="preserve">
<style type="text/css">
	.st0{fill:#263238;}
</style>
<g>
	<path class="st0" d="M23.8,1.3c-0.1-0.2-0.3-0.4-0.5-0.5c-0.2-0.1-0.4-0.2-0.7-0.2s-0.5,0-0.7,0.2l-5.4,3.4
		c-0.2,0.1-0.4,0.1-0.6,0.1s-0.4,0-0.6-0.1l-6.3-4c0,0,0,0,0,0C8.7,0.1,8.4,0,8,0C7.6,0,7.3,0.1,7,0.2c0,0,0,0,0,0L0.8,4.5
		C0.6,4.6,0.4,4.8,0.2,5C0.1,5.2,0,5.5,0,5.7V22c0,0.2,0,0.5,0.2,0.7c0.1,0.2,0.3,0.4,0.5,0.5c0.2,0.1,0.4,0.2,0.7,0.2
		s0.5,0,0.7-0.2l5.4-3.4c0.2-0.1,0.4-0.1,0.6-0.1c0.2,0,0.4,0,0.6,0.1l6.2,4c0,0,0,0,0,0c0.3,0.1,0.7,0.2,1,0.2l0,0c0,0,0.1,0,0.1,0
		s0,0,0,0h0c0.3,0,0.6-0.1,0.8-0.2c0,0,0,0,0,0l6.4-4.2c0.2-0.1,0.4-0.3,0.5-0.5c0.1-0.2,0.2-0.5,0.2-0.7V2
		C24,1.8,23.9,1.5,23.8,1.3z M7,18.9l-5.4,3.5c0,0-0.1,0-0.2,0c0,0-0.1,0-0.2,0c0,0-0.1-0.1-0.1-0.1c0,0,0-0.1,0-0.2V5.7
		c0-0.1,0-0.1,0-0.2c0,0,0.1-0.1,0.1-0.1c0,0,0,0,0,0l6.2-4.2c0,0,0,0,0.1,0v17.5C7.4,18.7,7.2,18.7,7,18.9z M9.1,18.8L9.1,18.8
		c-0.2-0.1-0.4-0.2-0.6-0.2V1.1c0,0,0,0,0.1,0l6.3,4c0,0,0,0,0,0c0.2,0.1,0.3,0.1,0.5,0.2V23c-0.1,0-0.1,0-0.2-0.1L9.1,18.8z
		 M23,18.3c0,0.1,0,0.1,0,0.2c0,0-0.1,0.1-0.1,0.1c0,0,0,0,0,0l-6.3,4.1V5.4c0.2,0,0.4-0.1,0.6-0.2l5.4-3.5c0,0,0.1,0,0.2,0
		c0,0,0.1,0,0.2,0c0,0,0.1,0.1,0.1,0.1c0,0,0,0.1,0,0.2C23,2,23,18.3,23,18.3z"/>
</g>
</svg>
