<?xml version="1.0" encoding="utf-8"?>
<!-- Generator: Adobe Illustrator 25.4.1, SVG Export Plug-In . SVG Version: 6.00 Build 0)  -->
<svg version="1.1" id="Capa_1" xmlns="http://www.w3.org/2000/svg" xmlns:xlink="http://www.w3.org/1999/xlink" x="0px" y="0px"
	 viewBox="0 0 24 24" style="enable-background:new 0 0 24 24;" xml:space="preserve">
<style type="text/css">
	.st0{fill:#263238;}
</style>
<g>
	<path class="st0" d="M21.1,4.2h-2.8V3c0-0.6-0.2-1.1-0.6-1.5s-0.9-0.6-1.5-0.6H7.9c-0.6,0-1.1,0.2-1.5,0.6C6,1.9,5.8,2.4,5.8,3v1.2
		H2.9C1.3,4.1,0,5.5,0,7v13.2c0,1.6,1.3,2.9,2.9,2.9h18.1c1.6,0,2.9-1.3,2.9-2.9V7.1C24,5.5,22.7,4.2,21.1,4.2z M6.7,3
		c0-0.3,0.1-0.6,0.3-0.8c0.2-0.2,0.5-0.3,0.8-0.3h8.2c0.3,0,0.6,0.1,0.8,0.3c0.2,0.2,0.3,0.5,0.3,0.8v1.2H6.7L6.7,3L6.7,3z
		 M23.1,20.3c0,1.1-0.9,2-2,2H2.9c-1.1,0-2-0.9-2-2V7.1c0-1.1,0.9-2,2-2h18.1c1.1,0,2,0.9,2,2L23.1,20.3L23.1,20.3z"/>
	<path class="st0" d="M16.2,13.2h-3.7V9.5c0-0.3-0.2-0.5-0.5-0.5c-0.3,0-0.5,0.2-0.5,0.5v3.7H7.9c-0.3,0-0.5,0.2-0.5,0.5
		s0.2,0.5,0.5,0.5h3.7v3.7c0,0.3,0.2,0.5,0.5,0.5c0.3,0,0.5-0.2,0.5-0.5v-3.7h3.7c0.3,0,0.5-0.2,0.5-0.5S16.4,13.2,16.2,13.2z"/>
</g>
</svg>
