<?xml version="1.0" encoding="utf-8"?>
<!-- Generator: Adobe Illustrator 25.4.1, SVG Export Plug-In . SVG Version: 6.00 Build 0)  -->
<svg version="1.1" id="Capa_1" xmlns="http://www.w3.org/2000/svg" xmlns:xlink="http://www.w3.org/1999/xlink" x="0px" y="0px"
	 viewBox="0 0 24 24" style="enable-background:new 0 0 24 24;" xml:space="preserve">
<style type="text/css">
	.st0{fill:#263238;}
</style>
<g>
	<g>
		<g>
			<path class="st0" d="M12,24C5.4,24,0,18.6,0,12S5.4,0,12,0s12,5.4,12,12S18.6,24,12,24z M12,1C5.9,1,1,5.9,1,12s4.9,11,11,11
				s11-4.9,11-11S18.1,1,12,1z"/>
		</g>
	</g>
	<g>
		<path class="st0" d="M12.1,18.3c-0.1,0-0.2,0-0.3-0.1c-0.1-0.1-0.1-0.2-0.1-0.3v-1.1c-0.6,0-1.1-0.1-1.6-0.3
			c-0.5-0.1-0.9-0.3-1.2-0.6c-0.1-0.1-0.2-0.2-0.2-0.3c0-0.1,0-0.2,0-0.4c0-0.1,0.1-0.2,0.2-0.2c0.1,0,0.2,0,0.4,0.1
			c0.3,0.2,0.6,0.4,1.1,0.5c0.4,0.1,0.9,0.2,1.5,0.2c0.8,0,1.3-0.1,1.7-0.4c0.4-0.3,0.5-0.7,0.5-1.2c0-0.4-0.1-0.7-0.4-0.9
			c-0.2-0.2-0.7-0.4-1.3-0.5l-1.3-0.3c-1.6-0.3-2.4-1.2-2.4-2.4c0-0.5,0.1-1,0.3-1.3c0.2-0.4,0.6-0.7,1-1c0.4-0.2,0.9-0.4,1.5-0.4
			V6.1c0-0.1,0-0.2,0.1-0.3c0.1-0.1,0.2-0.1,0.3-0.1c0.1,0,0.2,0,0.3,0.1c0.1,0.1,0.1,0.2,0.1,0.3v1.1c0.4,0,0.8,0.1,1.2,0.3
			c0.4,0.1,0.8,0.4,1.1,0.7c0.1,0.1,0.2,0.3,0.2,0.4c0,0.1-0.1,0.3-0.2,0.4c-0.1,0.1-0.3,0-0.5-0.1c-0.3-0.2-0.6-0.4-1-0.5
			C13,8.3,12.6,8.2,12,8.2c-0.7,0-1.2,0.1-1.6,0.5C10.1,9,9.9,9.4,9.9,9.9c0,0.4,0.1,0.7,0.4,1c0.2,0.2,0.7,0.4,1.2,0.5l1.3,0.3
			c0.9,0.2,1.5,0.5,1.9,0.9c0.4,0.4,0.6,0.9,0.6,1.5c0,0.7-0.2,1.3-0.8,1.8c-0.5,0.4-1.2,0.7-2,0.8v1.1c0,0.1,0,0.2-0.1,0.3
			C12.4,18.2,12.2,18.3,12.1,18.3z"/>
	</g>
</g>
</svg>
