<?xml version="1.0" encoding="utf-8"?>
<!-- Generator: Adobe Illustrator 25.4.1, SVG Export Plug-In . SVG Version: 6.00 Build 0)  -->
<svg version="1.1" id="Capa_1" xmlns="http://www.w3.org/2000/svg" xmlns:xlink="http://www.w3.org/1999/xlink" x="0px" y="0px"
	 viewBox="0 0 24 24" style="enable-background:new 0 0 24 24;" xml:space="preserve">
<style type="text/css">
	.st0{fill:#263238;}
</style>
<g>
	<g>
		<path class="st0" d="M12,3.6c-0.3,0-0.5-0.2-0.5-0.5V0.5C11.5,0.2,11.7,0,12,0s0.5,0.2,0.5,0.5v2.6C12.5,3.4,12.3,3.6,12,3.6z"/>
	</g>
	<g>
		<path class="st0" d="M12,24c-0.3,0-0.5-0.2-0.5-0.5v-2.6c0-0.3,0.2-0.5,0.5-0.5s0.5,0.2,0.5,0.5v2.6C12.5,23.8,12.3,24,12,24z"/>
	</g>
	<g>
		<path class="st0" d="M18.3,6.2c-0.1,0-0.2,0-0.3-0.1c-0.2-0.2-0.2-0.5,0-0.7l1.9-1.9c0.2-0.2,0.5-0.2,0.7,0c0.2,0.2,0.2,0.5,0,0.7
			L18.6,6C18.5,6.1,18.4,6.2,18.3,6.2z"/>
	</g>
	<g>
		<path class="st0" d="M3.8,20.6c-0.1,0-0.2,0-0.3-0.1c-0.2-0.2-0.2-0.5,0-0.7L5.4,18c0.2-0.2,0.5-0.2,0.7,0c0.2,0.2,0.2,0.5,0,0.7
			l-1.9,1.9C4.1,20.6,4,20.6,3.8,20.6z"/>
	</g>
	<g>
		<path class="st0" d="M23.5,12.5h-2.6c-0.3,0-0.5-0.2-0.5-0.5s0.2-0.5,0.5-0.5h2.6c0.3,0,0.5,0.2,0.5,0.5S23.8,12.5,23.5,12.5z"/>
	</g>
	<g>
		<path class="st0" d="M3.1,12.5H0.5C0.2,12.5,0,12.3,0,12s0.2-0.5,0.5-0.5h2.6c0.3,0,0.5,0.2,0.5,0.5S3.4,12.5,3.1,12.5z"/>
	</g>
	<g>
		<path class="st0" d="M20.2,20.6c-0.1,0-0.2,0-0.3-0.1L18,18.6c-0.2-0.2-0.2-0.5,0-0.7c0.2-0.2,0.5-0.2,0.7,0l1.9,1.9
			c0.2,0.2,0.2,0.5,0,0.7C20.4,20.6,20.3,20.6,20.2,20.6z"/>
	</g>
	<g>
		<path class="st0" d="M5.7,6.2c-0.1,0-0.2,0-0.3-0.1L3.5,4.2C3.3,4,3.3,3.7,3.5,3.5c0.2-0.2,0.5-0.2,0.7,0L6,5.4
			C6.2,5.6,6.2,5.9,6,6C6,6.1,5.9,6.2,5.7,6.2z"/>
	</g>
	<g>
		<path class="st0" d="M12,17.8c-3.2,0-5.8-2.6-5.8-5.8S8.8,6.2,12,6.2s5.8,2.6,5.8,5.8S15.2,17.8,12,17.8z M12,7.2
			c-2.6,0-4.8,2.2-4.8,4.8s2.2,4.8,4.8,4.8s4.8-2.2,4.8-4.8S14.6,7.2,12,7.2z"/>
	</g>
</g>
</svg>
