<?xml version="1.0" encoding="utf-8"?>
<!-- Generator: Adobe Illustrator 25.4.1, SVG Export Plug-In . SVG Version: 6.00 Build 0)  -->
<svg version="1.1" id="Capa_1" xmlns="http://www.w3.org/2000/svg" xmlns:xlink="http://www.w3.org/1999/xlink" x="0px" y="0px"
	 viewBox="0 0 24 24" style="enable-background:new 0 0 24 24;" xml:space="preserve">
<style type="text/css">
	.st0{fill:#263238;}
</style>
<g>
	<path class="st0" d="M20.2,1.6V0.6c0-0.3-0.2-0.5-0.5-0.5s-0.5,0.2-0.5,0.5v0.8c-0.1,0-0.1,0-0.2,0h-1.3V0.6c0-0.3-0.2-0.5-0.5-0.5
		c-0.3,0-0.5,0.2-0.5,0.5v0.8h-1.6V0.6c0-0.3-0.2-0.5-0.5-0.5c-0.3,0-0.5,0.2-0.5,0.5v0.8H9.9V0.6c0-0.3-0.2-0.5-0.5-0.5
		c-0.3,0-0.5,0.2-0.5,0.5v0.8H7.3V0.6c0-0.3-0.2-0.5-0.5-0.5c-0.3,0-0.5,0.2-0.5,0.5v0.8H5.1c-0.1,0-0.1,0-0.2,0V0.6
		c0-0.3-0.2-0.5-0.5-0.5S3.9,0.3,3.9,0.6v1c-1.2,0.5-2.1,1.7-2.1,3v14.6c0,1.3,0.8,2.5,2,3v1.2c0,0.3,0.2,0.5,0.5,0.5
		c0.3,0,0.5-0.2,0.5-0.5v-1.1c0.1,0,0.1,0,0.2,0H19c0.1,0,0.1,0,0.2,0v1.1c0,0.3,0.2,0.5,0.5,0.5s0.5-0.2,0.5-0.5v-1.2
		c1.2-0.5,2-1.6,2-3V4.6C22.2,3.2,21.4,2.1,20.2,1.6z M5.1,2.3H19c1.2,0,2.2,1,2.2,2.2v3H2.8v-3C2.8,3.3,3.8,2.3,5.1,2.3z M19,21.4
		H5.1c-1.2,0-2.2-1-2.2-2.2V8.5h18.4v10.7C21.3,20.4,20.2,21.4,19,21.4z"/>
	<path class="st0" d="M17.3,9.5H6.7c-1.2,0-2.2,1-2.2,2.2v5.8c0,1.2,1,2.2,2.2,2.2h10.6c1.2,0,2.2-1,2.2-2.2v-5.8
		C19.6,10.5,18.6,9.5,17.3,9.5z M18.6,17.6c0,0.7-0.6,1.3-1.3,1.3H6.7c-0.7,0-1.3-0.6-1.3-1.3v-5.8c0-0.7,0.6-1.3,1.3-1.3h10.6
		c0.7,0,1.3,0.6,1.3,1.3V17.6z"/>
	<path class="st0" d="M15.3,12.9H8.8c-0.3,0-0.5,0.2-0.5,0.5c0,0.3,0.2,0.5,0.5,0.5h6.5c0.3,0,0.5-0.2,0.5-0.5
		C15.7,13.1,15.5,12.9,15.3,12.9z"/>
	<path class="st0" d="M6.9,5.9c0.3,0,0.6-0.3,0.6-0.6c0-0.3-0.3-0.6-0.6-0.6c-0.3,0-0.6,0.3-0.6,0.6C6.2,5.6,6.5,5.9,6.9,5.9z"/>
	<path class="st0" d="M12,5.9c0.3,0,0.6-0.3,0.6-0.6c0-0.3-0.3-0.6-0.6-0.6c-0.3,0-0.6,0.3-0.6,0.6C11.4,5.6,11.7,5.9,12,5.9z"/>
	<path class="st0" d="M17.2,5.9c0.3,0,0.6-0.3,0.6-0.6c0-0.3-0.3-0.6-0.6-0.6c-0.3,0-0.6,0.3-0.6,0.6C16.6,5.6,16.9,5.9,17.2,5.9z"
		/>
</g>
</svg>
