<?xml version="1.0" encoding="utf-8"?>
<!-- Generator: Adobe Illustrator 25.4.1, SVG Export Plug-In . SVG Version: 6.00 Build 0)  -->
<svg version="1.1" id="Capa_1" xmlns="http://www.w3.org/2000/svg" xmlns:xlink="http://www.w3.org/1999/xlink" x="0px" y="0px"
	 viewBox="0 0 24 24" style="enable-background:new 0 0 24 24;" xml:space="preserve">
<style type="text/css">
	.st0{fill:#263238;}
</style>
<g>
	<g>
		<path class="st0" d="M20.3,14.5c-0.2,0-0.5,0-0.8-0.1c-0.5-0.2-1-0.6-1.2-1.3c-0.4-1-0.3-2.2,0.1-3.4c0.7-1.6,2-2.7,3.3-2.7l0,0
			c0.3,0,0.5,0,0.8,0.1l0,0c0.5,0.2,0.9,0.6,1.2,1.3c0.4,1,0.3,2.2-0.1,3.4C22.9,13.4,21.6,14.5,20.3,14.5L20.3,14.5z M21.8,7.9
			L21.8,7.9c-0.9,0-1.9,0.9-2.4,2.2c-0.4,1-0.5,2-0.1,2.7c0.1,0.2,0.3,0.6,0.7,0.7c0.1,0,0.2,0.1,0.4,0.1l0,0c0.9,0,1.9-0.9,2.4-2.2
			c0.4-1,0.4-2,0.1-2.7c-0.1-0.2-0.3-0.6-0.7-0.7C22.1,7.9,22,7.9,21.8,7.9z"/>
	</g>
	<g>
		<path class="st0" d="M17.8,22.4c-0.9,0-1.8-0.3-2.8-0.6c-1-0.3-2.1-0.7-3-0.7c-0.9,0-2,0.3-3,0.7c-1,0.3-2,0.6-2.8,0.6
			c-1.6,0-2.9-1.3-2.9-3c0-0.4,0-0.8,0.2-1.2c0.4-1,1.3-1.6,2.2-2.1c0.8-0.5,1.6-1,2.2-1.9c1.5-2.5,2.2-3.5,4.1-3.5
			c1.9,0,2.6,1.1,4.1,3.5l0,0c0.5,0.9,1.4,1.4,2.2,1.9c0.9,0.5,1.8,1.1,2.2,2.1c0.1,0.3,0.2,0.8,0.2,1.2
			C20.7,21,19.4,22.4,17.8,22.4z M12,20.1c1.1,0,2.2,0.4,3.3,0.7c0.9,0.3,1.8,0.6,2.5,0.6c1.1,0,1.9-0.9,1.9-2.1
			c0-0.3,0-0.6-0.1-0.8c-0.2-0.7-1-1.2-1.8-1.6c-0.9-0.5-1.9-1.1-2.5-2.2l0,0c-1.5-2.5-2-3-3.3-3c-1.3,0-1.8,0.6-3.3,3
			c-0.7,1.1-1.6,1.7-2.5,2.2c-0.8,0.5-1.5,0.9-1.8,1.6c-0.1,0.3-0.1,0.5-0.1,0.8c0,1.2,0.9,2.1,1.9,2.1c0.7,0,1.6-0.3,2.5-0.6
			C9.8,20.5,10.9,20.1,12,20.1z"/>
	</g>
	<g>
		<path class="st0" d="M8.7,9.4L8.7,9.4c-1.4,0-2.6-1.5-2.9-3.5c-0.3-2.2,0.6-4,2.1-4.2c0.1,0,0.2,0,0.3,0c1.4,0,2.6,1.5,2.9,3.5
			c0.3,2.2-0.6,4-2.1,4.2C8.9,9.4,8.8,9.4,8.7,9.4z M8.2,2.6c0,0-0.1,0-0.1,0C7.1,2.7,6.5,4.1,6.8,5.7c0.2,1.5,1.1,2.7,2,2.7l0,0
			c0,0,0.1,0,0.1,0c0.9-0.1,1.5-1.6,1.3-3.2C9.9,3.8,9,2.6,8.2,2.6z"/>
	</g>
	<g>
		<path class="st0" d="M15.3,9.4c-0.1,0-0.2,0-0.3,0c-1.5-0.2-2.4-2.1-2.1-4.2c0.3-2.2,1.7-3.8,3.2-3.5c1.5,0.2,2.4,2.1,2.1,4.2l0,0
			C17.9,7.9,16.7,9.4,15.3,9.4L15.3,9.4z M15.9,2.6c-0.9,0-1.7,1.2-2,2.7c-0.2,1.6,0.3,3,1.3,3.2c0,0,0.1,0,0.1,0
			c0.9,0,1.8-1.2,2-2.7l0,0c0.2-1.6-0.3-3-1.3-3.2C16,2.6,15.9,2.6,15.9,2.6z"/>
	</g>
	<g>
		<path class="st0" d="M3.7,14.5L3.7,14.5c-1.3,0-2.6-1.1-3.3-2.7c-0.5-1.2-0.6-2.5-0.1-3.4c0.2-0.6,0.7-1,1.2-1.3C1.7,7,2,7,2.2,7
			c1.3,0,2.6,1.1,3.3,2.7c0.5,1.2,0.6,2.5,0.1,3.4c-0.2,0.6-0.7,1-1.2,1.3l0,0C4.2,14.5,4,14.5,3.7,14.5z M2.2,7.9
			C2.1,7.9,1.9,8,1.8,8C1.5,8.2,1.3,8.5,1.1,8.8c-0.3,0.7-0.2,1.7,0.1,2.7c0.5,1.3,1.5,2.2,2.4,2.2l0,0c0.1,0,0.3,0,0.4-0.1
			c0.3-0.1,0.6-0.5,0.7-0.7C5,12.1,5,11.1,4.6,10.1C4.1,8.9,3.1,7.9,2.2,7.9L2.2,7.9z"/>
	</g>
</g>
</svg>
