<?xml version="1.0" encoding="utf-8"?>
<!-- Generator: Adobe Illustrator 25.4.1, SVG Export Plug-In . SVG Version: 6.00 Build 0)  -->
<svg version="1.1" id="Capa_1" xmlns="http://www.w3.org/2000/svg" xmlns:xlink="http://www.w3.org/1999/xlink" x="0px" y="0px"
	 viewBox="0 0 24 24" style="enable-background:new 0 0 24 24;" xml:space="preserve">
<style type="text/css">
	.st0{fill:#263238;}
</style>
<g>
	<path class="st0" d="M22.1,2L22.1,2C18.9,0.8,15.3,0.1,12,0.1C8.5,0.1,4.9,0.8,1.9,2C0.8,2.5,0.9,3.1,1,3.4l0.5,1.3
		c0.3,0.6,0.8,0.7,1.1,0.7c0,0.1,0,0.3,0.1,0.5c0,0.1,0.6,1.2,1.3,2.7c1.8,3.9,5.2,11.4,6.7,14.5c0.1,0.2,0.3,0.4,0.5,0.6
		C11.5,24,11.7,24,12,24s0.5-0.1,0.7-0.2c0.2-0.1,0.4-0.3,0.5-0.6L21.2,6c0.1-0.2,0.1-0.3,0.1-0.5h0c0,0,0.1,0,0.1,0
		c0.3,0,0.7-0.1,1-0.8L23,3.3C23.2,3,23,2.4,22.1,2z M20.3,5.6l-7.9,17.2c0,0-0.1,0.1-0.1,0.1c-0.1,0.1-0.3,0.1-0.4,0
		c0,0-0.1-0.1-0.1-0.1c-1.5-3.2-4.9-10.5-6.7-14.5C4.1,6.5,3.7,5.7,3.6,5.6c0-0.1,0-0.1,0-0.2c0,0,0-0.1,0.3-0.2
		C4.2,5,4.5,4.9,4.7,4.8C7.1,4.1,9.5,3.7,12,3.7l0,0c2.1,0,4.2,0.3,6.2,0.8c0.6,0.2,1.2,0.4,1.8,0.6c0.1,0,0.2,0.1,0.3,0.2
		C20.3,5.5,20.3,5.6,20.3,5.6z M21.6,4.4c0,0.1-0.1,0.1-0.1,0.2c0,0-0.1,0-0.1,0c0,0-0.1,0-0.1,0l0,0c0,0-0.1,0-0.2-0.1
		c-0.8-0.3-1.6-0.6-2.5-0.8c-2-0.6-4.1-0.9-6.5-0.9l0,0l0,0l0,0C9.3,2.8,6.7,3.2,4.4,4C3.9,4.1,3.5,4.3,3,4.4
		c-0.1,0-0.2,0.1-0.2,0.1c-0.3,0-0.3,0-0.4-0.1L1.9,3.1c0,0,0.1-0.1,0.3-0.2c3-1.2,6.5-1.8,9.8-1.8c3.2,0,6.7,0.7,9.8,1.9
		c0.2,0,0.3,0.1,0.3,0.2L21.6,4.4z"/>
	<path class="st0" d="M8.5,6.8c-1,0-1.8,0.8-1.8,1.8c0,1,0.8,1.8,1.8,1.8c1,0,1.8-0.8,1.8-1.8C10.2,7.5,9.5,6.8,8.5,6.8z"/>
	<path class="st0" d="M15.5,7.6c-1,0-1.8,0.8-1.8,1.8c0,1,0.8,1.8,1.8,1.8c1,0,1.8-0.8,1.8-1.8C17.3,8.4,16.5,7.6,15.5,7.6z"/>
	<path class="st0" d="M12,13.8c-1,0-1.8,0.8-1.8,1.8c0,1,0.8,1.8,1.8,1.8c1,0,1.8-0.8,1.8-1.8S13,13.8,12,13.8z"/>
</g>
</svg>
