<?xml version="1.0" encoding="utf-8"?>
<!-- Generator: Adobe Illustrator 25.4.1, SVG Export Plug-In . SVG Version: 6.00 Build 0)  -->
<svg version="1.1" id="Capa_1" xmlns="http://www.w3.org/2000/svg" xmlns:xlink="http://www.w3.org/1999/xlink" x="0px" y="0px"
	 viewBox="0 0 24 24" style="enable-background:new 0 0 24 24;" xml:space="preserve">
<style type="text/css">
	.st0{fill:#263238;}
</style>
<g>
	<path class="st0" d="M23.8,20.8c-0.2-0.1-0.5-0.1-0.7,0.1c-0.2,0.3-0.5,0.5-0.8,0.7c-0.3,0.1-0.7,0.2-1.1,0.2
		c-0.4,0-0.7-0.1-1.1-0.2c-0.3-0.1-0.6-0.4-0.8-0.7c-0.3-0.4-0.7-0.8-1.2-1c-0.5-0.2-1-0.3-1.5-0.3c-0.5,0-1.1,0.1-1.5,0.3
		c-0.5,0.2-0.9,0.6-1.2,1c-0.2,0.3-0.5,0.5-0.8,0.7c-0.3,0.1-0.7,0.2-1.1,0.2c-0.4,0-0.7-0.1-1.1-0.2c-0.3-0.1-0.6-0.4-0.8-0.7
		c-0.3-0.4-0.7-0.8-1.2-1c-0.5-0.2-1-0.3-1.5-0.3c-0.5,0-1.1,0.1-1.5,0.3c-0.5,0.2-0.9,0.6-1.2,1c-0.2,0.3-0.5,0.5-0.8,0.7
		c-0.3,0.1-0.7,0.2-1.1,0.2S2,21.8,1.7,21.6c-0.3-0.1-0.6-0.4-0.8-0.7c-0.1-0.2-0.4-0.3-0.7-0.1C0,21-0.1,21.3,0.1,21.5
		c0.3,0.4,0.7,0.8,1.2,1s1,0.3,1.5,0.3c0.5,0,1.1-0.1,1.5-0.3s0.9-0.6,1.2-1C5.7,21.2,6,21,6.3,20.8c0.3-0.1,0.7-0.2,1.1-0.2
		s0.7,0.1,1.1,0.2c0.3,0.1,0.6,0.4,0.8,0.7c0.3,0.4,0.7,0.8,1.2,1s1,0.3,1.5,0.3c0.5,0,1.1-0.1,1.5-0.3s0.9-0.6,1.2-1
		c0.2-0.3,0.5-0.5,0.8-0.7c0.3-0.2,0.7-0.2,1.1-0.2s0.7,0.1,1.1,0.2c0.3,0.1,0.6,0.4,0.8,0.7c0.3,0.4,0.7,0.8,1.2,1
		c0.4,0.2,1,0.3,1.4,0.3h0c0.5,0,1.1-0.1,1.5-0.3s0.9-0.6,1.2-1C24,21.3,24,21,23.8,20.8z"/>
	<path class="st0" d="M1.3,17.9c0.5,0.2,1,0.3,1.5,0.3c0.5,0,1.1-0.1,1.5-0.3s0.9-0.6,1.2-1c0.2-0.3,0.5-0.5,0.8-0.7
		C6.6,16,7,15.9,7.4,15.9s0.7,0.1,1.1,0.2s0.6,0.4,0.8,0.7c0.3,0.4,0.7,0.8,1.2,1c0.4,0.2,1,0.3,1.4,0.3c0,0,0.1,0,0.1,0
		c0.5,0,1-0.1,1.4-0.3c0.5-0.2,0.9-0.6,1.2-1c0.2-0.3,0.5-0.5,0.8-0.7c0.3-0.1,0.7-0.2,1.1-0.2c0.4,0,0.7,0.1,1.1,0.2
		c0.3,0.1,0.6,0.4,0.8,0.7c0.3,0.4,0.7,0.8,1.2,1s1,0.3,1.5,0.3c0.5,0,1.1-0.1,1.5-0.3c0.5-0.2,0.9-0.6,1.2-1
		c0.1-0.2,0.1-0.5-0.1-0.7c-0.2-0.1-0.5-0.1-0.7,0.1c-0.2,0.3-0.5,0.5-0.8,0.7c-0.3,0.2-0.7,0.2-1.1,0.2s-0.7-0.1-1.1-0.2
		c-0.3-0.1-0.6-0.4-0.8-0.7c-0.3-0.4-0.7-0.8-1.2-1c-0.5-0.2-1-0.3-1.5-0.3c-0.5,0-1.1,0.1-1.5,0.3s-0.9,0.6-1.2,1
		c-0.2,0.3-0.5,0.5-0.8,0.7c-0.3,0.1-0.7,0.2-1.1,0.2c-0.4,0-0.7-0.1-1.1-0.2c-0.3-0.1-0.6-0.4-0.8-0.7c-0.3-0.4-0.7-0.8-1.2-1
		S7.9,15,7.4,15c-0.5,0-1.1,0.1-1.5,0.3s-0.9,0.6-1.2,1c-0.2,0.3-0.5,0.5-0.8,0.7c-0.3,0.1-0.7,0.2-1.1,0.2S2.1,17.2,1.7,17
		c-0.3-0.1-0.6-0.4-0.8-0.7c-0.1-0.2-0.4-0.3-0.7-0.1c-0.2,0.1-0.3,0.4-0.1,0.7C0.3,17.3,0.8,17.7,1.3,17.9z"/>
	<path class="st0" d="M5,3.8c0.3,0,0.5-0.2,0.5-0.5c0-0.3,0.1-0.6,0.4-0.9C6.4,2,7.2,2,7.7,2.5C7.9,2.7,8.1,3,8.1,3.4v0.6l0,0l0,0
		v5.8l0,0l0,0V12c0,0.3,0.2,0.5,0.5,0.5C8.8,12.5,9,12.3,9,12v-1.8h6V12c0,0.3,0.2,0.5,0.5,0.5s0.5-0.2,0.5-0.5V3.4
		c0-0.3,0.1-0.6,0.4-0.9c0.5-0.5,1.3-0.5,1.8,0c0.2,0.2,0.4,0.5,0.4,0.9c0,0.3,0.2,0.5,0.5,0.5s0.5-0.2,0.5-0.5
		c0-0.6-0.2-1.2-0.6-1.6c-0.5-0.4-1.1-0.6-1.7-0.6c-0.6,0-1.2,0.2-1.6,0.6c-0.4,0.4-0.6,1-0.6,1.6v0.1H9V3.4c0-0.6-0.2-1.2-0.6-1.6
		c-0.4-0.4-1-0.6-1.6-0.6c-0.6,0-1.2,0.2-1.6,0.6c-0.4,0.4-0.6,1-0.6,1.6C4.6,3.6,4.8,3.8,5,3.8z M14.9,4.4v4.8H9V4.4
		C9,4.4,14.9,4.4,14.9,4.4z"/>
</g>
</svg>
