<?xml version="1.0" encoding="utf-8"?>
<!-- Generator: Adobe Illustrator 25.4.1, SVG Export Plug-In . SVG Version: 6.00 Build 0)  -->
<svg version="1.1" id="Capa_1" xmlns="http://www.w3.org/2000/svg" xmlns:xlink="http://www.w3.org/1999/xlink" x="0px" y="0px"
	 viewBox="0 0 24 24" style="enable-background:new 0 0 24 24;" xml:space="preserve">
<style type="text/css">
	.st0{fill:#263238;}
</style>
<g>
	<path class="st0" d="M2.1,1C1.9,0.8,1.6,0.8,1.4,1C0.7,1.6,0.4,2.6,0.3,3.8c0,2.1,1.1,4.4,2.8,6.1l4.4,4.4c0.4,0.4,0.8,0.6,1.3,0.8
		c0.5,0.1,1,0.1,1.5,0c0.2,0,0.4,0,0.6,0c0.2,0,0.4,0.1,0.5,0.3l0.6,0.5c0.1,0.1,0.2,0.2,0.2,0.4c0,0.1,0.1,0.3,0.1,0.4v0.3
		c0,0.6,0.2,1.1,0.6,1.5l4.6,4.7c0.4,0.4,1.1,0.7,1.7,0.7c0.6,0,1.2-0.2,1.7-0.7c0.4-0.4,0.7-1.1,0.7-1.7c0-0.6-0.2-1.2-0.7-1.7
		L2.1,1z M20.4,22.6c-0.5,0.5-1.5,0.5-2,0l-4.6-4.7c-0.2-0.2-0.3-0.5-0.3-0.8v-0.3c0-0.3,0-0.6-0.1-0.8c-0.1-0.2-0.3-0.5-0.5-0.7
		l-0.6-0.5c-0.2-0.2-0.6-0.4-0.9-0.5c-0.2,0-0.3,0-0.5,0c-0.2,0-0.4,0-0.5,0c-0.3,0.1-0.7,0.1-1.1,0c-0.3-0.1-0.7-0.3-0.9-0.5
		L3.9,9.3C2.3,7.8,1.3,5.6,1.3,3.8c0-0.7,0.2-1.3,0.5-1.9l18.5,18.6c0.3,0.3,0.4,0.6,0.4,1C20.8,22,20.7,22.3,20.4,22.6z"/>
	<path class="st0" d="M13.6,9.2c0.1,0,0.2,0,0.3-0.1l0.6-0.6c0.1-0.1,0.2-0.3,0.3-0.4c0-0.1,0.1-0.3,0.1-0.5V6.8
		c0-0.4,0-0.7,0.2-1.1c0.1-0.3,0.3-0.7,0.6-0.9l4-4c0.2-0.2,0.2-0.5,0-0.7C19.5,0,19.2,0,19,0.1l-4,4c-0.3,0.3-0.6,0.8-0.8,1.2
		c-0.2,0.4-0.3,1-0.3,1.4v0.8c0,0,0,0.1,0,0.1c0,0,0,0.1-0.1,0.1l-0.6,0.6C13,8.5,13,8.8,13.2,9C13.4,9.1,13.5,9.2,13.6,9.2z"/>
	<path class="st0" d="M23.8,4.3c-0.2-0.2-0.5-0.2-0.7,0l-4,4c-0.2,0.2-0.6,0.5-0.9,0.6c-0.3,0.1-0.7,0.2-1.1,0.2h-0.8
		c-0.2,0-0.3,0-0.5,0.1c-0.1,0-0.3,0.1-0.4,0.3L15,10c-0.2,0.2-0.2,0.5,0,0.7c0.1,0.1,0.2,0.1,0.3,0.1c0.1,0,0.2,0,0.3-0.1l0.6-0.6
		c0,0,0,0,0.1-0.1c0,0,0.1,0,0.1,0h0.8c0.5,0,1-0.1,1.4-0.3c0.5-0.2,0.9-0.5,1.2-0.8l4-4C24,4.8,24,4.5,23.8,4.3z"/>
	<path class="st0" d="M17,7c0.1,0.1,0.2,0.1,0.3,0.1c0.1,0,0.2,0,0.3-0.1l4.1-4.1c0.2-0.2,0.2-0.5,0-0.7s-0.5-0.2-0.7,0L17,6.3
		C16.8,6.5,16.8,6.8,17,7z"/>
	<path class="st0" d="M8.8,17.4l-5.1,5.1c-0.6,0.6-1.6,0.6-2.2,0c-0.3-0.3-0.5-0.7-0.5-1.1c0-0.4,0.2-0.8,0.5-1.1L5.7,16
		c0.2-0.2,0.2-0.5,0-0.7c-0.2-0.2-0.5-0.2-0.7,0l-4.3,4.3C0.3,20.2,0,20.8,0,21.5c0,0.7,0.2,1.3,0.7,1.8C1.2,23.8,1.8,24,2.5,24
		s1.3-0.2,1.8-0.7l5.1-5.1c0.2-0.2,0.2-0.5,0-0.7C9.2,17.2,9,17.2,8.8,17.4z"/>
</g>
</svg>
