<?xml version="1.0" encoding="utf-8"?>
<!-- Generator: Adobe Illustrator 25.4.1, SVG Export Plug-In . SVG Version: 6.00 Build 0)  -->
<svg version="1.1" id="Capa_1" xmlns="http://www.w3.org/2000/svg" xmlns:xlink="http://www.w3.org/1999/xlink" x="0px" y="0px"
	 viewBox="0 0 24 24" style="enable-background:new 0 0 24 24;" xml:space="preserve">
<style type="text/css">
	.st0{fill:#263238;}
</style>
<g>
	<path class="st0" d="M21.1,2.8h-0.7V0.6c0-0.3-0.2-0.5-0.5-0.5h-5.2l0,0H4.2c-0.3,0-0.5,0.2-0.5,0.5v2.2H2.9C2.6,2.8,2.4,3,2.4,3.3
		s0.2,0.5,0.5,0.5h0.8v2.3v0c0,0,0,0.1,0,0.1c0,0,0,0.1,0,0.1s0,0,0,0l0,0c0,0,0.1,0.1,0.1,0.1c0,0,0.1,0,0.2,0h15.7
		c0.3,0,0.5-0.2,0.5-0.5V3.8h0.2v3l-8.7,2c-0.2,0-0.4,0.2-0.4,0.5v3.9h-0.9c-0.3,0-0.5,0.2-0.5,0.5v8.4c0,0.3,0.1,0.7,0.3,1
		c0.2,0.3,0.5,0.5,0.8,0.6c0.2,0.1,0.5,0.1,0.8,0.1c0.3,0,0.5,0,0.8-0.1c0.3-0.1,0.6-0.3,0.7-0.6c0.2-0.3,0.3-0.6,0.3-0.9v-8.5
		c0-0.3-0.2-0.5-0.5-0.5h-0.9V9.6l8.7-2c0.2,0,0.4-0.2,0.4-0.5V3.3C21.6,3,21.4,2.8,21.1,2.8z M15.9,5.6l0.4-0.4
		c0.2-0.2,0.2-0.5,0-0.7s-0.5-0.2-0.7,0l-1,1.1H5.4l2.8-2.7c0.2-0.2,0.2-0.5,0-0.7c-0.2-0.2-0.5-0.2-0.7,0L4.7,5V1.1h8.8l-2.3,2.3
		C11,3.6,11,3.9,11.2,4c0.1,0.1,0.2,0.1,0.3,0.1c0.1,0,0.2,0,0.3-0.1l3-3h4.5v2.2l0,0l0,0v2.3C19.4,5.6,15.9,5.6,15.9,5.6z M13,22.2
		L13,22.2c0,0.1,0,0.2-0.1,0.4c-0.1,0.1-0.2,0.2-0.3,0.2c-0.3,0.1-0.6,0.1-0.9,0c-0.1,0-0.2-0.1-0.3-0.2c-0.1-0.1-0.1-0.2-0.1-0.4
		v-8H13L13,22.2L13,22.2z"/>
</g>
</svg>
