<?xml version="1.0" encoding="utf-8"?>
<!-- Generator: Adobe Illustrator 25.4.1, SVG Export Plug-In . SVG Version: 6.00 Build 0)  -->
<svg version="1.1" id="Capa_1" xmlns="http://www.w3.org/2000/svg" xmlns:xlink="http://www.w3.org/1999/xlink" x="0px" y="0px"
	 viewBox="0 0 24 24" style="enable-background:new 0 0 24 24;" xml:space="preserve">
<style type="text/css">
	.st0{fill:#263238;}
</style>
<path class="st0" d="M23.5,0h-23C0.2,0,0,0.2,0,0.5v23C0,23.8,0.2,24,0.5,24S1,23.8,1,23.5V1h3.1v1.9H2.9c-0.3,0-0.5,0.2-0.5,0.5
	v14.4c0,0.3,0.2,0.5,0.5,0.5h18.2c0.3,0,0.5-0.2,0.5-0.5V3.4c0-0.3-0.2-0.5-0.5-0.5h-1.4V1h3.8C23.8,1,24,0.8,24,0.5S23.8,0,23.5,0z
	 M20.6,3.8v13.4H3.4V3.8H20.6z M5,2.9V1h13.7v1.9H5z"/>
</svg>
