<?xml version="1.0" encoding="utf-8"?>
<!-- Generator: Adobe Illustrator 25.4.1, SVG Export Plug-In . SVG Version: 6.00 Build 0)  -->
<svg version="1.1" id="Capa_1" xmlns="http://www.w3.org/2000/svg" xmlns:xlink="http://www.w3.org/1999/xlink" x="0px" y="0px"
	 viewBox="0 0 24 24" style="enable-background:new 0 0 24 24;" xml:space="preserve">
<style type="text/css">
	.st0{fill:#263238;}
</style>
<g>
	<path class="st0" d="M22.5,17.3L20.1,16c0.5-0.6,1.1-1.2,1.8-1.6c0.2-0.1,0.3-0.4,0.2-0.7s-0.4-0.3-0.7-0.2c-0.9,0.5-1.6,1.1-2.2,2
		L13,12l6.2-3.5c0.6,0.8,1.3,1.5,2.2,2c0.1,0,0.1,0,0.2,0c0.2,0,0.3-0.1,0.4-0.2c0.1-0.2,0-0.5-0.2-0.7c-0.7-0.4-1.3-0.9-1.8-1.6
		l2.4-1.4c0.2-0.1,0.3-0.4,0.2-0.7c-0.1-0.2-0.4-0.3-0.7-0.2l-2.5,1.4C19.2,6.4,19,5.6,19,4.9c0-0.3-0.2-0.5-0.5-0.5
		c-0.3,0-0.5,0.2-0.5,0.5c0,1,0.2,1.9,0.6,2.8l-6.2,3.5V4.3c1,0,2-0.4,2.8-0.9c0.2-0.1,0.3-0.4,0.2-0.7c-0.1-0.2-0.4-0.3-0.7-0.2
		c-0.7,0.4-1.5,0.6-2.3,0.7V0.5C12.5,0.2,12.3,0,12,0s-0.5,0.2-0.5,0.5v2.7c-0.8,0-1.6-0.3-2.3-0.7C9,2.4,8.7,2.5,8.6,2.7
		s0,0.5,0.2,0.7c0.9,0.5,1.8,0.8,2.8,0.9v6.9L5.4,7.7C5.8,6.8,6,5.9,6,4.9c0-0.3-0.2-0.5-0.5-0.5c-0.3,0-0.5,0.2-0.5,0.5
		c0,0.8-0.1,1.6-0.5,2.3L2,5.8C1.7,5.7,1.4,5.8,1.3,6c-0.1,0.2,0,0.5,0.2,0.7l2.4,1.4C3.4,8.7,2.9,9.3,2.1,9.7
		C1.9,9.8,1.8,10,2,10.3c0.1,0.1,0.2,0.2,0.4,0.2c0.1,0,0.1,0,0.2,0c0.9-0.5,1.6-1.1,2.2-2L11,12l-6.2,3.5c-0.6-0.8-1.3-1.5-2.2-2
		c-0.2-0.1-0.5,0-0.7,0.2s0,0.5,0.2,0.7C2.9,14.8,3.5,15.3,4,16l-2.4,1.4c-0.2,0.1-0.3,0.4-0.2,0.7c0.1,0.1,0.2,0.2,0.4,0.2
		c0.1,0,0.1,0,0.2,0l2.5-1.4c0.3,0.7,0.5,1.5,0.5,2.3c0,0.3,0.2,0.5,0.5,0.5l0,0c0.2,0,0.5-0.2,0.5-0.5c0-1-0.2-1.9-0.6-2.8l6.2-3.5
		v6.9c-1,0-2,0.3-2.8,0.8c-0.2,0.1-0.3,0.4-0.2,0.7c0.1,0.1,0.2,0.2,0.4,0.2c0.1,0,0.1,0,0.2,0c0.7-0.4,1.5-0.6,2.3-0.7v2.7
		c0,0.3,0.2,0.5,0.5,0.5s0.5-0.2,0.5-0.5v-2.7c0.8,0,1.6,0.3,2.3,0.7c0.2,0.1,0.5,0,0.7-0.2c0.1-0.2,0-0.5-0.2-0.7
		c-0.8-0.5-1.8-0.8-2.8-0.8v-6.9l6.2,3.5c-0.4,0.9-0.6,1.8-0.6,2.8c0,0.2,0.2,0.5,0.5,0.5l0,0c0.3,0,0.5-0.2,0.5-0.5
		c0-0.8,0.1-1.6,0.5-2.3l2.5,1.4c0.1,0,0.1,0,0.2,0c0.2,0,0.3-0.1,0.4-0.2C22.8,17.8,22.7,17.4,22.5,17.3z"/>
</g>
</svg>
