<?xml version="1.0" encoding="utf-8"?>
<!-- Generator: Adobe Illustrator 25.4.1, SVG Export Plug-In . SVG Version: 6.00 Build 0)  -->
<svg version="1.1" id="Capa_1" xmlns="http://www.w3.org/2000/svg" xmlns:xlink="http://www.w3.org/1999/xlink" x="0px" y="0px"
	 viewBox="0 0 24 24" style="enable-background:new 0 0 24 24;" xml:space="preserve">
<style type="text/css">
	.st0{fill:#263238;}
</style>
<g>
	<path class="st0" d="M12.5,10.3L12.5,10.3V5.4C12.5,5.1,12.3,5,12,5c-0.3,0-0.5,0.2-0.5,0.5v4.9v0c-1.1,0.2-2,1.2-2,2.4
		c0,1.3,1.1,2.4,2.4,2.4s2.4-1.1,2.4-2.4C14.4,11.6,13.6,10.6,12.5,10.3z M12,14.2c-0.8,0-1.5-0.7-1.5-1.5c0-0.8,0.7-1.5,1.5-1.5
		c0.8,0,1.5,0.7,1.5,1.5C13.5,13.5,12.8,14.2,12,14.2z"/>
	<path class="st0" d="M19.9,4.8c-2-2-4.6-3.1-7.4-3.3l0,0v-1c0-0.3-0.2-0.5-0.5-0.5c-0.3,0-0.5,0.2-0.5,0.5v1c0,0,0,0,0,0
		c-2,0-4,0.7-5.8,1.9C5.5,3.6,5.1,3.9,4.9,4.1c0-0.1,0-0.1-0.1-0.2L4.1,3.2C3.9,3,3.6,3,3.4,3.2c-0.2,0.2-0.2,0.5,0,0.7l0.7,0.7
		c0,0,0.1,0.1,0.1,0.1c-1.1,1-2,2.3-2.6,3.8c-0.9,2-1.1,4.3-0.6,6.5c0.4,2.2,1.5,4.1,3,5.7s3.6,2.6,5.7,3c0.7,0.1,1.5,0.2,2.2,0.2
		c1.5,0,2.9-0.3,4.3-0.9c2-0.9,3.8-2.3,5-4.1c1.2-1.9,1.9-4,1.9-6.2C23.2,9.8,22,7,19.9,4.8z M20.5,18.4c-1.1,1.7-2.7,3-4.6,3.8
		c-1.9,0.8-3.9,1-5.9,0.6c-2-0.4-3.8-1.4-5.2-2.8S2.4,16.7,2,14.7c-0.4-2-0.2-4,0.5-5.9s2.1-3.5,3.8-4.6C8,3.1,10,2.5,12,2.5
		c2.7,0,5.3,1,7.2,3s3,4.5,3,7.2C22.2,14.8,21.6,16.7,20.5,18.4z"/>
</g>
</svg>
