<?xml version="1.0" encoding="utf-8"?>
<!-- Generator: Adobe Illustrator 25.4.1, SVG Export Plug-In . SVG Version: 6.00 Build 0)  -->
<svg version="1.1" id="Capa_1" xmlns="http://www.w3.org/2000/svg" xmlns:xlink="http://www.w3.org/1999/xlink" x="0px" y="0px"
	 viewBox="0 0 24 24" style="enable-background:new 0 0 24 24;" xml:space="preserve">
<style type="text/css">
	.st0{fill:#263238;}
</style>
<g>
	<path class="st0" d="M12.7,21.2c-0.1,0.1-0.3,0.1-0.4,0.1c-0.2,0-0.4-0.1-0.6-0.2c-0.1-0.1-0.2-0.4-0.2-0.6c0-0.2,0.1-0.4,0.2-0.6
		c0.1-0.1,0.4-0.2,0.6-0.2c0.3,0,0.5-0.2,0.5-0.5c0-0.3-0.2-0.5-0.5-0.5c-0.5,0-0.9,0.2-1.2,0.5c-0.3,0.3-0.5,0.8-0.5,1.2
		c0,0.5,0.2,0.9,0.5,1.2s0.8,0.5,1.2,0.5l0,0c0.3,0,0.7-0.1,0.9-0.3c0.2-0.1,0.3-0.4,0.1-0.7C13.1,21.2,12.9,21.1,12.7,21.2z"/>
	<path class="st0" d="M22.4,15.2L15,18.7c-0.6-0.9-1.6-1.6-2.8-1.6c-0.3,0-0.7,0-0.9,0.1L3.9,1.7C3.8,1.5,3.7,1.4,3.5,1.4h-3
		C0.2,1.4,0,1.6,0,1.8s0.2,0.5,0.5,0.5h2.7l7.2,15.3c-0.9,0.6-1.6,1.6-1.6,2.9c0,1.9,1.5,3.4,3.4,3.4s3.4-1.5,3.4-3.4
		c0-0.3,0-0.7-0.1-1l5.6-2.6l0.6,1.2c0.1,0.2,0.2,0.3,0.4,0.3c0,0,0.1,0,0.2,0c0.2-0.1,0.3-0.4,0.2-0.6l-0.6-1.2l0.9-0.4
		c0.2-0.1,0.3-0.4,0.2-0.6C22.9,15.2,22.6,15.1,22.4,15.2z M12.2,23c-1.4,0-2.4-1.1-2.4-2.4c0-1.4,1.1-2.4,2.4-2.4s2.4,1.1,2.4,2.4
		C14.6,21.9,13.5,23,12.2,23z"/>
	<path class="st0" d="M15.1,17.9c0,0,0.1,0,0.2,0l4.3-2c0.2-0.1,0.3-0.4,0.2-0.6c-0.1-0.2-0.4-0.3-0.6-0.2l-4.3,2
		c-0.2,0.1-0.3,0.4-0.2,0.6C14.7,17.8,14.9,17.9,15.1,17.9z"/>
	<path class="st0" d="M24,13.2l-2.1-4.6c-0.1-0.2-0.4-0.3-0.6-0.2l-1,0.5c0-0.1,0.1-0.3,0-0.4l-1.9-4.1c0-0.1-0.1-0.2-0.3-0.2
		c-0.1,0-0.2,0-0.4,0l-0.8,0.4l-1.9-4.1c0-0.1-0.1-0.2-0.3-0.2c-0.1,0-0.2,0-0.4,0L6.2,3.9C6.1,3.9,6,4,6,4.2c0,0.1,0,0.2,0,0.4
		l5.7,12.1c0.1,0.2,0.2,0.3,0.4,0.3c0,0,0.1,0,0.2,0c0.2-0.1,0.3-0.4,0.2-0.6L11.4,14l9.7-4.5l1.7,3.7l-2.4,1.1
		c-0.2,0.1-0.3,0.4-0.2,0.6c0.1,0.2,0.2,0.3,0.4,0.3c0,0,0.1,0,0.2,0l2.8-1.3c0.1,0,0.2-0.1,0.2-0.3C24,13.5,24,13.4,24,13.2z
		 M9.2,9.1l1.6-0.8c0.2-0.1,0.3-0.4,0.2-0.6c-0.1-0.2-0.4-0.3-0.6-0.2L8.9,8.3L7.1,4.6l7.2-3.4L16,4.9l-4.1,1.9
		c-0.2,0.1-0.3,0.4-0.2,0.6c0.1,0.2,0.4,0.3,0.6,0.2l5.3-2.5l1.7,3.7c0,0.1,0.2,0.2,0.3,0.2l-8.6,4L9.2,9.1z"/>
</g>
</svg>
