<?xml version="1.0" encoding="utf-8"?>
<!-- Generator: Adobe Illustrator 25.4.1, SVG Export Plug-In . SVG Version: 6.00 Build 0)  -->
<svg version="1.1" id="Capa_1" xmlns="http://www.w3.org/2000/svg" xmlns:xlink="http://www.w3.org/1999/xlink" x="0px" y="0px"
	 viewBox="0 0 24 24" style="enable-background:new 0 0 24 24;" xml:space="preserve">
<style type="text/css">
	.st0{fill:#263238;}
</style>
<g>
	<path class="st0" d="M16.9,0.1H7.1C5.5,0.1,4.2,1.4,4.2,3v4.1v1.6v7.3c0,1.6,1.3,2.9,2.9,2.9h9.8c1.6,0,2.9-1.3,2.9-2.9V8.7V7.1V3
		C19.8,1.4,18.5,0.1,16.9,0.1z M7.1,1h9.8c1,0,1.9,0.9,1.9,2v2.3C18.5,5.1,18.1,5,17.7,5H6.2C5.8,5,5.4,5.2,5.1,5.4V3
		C5.1,1.9,6,1,7.1,1z M18.9,8.7c0,0.6-0.5,1.1-1.1,1.1H6.2c-0.6,0-1.1-0.5-1.1-1.1V7.1C5.1,6.5,5.6,6,6.2,6h11.4
		c0.6,0,1.1,0.5,1.1,1.1L18.9,8.7L18.9,8.7z M16.9,18.1H7.1c-1.1,0-2-0.9-2-2v-5.6c0.3,0.2,0.7,0.3,1.1,0.3h11.4
		c0.4,0,0.8-0.1,1.1-0.3v5.6C18.9,17.2,18,18.1,16.9,18.1z"/>
	<path class="st0" d="M9.5,3.5h4.9c0.3,0,0.5-0.2,0.5-0.5s-0.2-0.5-0.5-0.5H9.5C9.2,2.6,9,2.8,9,3S9.3,3.5,9.5,3.5z"/>
	<path class="st0" d="M7.9,14c-0.7,0-1.3,0.6-1.3,1.3s0.6,1.3,1.3,1.3s1.3-0.6,1.3-1.3S8.6,14,7.9,14z M7.9,15.6
		c-0.2,0-0.3-0.1-0.3-0.3c0-0.2,0.1-0.3,0.3-0.3c0.2,0,0.3,0.1,0.3,0.3C8.2,15.5,8.1,15.6,7.9,15.6z"/>
	<path class="st0" d="M16.1,14c-0.7,0-1.3,0.6-1.3,1.3s0.6,1.3,1.3,1.3s1.3-0.6,1.3-1.3S16.8,14,16.1,14z M16.1,15.6
		c-0.2,0-0.3-0.1-0.3-0.3c0-0.2,0.1-0.3,0.3-0.3c0.2,0,0.3,0.1,0.3,0.3C16.4,15.5,16.2,15.6,16.1,15.6z"/>
	<path class="st0" d="M16.4,20.6c-0.2-0.2-0.5-0.2-0.7,0s-0.2,0.5,0,0.7l0.8,0.8H7.4l0.8-0.8c0.2-0.2,0.2-0.5,0-0.7s-0.5-0.2-0.7,0
		L6,22.2l0,0l-0.9,0.9c-0.2,0.2-0.2,0.5,0,0.7c0.1,0.1,0.2,0.1,0.3,0.1c0.1,0,0.2,0,0.3-0.1l0.7-0.7h11l0.7,0.7
		c0.1,0.1,0.2,0.1,0.3,0.1c0.1,0,0.2,0,0.3-0.1c0.2-0.2,0.2-0.5,0-0.7L16.4,20.6z"/>
</g>
</svg>
