<?xml version="1.0" encoding="utf-8"?>
<!-- Generator: Adobe Illustrator 25.4.1, SVG Export Plug-In . SVG Version: 6.00 Build 0)  -->
<svg version="1.1" id="Capa_1" xmlns="http://www.w3.org/2000/svg" xmlns:xlink="http://www.w3.org/1999/xlink" x="0px" y="0px"
	 viewBox="0 0 24 24" style="enable-background:new 0 0 24 24;" xml:space="preserve">
<style type="text/css">
	.st0{fill:#263238;}
</style>
<g>
	<path class="st0" d="M5.2,15.7c0.2,0.2,0.5,0.2,0.7,0s0.2-0.5,0-0.7l-2.3-2.3h9.7v6.2l-2.3-2.3c-0.2-0.2-0.5-0.2-0.7,0
		s-0.2,0.5,0,0.7l3.1,3.1c0.2,0.2,0.5,0.2,0.7,0l3.1-3.1c0.2-0.2,0.2-0.5,0-0.7s-0.5-0.2-0.7,0l-2.3,2.3v-6.2h6L18.1,15
		c-0.2,0.2-0.2,0.5,0,0.7s0.5,0.2,0.7,0l3.1-3.1c0.2-0.2,0.2-0.5,0-0.7l-3.1-3.1c-0.2-0.2-0.5-0.2-0.7,0s-0.2,0.5,0,0.7l2.3,2.3h-6
		V4.3l2.3,2.3c0.2,0.2,0.5,0.2,0.7,0c0.2-0.2,0.2-0.5,0-0.7l-3.1-3.1c-0.2-0.2-0.5-0.2-0.7,0l-3.1,3.1c-0.2,0.2-0.2,0.5,0,0.7
		c0.2,0.2,0.5,0.2,0.7,0l2.3-2.3v7.5H3.6l2.3-2.3c0.2-0.2,0.2-0.5,0-0.7s-0.5-0.2-0.7,0l-3.1,3.1c-0.2,0.2-0.2,0.5,0,0.7L5.2,15.7z"
		/>
	<path class="st0" d="M23.5,0h-23C0.2,0,0,0.2,0,0.5v23C0,23.8,0.2,24,0.5,24h23c0.3,0,0.5-0.2,0.5-0.5v-23C24,0.2,23.8,0,23.5,0z
		 M23,23H1V1h22V23z"/>
</g>
</svg>
