<?xml version="1.0" encoding="utf-8"?>
<!-- Generator: Adobe Illustrator 25.4.1, SVG Export Plug-In . SVG Version: 6.00 Build 0)  -->
<svg version="1.1" id="Capa_1" xmlns="http://www.w3.org/2000/svg" xmlns:xlink="http://www.w3.org/1999/xlink" x="0px" y="0px"
	 viewBox="0 0 24 24" style="enable-background:new 0 0 24 24;" xml:space="preserve">
<style type="text/css">
	.st0{fill:#263238;}
</style>
<g>
	<path class="st0" d="M16.9,2.3H2.7c-0.3,0-0.5,0.2-0.5,0.5v7c0,0.3,0.2,0.5,0.5,0.5h18.5c0.3,0,0.5-0.2,0.5-0.5v-7
		c0-0.3-0.2-0.5-0.5-0.5h-2.6c-0.3,0-0.5,0.2-0.5,0.5s0.2,0.5,0.5,0.5h2.2v6H3.1v-6h13.7c0.3,0,0.5-0.2,0.5-0.5S17.2,2.3,16.9,2.3z"
		/>
	<path class="st0" d="M4.7,5.8c0,0.9,0.7,1.6,1.6,1.6c0.9,0,1.6-0.7,1.6-1.6S7.1,4.1,6.3,4.1S4.7,4.8,4.7,5.8z M6.9,5.8
		c0,0.4-0.3,0.7-0.6,0.7S5.7,6.1,5.7,5.8c0-0.4,0.3-0.7,0.6-0.7C6.7,5.1,6.9,5.4,6.9,5.8z"/>
	<path class="st0" d="M16,5.8c0,0.9,0.7,1.6,1.6,1.6c0.9,0,1.6-0.7,1.6-1.6s-0.7-1.6-1.6-1.6C16.7,4.1,16,4.8,16,5.8z M17.6,5.1
		c0.3,0,0.6,0.3,0.6,0.7c0,0.4-0.3,0.7-0.6,0.7c-0.3,0-0.6-0.3-0.6-0.7C17,5.4,17.2,5.1,17.6,5.1z"/>
	<path class="st0" d="M2.2,18.7c0,0.3,0.2,0.5,0.5,0.5h18.5c0.3,0,0.5-0.2,0.5-0.5v-7c0-0.3-0.2-0.5-0.5-0.5h-2.6
		c-0.3,0-0.5,0.2-0.5,0.5s0.2,0.5,0.5,0.5h2.2v6H3.1v-6h13.7c0.3,0,0.5-0.2,0.5-0.5s-0.2-0.5-0.5-0.5H2.7c-0.3,0-0.5,0.2-0.5,0.5
		V18.7z"/>
	<path class="st0" d="M4.7,14.7c0,0.9,0.7,1.6,1.6,1.6c0.9,0,1.6-0.7,1.6-1.6c0-0.9-0.7-1.6-1.6-1.6S4.7,13.8,4.7,14.7z M6.9,14.7
		c0,0.4-0.3,0.7-0.6,0.7s-0.6-0.3-0.6-0.7C5.7,14.3,6,14,6.3,14C6.7,14,6.9,14.3,6.9,14.7z"/>
	<path class="st0" d="M16,14.7c0,0.9,0.7,1.6,1.6,1.6c0.9,0,1.6-0.7,1.6-1.6c0-0.9-0.7-1.6-1.6-1.6C16.7,13.1,16,13.8,16,14.7z
		 M17.6,14c0.3,0,0.6,0.3,0.6,0.7c0,0.4-0.3,0.7-0.6,0.7c-0.3,0-0.6-0.3-0.6-0.7C17,14.3,17.2,14,17.6,14z"/>
	<path class="st0" d="M23.2,0.1H0.7c-0.3,0-0.5,0.2-0.5,0.5v14.6c0,0.3,0.2,0.5,0.5,0.5s0.5-0.2,0.5-0.5V1h21.5v19.4H1.2v-3.9
		c0-0.3-0.2-0.5-0.5-0.5s-0.5,0.2-0.5,0.5v4.3c0,0.3,0.2,0.5,0.5,0.5h1.6l0.6,2.2c0,0.2,0.2,0.3,0.5,0.3h2.4c0.3,0,0.5-0.2,0.5-0.5
		v-2h11.1v2c0,0.3,0.2,0.5,0.5,0.5h2.4c0.2,0,0.4-0.1,0.5-0.3l0.6-2.2h1.9c0.3,0,0.5-0.2,0.5-0.5V0.6C23.7,0.3,23.4,0.1,23.2,0.1z
		 M5.3,23H3.8l-0.4-1.5h2V23z M19.8,23h-1.5v-1.5h2L19.8,23z"/>
</g>
</svg>
