<?xml version="1.0" encoding="utf-8"?>
<!-- Generator: Adobe Illustrator 25.4.1, SVG Export Plug-In . SVG Version: 6.00 Build 0)  -->
<svg version="1.1" id="Capa_1" xmlns="http://www.w3.org/2000/svg" xmlns:xlink="http://www.w3.org/1999/xlink" x="0px" y="0px"
	 viewBox="0 0 24 24" style="enable-background:new 0 0 24 24;" xml:space="preserve">
<style type="text/css">
	.st0{fill:#263238;}
</style>
<g>
	<path class="st0" d="M13.2,11.8c-0.5-0.2-1.1-0.3-1.7-0.2S10.4,12,10,12.4c-0.4,0.4-0.7,1-0.8,1.5c-0.1,0.6,0,1.1,0.2,1.7
		c0.2,0.5,0.6,1,1.1,1.3c0.5,0.3,1,0.5,1.6,0.5c0.8,0,1.5-0.3,2.1-0.9c0.6-0.6,0.9-1.3,0.9-2.1c0-0.6-0.2-1.1-0.5-1.6
		C14.1,12.3,13.7,12,13.2,11.8z M13.4,15.9c-0.7,0.7-1.8,0.8-2.5,0.2c-0.3-0.2-0.6-0.5-0.7-0.9C10,14.8,10,14.4,10.1,14
		c0.1-0.4,0.3-0.7,0.5-1c0.3-0.3,0.6-0.5,1-0.5c0.1,0,0.2,0,0.4,0c0.2,0,0.5,0,0.8,0.1c0.4,0.1,0.7,0.4,0.9,0.7
		c0.2,0.3,0.3,0.7,0.3,1.1C14,15,13.8,15.5,13.4,15.9z"/>
	<path class="st0" d="M16.1,4.2H8c-0.3,0-0.7,0.1-0.9,0.4C6.8,4.8,6.7,5.1,6.7,5.4v3.3c0,0.3,0.1,0.7,0.4,0.9C7.3,9.9,7.6,10,8,10
		h8.2c0.3,0,0.7-0.1,0.9-0.4c0.2-0.2,0.4-0.6,0.4-0.9V5.4c0-0.3-0.1-0.7-0.4-0.9C16.8,4.3,16.5,4.2,16.1,4.2z M16.5,8.7
		c0,0.1,0,0.2-0.1,0.2c0,0-0.1,0.1-0.2,0.1H8C7.9,9.1,7.8,9,7.7,9c0,0-0.1-0.1-0.1-0.2V5.4c0-0.1,0-0.2,0.1-0.2c0,0,0.1-0.1,0.2-0.1
		h8.2c0.1,0,0.2,0,0.2,0.1c0,0,0.1,0.1,0.1,0.2V8.7z"/>
	<path class="st0" d="M18.9,1.9c-0.6-0.6-1.5-1-2.4-1h-0.9c0-0.1-0.1-0.3-0.3-0.4c-0.2-0.2-0.5-0.4-0.9-0.4H9.6
		c-0.3,0-0.7,0.1-0.9,0.4C8.5,0.6,8.4,0.7,8.4,0.9H7.5c-0.9,0-1.7,0.3-2.4,1c-0.6,0.6-1,1.5-1,2.4v12.6c0,2,5.9,3.4,7.7,3.8
		c0,0,0,0,0.1,0c0,0,0,0,0.1,0c1.8-0.4,7.7-1.8,7.7-3.8V4.3C19.9,3.3,19.6,2.5,18.9,1.9z M18.9,16.8c0,0.7-2.8,2-6.9,2.9
		c-4.1-0.9-6.9-2.1-6.9-2.9V4.3c0-0.6,0.2-1.2,0.7-1.7c0.5-0.5,1-0.7,1.7-0.7h1.2c0.3,0,0.5-0.2,0.5-0.5c0-0.1,0-0.2,0.1-0.2
		S9.5,1,9.6,1h4.9c0.1,0,0.2,0,0.2,0.1s0.1,0.1,0.1,0.2c0,0.3,0.2,0.5,0.5,0.5h1.3c0.6,0,1.2,0.2,1.7,0.7C18.7,3,19,3.6,19,4.3
		L18.9,16.8L18.9,16.8z"/>
	<path class="st0" d="M16.5,20.7c-0.2-0.2-0.5-0.2-0.7,0c-0.2,0.2-0.2,0.5,0,0.7l0.8,0.8H7.5l0.8-0.8c0.2-0.2,0.2-0.5,0-0.7
		c-0.2-0.2-0.5-0.2-0.7,0L6,22.3l0,0l-0.9,0.9c-0.2,0.2-0.2,0.5,0,0.7c0.1,0.1,0.2,0.1,0.3,0.1c0.1,0,0.2,0,0.3-0.1l0.7-0.7h11.1
		l0.7,0.7c0.1,0.1,0.2,0.1,0.3,0.1s0.2,0,0.3-0.1c0.2-0.2,0.2-0.5,0-0.7L16.5,20.7z"/>
</g>
</svg>
