<?xml version="1.0" encoding="utf-8"?>
<!-- Generator: Adobe Illustrator 25.4.1, SVG Export Plug-In . SVG Version: 6.00 Build 0)  -->
<svg version="1.1" id="Capa_1" xmlns="http://www.w3.org/2000/svg" xmlns:xlink="http://www.w3.org/1999/xlink" x="0px" y="0px"
	 viewBox="0 0 24 24" style="enable-background:new 0 0 24 24;" xml:space="preserve">
<style type="text/css">
	.st0{fill:#263238;}
</style>
<path class="st0" d="M23.9,15.8l-3.1-3.1c-0.1-0.1-0.3-0.2-0.4-0.3c-0.1,0-0.3-0.1-0.5-0.1h-7.4V10h7.7c0.3,0,0.7-0.1,0.9-0.4
	c0.2-0.2,0.4-0.6,0.4-0.9V3.8c0-0.3-0.1-0.7-0.4-0.9c-0.2-0.2-0.6-0.4-0.9-0.4h-7.7V1.3c0-0.3-0.2-0.5-0.5-0.5
	c-0.3,0-0.5,0.2-0.5,0.5v1.1H4.2c-0.2,0-0.3,0-0.5,0.1C3.5,2.7,3.4,2.8,3.2,2.9L0.1,5.9C0,6.1,0,6.4,0.1,6.6l3.1,3.1
	c0.1,0.1,0.2,0.2,0.4,0.3C3.8,10,4,10,4.1,10h7.4v2.3H3.8c-0.3,0-0.7,0.1-0.9,0.4s-0.4,0.6-0.4,0.9v4.9c0,0.3,0.1,0.7,0.4,0.9
	s0.6,0.4,0.9,0.4h7.7v2.8c0,0.3,0.2,0.5,0.5,0.5c0.3,0,0.5-0.2,0.5-0.5v-2.8h7.4c0.2,0,0.3,0,0.5-0.1c0.1,0,0.3-0.1,0.4-0.3l3.1-3.1
	C24,16.3,24,15.9,23.9,15.8z M4,9C4,9,3.9,9,4,9L1.2,6.3l2.7-2.7c0,0,0,0,0.1-0.1c0,0,0.1,0,0.1,0H12l0,0l0,0h8.2
	c0.1,0,0.2,0,0.2,0.1c0,0,0.1,0.1,0.1,0.2v4.9c0,0.1,0,0.2-0.1,0.2c0,0-0.1,0.1-0.2,0.1h-16C4.1,9,4.1,9,4,9z M20.1,18.8
	C20.1,18.9,20.1,18.9,20.1,18.8c-0.1,0.1-0.2,0.1-0.2,0.1H12l0,0l0,0H3.8c-0.1,0-0.2,0-0.2-0.1c0,0-0.1-0.1-0.1-0.2v-5
	c0-0.1,0-0.2,0.1-0.2c0,0,0.1-0.1,0.2-0.1h16.1c0,0,0.1,0,0.1,0c0,0,0.1,0,0.1,0.1l2.7,2.7L20.1,18.8z"/>
</svg>
