<?xml version="1.0" encoding="utf-8"?>
<!-- Generator: Adobe Illustrator 25.4.1, SVG Export Plug-In . SVG Version: 6.00 Build 0)  -->
<svg version="1.1" id="Capa_1" xmlns="http://www.w3.org/2000/svg" xmlns:xlink="http://www.w3.org/1999/xlink" x="0px" y="0px"
	 viewBox="0 0 24 24" style="enable-background:new 0 0 24 24;" xml:space="preserve">
<style type="text/css">
	.st0{fill:#263238;}
</style>
<g>
	<path class="st0" d="M3,8.2c0,0,0.1,0,0.1,0c0.2,0,0.4-0.1,0.5-0.3c0.2-0.6,0.6-1.1,1.1-1.3C5,6.4,5.1,6.1,5,5.9
		C4.9,5.7,4.9,5.4,4.9,5.2c0-0.6,0.2-1.1,0.6-1.6c0.4-0.4,1-0.7,1.6-0.7c0.2,0,0.4-0.1,0.4-0.3C7.6,2.2,7.7,2,7.9,1.7
		c0.2-0.2,0.4-0.4,0.7-0.5c0.3-0.1,0.6-0.1,0.9-0.1c0.3,0,0.6,0.1,0.8,0.3c0.1,0.1,0.4,0.1,0.5,0c0.7-0.5,1.7-0.5,2.3,0
		c0.1,0.1,0.4,0.1,0.5,0c0.2-0.1,0.5-0.2,0.8-0.3c0.3,0,0.6,0,0.9,0.1c0.3,0.1,0.5,0.3,0.7,0.5c0.2,0.2,0.3,0.5,0.4,0.8
		c0,0.2,0.2,0.3,0.4,0.3c0.2,0,0.4,0,0.7,0.1c0.2,0.1,0.5,0,0.6-0.3c0.1-0.2,0-0.5-0.3-0.6c-0.3,0-0.5-0.1-0.7-0.1
		c-0.1-0.3-0.3-0.6-0.5-0.8c-0.3-0.3-0.7-0.6-1.1-0.8c-0.4-0.1-0.9-0.2-1.3-0.2c-0.3,0-0.7,0.1-1,0.2c-0.9-0.5-2.1-0.5-2.9,0
		c-0.3-0.1-0.6-0.2-1-0.2c-0.4,0-0.9,0-1.3,0.2C7.9,0.5,7.5,0.8,7.2,1.1C7,1.4,6.8,1.6,6.7,1.9C6,2.1,5.3,2.4,4.8,2.9
		C4.2,3.6,3.9,4.4,3.9,5.2c0,0.2,0,0.4,0,0.6c-0.6,0.4-1.1,1-1.3,1.7C2.6,7.8,2.8,8.1,3,8.2z"/>
	<path class="st0" d="M21.4,8.1c-0.1-0.5-0.3-1-0.6-1.4C20.6,6.3,20.3,6,20,5.8c0.1-0.5,0.1-0.9,0-1.4c-0.1-0.6-0.4-1.1-0.9-1.5
		c-0.2-0.2-0.5-0.2-0.7,0c-0.2,0.2-0.2,0.5,0,0.7c0.3,0.3,0.5,0.7,0.6,1.1c0.1,0.4,0.1,0.9,0,1.2c0,0.2,0,0.5,0.2,0.6
		c0.3,0.2,0.6,0.4,0.8,0.7c0.2,0.3,0.3,0.7,0.4,1c0,0.4,0,0.7-0.1,1.1c-0.1,0.3-0.3,0.7-0.6,0.9c-0.1,0.1-0.2,0.4,0,0.6
		c0.2,0.4,0.4,0.8,0.4,1.2c0,0.6-0.2,1.2-0.7,1.6s-1,0.7-1.7,0.7c0,0-0.1,0-0.1,0c-0.1,0-0.2,0-0.3,0.1s-0.1,0.2-0.1,0.3
		c0,0.5-0.2,0.9-0.6,1.2c-0.3,0.3-0.8,0.5-1.3,0.5c-0.1,0-0.3,0-0.5-0.1c-0.1,0-0.2,0-0.3,0c0-0.8,0.3-1.5,0.8-2.1l2.3-2.7
		c0,0,0.1,0,0.1,0c0.1,0,0.3,0,0.5,0l0.4-0.1c0.2-0.1,0.4-0.3,0.3-0.6c-0.1-0.2-0.3-0.4-0.6-0.3l-0.4,0.1c-0.1,0-0.3,0-0.4,0
		c-0.1,0-0.2-0.1-0.3-0.2c-0.1-0.1-0.1-0.2-0.2-0.4c0-0.1,0-0.3,0-0.4L17,9.4c0.1-0.2,0-0.5-0.2-0.6c-0.2-0.1-0.5,0-0.6,0.2L16,9.3
		c-0.1,0.2-0.1,0.5-0.1,0.7l-1.7,1.5V9.3c0.1-0.1,0.2-0.2,0.2-0.3l0.5-1.1c0.1-0.2,0-0.5-0.2-0.6c-0.2-0.1-0.5,0-0.6,0.2l-0.5,1.1
		c0,0,0,0.1-0.1,0.1c0,0-0.1,0-0.1,0.1c0,0-0.1,0-0.1,0s-0.1,0-0.1,0l-0.6-0.2c-0.3-0.1-0.6-0.1-1,0l-0.1,0c-0.1,0-0.2,0.1-0.3,0.1
		s-0.2,0-0.3,0c-0.1,0-0.2-0.1-0.3-0.1c-0.1,0-0.1-0.1-0.2-0.2L10,7.7C9.9,7.5,9.7,7.4,9.4,7.5C9.2,7.6,9.1,7.9,9.2,8.1l0.3,0.6
		c0.1,0.2,0.2,0.4,0.4,0.5v1.2L8.4,9c0-0.1,0-0.3-0.1-0.4L8.1,8.1C8,7.8,7.7,7.7,7.5,7.8C7.2,7.9,7.1,8.2,7.2,8.4l0.2,0.5
		c0,0.1,0,0.2,0,0.4S7.3,9.5,7.3,9.6C7.2,9.7,7.1,9.8,6.9,9.8c-0.1,0-0.2,0-0.4,0C6.3,9.8,6,10,6,10.3c0,0.2,0.1,0.5,0.4,0.6
		c0,0,0.1,0,0.1,0l2.4,2.7c0.4,0.4,0.6,1,0.6,1.6v1.6c-0.1,0-0.1,0-0.2,0c-0.1,0-0.3,0-0.5,0c-0.5,0-1-0.2-1.3-0.5
		C7.2,15.9,7,15.5,7,15c0-0.1,0-0.2-0.1-0.3c-0.1-0.2-0.2-0.2-0.4-0.2c0,0-0.1,0-0.2,0c-0.4,0-0.8-0.1-1.2-0.3
		c-0.3-0.2-0.7-0.5-0.9-0.9C4,12.8,3.9,12.4,3.9,12s0.1-0.8,0.4-1.2c0.1-0.2,0.1-0.4-0.1-0.6C3.9,9.8,3.6,9.4,3.5,9
		c0-0.2-0.3-0.4-0.6-0.4c-0.2,0-0.4,0.3-0.4,0.6c0.1,0.5,0.3,1,0.7,1.4C3.1,11.1,3,11.5,3,12c0,0.6,0.1,1.2,0.4,1.7
		c0.3,0.5,0.7,1,1.2,1.2s1,0.4,1.5,0.5c0.1,0.6,0.4,1.1,0.8,1.4c0.5,0.5,1.2,0.8,2,0.8c0.2,0,0.5,0,0.7-0.1v6c0,0.3,0.2,0.5,0.5,0.5
		s0.5-0.2,0.5-0.5V15c0-0.8-0.3-1.6-0.9-2.2l-2.1-2.3c0.1-0.1,0.3-0.2,0.4-0.3c0,0,0.1-0.1,0.1-0.1l1.5,1.5c0.1,0.1,0.2,0.1,0.3,0.2
		c0,0,0.1,0,0.1,0c0.1,0,0.2,0,0.3,0c0.1,0,0.2-0.1,0.3-0.2c0.1-0.1,0.1-0.2,0.1-0.4V9.6c0.1,0,0.2,0,0.3,0c0.2,0,0.5-0.1,0.7-0.2
		l0.1,0c0,0,0,0,0.1,0l0.6,0.2c0.1,0.1,0.3,0.1,0.5,0.1h0h0V12c0,0.1,0,0.3,0.1,0.4c0.1,0.1,0.2,0.2,0.3,0.3c0.1,0,0.2,0,0.3,0
		c0,0,0.1,0,0.2,0c0.1,0,0.3-0.1,0.4-0.2l1.7-1.5c0,0,0,0.1,0.1,0.1c0,0.1,0.1,0.1,0.2,0.2l-2.1,2.4c-0.6,0.8-1,1.8-1,2.9v2.5
		c0,0.3,0.2,0.5,0.5,0.5s0.5-0.2,0.5-0.5v-1.8c0,0,0,0,0,0c0.2,0.1,0.5,0.1,0.8,0.1c0.7,0,1.4-0.3,2-0.8c0.4-0.4,0.7-0.9,0.8-1.4
		c0.8,0,1.5-0.4,2.1-1c0.6-0.6,1-1.4,1-2.3c0-0.5-0.1-1-0.3-1.4c0.2-0.3,0.4-0.7,0.6-1C21.4,9.1,21.5,8.6,21.4,8.1z"/>
	<path class="st0" d="M13.9,21.2c-0.3,0-0.5,0.2-0.5,0.5v1.9c0,0.3,0.2,0.5,0.5,0.5c0.3,0,0.5-0.2,0.5-0.5v-1.9
		C14.3,21.4,14.2,21.2,13.9,21.2z"/>
	<path class="st0" d="M11.4,16.1c-0.3,0-0.5,0.2-0.5,0.5v2.4c0,0.3,0.2,0.5,0.5,0.5s0.5-0.2,0.5-0.5v-2.4
		C11.9,16.2,11.7,16.1,11.4,16.1z"/>
</g>
</svg>
