<?xml version="1.0" encoding="utf-8"?>
<!-- Generator: Adobe Illustrator 25.4.1, SVG Export Plug-In . SVG Version: 6.00 Build 0)  -->
<svg version="1.1" id="Capa_1" xmlns="http://www.w3.org/2000/svg" xmlns:xlink="http://www.w3.org/1999/xlink" x="0px" y="0px"
	 viewBox="0 0 24 24" style="enable-background:new 0 0 24 24;" xml:space="preserve">
<style type="text/css">
	.st0{fill:#263238;}
</style>
<g>
	<path class="st0" d="M19.7,21.7L16.1,7.1l0,0c0-0.1,0-0.1,0-0.2l-0.4-1.7c0-0.2-0.2-0.4-0.5-0.4h-1.9V3.3c0-1.8-1.3-3.2-2.9-3.2
		S7.5,1.5,7.5,3.3v8.3H7c-0.3,0-0.5,0.2-0.5,0.5v8.4l-2.2,2.7c-0.1,0.1-0.1,0.3,0,0.5c0.1,0.2,0.2,0.3,0.4,0.3H9
		c0.3,0,0.5-0.2,0.5-0.5v-2.2c0.3,1.5,1.7,2.6,3.3,2.6c1.2,0,2.2-0.6,2.8-1.5h3.7c0.1,0,0.3,0,0.4-0.2C19.8,22,19.8,21.9,19.7,21.7z
		 M16.2,11.5h-1.9v-4h0.9L16.2,11.5z M8.5,20.2h-1v-7.7h1V20.2z M5.7,22.9l1.5-1.8h1.3v1.8H5.7z M9,11.5H8.4V3.3
		c0-1.2,0.9-2.2,2-2.2c1,0,1.9,1,1.9,2.2v1.6h-2.2c-0.3,0-0.5,0.2-0.5,0.5c0,0.3,0.2,0.5,0.5,0.5h0.8v11.8c-0.7,0.5-1.2,1.2-1.4,2.1
		V12C9.4,11.8,9.2,11.5,9,11.5z M12.7,22.9c-1.3,0-2.4-1.1-2.4-2.4s1.1-2.4,2.4-2.4s2.4,1.1,2.4,2.4S14.1,22.9,12.7,22.9z M16,21.3
		c0.1-0.3,0.1-0.6,0.1-0.9c0-1.9-1.5-3.4-3.4-3.4c-0.3,0-0.6,0-0.9,0.1V5.8h3L15,6.6h-1.1c-0.3,0-0.5,0.2-0.5,0.5V12
		c0,0.3,0.2,0.5,0.5,0.5h2.6l2.2,8.8H16z"/>
	<path class="st0" d="M12.7,19.2c-0.7,0-1.3,0.6-1.3,1.3c0,0.7,0.6,1.3,1.3,1.3c0.7,0,1.3-0.6,1.3-1.3C14,19.8,13.4,19.2,12.7,19.2z
		 M12.7,20.8c-0.2,0-0.3-0.1-0.3-0.3c0-0.2,0.1-0.3,0.3-0.3c0.2,0,0.3,0.1,0.3,0.3C13.1,20.7,12.9,20.8,12.7,20.8z"/>
</g>
</svg>
