<?xml version="1.0" encoding="utf-8"?>
<!-- Generator: Adobe Illustrator 25.4.1, SVG Export Plug-In . SVG Version: 6.00 Build 0)  -->
<svg version="1.1" id="Capa_1" xmlns="http://www.w3.org/2000/svg" xmlns:xlink="http://www.w3.org/1999/xlink" x="0px" y="0px"
	 viewBox="0 0 24 24" style="enable-background:new 0 0 24 24;" xml:space="preserve">
<style type="text/css">
	.st0{fill:#263238;}
</style>
<g>
	<path class="st0" d="M13,17.6V8.3c0-0.3,0-0.7-0.2-1c-0.1-0.3-0.3-0.6-0.6-0.8c-0.2-0.2-0.5-0.4-0.8-0.6s-0.6-0.2-1-0.2l0,0H9.6
		l0,0l0,0c-2.1,0-4.1,3.7-4.2,4.1c0,0,0,0.1,0,0.2v3.8c0,0.3,0.2,0.5,0.5,0.5s0.5-0.2,0.5-0.5v-3.7C6.8,9.3,8,7.3,9.2,6.8v6
		c0,0.8,0.2,1.5,0.6,2.1c0,0,0,0,0,0l2.3,2.9l2.9,5.8c0.1,0.2,0.2,0.3,0.4,0.3c0,0,0.1,0,0.2,0c0.2-0.1,0.3-0.4,0.2-0.6L13,17.6z
		 M12,16.3l-1.5-1.9c-0.3-0.5-0.4-1-0.4-1.6V6.7h0.3c0.2,0,0.4,0,0.6,0.1c0.2,0.1,0.4,0.2,0.5,0.3c0.1,0.1,0.3,0.3,0.3,0.5
		c0.1,0.2,0.1,0.4,0.1,0.6L12,16.3L12,16.3z"/>
	<path class="st0" d="M18.4,12.5l-3.4-2.2c-0.2-0.1-0.5-0.1-0.7,0.1c-0.1,0.2-0.1,0.5,0.1,0.7l3.4,2.2c0.1,0,0.2,0.1,0.2,0.1
		c0.1,0,0.3-0.1,0.4-0.2C18.7,12.9,18.7,12.6,18.4,12.5z"/>
	<path class="st0" d="M10.3,19l-2.7,4c-0.1,0.2-0.1,0.5,0.1,0.7c0.1,0,0.2,0.1,0.3,0.1c0.1,0,0.3-0.1,0.4-0.2l2.7-4
		c0.1-0.2,0.1-0.5-0.1-0.7C10.8,18.7,10.5,18.8,10.3,19z"/>
	<path class="st0" d="M12.5,4.8c1.3,0,2.4-1,2.4-2.4S13.8,0,12.5,0s-2.4,1-2.4,2.4S11.2,4.8,12.5,4.8z M12.5,1
		c0.8,0,1.4,0.6,1.4,1.4s-0.6,1.4-1.4,1.4c-0.8,0-1.4-0.6-1.4-1.4S11.7,1,12.5,1z"/>
</g>
</svg>
