<?xml version="1.0" encoding="utf-8"?>
<!-- Generator: Adobe Illustrator 25.4.1, SVG Export Plug-In . SVG Version: 6.00 Build 0)  -->
<svg version="1.1" id="Capa_1" xmlns="http://www.w3.org/2000/svg" xmlns:xlink="http://www.w3.org/1999/xlink" x="0px" y="0px"
	 viewBox="0 0 24 24" style="enable-background:new 0 0 24 24;" xml:space="preserve">
<style type="text/css">
	.st0{fill:#263238;}
</style>
<g>
	<path class="st0" d="M22.8,6.3L22.8,6.3V4.4c0-1.1-0.4-2.1-1.1-2.8s-1.8-1.1-2.8-1.1H4C3,0.5,1.9,0.9,1.2,1.6C0.4,2.4,0,3.4,0,4.4
		v15.1c0,1.1,0.4,2.1,1.1,2.8C1.9,23.2,3,23.5,4,23.5h14.7c1.1,0,2.1-0.4,2.8-1.1c0.8-0.7,1.1-1.8,1.1-2.8v-2c0,0,0,0,0-0.1
		c0.8-0.7,1.2-1.6,1.2-2.7V9C24,7.9,23.5,7,22.8,6.3z M21.8,19.6c0,0.8-0.3,1.6-0.9,2.2c-0.6,0.6-1.3,0.9-2.2,0.9H4
		c-0.8,0-1.6-0.3-2.2-0.9c-0.6-0.6-0.9-1.3-0.9-2.2V4.4c0-0.8,0.3-1.6,0.9-2.2C2.5,1.7,3.2,1.4,4,1.4h14.7c0.8,0,1.6,0.3,2.2,0.9
		c0.6,0.6,0.9,1.3,0.9,2.2v1.2c-0.4-0.2-1-0.3-1.5-0.3h-7.1c-2,0-3.6,1.6-3.6,3.6v5.8c0,2,1.6,3.6,3.6,3.6h7.1c0.5,0,1-0.1,1.5-0.3
		V19.6z M23,14.8c0,1.5-1.2,2.7-2.7,2.7h-7.1c-1.5,0-2.7-1.2-2.7-2.7V9c0-1.5,1.2-2.7,2.7-2.7h7.1C21.8,6.3,23,7.5,23,9V14.8z"/>
	<path class="st0" d="M16.3,9c-1.6,0-3,1.3-3,3s1.3,3,3,3s3-1.3,3-3C19.3,10.4,17.9,9,16.3,9z M16.3,14c-1.1,0-2-0.9-2-2s0.9-2,2-2
		s2,0.9,2,2S17.4,14,16.3,14z"/>
</g>
</svg>
