<?xml version="1.0" encoding="utf-8"?>
<!-- Generator: Adobe Illustrator 25.4.1, SVG Export Plug-In . SVG Version: 6.00 Build 0)  -->
<svg version="1.1" id="Capa_1" xmlns="http://www.w3.org/2000/svg" xmlns:xlink="http://www.w3.org/1999/xlink" x="0px" y="0px"
	 viewBox="0 0 24 24" style="enable-background:new 0 0 24 24;" xml:space="preserve">
<style type="text/css">
	.st0{fill:#263238;}
</style>
<g>
	<path class="st0" d="M21.2,1.2c-0.1-0.2-0.2-0.4-0.4-0.6c-0.2-0.2-0.4-0.3-0.6-0.4c-0.2-0.1-0.5-0.1-0.8-0.1H4.6
		c-0.5,0-1,0.2-1.4,0.6C2.8,1,2.7,1.5,2.7,1.9v15.8c0,0.3,0.2,0.5,0.5,0.5s0.5-0.2,0.5-0.5V5.9h11.6c0.3,0,0.5-0.2,0.5-0.5
		c0-0.3-0.2-0.5-0.5-0.5H3.6V1.9c0-0.3,0.1-0.5,0.3-0.7S4.3,1,4.6,1h14.8l0,0c0.1,0,0.2,0,0.4,0.1c0.1,0,0.2,0.1,0.3,0.2
		s0.1,0.2,0.2,0.3c0,0.1,0.1,0.2,0.1,0.4v3h-3C17.2,5,17,5.2,17,5.5c0,0.3,0.2,0.5,0.5,0.5h3V22c0,0.3-0.1,0.5-0.3,0.7
		C20,22.9,19.7,23,19.5,23H4.6c-0.3,0-0.5-0.1-0.7-0.3c-0.2-0.2-0.3-0.4-0.3-0.7v-0.1c0-0.3-0.2-0.5-0.5-0.5s-0.5,0.2-0.5,0.5V22
		c0,0.5,0.2,1,0.6,1.4c0.4,0.4,0.8,0.6,1.4,0.6h14.8c0.5,0,1-0.2,1.4-0.6c0.4-0.4,0.6-0.8,0.6-1.4V2C21.3,1.7,21.3,1.5,21.2,1.2z"/>
	<path class="st0" d="M7.1,2.1h-2c-0.3,0-0.5,0.2-0.5,0.5S4.8,3,5.1,3h2c0.3,0,0.5-0.2,0.5-0.5S7.3,2.1,7.1,2.1z"/>
	<path class="st0" d="M10.1,2.1h-2c-0.3,0-0.5,0.2-0.5,0.5S7.9,3,8.2,3h2c0.3,0,0.5-0.2,0.5-0.5S10.4,2.1,10.1,2.1z"/>
	<path class="st0" d="M7.1,3.5h-2C4.8,3.5,4.6,3.7,4.6,4s0.2,0.5,0.5,0.5h2c0.3,0,0.5-0.2,0.5-0.5S7.3,3.5,7.1,3.5z"/>
	<path class="st0" d="M10.1,3.5h-2C7.9,3.5,7.7,3.7,7.7,4s0.2,0.5,0.5,0.5h2c0.3,0,0.5-0.2,0.5-0.5S10.4,3.5,10.1,3.5z"/>
	<path class="st0" d="M19,3.2c0-0.8-0.7-1.6-1.6-1.6s-1.6,0.7-1.6,1.6s0.7,1.6,1.6,1.6S19,4,19,3.2z M16.8,3.2
		c0-0.3,0.3-0.6,0.6-0.6c0.3,0,0.6,0.3,0.6,0.6s-0.3,0.6-0.6,0.6C17.1,3.8,16.8,3.5,16.8,3.2z"/>
	<path class="st0" d="M8.8,8C7.4,8.7,6.2,10,5.6,11.4s-0.8,3.1-0.4,4.7C5.5,17.6,6.5,19,7.7,20c1.2,0.9,2.7,1.4,4.2,1.4
		c0.1,0,0.1,0,0.2,0c1.6,0,3.2-0.7,4.4-1.7c0.2-0.2,0.2-0.5,0-0.7c-0.2-0.2-0.5-0.2-0.7,0c-1,0.9-2.4,1.4-3.8,1.5
		c-1.4,0-2.8-0.4-3.9-1.2c-1.1-0.8-1.9-2-2.3-3.4c-0.3-1.4-0.2-2.8,0.4-4.1C7,10.6,8.1,9.5,9.3,8.9c1.2-0.6,2.7-0.8,4.1-0.5
		c1.4,0.3,2.6,1,3.5,2.1c0.9,1.1,1.4,2.4,1.4,3.8c0,0.5,0,1.1-0.2,1.6c0,0.2,0.1,0.5,0.3,0.6c0.2,0,0.5-0.1,0.6-0.3
		c0.1-0.6,0.2-1.2,0.2-1.8c0-1.6-0.6-3.2-1.6-4.4c-1-1.2-2.4-2.1-4-2.4C11.9,7.1,10.2,7.3,8.8,8z"/>
	<path class="st0" d="M15.2,11.7L15.2,11.7c0.2-0.2,0.2-0.5,0-0.7c-0.7-0.7-1.5-1.1-2.4-1.3C12,9.6,11.1,9.7,10.2,10
		c-0.8,0.3-1.6,0.9-2.1,1.7c-0.5,0.8-0.8,1.6-0.8,2.5c0,0.9,0.3,1.8,0.8,2.5c0.5,0.8,1.2,1.4,2.1,1.7c0.6,0.2,1.2,0.3,1.7,0.3
		c0.3,0,0.6,0,0.9-0.1c0.9-0.2,1.7-0.6,2.4-1.3c0.1-0.1,0.1-0.2,0.1-0.3c0-0.1,0-0.2-0.1-0.3c-0.3-0.3-0.6-0.7-0.8-1.2
		c-0.2-0.4-0.3-0.9-0.3-1.4s0.1-0.9,0.3-1.4C14.6,12.5,14.8,12.1,15.2,11.7z M13.5,12.6c-0.2,0.6-0.3,1.1-0.3,1.7
		c0,0.6,0.1,1.2,0.4,1.7c0.2,0.4,0.4,0.8,0.7,1.1c-0.5,0.3-1,0.6-1.6,0.7c-0.7,0.1-1.5,0-2.1-0.2c-0.7-0.3-1.2-0.8-1.6-1.4
		c-0.4-0.6-0.6-1.3-0.6-2s0.2-1.4,0.6-2c0.4-0.6,1-1.1,1.6-1.4c0.5-0.2,0.9-0.3,1.4-0.3c0.2,0,0.5,0,0.7,0c0.6,0.1,1.1,0.4,1.6,0.7
		C14,11.7,13.7,12.2,13.5,12.6z"/>
</g>
</svg>
