<?xml version="1.0" encoding="utf-8"?>
<!-- Generator: Adobe Illustrator 25.4.1, SVG Export Plug-In . SVG Version: 6.00 Build 0)  -->
<svg version="1.1" id="Capa_1" xmlns="http://www.w3.org/2000/svg" xmlns:xlink="http://www.w3.org/1999/xlink" x="0px" y="0px"
	 viewBox="0 0 24 24" style="enable-background:new 0 0 24 24;" xml:space="preserve">
<style type="text/css">
	.st0{fill:#263238;}
</style>
<path class="st0" d="M21.8,1.6v-1c0-0.3-0.2-0.5-0.5-0.5H2.7c-0.3,0-0.5,0.2-0.5,0.5v1c-0.1,0.5-0.7,5.6,2.3,9c1.6,1.9,4,2.8,7,2.9
	V23H5.7c-0.3,0-0.5,0.2-0.5,0.5s0.2,0.5,0.5,0.5h12.5c0.3,0,0.5-0.2,0.5-0.5S18.5,23,18.3,23h-5.8v-9.4c3-0.1,5.4-1.1,7-2.9
	C22.4,7.2,21.9,2.1,21.8,1.6z M3.2,1.7L3.2,1.7V1h17.6v0.6v0c0,0,0.2,1.6,0,3.6H3.2C3,3.3,3.2,1.7,3.2,1.7z M18.8,10
	c-1.5,1.7-3.8,2.6-6.8,2.6S6.8,11.7,5.2,10c-1-1.1-1.5-2.5-1.8-3.7h17.1C20.3,7.5,19.7,8.8,18.8,10z"/>
</svg>
