<svg version="1.1" id="Capa_1" xmlns="http://www.w3.org/2000/svg" x="0" y="0" viewBox="0 0 24 24" style="enable-background:new 0 0 24 24" xml:space="preserve"><style>.st0{fill:#263238}</style><path class="st0" d="M12 24C5.4 24 0 18.6 0 12S5.4 0 12 0s12 5.4 12 12-5.4 12-12 12zM12 .9C5.9.9.9 5.9.9 12s5 11.1 11.1 11.1 11.1-5 11.1-11.1S18.1.9 12 .9z"/><path class="st0" d="M14.4 18.2c-.1 0-.2 0-.3-.1l-5.8-5.8c-.2-.2-.2-.5 0-.6l5.8-5.8c.2-.2.5-.2.6 0s.2.5 0 .6L9.3 12l5.4 5.4c.2.2.2.5 0 .6-.1.2-.2.2-.3.2z"/></svg>