<svg xmlns="http://www.w3.org/2000/svg" viewBox="0 0 24 24" style="enable-background:new 0 0 24 24" xml:space="preserve"><path d="M12 14.4c-1.3 0-2.4-1.1-2.4-2.4s1.1-2.4 2.4-2.4 2.4 1.1 2.4 2.4-1.1 2.4-2.4 2.4zm0-3.8c-.8 0-1.4.6-1.4 1.4s.6 1.4 1.4 1.4 1.4-.6 1.4-1.4-.6-1.4-1.4-1.4zM12 24c-1.3 0-2.4-1.1-2.4-2.4s1.1-2.4 2.4-2.4 2.4 1.1 2.4 2.4S13.3 24 12 24zm0-3.8c-.8 0-1.4.6-1.4 1.4S11.2 23 12 23s1.4-.6 1.4-1.4-.6-1.4-1.4-1.4zm0-15.4c-1.3 0-2.4-1.1-2.4-2.4S10.7 0 12 0s2.4 1.1 2.4 2.4-1.1 2.4-2.4 2.4zM12 1c-.8 0-1.4.6-1.4 1.4s.6 1.4 1.4 1.4 1.4-.6 1.4-1.4S12.8 1 12 1z" style="fill:#263238"/></svg>