<svg xmlns="http://www.w3.org/2000/svg" viewBox="0 0 24 24" style="enable-background:new 0 0 24 24" xml:space="preserve"><path d="M12 14.4c-1.3 0-2.4-1.1-2.4-2.4s1.1-2.4 2.4-2.4 2.4 1.1 2.4 2.4-1.1 2.4-2.4 2.4zm0-3.8c-.8 0-1.4.6-1.4 1.4s.6 1.4 1.4 1.4 1.4-.6 1.4-1.4-.6-1.4-1.4-1.4zm9.6 3.8c-1.3 0-2.4-1.1-2.4-2.4s1.1-2.4 2.4-2.4c1.3 0 2.4 1.1 2.4 2.4s-1.1 2.4-2.4 2.4zm0-3.8c-.8 0-1.4.6-1.4 1.4s.6 1.4 1.4 1.4c.8 0 1.4-.6 1.4-1.4s-.6-1.4-1.4-1.4zM2.4 14.4C1.1 14.4 0 13.3 0 12s1.1-2.4 2.4-2.4 2.4 1.1 2.4 2.4-1 2.4-2.4 2.4zm0-3.8c-.8 0-1.4.6-1.4 1.4s.6 1.4 1.4 1.4 1.4-.6 1.4-1.4-.6-1.4-1.4-1.4z" style="fill:#263238"/></svg>