<svg xmlns="http://www.w3.org/2000/svg" viewBox="0 0 24 24" style="enable-background:new 0 0 24 24" xml:space="preserve"><path d="M23.4 5.8H6.3c-.3 0-.5-.2-.5-.5s.2-.5.5-.5h17.2c.3 0 .5.2.5.5-.1.3-.3.5-.6.5zm0 6.7H6.3c-.3 0-.5-.2-.5-.5s.2-.5.5-.5h17.2c.3 0 .5.2.5.5s-.3.5-.6.5zm0 6.7H6.3c-.3 0-.5-.2-.5-.5s.2-.5.5-.5h17.2c.3 0 .5.2.5.5-.1.3-.3.5-.6.5zM1.5 6.8C.7 6.8.1 6.2.1 5.4S.7 4 1.5 4s1.4.6 1.4 1.4-.6 1.4-1.4 1.4zm0-2c-.3 0-.5.2-.5.5s.2.5.5.5.5-.2.5-.5-.2-.5-.5-.5zm0 8.6C.7 13.4.1 12.8.1 12s.6-1.4 1.4-1.4 1.4.6 1.4 1.4-.6 1.4-1.4 1.4zm0-1.9c-.3 0-.5.2-.5.5s.2.5.5.5.5-.2.5-.5-.2-.5-.5-.5zm0 8.6c-.8 0-1.4-.6-1.4-1.4s.6-1.4 1.4-1.4 1.4.6 1.4 1.4-.6 1.4-1.4 1.4zm0-1.9c-.3 0-.5.2-.5.5s.2.5.5.5.5-.2.5-.5-.2-.5-.5-.5z" style="fill:#263238"/></svg>