<?xml version="1.0" encoding="utf-8"?>
<!-- Generator: Adobe Illustrator 25.4.1, SVG Export Plug-In . SVG Version: 6.00 Build 0)  -->
<svg version="1.1" id="Capa_1" xmlns="http://www.w3.org/2000/svg" xmlns:xlink="http://www.w3.org/1999/xlink" x="0px" y="0px"
	 viewBox="0 0 24 24" style="enable-background:new 0 0 24 24;" xml:space="preserve">
<style type="text/css">
	.st0{fill:#263238;}
</style>
<g>
	<path class="st0" d="M20.4,7.4c-1.1-1.7-2.7-2.9-4.5-3.7c-1.9-0.8-3.8-1-5.8-0.6S6.3,4.4,4.9,5.8S2.5,9,2.2,11S2,15,2.7,16.8
		c0.4,1.1,1.1,2.1,1.9,2.9c0,0,0,0-0.1,0l-2.4,2.4c-0.2,0.2-0.2,0.5,0,0.7C2.2,23,2.4,23,2.4,23s0.2,0,0.3-0.1l2.4-2.4
		c0,0,0,0,0-0.1c0.4,0.3,0.8,0.7,1.2,1C8.1,22.4,10,23,12,23c2.5,0,4.9-1,6.8-2.6c0,0,0,0.1,0,0.1l2.4,2.4c0.1,0.1,0.2,0.1,0.3,0.1
		s0.2,0,0.3-0.1c0.2-0.2,0.2-0.5,0-0.7l-2.4-2.4c0,0,0,0-0.1,0c1.7-1.9,2.6-4.3,2.6-6.8C22.1,11,21.5,9,20.4,7.4z M12,22.1
		c-1.8,0-3.6-0.5-5.1-1.5c-1.5-1-2.7-2.4-3.4-4.1S2.7,13,3,11.2s1.2-3.4,2.5-4.7c1.3-1.3,2.9-2.2,4.7-2.5C10.8,4,11.4,3.9,12,3.9
		c1.2,0,2.4,0.2,3.5,0.7c1.7,0.7,3.1,1.9,4.1,3.4s1.5,3.3,1.5,5.1c0,2.4-1,4.7-2.7,6.4C16.7,21.1,14.4,22.1,12,22.1z"/>
	<path class="st0" d="M5.7,2.7c0-0.1,0-0.2,0-0.3c0-0.1,0-0.2-0.1-0.3c0-0.1-0.1-0.2-0.2-0.2l0,0C4.9,1.2,4.1,1,3.4,1H3.2
		C1.4,1.1,0,2.7,0,4.5c0,1,0.4,1.4,0.8,1.9c0,0.1,0.1,0.1,0.2,0.2c0.1,0,0.2,0.1,0.3,0.1h0c0.1,0,0.2,0,0.3-0.1
		c0.1,0,0.1-0.1,0.2-0.1L5.5,3C5.6,2.9,5.7,2.8,5.7,2.7z M1.3,5.7C1.1,5.4,1,5.1,1,4.5C1,3.1,2,2,3.2,1.9h0.1c0.5,0,1,0.1,1.3,0.4
		L1.3,5.7z"/>
	<path class="st0" d="M20.8,1h-0.2c-0.8,0-1.5,0.3-2.1,0.8l0,0c-0.1,0-0.1,0.1-0.2,0.2c0,0.1-0.1,0.2-0.1,0.3s0,0.2,0,0.3
		c0,0.1,0.1,0.2,0.2,0.3l3.6,3.6c0,0,0.1,0.1,0.2,0.1c0.1,0,0.2,0,0.3,0.1h0.1c0.1,0,0.2,0,0.3-0.1c0.1,0,0.2-0.1,0.2-0.2
		c0.4-0.5,0.8-1,0.8-1.9C24,2.7,22.6,1.1,20.8,1z M22.7,5.7l-3.4-3.3C19.7,2.1,20.2,2,20.6,2h0.1C22,2.1,23,3.2,23,4.6
		C23,5.1,22.9,5.4,22.7,5.7z"/>
	<path class="st0" d="M12,5.8c-0.3,0-0.5,0.2-0.5,0.5v6.2H7.2c-0.3,0-0.5,0.2-0.5,0.5c0,0.3,0.2,0.5,0.5,0.5H12
		c0.3,0,0.5-0.2,0.5-0.5V6.3C12.5,6,12.3,5.8,12,5.8z"/>
</g>
</svg>
