<?xml version="1.0" encoding="utf-8"?>
<!-- Generator: Adobe Illustrator 25.4.1, SVG Export Plug-In . SVG Version: 6.00 Build 0)  -->
<svg version="1.1" id="Capa_1" xmlns="http://www.w3.org/2000/svg" xmlns:xlink="http://www.w3.org/1999/xlink" x="0px" y="0px"
	 viewBox="0 0 24 24" style="enable-background:new 0 0 24 24;" xml:space="preserve">
<style type="text/css">
	.st0{fill:#263238;}
</style>
<g>
	<g>
		<path class="st0" d="M12,16.6c-0.3,0-0.5-0.1-0.7-0.3S11,15.9,11,15.6L10.5,1.6c0-0.4,0.1-0.8,0.4-1.1C11.1,0.2,11.6,0,12,0
			s0.8,0.2,1.1,0.5c0.3,0.3,0.4,0.7,0.4,1.1L13,15.6c0,0.2-0.1,0.5-0.3,0.7C12.5,16.5,12.3,16.6,12,16.6z M12,1
			c-0.1,0-0.3,0.1-0.4,0.2c0,0-0.1,0.2-0.1,0.3L12,15.6v0h0v0l0.5-14.1c0-0.2-0.1-0.3-0.1-0.3C12.3,1.1,12.1,1,12,1z"/>
	</g>
	<g>
		<path class="st0" d="M12,24c-0.9,0-1.5-0.7-1.5-1.5s0.7-1.5,1.5-1.5s1.5,0.7,1.5,1.5S12.9,24,12,24z M12,21.9
			c-0.3,0-0.6,0.2-0.6,0.6c0,0.3,0.2,0.6,0.6,0.6c0.3,0,0.6-0.2,0.6-0.6C12.6,22.1,12.3,21.9,12,21.9z"/>
	</g>
</g>
</svg>
