<?xml version="1.0" encoding="utf-8"?>
<!-- Generator: Adobe Illustrator 25.4.1, SVG Export Plug-In . SVG Version: 6.00 Build 0)  -->
<svg version="1.1" id="Capa_1" xmlns="http://www.w3.org/2000/svg" xmlns:xlink="http://www.w3.org/1999/xlink" x="0px" y="0px"
	 viewBox="0 0 24 24" style="enable-background:new 0 0 24 24;" xml:space="preserve">
<style type="text/css">
	.st0{fill:#263238;}
</style>
<g>
	<g>
		<path class="st0" d="M2.9,5.8C1.3,5.8,0,4.5,0,2.9S1.3,0,2.9,0s2.9,1.3,2.9,2.9S4.5,5.8,2.9,5.8z M2.9,1C1.8,1,1,1.8,1,2.9
			c0,1,0.8,1.9,1.9,1.9c1,0,1.9-0.8,1.9-1.9C4.8,1.8,3.9,1,2.9,1z"/>
	</g>
	<g>
		<path class="st0" d="M12,5.8c-1.6,0-2.9-1.3-2.9-2.9S10.4,0,12,0s2.9,1.3,2.9,2.9S13.6,5.8,12,5.8z M12,1c-1,0-1.9,0.8-1.9,1.9
			c0,1,0.8,1.9,1.9,1.9s1.9-0.8,1.9-1.9S13,1,12,1z"/>
	</g>
	<g>
		<path class="st0" d="M21.1,5.8c-1.6,0-2.9-1.3-2.9-2.9S19.5,0,21.1,0C22.7,0,24,1.3,24,2.9S22.7,5.8,21.1,5.8z M21.1,1
			c-1,0-1.9,0.8-1.9,1.9c0,1,0.8,1.9,1.9,1.9c1.1,0,1.9-0.9,1.9-1.9C23,1.8,22.2,1,21.1,1z"/>
	</g>
	<g>
		<path class="st0" d="M2.9,14.9C1.3,14.9,0,13.6,0,12s1.3-2.9,2.9-2.9s2.9,1.3,2.9,2.9S4.5,14.9,2.9,14.9z M2.9,10.1
			c-1,0-1.9,0.8-1.9,1.9s0.8,1.9,1.9,1.9c1,0,1.9-0.8,1.9-1.9S3.9,10.1,2.9,10.1z"/>
	</g>
	<g>
		<path class="st0" d="M12,14.9c-1.6,0-2.9-1.3-2.9-2.9s1.3-2.9,2.9-2.9s2.9,1.3,2.9,2.9S13.6,14.9,12,14.9z M12,10.1
			c-1,0-1.9,0.8-1.9,1.9s0.8,1.9,1.9,1.9s1.9-0.8,1.9-1.9S13,10.1,12,10.1z"/>
	</g>
	<g>
		<path class="st0" d="M21.1,14.9c-1.6,0-2.9-1.3-2.9-2.9s1.3-2.9,2.9-2.9c1.6,0,2.9,1.3,2.9,2.9S22.7,14.9,21.1,14.9z M21.1,10.1
			c-1,0-1.9,0.8-1.9,1.9s0.8,1.9,1.9,1.9c1.1,0,1.9-0.8,1.9-1.9S22.2,10.1,21.1,10.1z"/>
	</g>
	<g>
		<path class="st0" d="M2.9,24C1.3,24,0,22.7,0,21.1c0-1.6,1.3-2.9,2.9-2.9s2.9,1.3,2.9,2.9C5.8,22.7,4.5,24,2.9,24z M2.9,19.2
			c-1.1,0-1.9,0.9-1.9,1.9S1.8,23,2.9,23c1,0,1.9-0.8,1.9-1.9S3.9,19.2,2.9,19.2z"/>
	</g>
	<g>
		<path class="st0" d="M12,24c-1.6,0-2.9-1.3-2.9-2.9c0-1.6,1.3-2.9,2.9-2.9s2.9,1.3,2.9,2.9C14.9,22.7,13.6,24,12,24z M12,19.2
			c-1,0-1.9,0.8-1.9,1.9S10.9,23,12,23s1.9-0.8,1.9-1.9S13,19.2,12,19.2z"/>
	</g>
	<g>
		<path class="st0" d="M21.1,24c-1.6,0-2.9-1.3-2.9-2.9c0-1.6,1.3-2.9,2.9-2.9c1.6,0,2.9,1.3,2.9,2.9C24,22.7,22.7,24,21.1,24z
			 M21.1,19.2c-1,0-1.9,0.8-1.9,1.9s0.9,1.9,1.9,1.9c1,0,1.9-0.8,1.9-1.9S22.2,19.2,21.1,19.2z"/>
	</g>
</g>
</svg>
