<?xml version="1.0" encoding="utf-8"?>
<!-- Generator: Adobe Illustrator 25.4.1, SVG Export Plug-In . SVG Version: 6.00 Build 0)  -->
<svg version="1.1" id="Capa_1" xmlns="http://www.w3.org/2000/svg" xmlns:xlink="http://www.w3.org/1999/xlink" x="0px" y="0px"
	 viewBox="0 0 24 24" style="enable-background:new 0 0 24 24;" xml:space="preserve">
<style type="text/css">
	.st0{fill:#263238;}
</style>
<g>
	<path class="st0" d="M22.8,10.8L12.3,0.3c-0.2-0.2-0.5-0.2-0.6,0L1.2,10.8C1,11,1,11.3,1.2,11.5s0.5,0.2,0.6,0L12,1.3l10.2,10.2
		c0.1,0.1,0.2,0.1,0.3,0.1s0.2,0,0.3-0.1C23,11.3,23,11,22.8,10.8z"/>
	<path class="st0" d="M12,1.6c-0.3,0-0.5,0.2-0.5,0.5v21.2c0,0.3,0.2,0.5,0.5,0.5c0.3,0,0.5-0.2,0.5-0.5V2.1
		C12.5,1.9,12.3,1.6,12,1.6z"/>
</g>
</svg>
