<?xml version="1.0" encoding="utf-8"?>
<!-- Generator: Adobe Illustrator 25.4.1, SVG Export Plug-In . SVG Version: 6.00 Build 0)  -->
<svg version="1.1" id="Capa_1" xmlns="http://www.w3.org/2000/svg" xmlns:xlink="http://www.w3.org/1999/xlink" x="0px" y="0px"
	 viewBox="0 0 24 24" style="enable-background:new 0 0 24 24;" xml:space="preserve">
<style type="text/css">
	.st0{fill:#263238;}
</style>
<g>
	<path class="st0" d="M12.3,6.5c-0.2-0.2-0.5-0.2-0.6,0l-4.8,4.8c-0.2,0.2-0.2,0.5,0,0.6C7,12,7.1,12,7.2,12c0.1,0,0.2,0,0.3-0.1
		l4-4v9.2c0,0.3,0.2,0.5,0.5,0.5s0.5-0.2,0.5-0.5V7.9l4,4c0.2,0.2,0.5,0.2,0.6,0s0.2-0.5,0-0.6L12.3,6.5z"/>
	<path class="st0" d="M12,0C5.4,0,0,5.4,0,12s5.4,12,12,12s12-5.4,12-12S18.6,0,12,0z M12,23.1c-6.1,0-11.1-5-11.1-11.1
		S5.9,0.9,12,0.9s11.1,5,11.1,11.1S18.1,23.1,12,23.1z"/>
</g>
</svg>
