<?xml version="1.0" encoding="utf-8"?>
<!-- Generator: Adobe Illustrator 25.4.1, SVG Export Plug-In . SVG Version: 6.00 Build 0)  -->
<svg version="1.1" id="Capa_1" xmlns="http://www.w3.org/2000/svg" xmlns:xlink="http://www.w3.org/1999/xlink" x="0px" y="0px"
	 viewBox="0 0 24 24" style="enable-background:new 0 0 24 24;" xml:space="preserve">
<style type="text/css">
	.st0{fill:#263238;}
</style>
<g>
	<path class="st0" d="M23.5,22.6c-0.1,0-0.3,0-0.4-0.2c-2.9-3.7-5.4-5.5-11.6-5.6v5.3c0,0.2-0.1,0.4-0.3,0.4c-0.2,0.1-0.4,0-0.5-0.1
		L0.1,12.3C0,12.2,0,12.1,0,12s0-0.2,0.1-0.3L10.7,1.6c0.1-0.1,0.3-0.2,0.5-0.1c0.2,0.1,0.3,0.2,0.3,0.4v5.3
		C19.7,7.4,24,12.5,24,22.1c0,0.2-0.1,0.4-0.3,0.4C23.6,22.6,23.6,22.6,23.5,22.6z M1.2,12l9.4,9v-4.7c0-0.3,0.2-0.5,0.5-0.5
		c6.3,0,9.2,1.6,12,4.8c-0.4-8.3-4.4-12.5-12-12.5c-0.3,0-0.5-0.2-0.5-0.5V3L1.2,12z"/>
</g>
</svg>
