<?xml version="1.0" encoding="utf-8"?>
<!-- Generator: Adobe Illustrator 25.4.1, SVG Export Plug-In . SVG Version: 6.00 Build 0)  -->
<svg version="1.1" id="Capa_1" xmlns="http://www.w3.org/2000/svg" xmlns:xlink="http://www.w3.org/1999/xlink" x="0px" y="0px"
	 viewBox="0 0 24 24" style="enable-background:new 0 0 24 24;" xml:space="preserve">
<style type="text/css">
	.st0{fill:#263238;}
</style>
<g>
	<path class="st0" d="M12,0.2c-1,0-2,0.2-3,0.6C8.1,1.1,7.3,1.7,6.5,2.4S5.2,4,4.8,5c-0.4,0.9-0.6,1.9-0.6,3c0,2.3,0.8,4.4,2.4,5.8
		L6.8,14c0.9,0.9,2.3,2.1,2.3,3.3v1.2c0,0.3,0.2,0.5,0.5,0.5c0.3,0,0.5-0.2,0.5-0.5v-1.2c0-1.6-1.5-3-2.6-4l-0.2-0.2
		C5.9,11.8,5.1,10,5.1,7.9c0-0.9,0.2-1.8,0.5-2.6C6,4.5,6.5,3.7,7.1,3.1C7.8,2.4,8.5,2,9.3,1.6S11,1.1,12,1.1c3.8,0,6.8,3,6.8,6.8
		c0,2.1-0.7,3.8-2.1,5.1l-0.2,0.2c-1.1,1-2.5,2.4-2.5,4v1.2c0,0.3,0.2,0.5,0.5,0.5c0.3,0,0.5-0.2,0.5-0.5v-1.2
		c0-1.2,1.3-2.4,2.3-3.3l0.2-0.2c1.6-1.5,2.4-3.5,2.4-5.8C19.8,3.6,16.4,0.2,12,0.2z"/>
	<path class="st0" d="M13.6,22.9h-3.3c-0.3,0-0.5,0.2-0.5,0.5s0.2,0.5,0.5,0.5h3.3c0.3,0,0.5-0.2,0.5-0.5S13.9,22.9,13.6,22.9z"/>
	<path class="st0" d="M14.5,20.4H9.6c-0.3,0-0.5,0.2-0.5,0.5s0.2,0.5,0.5,0.5h4.9c0.3,0,0.5-0.2,0.5-0.5S14.7,20.4,14.5,20.4z"/>
	<path class="st0" d="M12,19c0.3,0,0.5-0.2,0.5-0.5v-6.1c0.8-0.2,1.7-0.8,1.7-0.8c0.2-0.1,0.2-0.5,0.1-0.7s-0.5-0.2-0.7-0.1
		c-0.2,0.2-1.1,0.7-1.7,0.7c-0.6,0-1.4-0.5-1.7-0.7c-0.2-0.1-0.5-0.1-0.7,0.1c-0.1,0.2-0.1,0.5,0.1,0.7c0.1,0.1,0.9,0.7,1.7,0.8v6.1
		C11.6,18.7,11.7,19,12,19z"/>
</g>
</svg>
