<?xml version="1.0" encoding="utf-8"?>
<!-- Generator: Adobe Illustrator 25.4.1, SVG Export Plug-In . SVG Version: 6.00 Build 0)  -->
<svg version="1.1" id="Capa_1" xmlns="http://www.w3.org/2000/svg" xmlns:xlink="http://www.w3.org/1999/xlink" x="0px" y="0px"
	 viewBox="0 0 24 24" style="enable-background:new 0 0 24 24;" xml:space="preserve">
<style type="text/css">
	.st0{fill:#263238;}
</style>
<g>
	<g>
		<path class="st0" d="M12,24C5.4,24,0,18.6,0,12S5.4,0,12,0s12,5.4,12,12S18.6,24,12,24z M12,0.9C5.9,0.9,0.9,5.9,0.9,12
			s5,11.1,11.1,11.1s11.1-5,11.1-11.1S18.1,0.9,12,0.9z"/>
	</g>
	<g>
		<path class="st0" d="M9.6,18.2c-0.1,0-0.2,0-0.3-0.1c-0.2-0.2-0.2-0.5,0-0.6l5.4-5.4L9.3,6.6c-0.2-0.2-0.2-0.5,0-0.6
			s0.5-0.2,0.6,0l5.8,5.8c0.1,0.1,0.1,0.2,0.1,0.3c0,0.1,0,0.2-0.1,0.3l-5.8,5.8C9.8,18.2,9.7,18.2,9.6,18.2z"/>
	</g>
</g>
</svg>
