<?xml version="1.0" encoding="utf-8"?>
<!-- Generator: Adobe Illustrator 25.4.1, SVG Export Plug-In . SVG Version: 6.00 Build 0)  -->
<svg version="1.1" id="Capa_1" xmlns="http://www.w3.org/2000/svg" xmlns:xlink="http://www.w3.org/1999/xlink" x="0px" y="0px"
	 viewBox="0 0 24 24" style="enable-background:new 0 0 24 24;" xml:space="preserve">
<style type="text/css">
	.st0{fill:#263238;}
</style>
<g>
	<path class="st0" d="M12,0C5.4,0,0,5.4,0,12s5.4,12,12,12s12-5.4,12-12S18.6,0,12,0z M12,23.1c-6.1,0-11.1-5-11.1-11.1
		S5.9,0.9,12,0.9s11.1,5,11.1,11.1S18.1,23.1,12,23.1z"/>
	<path class="st0" d="M16.2,7.8c-0.2-0.2-0.5-0.2-0.6,0L12,11.4L8.5,7.8C8.3,7.7,8,7.7,7.8,7.8C7.7,8,7.7,8.3,7.8,8.5l3.5,3.5
		l-3.5,3.5c-0.2,0.2-0.2,0.5,0,0.6c0.1,0.1,0.2,0.1,0.3,0.1c0.1,0,0.2,0,0.3-0.1l3.5-3.5l3.5,3.5c0.1,0.1,0.2,0.1,0.3,0.1
		c0.1,0,0.2,0,0.4-0.1c0.2-0.2,0.2-0.5,0-0.6L12.6,12l3.6-3.6C16.4,8.3,16.4,8,16.2,7.8z"/>
</g>
</svg>
