<?xml version="1.0" encoding="utf-8"?>
<!-- Generator: Adobe Illustrator 25.4.1, SVG Export Plug-In . SVG Version: 6.00 Build 0)  -->
<svg version="1.1" id="Capa_1" xmlns="http://www.w3.org/2000/svg" xmlns:xlink="http://www.w3.org/1999/xlink" x="0px" y="0px"
	 viewBox="0 0 24 24" style="enable-background:new 0 0 24 24;" xml:space="preserve">
<style type="text/css">
	.st0{fill:#263238;}
</style>
<path class="st0" d="M12.6,12L23.9,0.8c0.2-0.2,0.2-0.5,0-0.6c-0.2-0.2-0.5-0.2-0.6,0L12,11.4L0.8,0.1C0.6,0,0.3,0,0.1,0.1
	C0,0.3,0,0.6,0.1,0.8L11.4,12L0.1,23.2c-0.2,0.2-0.2,0.5,0,0.6C0.2,24,0.3,24,0.5,24s0.2,0,0.3-0.1L12,12.6l11.2,11.2
	c0.1,0.1,0.2,0.1,0.3,0.1c0.1,0,0.2,0,0.3-0.1c0.2-0.2,0.2-0.5,0-0.6L12.6,12z"/>
</svg>
