<?xml version="1.0" encoding="utf-8"?>
<!-- Generator: Adobe Illustrator 25.4.1, SVG Export Plug-In . SVG Version: 6.00 Build 0)  -->
<svg version="1.1" id="Capa_1" xmlns="http://www.w3.org/2000/svg" xmlns:xlink="http://www.w3.org/1999/xlink" x="0px" y="0px"
	 viewBox="0 0 24 24" style="enable-background:new 0 0 24 24;" xml:space="preserve">
<style type="text/css">
	.st0{fill:#263238;}
</style>
<g>
	<g>
		<path class="st0" d="M12,13.6c0.9,0,1.5-0.7,1.5-1.5c0-0.9-0.7-1.5-1.5-1.5c-0.9,0-1.5,0.7-1.5,1.5C10.5,12.9,11.1,13.6,12,13.6z"
			/>
	</g>
	<g>
		<path class="st0" d="M17.4,13.6c0.9,0,1.5-0.7,1.5-1.5c0-0.9-0.7-1.5-1.5-1.5c-0.8,0-1.5,0.7-1.5,1.5
			C15.8,12.9,16.6,13.6,17.4,13.6z"/>
	</g>
	<g>
		<path class="st0" d="M6.6,13.6c0.9,0,1.5-0.7,1.5-1.5c0-0.9-0.7-1.5-1.5-1.5S5,11.1,5,12S5.8,13.6,6.6,13.6z"/>
	</g>
	<g>
		<path class="st0" d="M12,24C5.4,24,0,18.6,0,12S5.4,0,12,0s12,5.4,12,12S18.6,24,12,24z M12,1C5.9,1,1,5.9,1,12s4.9,11,11,11
			s11-4.9,11-11S18.1,1,12,1z"/>
	</g>
</g>
</svg>
