<?xml version="1.0" encoding="utf-8"?>
<!-- Generator: Adobe Illustrator 25.4.1, SVG Export Plug-In . SVG Version: 6.00 Build 0)  -->
<svg version="1.1" id="Capa_1" xmlns="http://www.w3.org/2000/svg" xmlns:xlink="http://www.w3.org/1999/xlink" x="0px" y="0px"
	 viewBox="0 0 24 24" style="enable-background:new 0 0 24 24;" xml:space="preserve">
<style type="text/css">
	.st0{fill:#263238;}
</style>
<g>
	<g>
		<path class="st0" d="M12,14.4c-1.3,0-2.4-1.1-2.4-2.4s1.1-2.4,2.4-2.4s2.4,1.1,2.4,2.4S13.3,14.4,12,14.4z M12,10.6
			c-0.8,0-1.4,0.6-1.4,1.4s0.6,1.4,1.4,1.4s1.4-0.6,1.4-1.4S12.8,10.6,12,10.6z"/>
	</g>
	<g>
		<path class="st0" d="M12,24c-1.3,0-2.4-1.1-2.4-2.4s1.1-2.4,2.4-2.4s2.4,1.1,2.4,2.4S13.3,24,12,24z M12,20.2
			c-0.8,0-1.4,0.6-1.4,1.4S11.2,23,12,23s1.4-0.6,1.4-1.4S12.8,20.2,12,20.2z"/>
	</g>
	<g>
		<path class="st0" d="M12,4.8c-1.3,0-2.4-1.1-2.4-2.4S10.7,0,12,0s2.4,1.1,2.4,2.4S13.3,4.8,12,4.8z M12,1c-0.8,0-1.4,0.6-1.4,1.4
			s0.6,1.4,1.4,1.4s1.4-0.6,1.4-1.4S12.8,1,12,1z"/>
	</g>
</g>
</svg>
