<?xml version="1.0" encoding="utf-8"?>
<!-- Generator: Adobe Illustrator 25.4.1, SVG Export Plug-In . SVG Version: 6.00 Build 0)  -->
<svg version="1.1" id="Capa_1" xmlns="http://www.w3.org/2000/svg" xmlns:xlink="http://www.w3.org/1999/xlink" x="0px" y="0px"
	 viewBox="0 0 24 24" style="enable-background:new 0 0 24 24;" xml:space="preserve">
<style type="text/css">
	.st0{fill:#263238;}
</style>
<g>
	<g>
		<path class="st0" d="M12,14.4c-1.3,0-2.4-1.1-2.4-2.4s1.1-2.4,2.4-2.4s2.4,1.1,2.4,2.4S13.3,14.4,12,14.4z M12,10.6
			c-0.8,0-1.4,0.6-1.4,1.4s0.6,1.4,1.4,1.4s1.4-0.6,1.4-1.4S12.8,10.6,12,10.6z"/>
	</g>
	<g>
		<path class="st0" d="M21.6,14.4c-1.3,0-2.4-1.1-2.4-2.4s1.1-2.4,2.4-2.4c1.3,0,2.4,1.1,2.4,2.4S22.9,14.4,21.6,14.4z M21.6,10.6
			c-0.8,0-1.4,0.6-1.4,1.4s0.6,1.4,1.4,1.4c0.8,0,1.4-0.6,1.4-1.4S22.4,10.6,21.6,10.6z"/>
	</g>
	<g>
		<path class="st0" d="M2.4,14.4C1.1,14.4,0,13.3,0,12s1.1-2.4,2.4-2.4s2.4,1.1,2.4,2.4S3.8,14.4,2.4,14.4z M2.4,10.6
			C1.6,10.6,1,11.2,1,12s0.6,1.4,1.4,1.4s1.4-0.6,1.4-1.4S3.2,10.6,2.4,10.6z"/>
	</g>
</g>
</svg>
