<?xml version="1.0" encoding="utf-8"?>
<!-- Generator: Adobe Illustrator 25.4.1, SVG Export Plug-In . SVG Version: 6.00 Build 0)  -->
<svg version="1.1" id="Capa_1" xmlns="http://www.w3.org/2000/svg" xmlns:xlink="http://www.w3.org/1999/xlink" x="0px" y="0px"
	 viewBox="0 0 24 24" style="enable-background:new 0 0 24 24;" xml:space="preserve">
<style type="text/css">
	.st0{fill:#263238;}
</style>
<g>
	<path class="st0" d="M23.9,11.6l-4-3.8V2.1c0-0.3-0.2-0.5-0.5-0.5h-2.5c-0.3,0-0.5,0.2-0.5,0.5v2.5l-3.6-3.4
		c-0.2-0.2-0.5-0.3-0.9-0.3l0,0c-0.4,0-0.7,0.1-0.9,0.3l-11,10.5c-0.2,0.2-0.2,0.5,0,0.7c0.1,0.1,0.2,0.1,0.3,0.1s0.2,0,0.3-0.1
		l1.7-1.6v11.2c0,0.3,0.1,0.7,0.4,0.9s0.6,0.4,0.9,0.4h4.9c0.3,0,0.5-0.2,0.5-0.5v-7c0-0.2,0.1-0.4,0.2-0.5s0.3-0.2,0.5-0.2h4.1
		c0.2,0,0.4,0.1,0.5,0.2s0.2,0.3,0.2,0.5v7c0,0.3,0.2,0.5,0.5,0.5h4.9c0.3,0,0.7-0.1,0.9-0.4s0.4-0.6,0.4-0.9V10.7l1.7,1.6
		c0.2,0.2,0.5,0.2,0.7,0C24,12.1,24,11.8,23.9,11.6z M17.4,2.6h1.5v4.4l-1.5-1.5V2.6z M20.6,21.9c0,0.1,0,0.2-0.1,0.2
		s-0.1,0.1-0.2,0.1h-4.5v-6.5c0-0.5-0.2-0.9-0.5-1.2C15,14.1,14.5,14,14.1,14H9.9c-0.5,0-0.9,0.2-1.2,0.5c-0.3,0.3-0.5,0.8-0.5,1.2
		v6.5H3.8c-0.1,0-0.2,0-0.2-0.1c0,0-0.1-0.1-0.1-0.2V9.8l8.3-8c0,0,0.1,0,0.2,0l0,0c0.1,0,0.2,0,0.2,0.1l8.4,8V21.9z"/>
</g>
</svg>
