<?xml version="1.0" encoding="utf-8"?>
<!-- Generator: Adobe Illustrator 25.4.1, SVG Export Plug-In . SVG Version: 6.00 Build 0)  -->
<svg version="1.1" id="Capa_1" xmlns="http://www.w3.org/2000/svg" xmlns:xlink="http://www.w3.org/1999/xlink" x="0px" y="0px"
	 viewBox="0 0 24 24" style="enable-background:new 0 0 24 24;" xml:space="preserve">
<style type="text/css">
	.st0{fill:#263238;}
</style>
<g>
	<path class="st0" d="M17.4,22.9h-4.6V9.8c0-0.3-0.2-0.5-0.5-0.5h-5c-0.3,0-0.5,0.2-0.5,0.5c0,0.3,0.2,0.5,0.5,0.5h4.5v12.7H6.6
		c-0.3,0-0.5,0.2-0.5,0.5c0,0.3,0.2,0.5,0.5,0.5h10.7c0.3,0,0.5-0.2,0.5-0.5C17.8,23.1,17.6,22.9,17.4,22.9z"/>
	<path class="st0" d="M10.6,4.7C11,5,11.5,5.1,12,5.1c0.7,0,1.3-0.2,1.7-0.7c0.5-0.5,0.7-1.1,0.7-1.8c0-0.5-0.1-1-0.4-1.4
		c-0.3-0.4-0.7-0.7-1.1-0.9c-0.5-0.2-1-0.2-1.4-0.1c-0.5,0.1-0.9,0.4-1.3,0.7C9.9,1.2,9.6,1.7,9.5,2.1c-0.1,0.5,0,1,0.1,1.4
		S10.2,4.4,10.6,4.7z"/>
</g>
</svg>
