<?xml version="1.0" encoding="utf-8"?>
<!-- Generator: Adobe Illustrator 25.4.1, SVG Export Plug-In . SVG Version: 6.00 Build 0)  -->
<svg version="1.1" id="Capa_1" xmlns="http://www.w3.org/2000/svg" xmlns:xlink="http://www.w3.org/1999/xlink" x="0px" y="0px"
	 viewBox="0 0 24 24" style="enable-background:new 0 0 24 24;" xml:space="preserve">
<style type="text/css">
	.st0{fill:#263238;}
</style>
<g>
	<path class="st0" d="M12,0C5.4,0,0,5.4,0,12s5.4,12,12,12s12-5.4,12-12S18.6,0,12,0z M12,23.1C5.9,23.1,0.9,18.1,0.9,12
		S5.9,0.9,12,0.9S23.1,5.9,23.1,12S18.1,23.1,12,23.1z"/>
	<path class="st0" d="M15,17.3h-2.3v-7.1c0-0.3-0.2-0.5-0.5-0.5h-2c-0.3,0-0.5,0.2-0.5,0.5c0,0.3,0.2,0.5,0.5,0.5h1.6v6.6H9.5
		c-0.3,0-0.5,0.2-0.5,0.5s0.2,0.5,0.5,0.5H15c0.2,0,0.5-0.2,0.5-0.5S15.3,17.3,15,17.3z"/>
	<path class="st0" d="M10.8,7.4c0.2,0.2,0.5,0.4,0.8,0.4s0.7,0,0.9-0.1s0.6-0.3,0.8-0.6s0.3-0.6,0.3-0.9c0-0.4-0.2-0.8-0.5-1.1
		c-0.3-0.3-0.8-0.5-1.2-0.5c-0.3,0-0.7,0.1-0.9,0.3c-0.3,0.2-0.5,0.4-0.6,0.8c-0.1,0.3-0.1,0.6-0.1,0.9S10.6,7.2,10.8,7.4z"/>
</g>
</svg>
