<?xml version="1.0" encoding="utf-8"?>
<!-- Generator: Adobe Illustrator 25.4.1, SVG Export Plug-In . SVG Version: 6.00 Build 0)  -->
<svg version="1.1" id="Capa_1" xmlns="http://www.w3.org/2000/svg" xmlns:xlink="http://www.w3.org/1999/xlink" x="0px" y="0px"
	 viewBox="0 0 24 24" style="enable-background:new 0 0 24 24;" xml:space="preserve">
<style type="text/css">
	.st0{fill:#263238;}
</style>
<g>
	<g>
		<path class="st0" d="M9.4,17.7H5.9c-1.5,0-3-0.6-4.1-1.7S0.2,13.5,0.2,12s0.6-3,1.7-4.1s2.5-1.7,4.1-1.7h3.5
			c0.3,0,0.5,0.2,0.5,0.5S9.7,7.2,9.4,7.2H5.9c-1.3,0-2.5,0.5-3.4,1.4C1.6,9.5,1.1,10.7,1.1,12s0.5,2.5,1.4,3.4
			c0.9,0.9,2.1,1.4,3.4,1.4h3.5c0.3,0,0.5,0.2,0.5,0.5S9.7,17.7,9.4,17.7z"/>
	</g>
	<g>
		<path class="st0" d="M18.1,17.7h-3.5c-0.3,0-0.5-0.2-0.5-0.5s0.2-0.5,0.5-0.5h3.5c1.3,0,2.5-0.5,3.4-1.4s1.4-2.1,1.4-3.4
			s-0.5-2.5-1.4-3.4c-0.9-0.9-2.1-1.4-3.4-1.4h-3.5c-0.3,0-0.5-0.2-0.5-0.5s0.2-0.5,0.5-0.5h3.5c1.5,0,3,0.6,4.1,1.7
			c1.1,1.1,1.7,2.5,1.7,4.1s-0.6,3-1.7,4.1C21.1,17.2,19.6,17.7,18.1,17.7z"/>
	</g>
	<g>
		<path class="st0" d="M17.2,12.5H6.9c-0.3,0-0.5-0.2-0.5-0.5c0-0.3,0.2-0.5,0.5-0.5h10.3c0.3,0,0.5,0.2,0.5,0.5
			C17.7,12.3,17.4,12.5,17.2,12.5z"/>
	</g>
</g>
</svg>
