<?xml version="1.0" encoding="utf-8"?>
<!-- Generator: Adobe Illustrator 25.4.1, SVG Export Plug-In . SVG Version: 6.00 Build 0)  -->
<svg version="1.1" id="Capa_1" xmlns="http://www.w3.org/2000/svg" xmlns:xlink="http://www.w3.org/1999/xlink" x="0px" y="0px"
	 viewBox="0 0 24 24" style="enable-background:new 0 0 24 24;" xml:space="preserve">
<style type="text/css">
	.st0{fill:#263238;}
</style>
<g>
	<g>
		<path class="st0" d="M17.8,8h-7.7C9.8,8,9.6,7.8,9.6,7.5s0.2-0.5,0.5-0.5h7.7c0.3,0,0.5,0.2,0.5,0.5S18,8,17.8,8z"/>
	</g>
	<g>
		<path class="st0" d="M17.8,12.3h-7.7c-0.3,0-0.5-0.2-0.5-0.5c0-0.3,0.2-0.5,0.5-0.5h7.7c0.3,0,0.5,0.2,0.5,0.5S18,12.3,17.8,12.3z
			"/>
	</g>
	<g>
		<path class="st0" d="M17.8,16.6h-7.7c-0.3,0-0.5-0.2-0.5-0.5c0-0.3,0.2-0.5,0.5-0.5h7.7c0.3,0,0.5,0.2,0.5,0.5
			C18.2,16.4,18,16.6,17.8,16.6z"/>
	</g>
	<g>
		<path class="st0" d="M12,24C5.4,24,0,18.6,0,12S5.4,0,12,0s12,5.4,12,12S18.6,24,12,24z M12,1C5.9,1,1,5.9,1,12s4.9,11,11,11
			s11-4.9,11-11S18.1,1,12,1z"/>
	</g>
	<g>
		<circle class="st0" cx="6.7" cy="7.5" r="1"/>
	</g>
	<g>
		<circle class="st0" cx="6.7" cy="12" r="1"/>
	</g>
	<g>
		<circle class="st0" cx="6.7" cy="16.2" r="1"/>
	</g>
</g>
</svg>
