<?xml version="1.0" encoding="utf-8"?>
<!-- Generator: Adobe Illustrator 25.4.1, SVG Export Plug-In . SVG Version: 6.00 Build 0)  -->
<svg version="1.1" id="Capa_1" xmlns="http://www.w3.org/2000/svg" xmlns:xlink="http://www.w3.org/1999/xlink" x="0px" y="0px"
	 viewBox="0 0 24 24" style="enable-background:new 0 0 24 24;" xml:space="preserve">
<style type="text/css">
	.st0{fill:#263238;}
</style>
<g>
	<g>
		<path class="st0" d="M23.4,5.8H6.3C6,5.8,5.8,5.6,5.8,5.3C5.8,5,6,4.8,6.3,4.8h17.2c0.3,0,0.5,0.2,0.5,0.5
			C23.9,5.6,23.7,5.8,23.4,5.8z"/>
	</g>
	<g>
		<path class="st0" d="M23.4,12.5H6.3c-0.3,0-0.5-0.2-0.5-0.5s0.2-0.5,0.5-0.5h17.2c0.3,0,0.5,0.2,0.5,0.5S23.7,12.5,23.4,12.5z"/>
	</g>
	<g>
		<path class="st0" d="M23.4,19.2H6.3c-0.3,0-0.5-0.2-0.5-0.5c0-0.3,0.2-0.5,0.5-0.5h17.2c0.3,0,0.5,0.2,0.5,0.5
			C23.9,19,23.7,19.2,23.4,19.2z"/>
	</g>
	<g>
		<path class="st0" d="M1.5,6.8c-0.8,0-1.4-0.6-1.4-1.4s0.6-1.4,1.4-1.4s1.4,0.6,1.4,1.4S2.3,6.8,1.5,6.8z M1.5,4.8
			C1.2,4.8,1,5,1,5.3c0,0.3,0.2,0.5,0.5,0.5S2,5.6,2,5.3C2,5,1.8,4.8,1.5,4.8z"/>
	</g>
	<g>
		<path class="st0" d="M1.5,13.4c-0.8,0-1.4-0.6-1.4-1.4s0.6-1.4,1.4-1.4s1.4,0.6,1.4,1.4S2.3,13.4,1.5,13.4z M1.5,11.5
			C1.2,11.5,1,11.7,1,12s0.2,0.5,0.5,0.5S2,12.3,2,12S1.8,11.5,1.5,11.5z"/>
	</g>
	<g>
		<path class="st0" d="M1.5,20.1c-0.8,0-1.4-0.6-1.4-1.4s0.6-1.4,1.4-1.4s1.4,0.6,1.4,1.4S2.3,20.1,1.5,20.1z M1.5,18.2
			c-0.3,0-0.5,0.2-0.5,0.5c0,0.3,0.2,0.5,0.5,0.5S2,19,2,18.7C2,18.4,1.8,18.2,1.5,18.2z"/>
	</g>
</g>
</svg>
