<?xml version="1.0" encoding="utf-8"?>
<!-- Generator: Adobe Illustrator 25.4.1, SVG Export Plug-In . SVG Version: 6.00 Build 0)  -->
<svg version="1.1" id="Capa_1" xmlns="http://www.w3.org/2000/svg" xmlns:xlink="http://www.w3.org/1999/xlink" x="0px" y="0px"
	 viewBox="0 0 24 24" style="enable-background:new 0 0 24 24;" xml:space="preserve">
<style type="text/css">
	.st0{fill:#263238;}
</style>
<g>
	<g>
		<path class="st0" d="M23.5,6.2h-23C0.2,6.2,0,6,0,5.7c0-0.3,0.2-0.5,0.5-0.5h23c0.3,0,0.5,0.2,0.5,0.5C24,6,23.8,6.2,23.5,6.2z"/>
	</g>
	<g>
		<path class="st0" d="M23.5,12.5h-23C0.2,12.5,0,12.3,0,12s0.2-0.5,0.5-0.5h23c0.3,0,0.5,0.2,0.5,0.5C24,12.3,23.8,12.5,23.5,12.5z
			"/>
	</g>
	<g>
		<path class="st0" d="M23.5,18.8h-23c-0.3,0-0.5-0.2-0.5-0.5s0.2-0.5,0.5-0.5h23c0.3,0,0.5,0.2,0.5,0.5S23.8,18.8,23.5,18.8z"/>
	</g>
</g>
</svg>
