<?xml version="1.0" encoding="utf-8"?>
<!-- Generator: Adobe Illustrator 25.4.1, SVG Export Plug-In . SVG Version: 6.00 Build 0)  -->
<svg version="1.1" id="Capa_1" xmlns="http://www.w3.org/2000/svg" xmlns:xlink="http://www.w3.org/1999/xlink" x="0px" y="0px"
	 viewBox="0 0 24 24" style="enable-background:new 0 0 24 24;" xml:space="preserve">
<style type="text/css">
	.st0{fill:#263238;}
</style>
<path class="st0" d="M21.8,17l-0.3-0.3c-1.2-1.5-2-2.5-2-6.8c0-3.6-1.4-5.9-4.4-7.1c-0.1,0-0.2-0.2-0.3-0.3
	c-0.4-1.2-1.4-2.4-2.9-2.4S9.4,1.3,9.1,2.5c0,0.1-0.1,0.2-0.3,0.3C5.9,3.9,4.5,6.3,4.5,9.9c0,4.3-0.8,5.3-2,6.8L2.1,17
	c-0.4,0.5-0.4,1.1-0.2,1.6c0.3,0.6,0.9,0.9,1.5,0.9H8v0.4C8,21,8.4,22,9.1,22.8c0.8,0.8,1.8,1.2,2.8,1.2s2.1-0.4,2.8-1.1
	C15.6,22,16,21,16,20v-0.4h4.5c0.7,0,1.2-0.4,1.5-0.9C22.3,18.1,22.2,17.4,21.8,17z M15.1,20c0,0.8-0.3,1.6-0.9,2.1
	C13.6,22.7,12.8,23,12,23c-0.9,0-1.6-0.3-2.2-0.9c-0.6-0.6-0.9-1.4-0.9-2.2v-0.4h6.2V20z M21.1,18.2c-0.1,0.2-0.4,0.4-0.7,0.4h-17
	c-0.3,0-0.6-0.1-0.7-0.4c-0.1-0.2,0-0.4,0.1-0.6l0.3-0.3c1.3-1.6,2.3-2.7,2.3-7.4c0-4.2,2.2-5.6,3.8-6.3C9.6,3.4,9.9,3.1,10,2.7
	C10.3,1.9,11,1,12,1s1.7,0.9,1.8,1.7c0.1,0.4,0.4,0.8,0.8,0.9c1.6,0.7,3.8,2,3.8,6.3c0,4.6,0.9,5.8,2.3,7.4l0.3,0.3
	C21.2,17.7,21.2,18,21.1,18.2z"/>
</svg>
