<?xml version="1.0" encoding="utf-8"?>
<!-- Generator: Adobe Illustrator 25.4.1, SVG Export Plug-In . SVG Version: 6.00 Build 0)  -->
<svg version="1.1" id="Capa_1" xmlns="http://www.w3.org/2000/svg" xmlns:xlink="http://www.w3.org/1999/xlink" x="0px" y="0px"
	 viewBox="0 0 24 24" style="enable-background:new 0 0 24 24;" xml:space="preserve">
<style type="text/css">
	.st0{fill:#263238;}
</style>
<g>
	<path class="st0" d="M15.5,18.6h-12c-0.3,0-0.6-0.1-0.7-0.4S2.8,17.7,3,17.5l0.3-0.3c1.3-1.6,2.2-2.7,2.2-7.3c0-0.2,0-0.5,0-0.7
		c0-0.3-0.2-0.5-0.4-0.5c-0.3,0-0.5,0.2-0.5,0.4c0,0.2,0,0.5,0,0.7c0,4.3-0.8,5.2-2,6.7l-0.3,0.3c-0.4,0.5-0.5,1.1-0.2,1.6
		s0.8,0.9,1.5,0.9H8v0.4C8,21,8.4,22,9.2,22.7c0.7,0.7,1.7,1.2,2.8,1.2s2.1-0.4,2.8-1.2C15.6,22,16,21,16,19.9V19l0,0
		C16,18.7,15.8,18.6,15.5,18.6z M14.2,22.1C13.6,22.6,12.8,23,12,23s-1.6-0.3-2.2-0.9S9,20.7,9,19.9v-0.4H15v0.4
		C15,20.7,14.7,21.5,14.2,22.1z"/>
	<path class="st0" d="M8.3,4.1c0.3-0.2,0.6-0.3,0.9-0.5c0.4-0.1,0.7-0.5,0.8-0.9C10.3,1.9,11,1,12,1s1.7,0.8,2,1.7
		c0.1,0.4,0.4,0.7,0.8,0.9c1.6,0.7,3.7,2,3.7,6.2c0,3.8,0.6,5.2,1.8,6.7c0.1,0.1,0.2,0.2,0.4,0.2c0.1,0,0.2,0,0.3-0.1
		c0.2-0.1,0.2-0.5,0.1-0.7c-0.9-1.1-1.6-2.3-1.6-6.2c0-3.6-1.4-5.9-4.4-7.1c-0.1,0-0.2-0.2-0.3-0.3c-0.3-1.2-1.4-2.4-2.9-2.4
		S9.5,1.3,9.1,2.5c0,0.1-0.1,0.2-0.3,0.3c-0.4,0.1-0.7,0.3-1,0.5C7.6,3.4,7.6,3.7,7.6,3.9C7.8,4.2,8.1,4.2,8.3,4.1z"/>
	<path class="st0" d="M22.9,22.2L1.8,1.1C1.6,1,1.3,1,1.1,1.1S1,1.6,1.1,1.8l21.1,21.1c0.1,0.1,0.2,0.1,0.3,0.1s0.2,0,0.3-0.1
		C23,22.7,23,22.4,22.9,22.2z"/>
</g>
</svg>
