<?xml version="1.0" encoding="utf-8"?>
<!-- Generator: Adobe Illustrator 25.4.1, SVG Export Plug-In . SVG Version: 6.00 Build 0)  -->
<svg version="1.1" id="Capa_1" xmlns="http://www.w3.org/2000/svg" xmlns:xlink="http://www.w3.org/1999/xlink" x="0px" y="0px"
	 viewBox="0 0 24 24" style="enable-background:new 0 0 24 24;" xml:space="preserve">
<style type="text/css">
	.st0{fill:#263238;}
</style>
<g>
	<g>
		<path class="st0" d="M12,13.5c0.9,0,1.5-0.7,1.5-1.5c0-0.9-0.7-1.5-1.5-1.5c-0.9,0-1.5,0.7-1.5,1.5C10.5,12.9,11.1,13.5,12,13.5z"
			/>
	</g>
	<g>
		<path class="st0" d="M8.5,15.6c-0.1,0-0.3,0-0.3-0.1c-0.8-0.9-1.3-2.1-1.3-3.4s0.5-2.4,1.3-3.4c0.2-0.2,0.5-0.2,0.7,0
			s0.2,0.5,0,0.7c-0.7,0.8-1.1,1.7-1.1,2.7s0.4,2,1.1,2.7c0.2,0.2,0.1,0.5,0,0.7C8.8,15.5,8.7,15.6,8.5,15.6z"/>
	</g>
	<g>
		<path class="st0" d="M15.5,15.6c-0.1,0-0.2,0-0.3-0.1c-0.2-0.2-0.2-0.5,0-0.7c0.7-0.8,1.1-1.7,1.1-2.7s-0.4-2-1.1-2.7
			c-0.2-0.2-0.1-0.5,0-0.7c0.2-0.2,0.5-0.1,0.7,0c0.8,0.9,1.3,2.1,1.3,3.4s-0.5,2.4-1.3,3.4C15.7,15.5,15.6,15.6,15.5,15.6z"/>
	</g>
	<g>
		<path class="st0" d="M6.1,18c-0.1,0-0.2,0-0.3-0.1c-1.5-1.6-2.3-3.6-2.3-5.9s0.8-4.2,2.3-5.9C6,6,6.2,6,6.4,6.1s0.2,0.5,0,0.7
			C5.1,8.2,4.4,10.1,4.4,12s0.7,3.8,2.1,5.2c0.2,0.2,0.2,0.5,0,0.7C6.3,18,6.2,18,6.1,18z"/>
	</g>
	<g>
		<path class="st0" d="M17.9,18c-0.1,0-0.2,0-0.3-0.1c-0.2-0.2-0.2-0.5,0-0.7c1.3-1.4,2.1-3.3,2.1-5.2s-0.7-3.8-2.1-5.2
			c-0.2-0.2-0.2-0.5,0-0.7C17.8,6,18,6,18.2,6.1c1.5,1.6,2.3,3.6,2.3,5.9s-0.8,4.2-2.3,5.9C18.1,18,18,18,17.9,18z"/>
	</g>
	<g>
		<path class="st0" d="M20.6,20.2c-0.1,0-0.2,0-0.3-0.1c-0.2-0.2-0.2-0.5,0-0.7c1.8-2,2.8-4.7,2.8-7.3s-1-5.3-2.8-7.3
			c-0.2-0.2-0.1-0.5,0-0.7c0.2-0.2,0.5-0.1,0.7,0c2,2.2,3.1,5,3.1,8s-1.1,5.8-3.1,8C20.8,20.1,20.7,20.2,20.6,20.2z"/>
	</g>
	<g>
		<path class="st0" d="M3.4,20.2c-0.1,0-0.2,0-0.3-0.1c-2-2.2-3.1-5-3.1-8s1.1-5.8,3.1-8c0.2-0.2,0.5-0.2,0.7,0
			c0.2,0.2,0.2,0.5,0,0.7C2,6.6,1,9.3,1,12c0,2.7,1,5.3,2.8,7.3c0.2,0.2,0.1,0.5,0,0.7C3.6,20.1,3.5,20.2,3.4,20.2z"/>
	</g>
</g>
</svg>
