<?xml version="1.0" encoding="utf-8"?>
<!-- Generator: Adobe Illustrator 25.4.1, SVG Export Plug-In . SVG Version: 6.00 Build 0)  -->
<svg version="1.1" id="Capa_1" xmlns="http://www.w3.org/2000/svg" xmlns:xlink="http://www.w3.org/1999/xlink" x="0px" y="0px"
	 viewBox="0 0 24 24" style="enable-background:new 0 0 24 24;" xml:space="preserve">
<style type="text/css">
	.st0{fill:#263238;}
</style>
<g>
	<path class="st0" d="M23.7,19.9L14,1.9c-0.4-0.8-1.2-1.2-2-1.2c-0.9,0-1.6,0.4-2,1.2l-9.7,18C0.1,20.2,0,20.7,0,21
		c0,0.4,0.1,0.8,0.3,1.2c0.2,0.3,0.5,0.6,0.8,0.8s0.7,0.3,1.2,0.3h19.4c0.4,0,0.8-0.1,1.2-0.3c0.3-0.2,0.6-0.5,0.8-0.8
		S24,21.5,24,21C24,20.6,23.9,20.2,23.7,19.9z M22.8,21.7c-0.1,0.2-0.3,0.4-0.5,0.5c-0.2,0.1-0.4,0.2-0.7,0.2H2.3
		c-0.2,0-0.5,0-0.7-0.2c-0.2-0.1-0.4-0.3-0.5-0.5C1.1,21.5,1,21.2,1,21s0-0.5,0.1-0.7l9.7-18C11,1.9,11.5,1.6,12,1.6
		c0.5,0,1,0.2,1.2,0.7l9.7,18C23,20.5,23,20.8,23,21C23,21.2,23,21.5,22.8,21.7z"/>
	<path class="st0" d="M11.5,15.5c0,0.2,0.2,0.5,0.5,0.5s0.5-0.2,0.5-0.5l0.3-7c0-0.1,0-0.2,0-0.3c0-0.1-0.1-0.2-0.2-0.3
		c-0.1-0.1-0.1-0.1-0.3-0.2c-0.1,0-0.2,0-0.3,0c-0.1,0-0.2,0-0.3,0c-0.1,0-0.2,0.1-0.2,0.2c-0.1,0.1-0.1,0.2-0.2,0.3s0,0.2,0,0.3
		l0,0L11.5,15.5z"/>
	<path class="st0" d="M12.4,17.8c-0.2-0.1-0.4-0.1-0.7,0c-0.2,0-0.4,0.1-0.6,0.3c-0.1,0.1-0.3,0.4-0.3,0.6c0,0.2,0,0.4,0,0.7
		c0,0.2,0.2,0.4,0.4,0.5S11.8,20,12,20c0.3,0,0.6-0.1,0.8-0.3c0.2-0.2,0.3-0.5,0.3-0.8c0-0.2,0-0.4-0.2-0.6
		C12.8,18.1,12.6,17.9,12.4,17.8z"/>
</g>
</svg>
