<?xml version="1.0" encoding="utf-8"?>
<!-- Generator: Adobe Illustrator 25.4.1, SVG Export Plug-In . SVG Version: 6.00 Build 0)  -->
<svg version="1.1" id="Capa_1" xmlns="http://www.w3.org/2000/svg" xmlns:xlink="http://www.w3.org/1999/xlink" x="0px" y="0px"
	 viewBox="0 0 24 24" style="enable-background:new 0 0 24 24;" xml:space="preserve">
<style type="text/css">
	.st0{fill:#263238;}
</style>
<g>
	<path class="st0" d="M19.9,9.8c-0.2,0-0.8,0-1,0l-3.2,0.1L9.2,1.6C9.1,1.5,9,1.4,8.9,1.3c-0.1,0-0.3-0.1-0.4-0.1H7.1
		c-0.1,0-0.3,0.1-0.4,0.2c-0.1,0.1-0.1,0.3,0,0.4l3.6,8.2l-5.7,0.1L2.6,7.7C2.4,7.4,1.9,7.2,1.5,7.2h-1c-0.1,0-0.3,0.1-0.4,0.2
		C0,7.5,0,7.7,0,7.9l1.1,3.9c0,0.1,0,0.2,0,0.3l-1,3.8c0,0.1-0.1,0.3,0.1,0.6c0,0.1,0.2,0.2,0.5,0.2h0.9c0.6,0,0.8-0.1,1.1-0.5
		l1.9-2.5l5.7,0.1l-3.6,8.2c0,0.1,0,0.3,0,0.4c0.1,0.1,0.2,0.2,0.4,0.2h1.4c0.1,0,0.3,0,0.4-0.1s0.2-0.1,0.3-0.2l6.6-8.3l3.1,0.1
		c0.2,0,0.8,0,1,0c2.6,0,4.2-0.8,4.2-2.2C24,10.6,22.5,9.8,19.9,9.8z M15.6,9.9L15.6,9.9L15.6,9.9C15.5,9.9,15.5,9.9,15.6,9.9z
		 M19.9,13.2c-0.2,0-0.7,0-0.9,0l-3.3-0.1c0,0-0.3,0-0.5,0.2l-6.6,8.5H7.9l3.5-8c0-0.1,0-0.2,0-0.3c0-0.1,0-0.2-0.1-0.3
		c0-0.1-0.1-0.1-0.2-0.2c-0.1,0-0.2-0.1-0.3-0.1l-6.2-0.1c-0.1,0-0.3,0-0.4,0.1c-0.1,0-0.2,0.1-0.3,0.2l-2,2.5c0,0-0.1,0.1-0.1,0.1
		s0,0-0.2,0H1.1L2,12.4c0.1-0.3,0.1-0.7,0-0.9L1.1,8.2h0.4c0.1,0,0.2,0,0.3,0.1l1.9,2.4c0.1,0.1,0.2,0.2,0.3,0.3
		c0.1,0,0.3,0.1,0.4,0.1l6.2-0.1c0.1,0,0.2,0,0.3,0s0.2-0.1,0.2-0.2c0-0.1,0.1-0.2,0.1-0.3c0-0.1,0-0.2,0-0.3l-3.5-8h0.6l6.7,8.5
		c0,0.1,0.1,0.1,0.2,0.2c0.1,0,0.2,0.1,0.3,0l3.4-0.1c0.1,0,0.7,0,0.9,0c1.9,0,3.2,0.5,3.2,1.2C23.1,12.8,21.8,13.2,19.9,13.2z
		 M10.7,10C10.7,10,10.7,10,10.7,10C10.7,10,10.7,10,10.7,10L10.7,10z"/>
</g>
</svg>
