<svg xmlns="http://www.w3.org/2000/svg" viewBox="0 0 24 24" style="enable-background:new 0 0 24 24" xml:space="preserve"><path d="M19.9 9.8h-1l-3.2.1-6.5-8.3-.3-.3c-.1 0-.3-.1-.4-.1H7.1c-.1 0-.3.1-.4.2-.1.1-.1.3 0 .4l3.6 8.2-5.7.1-2-2.4c-.2-.3-.7-.5-1.1-.5h-1c-.1 0-.3.1-.4.2-.1.1-.1.3-.1.5l1.1 3.9v.3l-1 3.8c0 .1-.1.3.1.6 0 .1.2.2.5.2h.9c.6 0 .8-.1 1.1-.5l1.9-2.5 5.7.1L6.7 22v.4c.1.1.2.2.4.2h1.4c.1 0 .3 0 .4-.1s.2-.1.3-.2l6.6-8.3 3.1.1h1c2.6 0 4.2-.8 4.2-2.2-.1-1.3-1.6-2.1-4.2-2.1zm-4.3.1c-.1 0-.1 0 0 0zm4.3 3.3H19l-3.3-.1s-.3 0-.5.2l-6.6 8.5h-.7l3.5-8v-.3c0-.1 0-.2-.1-.3 0-.1-.1-.1-.2-.2-.1 0-.2-.1-.3-.1l-6.2-.1c-.1 0-.3 0-.4.1-.1 0-.2.1-.3.2l-2 2.5-.1.1h-.7l.9-3.3c.1-.3.1-.7 0-.9l-.9-3.3h.4c.1 0 .2 0 .3.1l1.9 2.4.3.3c.1 0 .3.1.4.1l6.2-.1h.3c.1 0 .2-.1.2-.2s.1-.2.1-.3v-.3l-3.5-8h.6l6.7 8.5c0 .1.1.1.2.2.1 0 .2.1.3 0l3.4-.1h.9c1.9 0 3.2.5 3.2 1.2.1.8-1.2 1.2-3.1 1.2zM10.7 10z" style="fill:#263238"/></svg>