<?xml version="1.0" encoding="utf-8"?>
<!-- Generator: Adobe Illustrator 25.4.1, SVG Export Plug-In . SVG Version: 6.00 Build 0)  -->
<svg version="1.1" id="Capa_1" xmlns="http://www.w3.org/2000/svg" xmlns:xlink="http://www.w3.org/1999/xlink" x="0px" y="0px"
	 viewBox="0 0 24 24" style="enable-background:new 0 0 24 24;" xml:space="preserve">
<style type="text/css">
	.st0{fill:#263238;}
</style>
<g>
	<path class="st0" d="M19.1,5.6H2.9C1.3,5.6,0,6.9,0,8.5v7c0,1.6,1.3,2.9,2.9,2.9h16.2c1.6,0,2.9-1.3,2.9-2.9v-7
		C22,6.9,20.7,5.6,19.1,5.6z M21,15.5c0,1.1-0.9,1.9-1.9,1.9H2.9c-1.1,0-1.9-0.9-1.9-1.9v-7c0-1.1,0.9-1.9,1.9-1.9h16.2
		c1.1,0,1.9,0.9,1.9,1.9V15.5z"/>
	<path class="st0" d="M7.4,13.8c-0.2,0-0.5,0-0.7-0.1s-0.4-0.2-0.5-0.4c-0.1-0.2-0.2-0.4-0.1-0.6c0-0.2,0.1-0.4,0.2-0.6l0,0l0,0
		l2.9-3.4H3.6C3.3,8.7,3,8.8,2.8,9C2.6,9.1,2.4,9.4,2.4,9.6v5c0,0.2,0.1,0.5,0.3,0.7c0.2,0.2,0.5,0.3,0.8,0.3h5.3l0.5-1.6L7.4,13.8z
		"/>
	<path class="st0" d="M14.2,11.6C14.2,11.6,14.2,11.6,14.2,11.6c0-0.1,0-0.1,0-0.1v0c0,0,0,0,0,0c0,0,0,0,0,0l0,0h0h0h-2.9l0.6-1.7
		l0.1-0.4l0.3-0.9v0l0.4-1.1l0,0l0,0l0,0l0,0l0,0l0,0l0,0l0,0l0,0l0,0l0,0l0,0l0,0l0,0l0,0l0,0l0,0l0,0l0,0l0,0l-0.9,0.9L11,8.9
		l-0.5,0.5l-3,3.2c0,0,0,0,0,0v0v0c0,0,0,0,0,0.1c0,0,0,0,0,0s0,0,0,0s0,0,0.1,0h2.9l-1.4,4.1l0,0l0,0l0,0l0,0l0,0l0,0l0,0l0,0l0,0
		l0,0l0,0l0,0l0,0l0,0l0,0l0,0l0,0l0,0l0,0l0,0l1.1-1.2l0.8-0.9L13,13L14.2,11.6z"/>
	<path class="st0" d="M18,8.6h-5.3l-0.5,1.6h1.9c0.2,0,0.5,0,0.7,0.1c0.2,0.1,0.4,0.2,0.5,0.4c0.1,0.2,0.2,0.4,0.1,0.6
		c0,0.2-0.1,0.4-0.2,0.6l0,0l0,0l-2.9,3.4H18c0.3,0,0.5-0.1,0.8-0.3c0.2-0.2,0.3-0.4,0.3-0.7V9.5c0-0.2-0.1-0.5-0.3-0.7
		C18.6,8.7,18.3,8.6,18,8.6z"/>
	<path class="st0" d="M23.5,9.6c-0.3,0-0.5,0.2-0.5,0.5V14c0,0.3,0.2,0.5,0.5,0.5c0.3,0,0.5-0.2,0.5-0.5v-3.9
		C24,9.8,23.8,9.6,23.5,9.6z"/>
</g>
</svg>
