<?xml version="1.0" encoding="utf-8"?>
<!-- Generator: Adobe Illustrator 25.4.1, SVG Export Plug-In . SVG Version: 6.00 Build 0)  -->
<svg version="1.1" id="Capa_1" xmlns="http://www.w3.org/2000/svg" xmlns:xlink="http://www.w3.org/1999/xlink" x="0px" y="0px"
	 viewBox="0 0 24 24" style="enable-background:new 0 0 24 24;" xml:space="preserve">
<style type="text/css">
	.st0{fill:#263238;}
</style>
<g>
	<path class="st0" d="M18.7,5.8H2.8C1.2,5.8,0,7,0,8.6v6.8c0,1.6,1.2,2.8,2.8,2.8h15.9c1.6,0,2.8-1.2,2.8-2.8V8.6
		C21.6,7,20.3,5.8,18.7,5.8z M20.6,15.4c0,1-0.8,1.9-1.9,1.9H2.8c-1,0-1.9-0.8-1.9-1.9V8.6c0-1,0.8-1.9,1.9-1.9h15.9
		c1,0,1.9,0.8,1.9,1.9V15.4z"/>
	<path class="st0" d="M11,9.1H3.5c-0.1,0-0.2,0.1-0.2,0.2v5.5c0,0.1,0.1,0.2,0.2,0.2H11c0.1,0,0.2-0.1,0.2-0.2V9.3
		C11.2,9.2,11.1,9.1,11,9.1z"/>
	<path class="st0" d="M23.5,9.6c-0.3,0-0.5,0.2-0.5,0.5v3.8c0,0.3,0.2,0.5,0.5,0.5c0.3,0,0.5-0.2,0.5-0.5v-3.8
		C24,9.8,23.8,9.6,23.5,9.6z"/>
</g>
</svg>
