<?xml version="1.0" encoding="utf-8"?>
<!-- Generator: Adobe Illustrator 25.4.1, SVG Export Plug-In . SVG Version: 6.00 Build 0)  -->
<svg version="1.1" id="Capa_1" xmlns="http://www.w3.org/2000/svg" xmlns:xlink="http://www.w3.org/1999/xlink" x="0px" y="0px"
	 viewBox="0 0 24 24" style="enable-background:new 0 0 24 24;" xml:space="preserve">
<style type="text/css">
	.st0{fill:#263238;}
</style>
<g>
	<g>
		<path class="st0" d="M18.7,18.2H2.8C1.2,18.2,0,17,0,15.4V8.6C0,7,1.2,5.8,2.8,5.8h15.9c1.6,0,2.8,1.2,2.8,2.8v6.8
			C21.6,17,20.3,18.2,18.7,18.2z M2.8,6.7C1.8,6.7,1,7.5,1,8.6v6.8c0,1,0.8,1.9,1.9,1.9h15.9c1,0,1.9-0.8,1.9-1.9V8.6
			c0-1-0.8-1.9-1.9-1.9H2.8z"/>
	</g>
	<g>
		<path class="st0" d="M23.5,14.4c-0.3,0-0.5-0.2-0.5-0.5v-3.8c0-0.3,0.2-0.5,0.5-0.5c0.3,0,0.5,0.2,0.5,0.5v3.8
			C24,14.2,23.8,14.4,23.5,14.4z"/>
	</g>
</g>
</svg>
