<?xml version="1.0" encoding="utf-8"?>
<!-- Generator: Adobe Illustrator 25.4.1, SVG Export Plug-In . SVG Version: 6.00 Build 0)  -->
<svg version="1.1" id="Capa_1" xmlns="http://www.w3.org/2000/svg" xmlns:xlink="http://www.w3.org/1999/xlink" x="0px" y="0px"
	 viewBox="0 0 24 24" style="enable-background:new 0 0 24 24;" xml:space="preserve">
<style type="text/css">
	.st0{fill:#263238;}
</style>
<g>
	<path class="st0" d="M12.7,12l5.7-4.9c0.1-0.1,0.1-0.2,0.1-0.3c0-0.1,0-0.2-0.1-0.3l-6.1-6.2C12.2,0,12,0,11.8,0.1
		c-0.2,0.1-0.3,0.2-0.3,0.4v10.4L6.2,6.3C6,6.1,5.7,6.2,5.5,6.4c-0.2,0.2-0.1,0.5,0,0.7l5.7,4.9l-5.7,4.9c-0.2,0.2-0.2,0.5,0,0.7
		s0.5,0.2,0.7,0l5.3-4.6v10.4c0,0.2,0.1,0.4,0.3,0.4c0,0,0.1,0,0.2,0c0.1,0,0.2,0,0.3-0.1l6.2-6.2c0.1-0.1,0.1-0.2,0.1-0.3
		c0-0.1,0-0.2-0.1-0.3L12.7,12z M12.5,1.7l4.9,5l-4.9,4.3V1.7z M12.5,22.3v-9.3l4.9,4.3L12.5,22.3z"/>
</g>
</svg>
