<?xml version="1.0" encoding="utf-8"?>
<!-- Generator: Adobe Illustrator 25.4.1, SVG Export Plug-In . SVG Version: 6.00 Build 0)  -->
<svg version="1.1" id="Capa_1" xmlns="http://www.w3.org/2000/svg" xmlns:xlink="http://www.w3.org/1999/xlink" x="0px" y="0px"
	 viewBox="0 0 24 24" style="enable-background:new 0 0 24 24;" xml:space="preserve">
<style type="text/css">
	.st0{fill:#263238;}
</style>
<g>
	<path class="st0" d="M18,2.8h-0.7V0.5c0-0.3-0.2-0.5-0.5-0.5c-0.3,0-0.5,0.2-0.5,0.5v2.3H8.1V0.5C8.1,0.2,7.9,0,7.6,0
		C7.3,0,7.2,0.2,7.2,0.5v2.3H6c-2.6,0-4.8,2.2-4.8,4.8v11.6C1.2,21.8,3.3,24,6,24H18c2.6,0,4.8-2.2,4.8-4.8V7.6
		C22.8,4.9,20.7,2.8,18,2.8z M6,3.7h1.2v2.7C7.2,6.8,7.3,7,7.6,7c0.3,0,0.5-0.2,0.5-0.5V3.7h8.3v2.7c0,0.3,0.2,0.5,0.5,0.5
		c0.3,0,0.5-0.2,0.5-0.5V3.7H18c2.1,0,3.8,1.7,3.8,3.8v1.5H2.1V7.6C2.1,5.5,3.8,3.7,6,3.7z M18,23H6c-2.1,0-3.8-1.7-3.8-3.8v-9.1
		h19.8v9.1C21.9,21.3,20.2,23,18,23z"/>
	<circle class="st0" cx="6.4" cy="16.8" r="0.9"/>
	<circle class="st0" cx="17.9" cy="13.4" r="0.9"/>
	<circle class="st0" cx="14.1" cy="13.4" r="0.9"/>
	<circle class="st0" cx="10.2" cy="16.8" r="0.9"/>
	<circle class="st0" cx="14.1" cy="16.8" r="0.9"/>
	<circle class="st0" cx="6.4" cy="20.1" r="0.9"/>
	<circle class="st0" cx="10.2" cy="20.1" r="0.9"/>
	<circle class="st0" cx="14.1" cy="20.1" r="0.9"/>
	<circle class="st0" cx="17.9" cy="16.8" r="0.9"/>
</g>
</svg>
