<?xml version="1.0" encoding="utf-8"?>
<!-- Generator: Adobe Illustrator 25.4.1, SVG Export Plug-In . SVG Version: 6.00 Build 0)  -->
<svg version="1.1" id="Capa_1" xmlns="http://www.w3.org/2000/svg" xmlns:xlink="http://www.w3.org/1999/xlink" x="0px" y="0px"
	 viewBox="0 0 24 24" style="enable-background:new 0 0 24 24;" xml:space="preserve">
<style type="text/css">
	.st0{fill:#263238;}
</style>
<g>
	<path class="st0" d="M18,2.9h-0.7V0.6c0-0.3-0.2-0.5-0.5-0.5s-0.5,0.2-0.5,0.5v2.3H8.1V0.6c0-0.3-0.2-0.5-0.5-0.5
		c-0.3,0-0.5,0.2-0.5,0.5v2.3H6C3.4,2.9,1.2,5,1.2,7.6v11.5c0,2.6,2.1,4.8,4.8,4.8h12c2.6,0,4.8-2.1,4.8-4.8V7.6
		C22.8,5,20.6,2.9,18,2.9z M6,3.8h1.2v2.7C7.2,6.8,7.4,7,7.7,7C8,7,8.1,6.8,8.1,6.5V3.8h8.2v2.7c0,0.3,0.2,0.5,0.5,0.5
		s0.5-0.2,0.5-0.5V3.8H18c2.1,0,3.8,1.7,3.8,3.8v1.5H2.2V7.6C2.2,5.5,3.9,3.8,6,3.8z M18,23H6c-2.1,0-3.8-1.7-3.8-3.8v-9.1h19.6v9.1
		C21.8,21.2,20.1,23,18,23z"/>
	<path class="st0" d="M15.9,16.6h-4.5c-0.3,0-0.5,0.2-0.5,0.5c0,0.3,0.2,0.5,0.5,0.5h4.5c0.3,0,0.5-0.2,0.5-0.5
		C16.3,16.8,16.1,16.6,15.9,16.6z"/>
	<path class="st0" d="M8.6,16.1c-0.5,0-0.9,0.4-0.9,0.9c0,0.5,0.4,0.9,0.9,0.9c0.5,0,0.9-0.4,0.9-0.9C9.5,16.6,9.1,16.1,8.6,16.1z"
		/>
</g>
</svg>
