<?xml version="1.0" encoding="utf-8"?>
<!-- Generator: Adobe Illustrator 25.4.1, SVG Export Plug-In . SVG Version: 6.00 Build 0)  -->
<svg version="1.1" id="Capa_1" xmlns="http://www.w3.org/2000/svg" xmlns:xlink="http://www.w3.org/1999/xlink" x="0px" y="0px"
	 viewBox="0 0 24 24" style="enable-background:new 0 0 24 24;" xml:space="preserve">
<style type="text/css">
	.st0{fill:#263238;}
</style>
<g>
	<path class="st0" d="M18.9,24c-1,0-2.3-0.4-4.4-1.6c-2.6-1.6-4.5-2.9-7.1-5.6C5,14.1,3.8,12.4,2.2,9.2C0.3,5.7,0.6,3.9,1,3.1
		s0.9-1.3,1.8-2c0.4-0.3,0.9-0.6,1.4-0.8c0,0,0.1,0,0.1-0.1C5-0.1,5.3,0,6.2,0.9c0.9,1,2.2,3.1,2.6,4.2c0.6,1.4,0.7,1.8-0.1,3
		c0,0.1-0.1,0.2-0.2,0.3C8.1,8.9,7.9,9.2,8,9.7c0.1,0.7,1.1,2.5,2.5,4c1.4,1.5,3,2.4,3.7,2.6c0.4,0.1,0.7-0.1,1.2-0.5l0.2-0.2
		c1.2-1,1.5-0.8,2.9-0.1c0.9,0.5,3,1.8,3.9,2.8l0,0c0.8,0.9,1,1.1,0.7,1.9l0,0.1c-0.2,0.5-0.5,1.1-0.8,1.5c-0.6,1-1.1,1.5-1.9,1.9
		C20,23.8,19.6,24,18.9,24z M4.9,1c0,0-0.1,0-0.1,0c0,0-0.1,0-0.2,0.1C4.1,1.3,3.7,1.6,3.3,1.9c-0.8,0.6-1.1,1-1.4,1.6
		C1.7,3.9,1.3,5.4,3.1,8.8c1.6,3.2,2.8,4.8,5.2,7.3c2.5,2.6,4.3,4,6.9,5.5c3.3,2,4.4,1.4,4.9,1.2c0.6-0.3,1-0.7,1.5-1.5
		c0.2-0.4,0.5-0.9,0.7-1.3c0,0,0-0.1,0.1-0.2c0-0.1,0.1-0.2,0.1-0.2c0,0-0.2-0.3-0.5-0.7c-0.7-0.8-2.6-2.1-3.6-2.6
		c-1.1-0.6-1.1-0.6-1.8,0l-0.2,0.2c-0.6,0.5-1.1,1-2.1,0.7c-0.9-0.2-2.7-1.3-4.2-2.9c-1.6-1.6-2.6-3.5-2.8-4.5
		C6.9,9,7.3,8.4,7.8,7.8c0-0.1,0.1-0.2,0.2-0.3c0.5-0.8,0.5-0.8,0-2.1c-0.4-1-1.6-3.1-2.4-3.9C5.2,1.3,5,1.1,4.9,1z"/>
</g>
</svg>
