<svg xmlns="http://www.w3.org/2000/svg" viewBox="0 0 24 24" style="enable-background:new 0 0 24 24" xml:space="preserve"><path d="M18.9 24c-1 0-2.3-.4-4.4-1.6-2.6-1.6-4.5-2.9-7.1-5.6-2.4-2.7-3.6-4.4-5.2-7.6C.3 5.7.6 3.9 1 3.1s.9-1.3 1.8-2c.4-.3.9-.6 1.4-.8 0 0 .1 0 .1-.1.7-.3 1-.2 1.9.7.9 1 2.2 3.1 2.6 4.2.6 1.4.7 1.8-.1 3 0 .1-.1.2-.2.3-.4.5-.6.8-.5 1.3.1.7 1.1 2.5 2.5 4s3 2.4 3.7 2.6c.4.1.7-.1 1.2-.5l.2-.2c1.2-1 1.5-.8 2.9-.1.9.5 3 1.8 3.9 2.8.8.9 1 1.1.7 1.9v.1c-.2.5-.5 1.1-.8 1.5-.6 1-1.1 1.5-1.9 1.9-.4.1-.8.3-1.5.3zM4.9 1h-.1s-.1 0-.2.1c-.5.2-.9.5-1.3.8-.8.6-1.1 1-1.4 1.6-.2.4-.6 1.9 1.2 5.3 1.6 3.2 2.8 4.8 5.2 7.3 2.5 2.6 4.3 4 6.9 5.5 3.3 2 4.4 1.4 4.9 1.2.6-.3 1-.7 1.5-1.5.2-.4.5-.9.7-1.3 0 0 0-.1.1-.2 0-.1.1-.2.1-.2s-.2-.3-.5-.7c-.7-.8-2.6-2.1-3.6-2.6-1.1-.6-1.1-.6-1.8 0l-.2.2c-.6.5-1.1 1-2.1.7-.9-.2-2.7-1.3-4.2-2.9-1.6-1.6-2.6-3.5-2.8-4.5-.4-.8 0-1.4.5-2 0-.1.1-.2.2-.3.5-.8.5-.8 0-2.1-.4-1-1.6-3.1-2.4-3.9-.4-.2-.6-.4-.7-.5z" style="fill:#263238"/></svg>