<?xml version="1.0" encoding="utf-8"?>
<!-- Generator: Adobe Illustrator 25.4.1, SVG Export Plug-In . SVG Version: 6.00 Build 0)  -->
<svg version="1.1" id="Capa_1" xmlns="http://www.w3.org/2000/svg" xmlns:xlink="http://www.w3.org/1999/xlink" x="0px" y="0px"
	 viewBox="0 0 24 24" style="enable-background:new 0 0 24 24;" xml:space="preserve">
<style type="text/css">
	.st0{fill:#263238;}
</style>
<g>
	<g>
		<path class="st0" d="M23,20.7h-2.5c-0.5,0-0.9-0.4-0.9-0.9V4.3c0-0.5,0.4-0.9,0.9-0.9H23c0.5,0,0.9,0.4,0.9,0.9v15.5
			C24,20.3,23.6,20.7,23,20.7z M20.7,19.7H23V4.3h-2.3V19.7z"/>
	</g>
	<g>
		<path class="st0" d="M16.5,20.7H14c-0.5,0-0.9-0.4-0.9-0.9V8.3c0-0.5,0.4-0.9,0.9-0.9h2.5c0.5,0,0.9,0.4,0.9,0.9v11.5
			C17.4,20.3,17,20.7,16.5,20.7z M14.1,19.7h2.3V8.4h-2.3C14.1,8.4,14.1,19.7,14.1,19.7z"/>
	</g>
	<g>
		<path class="st0" d="M10,20.7H7.5c-0.5,0-0.9-0.4-0.9-0.9v-8.2c0-0.5,0.4-0.9,0.9-0.9H10c0.5,0,0.9,0.4,0.9,0.9v8.2
			C10.9,20.3,10.5,20.7,10,20.7z M7.6,19.7h2.3v-8H7.6V19.7z"/>
	</g>
	<g>
		<path class="st0" d="M3.4,20.7H1c-0.5,0-0.9-0.4-0.9-0.9v-4.9C0,14.4,0.4,14,1,14h2.5c0.5,0,0.9,0.4,0.9,0.9v4.9
			C4.3,20.3,3.9,20.7,3.4,20.7z M1.1,19.7h2.3v-4.8H1.1V19.7z"/>
	</g>
</g>
</svg>
