<svg xmlns="http://www.w3.org/2000/svg" viewBox="0 0 24 24" style="enable-background:new 0 0 24 24" xml:space="preserve"><path d="M23 20.7h-2.5c-.5 0-.9-.4-.9-.9V4.3c0-.5.4-.9.9-.9H23c.5 0 .9.4.9.9v15.5c.1.5-.3.9-.9.9zm-2.3-1H23V4.3h-2.3v15.4zm-4.2 1H14c-.5 0-.9-.4-.9-.9V8.3c0-.5.4-.9.9-.9h2.5c.5 0 .9.4.9.9v11.5c0 .5-.4.9-.9.9zm-2.4-1h2.3V8.4h-2.3v11.3zm-4.1 1H7.5c-.5 0-.9-.4-.9-.9v-8.2c0-.5.4-.9.9-.9H10c.5 0 .9.4.9.9v8.2c0 .5-.4.9-.9.9zm-2.4-1h2.3v-8H7.6v8zm-4.2 1H1c-.5 0-.9-.4-.9-.9v-4.9c-.1-.5.3-.9.9-.9h2.5c.5 0 .9.4.9.9v4.9c-.1.5-.5.9-1 .9zm-2.3-1h2.3v-4.8H1.1v4.8z" style="fill:#263238"/></svg>