<?xml version="1.0" encoding="utf-8"?>
<!-- Generator: Adobe Illustrator 25.4.1, SVG Export Plug-In . SVG Version: 6.00 Build 0)  -->
<svg version="1.1" id="Capa_1" xmlns="http://www.w3.org/2000/svg" xmlns:xlink="http://www.w3.org/1999/xlink" x="0px" y="0px"
	 viewBox="0 0 24 24" style="enable-background:new 0 0 24 24;" xml:space="preserve">
<style type="text/css">
	.st0{fill:#263238;}
</style>
<g>
	<g>
		<path class="st0" d="M2.8,24L2.8,24c-0.1,0-0.3,0-0.4-0.1c-0.1,0-0.2-0.1-0.3-0.2s-0.1-0.2-0.2-0.3c0-0.1,0-0.2,0-0.4
			c0-0.1,0-0.2,0-0.3l1-3.9c0,0,0-0.2-0.1-0.5c0,0,0-0.1-0.1-0.1c-1.2-1.9-1.8-4.1-1.8-6.3c0-3.2,1.2-6.2,3.4-8.4
			C6.3,1.2,9.1,0,12,0C17.3,0,22,4,23,9.4c0.1,0.8,0.2,1.6,0.2,2.4c0,6.5-5,11.8-11.1,11.8c-1.1,0-2.4-0.3-3.1-0.5
			c-0.8-0.2-1.6-0.6-1.6-0.6c-0.1,0-0.3-0.1-0.4-0.1c-0.1,0-0.3,0-0.4,0.1l-3.5,1.3C3,23.9,2.9,24,2.8,24L2.8,24z M12,1
			C9.3,1,6.8,2,4.9,4c-2.1,2-3.2,4.8-3.2,7.8c0,2.1,0.6,4.1,1.6,5.8c0,0,0.1,0.1,0.1,0.2c0.2,0.5,0.3,0.9,0.2,1.2l0,0l-1,3.9
			c0,0,0,0,0,0.1c0,0,0,0,0,0l3.5-1.3c0.2-0.1,0.5-0.1,0.8-0.1c0.2,0,0.5,0,0.8,0.1c0,0,0.8,0.3,1.5,0.5c0.7,0.2,1.9,0.4,2.8,0.4
			c5.6-0.1,10.1-4.9,10.1-10.9c0-0.7-0.1-1.5-0.2-2.2C21.1,4.5,16.8,1,12,1z M3.3,18.8L3.3,18.8L3.3,18.8z M3.3,18.8L3.3,18.8
			L3.3,18.8z"/>
	</g>
</g>
</svg>
