<svg xmlns="http://www.w3.org/2000/svg" viewBox="0 0 24 24" style="enable-background:new 0 0 24 24" xml:space="preserve"><path d="M5.8 23h-.2c-.2-.1-.3-.2-.3-.4v-3.9H3.6c-1 0-1.9-.4-2.5-1.1C.4 16.9 0 16 0 15.1V4.5C0 3.5.4 2.7 1.1 2c.7-.6 1.6-1 2.5-1h16.7c1 0 1.9.4 2.5 1.1s1.1 1.6 1.1 2.5v10.5c0 1-.4 1.8-1.1 2.5-.7.7-1.6 1.1-2.5 1.1h-9.1L6 23c0-.1-.1 0-.2 0zM3.6 2c-.7 0-1.3.3-1.8.7-.5.5-.8 1.2-.8 1.8V15c0 .7.3 1.3.8 1.8s1.1.8 1.9.8h2.2c.3 0 .5.2.5.5v3.3l4.4-3.6c.1-.1.4-.2.6-.2h9.1c.7 0 1.3-.3 1.9-.8.5-.5.8-1.1.8-1.8V4.5c0-.7-.3-1.3-.8-1.8s-1.3-.7-2-.7H3.6z" style="fill:#263238"/></svg>