<?xml version="1.0" encoding="utf-8"?>
<!-- Generator: Adobe Illustrator 25.4.1, SVG Export Plug-In . SVG Version: 6.00 Build 0)  -->
<svg version="1.1" id="Capa_1" xmlns="http://www.w3.org/2000/svg" xmlns:xlink="http://www.w3.org/1999/xlink" x="0px" y="0px"
	 viewBox="0 0 24 24" style="enable-background:new 0 0 24 24;" xml:space="preserve">
<style type="text/css">
	.st0{fill:#263238;}
</style>
<g>
	<g>
		<path class="st0" d="M2.2,24L2.2,24c-0.1,0-0.3,0-0.4-0.1s-0.2-0.1-0.3-0.2c-0.1-0.1-0.1-0.2-0.2-0.3c0-0.1-0.1-0.2-0.1-0.4
			s0-0.2,0-0.3l1.1-3.9c0,0,0-0.2-0.2-0.5c0,0,0-0.1-0.1-0.1C0.7,16.2,0,14,0,11.7c0-3.1,1.2-6,3.4-8.2C5.7,1.3,8.7,0,12,0
			c5.7,0,10.6,4,11.8,9.4C24,10.2,24,11,24,11.8c0,6.5-5.3,11.8-11.8,11.8c-1.1,0-2.5-0.3-3.3-0.5c-0.9-0.2-1.7-0.6-1.7-0.6
			c-0.1,0-0.3,0-0.4-0.1c-0.1,0-0.3,0-0.5,0.1l-3.8,1.3C2.4,24,2.3,24,2.2,24L2.2,24z M12,1C9,1,6.2,2.2,4.1,4.3C2.1,6.3,1,9,1,11.8
			c0,2.1,0.6,4.1,1.7,5.8c0,0,0.1,0.1,0.1,0.2c0.3,0.5,0.3,0.9,0.3,1.2l0,0l-1.1,3.9c0,0,0,0,0,0.1c0,0,0.1,0,0.1,0L6,21.7
			c0.2-0.1,0.5-0.1,0.8-0.1s0.5,0,0.8,0.1c0,0,0.8,0.3,1.6,0.5c0.8,0.2,2.1,0.4,3,0.4c6,0,10.8-4.9,10.8-10.8c0-0.7-0.1-1.5-0.2-2.2
			C21.7,4.6,17.2,1,12,1z M2.7,18.9L2.7,18.9L2.7,18.9z"/>
	</g>
	<g>
		<path class="st0" d="M6.7,13.8c1,0,1.8-0.8,1.8-1.8s-0.8-1.8-1.8-1.8S4.9,11.1,4.9,12S5.8,13.8,6.7,13.8z"/>
	</g>
	<g>
		<path class="st0" d="M12,13.8c1,0,1.8-0.8,1.8-1.8S13,10.3,12,10.3s-1.8,0.8-1.8,1.8S11.1,13.8,12,13.8z"/>
	</g>
	<g>
		<path class="st0" d="M17.3,13.8c1,0,1.8-0.8,1.8-1.8s-0.8-1.8-1.8-1.8c-1,0-1.8,0.8-1.8,1.8S16.3,13.8,17.3,13.8z"/>
	</g>
</g>
</svg>
