<?xml version="1.0" encoding="utf-8"?>
<!-- Generator: Adobe Illustrator 25.4.1, SVG Export Plug-In . SVG Version: 6.00 Build 0)  -->
<svg version="1.1" id="Capa_1" xmlns="http://www.w3.org/2000/svg" xmlns:xlink="http://www.w3.org/1999/xlink" x="0px" y="0px"
	 viewBox="0 0 24 24" style="enable-background:new 0 0 24 24;" xml:space="preserve">
<style type="text/css">
	.st0{fill:#263238;}
</style>
<g>
	<path class="st0" d="M5.8,23c0,0-0.1,0-0.2,0c-0.2-0.1-0.3-0.2-0.3-0.4v-3.9H3.6c-1,0-1.9-0.4-2.5-1.1c-0.7-0.7-1.1-1.6-1.1-2.5
		V4.5c0-1,0.4-1.8,1.1-2.5C1.8,1.4,2.7,1,3.6,1h16.7l0,0c1,0,1.9,0.4,2.5,1.1s1.1,1.6,1.1,2.5v10.5c0,1-0.4,1.8-1.1,2.5
		c-0.7,0.7-1.6,1.1-2.5,1.1h-9.1l-5.2,4.3C6,22.9,5.9,23,5.8,23z M3.6,2C2.9,2,2.3,2.3,1.8,2.7C1.3,3.2,1,3.9,1,4.5v10.5
		c0,0.7,0.3,1.3,0.8,1.8s1.1,0.8,1.9,0.8h2.2c0.3,0,0.5,0.2,0.5,0.5v3.3l4.4-3.6c0.1-0.1,0.4-0.2,0.6-0.2h9.1c0.7,0,1.3-0.3,1.9-0.8
		c0.5-0.5,0.8-1.1,0.8-1.8V4.5c0-0.7-0.3-1.3-0.8-1.8S21.1,2,20.4,2C20.4,2,3.6,2,3.6,2z"/>
</g>
</svg>
