<svg xmlns="http://www.w3.org/2000/svg" viewBox="0 0 24 24" style="enable-background:new 0 0 24 24" xml:space="preserve"><path d="M2.8 24c-.1 0-.3 0-.4-.1-.1 0-.2-.1-.3-.2s-.1-.2-.2-.3v-.7l1-3.9s0-.2-.1-.5c0 0 0-.1-.1-.1C1.5 16.3.9 14.1.9 11.9c0-3.2 1.2-6.2 3.4-8.4C6.3 1.2 9.1 0 12 0c5.3 0 10 4 11 9.4.1.8.2 1.6.2 2.4 0 6.5-5 11.8-11.1 11.8-1.1 0-2.4-.3-3.1-.5-.8-.2-1.6-.6-1.6-.6-.1 0-.3-.1-.4-.1-.1 0-.3 0-.4.1l-3.5 1.3c-.1.1-.2.2-.3.2zM12 1C9.3 1 6.8 2 4.9 4c-2.1 2-3.2 4.8-3.2 7.8 0 2.1.6 4.1 1.6 5.8 0 0 .1.1.1.2.2.5.3.9.2 1.2l-1 3.9v.1l3.5-1.3c.2-.1.5-.1.8-.1.2 0 .5 0 .8.1 0 0 .8.3 1.5.5s1.9.4 2.8.4c5.6-.1 10.1-4.9 10.1-10.9 0-.7-.1-1.5-.2-2.2-.8-5-5.1-8.5-9.9-8.5zM3.3 18.8zm0 0z" style="fill:#263238"/></svg>