<?xml version="1.0" encoding="utf-8"?>
<!-- Generator: Adobe Illustrator 25.4.1, SVG Export Plug-In . SVG Version: 6.00 Build 0)  -->
<svg version="1.1" id="Capa_1" xmlns="http://www.w3.org/2000/svg" xmlns:xlink="http://www.w3.org/1999/xlink" x="0px" y="0px"
	 viewBox="0 0 24 24" style="enable-background:new 0 0 24 24;" xml:space="preserve">
<style type="text/css">
	.st0{fill:#263238;}
</style>
<g>
	<g>
		<path class="st0" d="M12,24C5.4,24,0,18.6,0,12S5.4,0,12,0s12,5.4,12,12S18.6,24,12,24z M12,1C5.9,1,1,5.9,1,12s4.9,11,11,11
			s11-4.9,11-11S18.1,1,12,1z"/>
	</g>
	<g>
		<path class="st0" d="M9.7,17.3c-0.1,0-0.3,0-0.3-0.1l-3.5-3.8c-0.2-0.2-0.1-0.5,0-0.7s0.5-0.1,0.7,0l3.1,3.4l7.7-9.2
			c0.2-0.2,0.5-0.2,0.7,0c0.2,0.2,0.2,0.5,0,0.7l-8.1,9.6C10,17.2,9.8,17.3,9.7,17.3L9.7,17.3z"/>
	</g>
</g>
</svg>
