<?xml version="1.0" encoding="utf-8"?>
<!-- Generator: Adobe Illustrator 25.4.1, SVG Export Plug-In . SVG Version: 6.00 Build 0)  -->
<svg version="1.1" id="Capa_1" xmlns="http://www.w3.org/2000/svg" xmlns:xlink="http://www.w3.org/1999/xlink" x="0px" y="0px"
	 viewBox="0 0 24 24" style="enable-background:new 0 0 24 24;" xml:space="preserve">
<style type="text/css">
	.st0{fill:#263238;}
</style>
<g>
	<g>
		<path class="st0" d="M12,24C5.4,24,0,18.6,0,12S5.4,0,12,0s12,5.4,12,12S18.6,24,12,24z M12,1C5.9,1,1,5.9,1,12s4.9,11,11,11
			s11-4.9,11-11S18.1,1,12,1z"/>
	</g>
	<g>
		<path class="st0" d="M12,16.3c-0.1,0-0.2,0-0.3-0.1l-2.9-2.9c-0.2-0.2-0.2-0.5,0-0.7c0.2-0.2,0.5-0.2,0.7,0l2.5,2.5l6.4-7.3
			c0.2-0.2,0.5-0.2,0.7,0s0.2,0.5,0,0.7l-6.7,7.7C12.3,16.3,12.1,16.3,12,16.3L12,16.3z"/>
	</g>
	<g>
		<path class="st0" d="M8.2,16.3c-0.1,0-0.2,0-0.3-0.1l-2.9-2.9c-0.2-0.2-0.2-0.5,0-0.7s0.5-0.2,0.7,0l2.9,2.9
			c0.2,0.2,0.2,0.5,0,0.7C8.4,16.3,8.3,16.3,8.2,16.3z"/>
	</g>
	<g>
		<path class="st0" d="M11.9,12.2c-0.1,0-0.2,0-0.3-0.1c-0.2-0.2-0.2-0.5,0-0.7l3.1-3.6c0.2-0.2,0.5-0.2,0.7,0
			c0.2,0.2,0.2,0.5,0,0.7L12.2,12C12.1,12.1,12,12.2,11.9,12.2z"/>
	</g>
</g>
</svg>
