<?xml version="1.0" encoding="utf-8"?>
<!-- Generator: Adobe Illustrator 25.4.1, SVG Export Plug-In . SVG Version: 6.00 Build 0)  -->
<svg version="1.1" id="Capa_1" xmlns="http://www.w3.org/2000/svg" xmlns:xlink="http://www.w3.org/1999/xlink" x="0px" y="0px"
	 viewBox="0 0 24 24" style="enable-background:new 0 0 24 24;" xml:space="preserve">
<style type="text/css">
	.st0{fill:#263238;}
</style>
<path class="st0" d="M19.8,2.5c-0.6-0.6-1.3-0.9-2.1-0.9h-1.2C16.5,0.7,15.7,0,14.8,0H9.2c-1,0-1.7,0.7-1.8,1.6H6.2
	c-0.8,0-1.5,0.3-2.1,0.9C3.6,3.1,3.3,3.8,3.3,4.6V21c0,0.8,0.3,1.5,0.9,2.1C4.7,23.7,5.5,24,6.2,24h11.5c0.8,0,1.5-0.3,2.1-0.9
	c0.5-0.6,0.9-1.3,0.9-2.1V4.6C20.7,3.8,20.4,3,19.8,2.5z M8.3,1.8C8.3,1.4,8.7,1,9.2,1h5.5c0.5,0,0.9,0.4,0.9,0.9v0.6
	c0,0.5-0.4,0.9-0.9,0.9H9.2c-0.5,0-0.9-0.4-0.9-0.9V1.8z M19.6,21c0,0.5-0.1,1-0.5,1.4S18.2,23,17.7,23H6.2c-0.5,0-1-0.2-1.4-0.6
	c-0.4-0.4-0.6-0.9-0.6-1.4V4.6c0-0.5,0.2-1,0.6-1.4c0.4-0.4,0.9-0.6,1.4-0.6h1.2c0.1,0.9,0.9,1.6,1.8,1.6h5.5c1,0,1.7-0.7,1.8-1.6
	h1.2c0.5,0,1,0.2,1.4,0.6c0.4,0.4,0.6,0.9,0.6,1.4V21L19.6,21z"/>
</svg>
