<?xml version="1.0" encoding="utf-8"?>
<!-- Generator: Adobe Illustrator 25.4.1, SVG Export Plug-In . SVG Version: 6.00 Build 0)  -->
<svg version="1.1" id="Capa_1" xmlns="http://www.w3.org/2000/svg" xmlns:xlink="http://www.w3.org/1999/xlink" x="0px" y="0px"
	 viewBox="0 0 24 24" style="enable-background:new 0 0 24 24;" xml:space="preserve">
<style type="text/css">
	.st0{fill:#263238;}
</style>
<g>
	<path class="st0" d="M21,7.6l-7-7C13.7,0.3,13.1,0,12.6,0H7.7C7,0,6.2,0.3,5.7,0.8c-0.5,0.5-0.8,1.2-0.8,2v15.8
		c0,0.8,0.3,1.5,0.8,2c0.5,0.5,1.2,0.8,2,0.8h11c0.8,0,1.5-0.3,2-0.8c0.5-0.5,0.8-1.2,0.8-2V9l0,0C21.6,8.5,21.4,8,21,7.6z M20,7.9
		h-5.2c-0.3,0-0.6-0.1-0.8-0.3c-0.2-0.2-0.3-0.5-0.3-0.8V1.6L20,7.9z M20.7,18.7c0,0.5-0.2,1-0.6,1.3c-0.3,0.3-0.8,0.6-1.3,0.6h-11
		c-0.5,0-1-0.2-1.3-0.6c-0.3-0.3-0.6-0.8-0.6-1.3V2.8c0-0.5,0.2-1,0.6-1.3s0.8-0.6,1.3-0.6h4.9c0,0,0.1,0,0.2,0v5.8
		c0,0.5,0.2,1.1,0.6,1.4c0.4,0.4,0.9,0.6,1.4,0.6h5.8c0,0,0,0.1,0,0.2V18.7z"/>
	<path class="st0" d="M17.6,23H5.3c-0.2,0-0.5,0-0.7-0.1s-0.4-0.2-0.6-0.4c-0.2-0.2-0.3-0.4-0.4-0.6s-0.1-0.5-0.1-0.7v-17
		c0-0.3-0.2-0.5-0.5-0.5S2.4,3.8,2.4,4.1v17c0,0.4,0,0.7,0.2,1.1c0.1,0.3,0.3,0.7,0.6,0.9c0.3,0.3,0.6,0.5,0.9,0.6S4.9,24,5.2,24
		h12.3c0.3,0,0.5-0.2,0.5-0.5S17.8,23,17.6,23z"/>
</g>
</svg>
