<?xml version="1.0" encoding="utf-8"?>
<!-- Generator: Adobe Illustrator 25.4.1, SVG Export Plug-In . SVG Version: 6.00 Build 0)  -->
<svg version="1.1" id="Capa_1" xmlns="http://www.w3.org/2000/svg" xmlns:xlink="http://www.w3.org/1999/xlink" x="0px" y="0px"
	 viewBox="0 0 24 24" style="enable-background:new 0 0 24 24;" xml:space="preserve">
<style type="text/css">
	.st0{fill:#263238;}
</style>
<path class="st0" d="M21.7,9.6l-7.2-7.2c-0.4-0.4-0.9-0.6-1.5-0.6H9.7c-0.5-1-1.4-1.6-2.6-1.6c-1.8,0-2.9,1.3-2.9,3.4v7.4
	c0,1.1,0.9,1.7,1.7,1.7c0.2,0,0.4,0,0.7-0.1c0.2-0.1,0.4-0.2,0.6-0.4c0.1-0.1,0.3-0.3,0.4-0.6c0.1-0.2,0.1-0.4,0.1-0.7V3
	c0-0.3-0.2-0.5-0.5-0.5S6.7,2.7,6.7,3v7.8c0,0.1,0,0.2,0,0.3c0,0.1-0.1,0.2-0.1,0.2c0,0-0.1,0.1-0.2,0.1c-0.1,0-0.2,0-0.3,0
	c-0.4,0-0.8-0.2-0.8-0.8V3.4c0-1.1,0.5-2.4,2-2.4s2,1.2,2,2.3v7.1c0,2.1-1.3,3.5-3.2,3.5s-3.3-1.4-3.3-3.5V6.2
	c0-0.3-0.2-0.5-0.5-0.5S1.7,6,1.7,6.2v4.2c0,2.5,1.7,4.4,4.1,4.5V21c0,0.8,0.3,1.5,0.9,2.1c0.6,0.6,1.3,0.9,2.1,0.9h10.6
	c0.8,0,1.5-0.3,2.1-0.9c0.6-0.6,0.9-1.3,0.9-2.1V11C22.3,10.5,22.1,9.9,21.7,9.6z M20.7,9.9h-5.4c-0.3,0-0.6-0.1-0.8-0.3
	c-0.2-0.2-0.3-0.5-0.3-0.8V3.3L20.7,9.9z M21.4,21c0,0.5-0.2,1-0.6,1.4c-0.4,0.4-0.9,0.6-1.4,0.6H8.8c-0.5,0-1-0.2-1.4-0.6
	C7,22,6.8,21.5,6.8,21v-6.2c2-0.4,3.3-2.1,3.3-4.4V3.4c0-0.2,0-0.5,0-0.7h3c0,0,0.1,0,0.2,0v6c0,0.6,0.2,1.1,0.6,1.5
	c0.4,0.4,0.9,0.6,1.5,0.6h6.1c0,0,0,0.1,0,0.2V21z"/>
</svg>
