<?xml version="1.0" encoding="utf-8"?>
<!-- Generator: Adobe Illustrator 25.4.1, SVG Export Plug-In . SVG Version: 6.00 Build 0)  -->
<svg version="1.1" id="Capa_1" xmlns="http://www.w3.org/2000/svg" xmlns:xlink="http://www.w3.org/1999/xlink" x="0px" y="0px"
	 viewBox="0 0 24 24" style="enable-background:new 0 0 24 24;" xml:space="preserve">
<style type="text/css">
	.st0{fill:#263238;}
</style>
<g>
	<path class="st0" d="M20.7,8.5l-7.8-7.8c-0.4-0.4-1-0.7-1.6-0.7H5.8C5,0,4.2,0.3,3.6,0.9s-1,1.4-1,2.2v17.8c0,0.8,0.3,1.6,0.9,2.2
		C4.2,23.7,5,24,5.8,24h12.4c0.8,0,1.6-0.3,2.2-0.9s0.9-1.4,0.9-2.2V10.1C21.4,9.5,21.2,8.9,20.7,8.5z M19.7,8.9h-5.9
		c-0.3,0-0.7-0.1-0.9-0.4s-0.4-0.6-0.4-0.9v-6L19.7,8.9z M20.4,20.9c0,0.6-0.2,1.2-0.6,1.5c-0.4,0.4-1,0.6-1.5,0.6H5.8
		c-0.6,0-1.2-0.2-1.5-0.6c-0.4-0.4-0.6-1-0.6-1.5V3.1c0-0.6,0.2-1.2,0.6-1.5C4.7,1.2,5.3,1,5.8,1h5.5c0.1,0,0.2,0,0.2,0v6.6
		c0,0.6,0.2,1.2,0.7,1.6s1,0.7,1.6,0.7h6.6c0,0.1,0,0.1,0,0.2C20.4,10.1,20.4,20.9,20.4,20.9z"/>
	<path class="st0" d="M16.5,13.3H7.6c-0.3,0-0.5,0.2-0.5,0.5s0.2,0.5,0.5,0.5h8.9c0.3,0,0.5-0.2,0.5-0.5S16.7,13.3,16.5,13.3z"/>
	<path class="st0" d="M16.5,17.7H7.6c-0.3,0-0.5,0.2-0.5,0.5c0,0.3,0.2,0.5,0.5,0.5h8.9c0.3,0,0.5-0.2,0.5-0.5
		C17,17.9,16.7,17.7,16.5,17.7z"/>
</g>
</svg>
