<?xml version="1.0" encoding="utf-8"?>
<!-- Generator: Adobe Illustrator 25.4.1, SVG Export Plug-In . SVG Version: 6.00 Build 0)  -->
<svg version="1.1" id="Capa_1" xmlns="http://www.w3.org/2000/svg" xmlns:xlink="http://www.w3.org/1999/xlink" x="0px" y="0px"
	 viewBox="0 0 24 24" style="enable-background:new 0 0 24 24;" xml:space="preserve">
<style type="text/css">
	.st0{fill:#263238;}
</style>
<path class="st0" d="M23.3,4.9c-0.5-0.5-1.1-0.7-1.8-0.7H10.2c-0.3,0-0.6-0.1-0.9-0.3l-1.4-1C7.5,2.7,7,2.5,6.5,2.5H2.6
	c-0.7,0-1.3,0.3-1.8,0.8S0,4.4,0,5v14c0,0.7,0.2,1.3,0.7,1.8s1.1,0.7,1.8,0.7h18.9c0.7,0,1.3-0.2,1.8-0.7c0.5-0.5,0.7-1.1,0.7-1.8
	V6.7C24,6,23.8,5.4,23.3,4.9z M1.5,3.9c0.3-0.3,0.7-0.5,1.1-0.5h3.9c0.3,0,0.6,0.1,0.9,0.3l1.4,1C9.2,5,9.7,5.1,10.2,5.1h11.3
	c0.4,0,0.8,0.2,1.1,0.5c0.3,0.3,0.5,0.7,0.5,1.1v1.6H1V5.1C1,4.6,1.1,4.2,1.5,3.9z M22.6,20.2c-0.3,0.3-0.7,0.5-1.1,0.5H2.6
	c-0.4,0-0.8-0.1-1.1-0.5C1.2,19.9,1,19.5,1,19.1V9.2h22.1V19C23.1,19.4,22.9,19.9,22.6,20.2z"/>
</svg>
