<?xml version="1.0" encoding="utf-8"?>
<!-- Generator: Adobe Illustrator 25.4.1, SVG Export Plug-In . SVG Version: 6.00 Build 0)  -->
<svg version="1.1" id="Capa_1" xmlns="http://www.w3.org/2000/svg" xmlns:xlink="http://www.w3.org/1999/xlink" x="0px" y="0px"
	 viewBox="0 0 24 24" style="enable-background:new 0 0 24 24;" xml:space="preserve">
<style type="text/css">
	.st0{fill:#263238;}
</style>
<g>
	<path class="st0" d="M15.2,0.7c-0.8-0.4-2-0.6-3.2-0.6c-1.8,0-3.3,0.5-4.5,1.5C5.3,3.5,5.1,5.8,5.1,5.9c0,0.2,0.2,0.5,0.5,0.5
		S6.1,6.2,6.1,6c0-0.1,0.1-2,2.1-3.6c1-0.8,2.3-1.2,3.9-1.3c1.1,0,2.2,0.2,2.8,0.5c2,1,3.1,2.5,3.1,4.4c0,2.8-1.9,4.1-3.9,5.6
		c-2.1,1.4-3,3-3,5.1c0,0.3,0.2,0.5,0.5,0.5c0.3,0,0.5-0.2,0.5-0.5c0-1.3,0.3-2.8,2.6-4.3c2.1-1.5,4.4-3,4.4-6.4
		C18.9,3.7,17.6,1.9,15.2,0.7z"/>
	<circle class="st0" cx="11.5" cy="21.7" r="2.1"/>
</g>
</svg>
