<?xml version="1.0" encoding="utf-8"?>
<!-- Generator: Adobe Illustrator 25.4.1, SVG Export Plug-In . SVG Version: 6.00 Build 0)  -->
<svg version="1.1" id="Capa_1" xmlns="http://www.w3.org/2000/svg" xmlns:xlink="http://www.w3.org/1999/xlink" x="0px" y="0px"
	 viewBox="0 0 24 24" style="enable-background:new 0 0 24 24;" xml:space="preserve">
<style type="text/css">
	.st0{fill:#263238;}
</style>
<g>
	<path class="st0" d="M20.4,3.6c-2.2-2.2-5.3-3.5-8.4-3.5c-2.4,0-4.7,0.7-6.6,2C3.4,3.4,1.9,5.3,1,7.5s-1.1,4.6-0.7,6.9
		c0.5,2.3,1.6,4.5,3.3,6.1s3.8,2.8,6.1,3.3c0.8,0.1,1.6,0.2,2.3,0.2c1.6,0,3.1-0.3,4.5-0.9c2.2-0.9,4-2.4,5.4-4.4s2-4.3,2-6.6
		C23.9,8.8,22.7,5.8,20.4,3.6z M21.2,18.1c-1.2,1.8-2.9,3.2-5,4c-2,0.8-4.2,1.1-6.4,0.6c-2.2-0.4-4.1-1.5-5.6-3
		c-1.5-1.5-2.6-3.4-3-5.6C0.8,12,1,9.8,1.8,7.8s2.2-3.7,4-5C7.7,1.6,9.8,1,12,1c2.9,0,5.7,1.1,7.8,3.2C21.8,6.3,23,9.1,23,12
		C23,14.2,22.4,16.3,21.2,18.1z"/>
	<path class="st0" d="M13.9,5.5c-0.5-0.2-1.1-0.3-1.9-0.3c-1.1,0-2,0.3-2.7,0.9C8,7.1,7.9,8.4,7.9,8.5C7.9,8.7,8.1,9,8.3,9
		c0.3,0,0.5-0.2,0.5-0.4c0,0,0.1-1,1.1-1.8c0.6-0.4,1.2-0.6,2.1-0.6c0.7,0,1.3,0.1,1.5,0.2c1.1,0.5,1.7,1.3,1.7,2.2
		c0,1.4-0.8,2-2.2,2.9c-1.2,0.8-1.8,1.8-1.8,3.1c0,0.3,0.2,0.5,0.5,0.5c0.3,0,0.5-0.2,0.5-0.5c0-0.6,0.1-1.5,1.4-2.3
		c1.3-0.8,2.6-1.7,2.6-3.7C16.1,7.2,15.3,6.2,13.9,5.5z"/>
	<path class="st0" d="M11.6,16.7c-0.7,0-1.3,0.6-1.3,1.3c0,0.7,0.6,1.3,1.3,1.3c0.7,0,1.3-0.6,1.3-1.3
		C12.9,17.3,12.3,16.7,11.6,16.7z"/>
</g>
</svg>
