<?xml version="1.0" encoding="utf-8"?>
<!-- Generator: Adobe Illustrator 25.4.1, SVG Export Plug-In . SVG Version: 6.00 Build 0)  -->
<svg version="1.1" id="Capa_1" xmlns="http://www.w3.org/2000/svg" xmlns:xlink="http://www.w3.org/1999/xlink" x="0px" y="0px"
	 viewBox="0 0 24 24" style="enable-background:new 0 0 24 24;" xml:space="preserve">
<style type="text/css">
	.st0{fill:#263238;}
</style>
<path class="st0" d="M17.7,9h-1.2V4.6c0-1.2-0.5-2.4-1.4-3.2C14.4,0.5,13.2,0,12,0S9.6,0.5,8.8,1.4c-0.9,0.9-1.4,2-1.4,3.3v4.4H6.3
	c-1.6,0-2.9,1.3-2.9,2.9v9c0,1.6,1.3,2.9,2.9,2.9h11.5c1.6,0,2.9-1.3,2.9-2.9V12C20.7,10.4,19.4,9,17.7,9z M8.4,4.7
	c0-1,0.4-1.9,1.1-2.6C10.1,1.4,11,1,12,1s1.9,0.4,2.6,1.1s1.1,1.6,1.1,2.6v4.4H8.4V4.7z M19.7,21c0,1.1-0.9,2-2,2H6.3
	c-1.1,0-2-0.9-2-2v-9c0-1.1,0.9-2,2-2h11.5c1.1,0,2,0.9,2,2V21z"/>
</svg>
