<?xml version="1.0" encoding="utf-8"?>
<!-- Generator: Adobe Illustrator 25.4.1, SVG Export Plug-In . SVG Version: 6.00 Build 0)  -->
<svg version="1.1" id="Capa_1" xmlns="http://www.w3.org/2000/svg" xmlns:xlink="http://www.w3.org/1999/xlink" x="0px" y="0px"
	 viewBox="0 0 24 24" style="enable-background:new 0 0 24 24;" xml:space="preserve">
<style type="text/css">
	.st0{fill:#263238;}
</style>
<g>
	<path class="st0" d="M17.7,9.1H8.4V4.7c0-1,0.4-1.9,1.1-2.5S11,1.1,12,1.1s1.9,0.4,2.5,1.1c0.7,0.7,1.1,1.6,1.1,2.5
		c0,0.3,0.2,0.5,0.5,0.5c0.3,0,0.5-0.2,0.5-0.5c0-1.2-0.5-2.4-1.3-3.2s-2-1.3-3.2-1.3S9.6,0.6,8.8,1.4c-0.9,0.9-1.3,2-1.3,3.2v4.4
		H6.3c-1.6,0-2.9,1.3-2.9,2.9v9c0,1.6,1.3,2.9,2.9,2.9h11.4c1.6,0,2.9-1.3,2.9-2.9v-9C20.6,10.4,19.3,9.1,17.7,9.1z M19.7,21
		c0,1.1-0.9,2-2,2H6.3c-1.1,0-2-0.9-2-2v-9c0-1.1,0.9-2,2-2h11.4c1.1,0,2,0.9,2,2V21z"/>
</g>
</svg>
