<svg xmlns="http://www.w3.org/2000/svg" viewBox="0 0 24 24" style="enable-background:new 0 0 24 24" xml:space="preserve"><path d="M17.7 9.1H8.4V4.7c0-1 .4-1.9 1.1-2.5S11 1.1 12 1.1s1.9.4 2.5 1.1c.7.7 1.1 1.6 1.1 2.5 0 .3.2.5.5.5s.5-.2.5-.5c0-1.2-.5-2.4-1.3-3.2S13.3.2 12.1.2 9.6.6 8.8 1.4c-.9.9-1.3 2-1.3 3.2V9H6.3c-1.6 0-2.9 1.3-2.9 2.9v9c0 1.6 1.3 2.9 2.9 2.9h11.4c1.6 0 2.9-1.3 2.9-2.9v-9c0-1.5-1.3-2.8-2.9-2.8zm2 11.9c0 1.1-.9 2-2 2H6.3c-1.1 0-2-.9-2-2v-9c0-1.1.9-2 2-2h11.4c1.1 0 2 .9 2 2v9z" style="fill:#263238"/></svg>