<svg xmlns="http://www.w3.org/2000/svg" viewBox="0 0 24 24" style="enable-background:new 0 0 24 24" xml:space="preserve"><path d="M17.7 9h-1.2V4.6c0-1.2-.5-2.4-1.4-3.2C14.4.5 13.2 0 12 0S9.6.5 8.8 1.4c-.9.9-1.4 2-1.4 3.3v4.4H6.3c-1.6 0-2.9 1.3-2.9 2.9v9c0 1.6 1.3 2.9 2.9 2.9h11.5c1.6 0 2.9-1.3 2.9-2.9v-9c0-1.6-1.3-3-3-3zM8.4 4.7c0-1 .4-1.9 1.1-2.6C10.1 1.4 11 1 12 1s1.9.4 2.6 1.1 1.1 1.6 1.1 2.6v4.4H8.4V4.7zM19.7 21c0 1.1-.9 2-2 2H6.3c-1.1 0-2-.9-2-2v-9c0-1.1.9-2 2-2h11.5c1.1 0 2 .9 2 2v9z" style="fill:#263238"/></svg>