<svg xmlns="http://www.w3.org/2000/svg" viewBox="0 0 24 24" style="enable-background:new 0 0 24 24" xml:space="preserve"><path d="M23.6 7.9c-.3-.4-.6-.8-1.1-1l-9.6-4.8c-.5-.2-1.1-.2-1.6 0L1.5 6.8c-.4.2-.8.6-1.1 1-.3.5-.4 1-.4 1.5v10.2c0 1.5 1.2 2.7 2.7 2.7h18.5c1.5 0 2.7-1.2 2.7-2.7V9.2c.1-.4 0-.9-.3-1.3zM2 7.7 11.6 3c.1 0 .2-.1.4-.1.1 0 .3 0 .4.1l9.7 4.7c.1 0 .2.1.3.2-.1 0-.1 0-.2.1l-7.4 5.6-1.8-1.4c-.6-.5-1.6-.5-2.2 0L9 13.6 1.5 8c.2-.1.3-.2.5-.3zm21.1 11.7c0 1-.8 1.7-1.8 1.7H2.8c-1 0-1.8-.8-1.8-1.7V8.8l7.1 5.4-4.5 3.5c-.2.1-.2.5-.1.7s.5.2.7.1l7.1-5.6c.3-.2.8-.2 1.1 0l7.1 5.5c.1 0 .2.1.3.1.1 0 .3 0 .4-.2.1-.2.1-.5-.1-.7l-4.5-3.5 7.2-5.5s.1-.1.1-.2c.1.4.2.6.2.8v10.2z" style="fill:#263238"/></svg>