<?xml version="1.0" encoding="utf-8"?>
<!-- Generator: Adobe Illustrator 25.4.1, SVG Export Plug-In . SVG Version: 6.00 Build 0)  -->
<svg version="1.1" id="Capa_1" xmlns="http://www.w3.org/2000/svg" xmlns:xlink="http://www.w3.org/1999/xlink" x="0px" y="0px"
	 viewBox="0 0 24 24" style="enable-background:new 0 0 24 24;" xml:space="preserve">
<style type="text/css">
	.st0{fill:#263238;}
</style>
<g>
	<path class="st0" d="M22.2,11.2c-0.3,0-0.5,0.2-0.5,0.5v7.2c0,0.4-0.2,0.9-0.5,1.1s-0.7,0.5-1.1,0.5H2.6c-0.4,0-0.8-0.2-1.1-0.5
		C1.1,19.8,1,19.3,1,18.9V6.3c0-0.4,0.2-0.8,0.5-1.1c0.3-0.3,0.7-0.5,1.1-0.5h12.2c0.3,0,0.5-0.2,0.5-0.5S15,3.7,14.8,3.7H2.6
		C1.9,3.7,1.2,4,0.8,4.5S0,5.6,0,6.3v12.6c0,0.7,0.3,1.3,0.8,1.8s1.1,0.8,1.8,0.8h17.5c0.7,0,1.3-0.3,1.8-0.8s0.8-1.1,0.8-1.8v-7.2
		C22.7,11.4,22.5,11.2,22.2,11.2z"/>
	<path class="st0" d="M4.1,7.2C3.9,7.1,3.6,7.1,3.4,7.3C3.3,7.5,3.3,7.8,3.5,8l7.6,5.8c0.1,0,0.2,0.1,0.3,0.1s0.2,0,0.3-0.1l4.6-3.4
		c0.2-0.1,0.2-0.5,0.1-0.7c-0.1-0.2-0.5-0.2-0.7-0.1l-4.3,3.2L4.1,7.2z"/>
	<path class="st0" d="M23.4,4c-0.4-0.6-0.9-1-1.5-1.2c-0.6-0.3-1.3-0.3-1.9-0.2c-0.7,0.1-1.2,0.4-1.7,0.9s-0.8,1.1-0.9,1.7
		c-0.1,0.7,0,1.3,0.2,1.9c0.2,0.6,0.7,1.1,1.2,1.5C19.4,9,20,9.2,20.6,9.2c0.9,0,1.7-0.3,2.3-1c0.6-0.6,1-1.5,1-2.3
		C24,5.2,23.8,4.6,23.4,4z"/>
</g>
</svg>
