<?xml version="1.0" encoding="utf-8"?>
<!-- Generator: Adobe Illustrator 25.4.1, SVG Export Plug-In . SVG Version: 6.00 Build 0)  -->
<svg version="1.1" id="Capa_1" xmlns="http://www.w3.org/2000/svg" xmlns:xlink="http://www.w3.org/1999/xlink" x="0px" y="0px"
	 viewBox="0 0 24 24" style="enable-background:new 0 0 24 24;" xml:space="preserve">
<style type="text/css">
	.st0{fill:#263238;}
</style>
<g>
	<path class="st0" d="M23.6,7.9c-0.3-0.4-0.6-0.8-1.1-1l-9.6-4.8c-0.5-0.2-1.1-0.2-1.6,0L1.5,6.8c-0.4,0.2-0.8,0.6-1.1,1
		C0.1,8.3,0,8.8,0,9.3v10.2c0,1.5,1.2,2.7,2.7,2.7h18.5c1.5,0,2.7-1.2,2.7-2.7V9.2C24,8.8,23.9,8.3,23.6,7.9z M2,7.7L11.6,3
		c0.1,0,0.2-0.1,0.4-0.1c0.1,0,0.3,0,0.4,0.1l9.7,4.7l0,0c0.1,0,0.2,0.1,0.3,0.2c-0.1,0-0.1,0-0.2,0.1l-7.4,5.6L13,12.2
		c-0.6-0.5-1.6-0.5-2.2,0L9,13.6L1.5,8l0,0C1.7,7.9,1.8,7.8,2,7.7z M23.1,19.4c0,1-0.8,1.7-1.8,1.7H2.8c-1,0-1.8-0.8-1.8-1.7V9.2
		c0-0.1,0-0.3,0-0.4l7.1,5.4l-4.5,3.5c-0.2,0.1-0.2,0.5-0.1,0.7s0.5,0.2,0.7,0.1l7.1-5.6c0.3-0.2,0.8-0.2,1.1,0l7.1,5.5
		c0.1,0,0.2,0.1,0.3,0.1c0.1,0,0.3,0,0.4-0.2c0.1-0.2,0.1-0.5-0.1-0.7l-4.5-3.5l7.2-5.5c0,0,0.1-0.1,0.1-0.2C23,8.8,23.1,9,23.1,9.2
		V19.4L23.1,19.4z"/>
</g>
</svg>
