<?xml version="1.0" encoding="utf-8"?>
<!-- Generator: Adobe Illustrator 25.4.1, SVG Export Plug-In . SVG Version: 6.00 Build 0)  -->
<svg version="1.1" id="Capa_1" xmlns="http://www.w3.org/2000/svg" xmlns:xlink="http://www.w3.org/1999/xlink" x="0px" y="0px"
	 viewBox="0 0 24 24" style="enable-background:new 0 0 24 24;" xml:space="preserve">
<style type="text/css">
	.st0{fill:#263238;}
</style>
<path class="st0" d="M23.2,16.1c0-0.2-0.1-0.3-0.2-0.5c-0.1-0.1-0.2-0.2-0.4-0.3L16.9,12l5.6-3.3c0.3-0.2,0.6-0.5,0.7-0.9
	c0.1-0.3,0-0.7-0.1-1.1l0,0l-1-1.7c-0.2-0.3-0.5-0.5-0.9-0.6s-0.7,0-1.1,0.1l-5.6,3.2V1.5c0-0.4-0.1-0.7-0.4-1S13.4,0,13,0h-2
	c-0.4,0-0.7,0.1-1,0.4s-0.4,0.6-0.4,1v6.4L3.9,4.6C3.6,4.4,3.2,4.4,2.9,4.5C2.5,4.6,2.1,4.8,2,5.2L1,6.9C0.9,7,0.8,7.2,0.8,7.4
	c0,0.2,0,0.4,0,0.5c0,0.2,0.1,0.3,0.2,0.5c0.1,0.1,0.2,0.3,0.4,0.4L7.1,12l-5.6,3.2c-0.3,0.2-0.6,0.5-0.7,0.9
	c-0.1,0.3,0,0.7,0.1,1.1l1,1.7c0.2,0.3,0.5,0.5,0.9,0.6c0.4,0.1,0.7,0,1.1-0.1l5.6-3.2v6.4c0,0.4,0.1,0.7,0.4,1
	c0.3,0.3,0.6,0.4,1,0.4h2c0.4,0,0.7-0.1,1-0.4s0.4-0.6,0.4-1v-6.4l5.6,3.2c0.3,0.2,0.7,0.2,1.1,0.1c0.4-0.1,0.7-0.3,0.9-0.6l1-1.7
	c0.1-0.1,0.1-0.3,0.2-0.5C23.2,16.4,23.2,16.2,23.2,16.1z M22.2,16.6l-1,1.7c0,0.1-0.1,0.2-0.3,0.2c-0.1,0-0.2,0-0.3,0l-6-3.4
	c-0.2-0.1-0.5-0.1-0.7,0c-0.1,0-0.2,0.1-0.2,0.2s-0.1,0.2-0.1,0.4v6.8c0,0.1,0,0.2-0.1,0.3C13.2,22.9,13.1,23,13,23h-2
	c-0.1,0-0.2,0-0.3-0.1s-0.1-0.2-0.1-0.3v-6.8c0-0.1,0-0.2-0.1-0.4c0-0.1-0.1-0.2-0.2-0.2S10,15,9.9,15c-0.1,0-0.2,0-0.4,0.1l-6,3.4
	c-0.1,0-0.2,0.1-0.3,0c-0.1,0-0.2-0.1-0.3-0.2l-1-1.7c0-0.1,0-0.2,0-0.3c0-0.1,0.1-0.2,0.2-0.2l6-3.4c0.1,0,0.2-0.1,0.2-0.2
	c0.1-0.1,0.1-0.2,0.1-0.4s0-0.2-0.1-0.3c0-0.1-0.1-0.2-0.3-0.2L2,7.9c0,0-0.1,0-0.1-0.1c0,0,0-0.1-0.1-0.1c0,0,0-0.1,0-0.1
	c0,0,0-0.1,0-0.1l1-1.7c0-0.1,0.1-0.2,0.3-0.2c0.1,0,0.2,0,0.3,0l6,3.4c0.1,0,0.2,0.1,0.4,0.1c0.1,0,0.2,0,0.3-0.1
	c0.1,0,0.2-0.1,0.3-0.2c0-0.1,0.1-0.2,0.1-0.3V1.6c0-0.1,0-0.2,0.1-0.3C10.8,1.1,10.9,1,11,1h2c0.1,0,0.2,0,0.3,0.1
	c0.1,0.1,0.1,0.2,0.1,0.3v6.8c0,0.1,0,0.2,0.1,0.4c0,0.1,0.1,0.2,0.3,0.3c0.2,0.1,0.5,0.1,0.7,0l6-3.4c0.1,0,0.2-0.1,0.3,0
	c0.1,0,0.2,0.1,0.3,0.2l1,1.7c0,0.1,0,0.2,0,0.3c0,0.1-0.1,0.2-0.2,0.2l-6,3.4c-0.1,0-0.2,0.1-0.2,0.2c-0.2,0.1-0.2,0.2-0.2,0.3
	s0,0.2,0.1,0.4c0,0.1,0.1,0.2,0.2,0.2l6,3.4c0,0,0.1,0,0.1,0.1c0,0,0,0.1,0.1,0.1c0,0,0,0.1,0,0.1C22.3,16.5,22.2,16.6,22.2,16.6z"
	/>
</svg>
