<?xml version="1.0" encoding="utf-8"?>
<!-- Generator: Adobe Illustrator 25.4.1, SVG Export Plug-In . SVG Version: 6.00 Build 0)  -->
<svg version="1.1" id="Capa_1" xmlns="http://www.w3.org/2000/svg" xmlns:xlink="http://www.w3.org/1999/xlink" x="0px" y="0px"
	 viewBox="0 0 24 24" style="enable-background:new 0 0 24 24;" xml:space="preserve">
<style type="text/css">
	.st0{fill:#263238;}
</style>
<g>
	<path class="st0" d="M12,0C5.4,0,0,5.4,0,12s5.4,12,12,12s12-5.4,12-12S18.6,0,12,0z M12,1.8c5.6,0,10.1,4.5,10.1,10.1
		c0,1.8-0.5,3.5-1.3,5c0,0,0,0-0.1-0.1c-1.4-0.9-3-1.2-4.8-1.2c-1.8,0-3.4,0.5-4.8,1.3c-1.5,1-2.6,2.3-2.9,4
		c-0.1,0.1-0.1,0.3-0.1,0.5c-0.5-0.2-0.9-0.5-1.4-0.8c0,0,0.1-0.1,0.1-0.2c0.4-1.6,1.3-3,2.6-4.1c0.1,0,0.1-0.1,0.1-0.2
		c0.1-0.1,0.1-0.1,0-0.2c0-0.1-0.1-0.1-0.1-0.2c-0.1,0-0.1-0.1-0.2-0.1c-0.7-0.2-1.5-0.4-2.4-0.4c-1.3,0-2.8,0.4-3.9,1
		c-0.6-1.3-1-2.7-1-4.2C1.8,6.4,6.4,1.8,12,1.8z"/>
	<path class="st0" d="M13.1,12.8c0.8,0.8,1.8,1.2,2.8,1.2s2-0.4,2.8-1.2c0.8-0.8,1.2-1.9,1.2-2.9c0.1-1.2-0.3-2.3-1-3.1
		s-1.8-1.2-3-1.2c-1.1,0-2.2,0.4-2.9,1.2s-1.1,1.9-1.1,3.1C12,10.9,12.4,12,13.1,12.8z"/>
	<path class="st0" d="M3.3,10.8c0.2,1.9,1.7,3.5,3.3,3.5s3.2-1.6,3.4-3.6c0.1-1-0.2-1.9-0.9-2.6C8.5,7.5,7.6,7.1,6.6,7.1
		S4.8,7.4,4.1,8.1C3.6,8.8,3.2,9.8,3.3,10.8z"/>
</g>
</svg>
