<?xml version="1.0" encoding="utf-8"?>
<!-- Generator: Adobe Illustrator 25.4.1, SVG Export Plug-In . SVG Version: 6.00 Build 0)  -->
<svg version="1.1" id="Capa_1" xmlns="http://www.w3.org/2000/svg" xmlns:xlink="http://www.w3.org/1999/xlink" x="0px" y="0px"
	 viewBox="0 0 24 24" style="enable-background:new 0 0 24 24;" xml:space="preserve">
<style type="text/css">
	.st0{fill:#263238;}
</style>
<g>
	<path class="st0" d="M12.1,0.1C5.4,0,0,5.4,0.1,12.1c0.1,6.4,5.3,11.7,11.8,11.8C18.6,24,24,18.6,23.9,11.9
		C23.8,5.4,18.6,0.2,12.1,0.1z M19.4,18.9C19.4,18.9,19.4,18.9,19.4,18.9c-0.1,0-0.1,0-0.2,0c0,0,0,0-0.1,0c0,0,0,0-0.1,0
		c-0.5-0.7-1.1-1.2-1.8-1.7c-1.4-0.9-3.3-1.4-5.2-1.4s-3.7,0.5-5.2,1.4c-0.7,0.4-1.3,1-1.8,1.7c0,0,0,0-0.1,0s0,0-0.1,0
		c0,0,0,0-0.1,0c0,0,0,0-0.1,0c-1.7-1.8-2.6-4.2-2.7-6.7C1.8,6.6,6.4,1.9,12,1.9c5.6,0,10.1,4.5,10.1,10.1
		C22.1,14.5,21.2,17,19.4,18.9z"/>
	<path class="st0" d="M12,5.6c-1.1,0-2.1,0.4-2.9,1.2c-0.7,0.7-1.1,1.8-1,3C8.3,12,10,13.8,12,13.8s3.7-1.8,3.9-4.1
		c0.1-1.1-0.3-2.2-1-3C14.1,6,13.1,5.6,12,5.6z"/>
</g>
</svg>
