<?xml version="1.0" encoding="utf-8"?>
<!-- Generator: Adobe Illustrator 25.4.1, SVG Export Plug-In . SVG Version: 6.00 Build 0)  -->
<svg version="1.1" id="Capa_1" xmlns="http://www.w3.org/2000/svg" xmlns:xlink="http://www.w3.org/1999/xlink" x="0px" y="0px"
	 viewBox="0 0 24 24" style="enable-background:new 0 0 24 24;" xml:space="preserve">
<style type="text/css">
	.st0{fill:#263238;}
</style>
<g>
	<path class="st0" d="M12,11.6c2.7,0,5.1-2.6,5.3-5.7c0.1-1.6-0.4-3-1.4-4.1c-1-1.1-2.4-1.7-3.9-1.7S9.1,0.7,8.1,1.8
		S6.6,4.3,6.7,5.9C6.9,9,9.3,11.6,12,11.6z M8.8,2.4c0.8-0.9,2-1.3,3.2-1.3s2.4,0.5,3.2,1.3c0.8,0.9,1.2,2.1,1.1,3.4l0,0
		c-0.2,2.6-2.2,4.8-4.3,4.8S7.8,8.4,7.7,5.8C7.6,4.5,7.9,3.3,8.8,2.4z"/>
	<path class="st0" d="M22.9,22.1c-1-5.5-6.3-8-10.9-8s-10,2.5-10.9,8c-0.1,0.5,0,1,0.3,1.3c0.2,0.3,0.6,0.5,1,0.5h19.2
		c0.4,0,0.8-0.1,1-0.5C22.9,23.1,23,22.6,22.9,22.1z M21.9,22.8c0,0.1-0.1,0.1-0.3,0.1H2.4c-0.1,0-0.2,0-0.3-0.1
		C2,22.7,1.9,22.5,2,22.3c0.9-5,5.8-7.2,10-7.2s9.1,2.2,10,7.2C22,22.5,22,22.6,21.9,22.8z"/>
</g>
</svg>
