<?xml version="1.0" encoding="utf-8"?>
<!-- Generator: Adobe Illustrator 25.4.1, SVG Export Plug-In . SVG Version: 6.00 Build 0)  -->
<svg version="1.1" id="Capa_1" xmlns="http://www.w3.org/2000/svg" xmlns:xlink="http://www.w3.org/1999/xlink" x="0px" y="0px"
	 viewBox="0 0 24 24" style="enable-background:new 0 0 24 24;" xml:space="preserve">
<style type="text/css">
	.st0{fill:#263238;}
</style>
<g>
	<path class="st0" d="M23.2,1.3c-0.1-0.2-0.2-0.5-0.4-0.7c-0.2-0.2-0.4-0.3-0.6-0.4c-0.2-0.1-0.5-0.1-0.7-0.1H15
		c-0.3,0-0.6,0.1-0.9,0.4L1.2,14c-0.4,0.4-0.6,0.9-0.6,1.5s0.2,1.1,0.6,1.5l6.1,6.4c0.4,0.4,0.9,0.6,1.4,0.6s1-0.2,1.4-0.6L23,9.8
		c0.2-0.2,0.4-0.6,0.4-0.9V2.2C23.3,1.9,23.3,1.6,23.2,1.3z M22.4,8.9c0,0.1,0,0.1-0.1,0.2L9.5,22.7C9.1,23,8.4,23,8,22.7l-6.1-6.4
		c-0.2-0.2-0.3-0.5-0.3-0.8s0.1-0.6,0.3-0.8L14.7,1.2c0,0,0.1-0.1,0.2-0.1l0,0h6.4l0,0c0.1,0,0.3,0,0.4,0.1c0.1,0,0.2,0.1,0.3,0.2
		c0.1,0.1,0.2,0.2,0.2,0.3c0,0.1,0,0.2,0,0.4V8.9z"/>
	<path class="st0" d="M19.3,3.3c-0.3-0.1-0.6-0.1-1-0.1c-0.3,0-0.6,0.2-0.9,0.5C17.2,4,17,4.3,17,4.7c0,0.3,0,0.7,0.1,1
		c0.1,0.3,0.3,0.6,0.6,0.8c0.3,0.2,0.6,0.3,0.9,0.3c0.5,0,0.9-0.2,1.2-0.5c0.3-0.3,0.5-0.8,0.5-1.3c0-0.3-0.1-0.7-0.3-1
		C19.9,3.7,19.6,3.5,19.3,3.3z"/>
</g>
</svg>
