<?xml version="1.0" encoding="utf-8"?>
<!-- Generator: Adobe Illustrator 25.4.1, SVG Export Plug-In . SVG Version: 6.00 Build 0)  -->
<svg version="1.1" id="Capa_1" xmlns="http://www.w3.org/2000/svg" xmlns:xlink="http://www.w3.org/1999/xlink" x="0px" y="0px"
	 viewBox="0 0 24 24" style="enable-background:new 0 0 24 24;" xml:space="preserve">
<style type="text/css">
	.st0{fill:#263238;}
</style>
<g>
	<path class="st0" d="M18.2,0.1H5.8c-1.7,0-3.1,1.4-3.1,3.1v17.7c0,1.7,1.4,3.1,3.1,3.1h12.4c1.7,0,3.1-1.4,3.1-3.1V3.2
		C21.3,1.5,19.9,0.1,18.2,0.1z M20.4,20.8c0,1.2-1,2.1-2.1,2.1H5.8c-1.2,0-2.1-1-2.1-2.1V3.2C3.7,2,4.6,1,5.8,1h12.4
		c1.2,0,2.2,1,2.2,2.1V20.8z"/>
	<path class="st0" d="M16.5,4.5H7.6c-0.3,0-0.5,0.2-0.5,0.5s0.2,0.5,0.5,0.5h8.8c0.3,0,0.5-0.2,0.5-0.5S16.7,4.5,16.5,4.5z"/>
	<path class="st0" d="M16.5,8.9H7.6c-0.3,0-0.5,0.2-0.5,0.5c0,0.3,0.2,0.5,0.5,0.5h8.8c0.3,0,0.5-0.2,0.5-0.5
		C16.9,9.1,16.7,8.9,16.5,8.9z"/>
	<path class="st0" d="M12,13.3H7.6c-0.3,0-0.5,0.2-0.5,0.5c0,0.3,0.2,0.5,0.5,0.5H12c0.3,0,0.5-0.2,0.5-0.5
		C12.5,13.5,12.3,13.3,12,13.3z"/>
</g>
</svg>
