<?xml version="1.0" encoding="utf-8"?>
<!-- Generator: Adobe Illustrator 25.4.1, SVG Export Plug-In . SVG Version: 6.00 Build 0)  -->
<svg version="1.1" id="Capa_1" xmlns="http://www.w3.org/2000/svg" xmlns:xlink="http://www.w3.org/1999/xlink" x="0px" y="0px"
	 viewBox="0 0 24 24" style="enable-background:new 0 0 24 24;" xml:space="preserve">
<style type="text/css">
	.st0{fill:#263238;}
</style>
<g>
	<path class="st0" d="M23.6,0.8c-0.1-0.1-0.3-0.1-0.5,0l-1.4,0.7l-1.4-0.7c-0.1,0-0.3,0-0.4,0l-1.4,0.7l-1.4-0.7c-0.1,0-0.3,0-0.4,0
		l-1.4,0.7l-1.4-0.7c-0.1,0-0.3,0-0.4,0l-1.4,0.7l-1.4-0.7c-0.1,0-0.3,0-0.4,0L8.7,1.5L7.3,0.8c-0.1-0.1-0.3,0-0.5,0
		C6.7,0.9,6.6,1.1,6.6,1.2v14.3H1.3c-0.2,0-0.3,0-0.5,0.1c-0.1,0-0.3,0.1-0.4,0.3c-0.1,0.1-0.2,0.2-0.3,0.4S0,16.6,0,16.8
		c0,3.3,0.3,6.2,4.6,6.2h14.7c1.2,0,2.4-0.5,3.2-1.4c0.9-0.9,1.4-2,1.4-3.2v-5.7V1.2C23.9,1.1,23.8,0.9,23.6,0.8z M4.6,22
		C1.5,22,1,20.4,1,16.8c0,0,0-0.1,0-0.1c0,0,0-0.1,0-0.1c0,0,0,0,0.1,0c0,0,0.1,0,0.1,0l0,0h13.4v1.9c0,1.2,0.5,2.4,1.4,3.2
		c0.1,0.1,0.3,0.2,0.4,0.4H4.6z M22.9,18.4c0,1-0.3,1.9-1,2.6c-0.7,0.7-1.6,1.1-2.6,1.1c-1,0-1.9-0.4-2.6-1.1c-0.7-0.7-1-1.6-1-2.6
		V16c0-0.3-0.2-0.5-0.5-0.5H7.5V2l0.9,0.5c0.1,0,0.3,0,0.4,0l1.4-0.7l1.4,0.7c0.1,0,0.3,0,0.4,0l1.4-0.7L15,2.5c0.1,0,0.3,0,0.4,0
		l1.4-0.7l1.4,0.7c0.1,0,0.3,0,0.4,0l1.4-0.7l1.4,0.7c0.1,0,0.3,0,0.4,0L22.9,2v10.7V18.4L22.9,18.4z"/>
	<path class="st0" d="M20.1,5.7h-9.8c-0.3,0-0.5,0.2-0.5,0.5c0,0.3,0.2,0.5,0.5,0.5h9.8c0.3,0,0.5-0.2,0.5-0.5S20.4,5.7,20.1,5.7z"
		/>
	<path class="st0" d="M20.1,9.8h-6.5c-0.3,0-0.5,0.2-0.5,0.5s0.2,0.5,0.5,0.5h6.5c0.3,0,0.5-0.2,0.5-0.5S20.4,9.8,20.1,9.8z"/>
</g>
</svg>
