<?xml version="1.0" encoding="utf-8"?>
<!-- Generator: Adobe Illustrator 25.4.1, SVG Export Plug-In . SVG Version: 6.00 Build 0)  -->
<svg version="1.1" id="Capa_1" xmlns="http://www.w3.org/2000/svg" xmlns:xlink="http://www.w3.org/1999/xlink" x="0px" y="0px"
	 viewBox="0 0 24 24" style="enable-background:new 0 0 24 24;" xml:space="preserve">
<style type="text/css">
	.st0{fill:#263238;}
</style>
<g>
	<path class="st0" d="M9.9,14.9c0.1-0.2,0.1-0.5,0-0.7c0-0.2-0.1-0.4-0.3-0.6c-0.2-0.2-0.4-0.3-0.6-0.3c-0.2,0-0.5,0-0.7,0.1
		s-0.4,0.2-0.5,0.4c-0.1,0.2-0.2,0.4-0.2,0.7c0,0.3,0.1,0.6,0.4,0.9c0.2,0.2,0.5,0.3,0.9,0.3c0.2,0,0.5-0.1,0.7-0.2
		C9.7,15.3,9.8,15.1,9.9,14.9z"/>
	<path class="st0" d="M15.7,13.5c-0.2-0.2-0.4-0.3-0.6-0.3c-0.2,0-0.5,0-0.7,0.1c-0.2,0.1-0.4,0.2-0.5,0.4c-0.1,0.2-0.2,0.4-0.2,0.7
		c0,0.3,0.1,0.6,0.4,0.9s0.5,0.3,0.9,0.3c0.2,0,0.5-0.1,0.7-0.2c0.2-0.1,0.3-0.3,0.4-0.5c0.1-0.2,0.1-0.5,0-0.7
		C16,13.9,15.9,13.7,15.7,13.5z"/>
	<path class="st0" d="M14.1,18.2c0,0-0.1-0.1-0.1-0.1c0,0-0.1,0-0.2,0H9.8c0,0-0.1,0-0.2,0c0,0-0.1,0-0.1,0.1c0,0,0,0.1-0.1,0.2
		c0,0,0,0.1,0,0.2c0.1,0.6,0.4,1.1,0.8,1.4c0.4,0.3,1,0.5,1.5,0.5c0.6,0,1.1-0.1,1.5-0.5c0.4-0.3,0.7-0.9,0.8-1.4c0,0,0-0.1,0-0.2
		C14.1,18.4,14.1,18.3,14.1,18.2z"/>
	<path class="st0" d="M22.1,13.7c-0.4-0.4-1-0.7-1.6-0.7h-0.4v-0.4c0-2-1.6-3.6-3.6-3.6h-4.3V8.3c0.7-0.2,1.2-0.9,1.2-1.6
		c0-1-0.8-1.7-1.7-1.7s-1.7,0.8-1.7,1.7c0,0.8,0.5,1.4,1.2,1.6v0.8H7.4c-2,0-3.6,1.6-3.6,3.6v0.4H3.4c-0.6,0-1.2,0.2-1.6,0.7
		s-0.7,1-0.7,1.6v2.4c0,0.6,0.2,1.2,0.7,1.6s1,0.7,1.6,0.7h0.4v0.4c0,2,1.6,3.6,3.6,3.6h9.1c2,0,3.6-1.6,3.6-3.6V20h0.4
		c0.6,0,1.2-0.2,1.6-0.7c0.4-0.4,0.7-1,0.7-1.6v-2.4C22.8,14.7,22.6,14.2,22.1,13.7z M11.1,6.6c0-0.4,0.3-0.8,0.8-0.8
		c0.4,0,0.8,0.3,0.8,0.8c0,0.4-0.3,0.8-0.8,0.8C11.4,7.3,11.1,7,11.1,6.6z M3.4,19c-0.3,0-0.7-0.1-1-0.4c-0.2-0.2-0.4-0.6-0.4-1
		v-2.4c0-0.3,0.1-0.7,0.4-1c0.2-0.2,0.6-0.4,1-0.4h0.4v5H3.4z M16.5,23H7.4c-1.4,0-2.6-1.2-2.6-2.6v-7.7C4.8,11.2,6,10,7.4,10h9.1
		c1.4,0,2.6,1.2,2.6,2.6v6.7c0,0,0,0.1,0,0.1s0,0.1,0,0.1v0.7C19.2,21.8,18,23,16.5,23z M21.9,17.7c0,0.3-0.1,0.7-0.4,1
		c-0.2,0.2-0.6,0.4-1,0.4h-0.4v-5h0.4c0.3,0,0.7,0.1,1,0.4c0.2,0.2,0.4,0.6,0.4,1V17.7z"/>
	<path class="st0" d="M6.5,4.6l2.9,1.1c0,0,0.1,0,0.1,0c0.2,0,0.4-0.1,0.4-0.3c0.1-0.2,0-0.5-0.3-0.6L6.8,3.7
		c-0.2-0.1-0.5,0-0.6,0.3C6.1,4.2,6.2,4.5,6.5,4.6z"/>
	<path class="st0" d="M11.8,4.1c0.3,0,0.5-0.2,0.5-0.5V0.5c0-0.3-0.2-0.5-0.5-0.5s-0.5,0.2-0.5,0.5v3.1C11.4,3.9,11.6,4.1,11.8,4.1z
		"/>
	<path class="st0" d="M13.9,5.7c0,0,0.1,0,0.1,0L17,4.6c0.2-0.1,0.4-0.4,0.3-0.6c-0.1-0.2-0.4-0.4-0.6-0.3l-2.9,1.1
		c-0.2,0.1-0.4,0.4-0.3,0.6C13.6,5.5,13.7,5.7,13.9,5.7z"/>
</g>
</svg>
