<?xml version="1.0" encoding="utf-8"?>
<!-- Generator: Adobe Illustrator 25.4.1, SVG Export Plug-In . SVG Version: 6.00 Build 0)  -->
<svg version="1.1" id="Capa_1" xmlns="http://www.w3.org/2000/svg" xmlns:xlink="http://www.w3.org/1999/xlink" x="0px" y="0px"
	 viewBox="0 0 24 24" style="enable-background:new 0 0 24 24;" xml:space="preserve">
<style type="text/css">
	.st0{fill:#263238;}
</style>
<g>
	<g>
		<path class="st0" d="M7.4,15.6c-0.1,0-0.3,0-0.3-0.1c-0.2-0.2-0.1-0.5,0-0.7C8.4,13.6,10.2,13,12,13s3.5,0.7,4.9,1.8
			c0.2,0.2,0.2,0.5,0,0.7c-0.2,0.2-0.5,0.2-0.7,0c-1.2-1.1-2.7-1.6-4.3-1.6c-1.6,0-3.1,0.6-4.3,1.6C7.6,15.6,7.5,15.6,7.4,15.6z"/>
	</g>
	<g>
		<path class="st0" d="M20.2,12c-0.1,0-0.2,0-0.3-0.1c-2.1-2-4.9-3.1-7.9-3.1s-5.8,1.1-7.9,3.1c-0.2,0.2-0.5,0.2-0.7,0
			c-0.2-0.2-0.2-0.5,0-0.7C5.7,8.9,8.8,7.7,12,7.7s6.3,1.2,8.6,3.4c0.2,0.2,0.2,0.5,0,0.7C20.5,11.9,20.4,12,20.2,12z"/>
	</g>
	<g>
		<path class="st0" d="M0.5,7.9c-0.1,0-0.2,0-0.3-0.1C0,7.5,0,7.2,0.2,7.1C3.4,4.1,7.6,2.5,12,2.5s8.6,1.6,11.8,4.5
			c0.2,0.2,0.2,0.5,0,0.7c-0.2,0.2-0.5,0.2-0.7,0C20.1,5,16.1,3.5,12,3.5S3.9,5,0.8,7.8C0.7,7.9,0.6,7.9,0.5,7.9z"/>
	</g>
	<g>
		<path class="st0" d="M12,21.5c-0.4,0-0.7-0.1-1.1-0.3c-0.3-0.2-0.6-0.5-0.7-0.9c-0.1-0.3-0.2-0.7-0.1-1.1c0.1-0.4,0.2-0.7,0.5-1
			c0.3-0.3,0.6-0.4,1-0.5c0.4-0.1,0.8,0,1.1,0.1c0.3,0.1,0.6,0.4,0.9,0.7c0.2,0.3,0.3,0.7,0.3,1.1c0,0.5-0.2,1-0.6,1.4
			C13,21.3,12.5,21.5,12,21.5z"/>
	</g>
</g>
</svg>
